<svg width="91" height="92" viewBox="0 0 91 92" fill="none" xmlns="http://www.w3.org/2000/svg">
<path d="M0.00488033 35.1855C0.407365 34.2747 1.12791 33.8138 2.03613 33.4062C2.74254 30.9013 3.64552 28.4847 4.59375 26.0576C4.06648 25.3872 3.35667 24.6541 3.25781 23.7852C3.19574 23.2395 3.30155 22.8882 3.64453 22.4609L4.12597 22.416C5.19675 22.7881 5.47726 23.3807 5.97656 24.3018C6.16765 23.8025 6.33865 23.1756 6.61035 22.7158C6.9049 22.2177 7.05083 22.225 7.59472 22.0439L7.6748 22.0752C8.3857 21.7245 8.65524 20.9358 9.00097 20.2773C8.97344 20.2482 8.9462 20.2183 8.91797 20.1895C8.4652 19.7278 7.92241 19.2528 7.67773 18.6514C7.46145 18.1192 7.5251 17.7545 7.73925 17.2412C8.04943 17.0733 8.11653 16.993 8.48925 16.9902C9.48484 16.9834 10.1467 17.7749 10.8184 18.3809L13.3887 16.0273C13.1813 15.398 12.875 14.7104 13.1455 14.0566C13.3098 13.6593 13.5236 13.4376 13.9717 13.3643C14.5557 13.2689 15.0804 13.6585 15.541 13.9453C16.7371 13.0148 24.1598 7.19459 24.751 7.00781C25.2393 7.09112 25.3615 7.0852 25.7246 7.39746L25.7119 7.79492C25.1533 8.86111 24.2107 9.45666 23.1982 10.0732C26.1221 9.2632 29.2661 8.28422 32.2686 7.84765C33.8255 7.62115 35.7654 8.35252 37.2227 7.76172C37.525 7.40275 37.6607 7.17275 38.125 7.00097C38.9911 7.12733 39.7836 7.57287 40.6328 7.65722C41.7898 7.77221 42.9778 7.7275 44.1445 7.84179C51.2735 8.54068 57.8813 10.3291 63.7959 14.3633C70.4934 18.9308 77.4602 28.7868 80.2988 36.1426C81.6413 39.6211 82.3639 43.2689 83 46.915C83.799 47.4573 84.6124 48.102 85.001 48.9844C84.8277 49.6554 84.2759 49.7754 83.8447 50.291C83.2793 50.9679 83.5049 51.9157 83.5645 52.7285C83.6014 53.9805 83.5125 55.2412 83.3809 56.4863C82.4219 65.5638 78.8401 72.521 71.457 78.2969L72.8301 79.7373C72.4566 80.3425 72.0796 81.0389 71.293 81.1904C70.1608 81.409 68.9494 80.4902 68.0371 79.9541C67.6817 80.253 65.7349 81.6469 65.7363 82.0303C65.7396 82.4052 66.0624 82.754 65.9473 83.1465C65.8259 83.5587 65.4934 83.8765 65.0928 84.0537C64.4248 84.3501 63.1626 83.6986 62.5225 83.4541C61.308 84.0982 60.0872 84.5745 58.7881 85.042C59.0984 85.3143 59.3842 85.5788 59.5693 85.9482C59.7798 86.3675 59.7247 86.795 59.5762 87.2187C59.3854 87.4169 59.2141 87.5824 58.9502 87.6904C57.217 88.3989 56.1431 87.4825 54.6094 86.9189C54.1325 86.7438 53.8828 86.6875 53.4072 86.8613C53.1016 87.3047 52.8438 87.66 52.4043 87.998C51.5947 88.1471 50.9848 87.8493 50.251 87.5674C49.8535 87.6837 49.6832 87.7299 49.374 88.0166C49.011 88.3532 49.2616 88.1726 48.8672 88.4492C48.2276 88.8974 46.7927 88.5047 46.0488 88.3896C46.7233 89.1005 47.4363 89.5291 48.2227 90.1016C48.721 90.4644 48.9205 90.7862 49.0156 91.3711C48.785 91.6929 48.6778 91.8959 48.2402 91.9785C46.5791 92.2911 43.7122 89.1596 42.3564 88.2978C40.7021 87.247 37.8203 87.3417 35.8906 86.7627C31.5579 85.4627 27.0888 83.2593 23.3613 80.7988C12.9492 73.9261 4.6204 63.9292 1.94824 51.9062C1.06459 47.9302 1.01236 43.8963 0.243162 39.9248C0.174297 39.3675 0.161913 38.9338 0.554685 38.4814C2.0364 36.7763 -0.106696 36.9889 0.00488033 35.1855ZM64.7852 36.6982C67.2483 39.3055 69.9823 41.6712 72.5225 44.208C74.7048 46.3874 76.7056 48.7606 78.9824 50.8457C79.4308 51.2566 80.2914 52.1565 80.9014 52.2051C80.9308 52.2072 80.9605 52.1997 80.9902 52.1973L81.001 49.0693C78.1966 47.3702 66.4124 37.0631 64.7852 36.6982ZM58.5293 40.2051C63.2926 44.4284 68.1164 48.4 72.4678 53.0557C74.1595 54.8657 78.0017 59.7542 80.0537 60.7109C80.3413 60.5286 80.2657 60.6515 80.3301 60.374C80.615 59.1801 80.7986 58.0123 80.8643 56.7861C77.9869 54.9841 75.1922 53.0659 72.4814 51.0342C70.4955 49.5529 59.748 40.1894 58.5293 40.2051ZM66.3291 26.3311C68.6778 29.7355 71.1841 33.0278 73.8467 36.2061C75.8104 38.5187 77.9143 40.7215 79.7432 43.1396C79.4 41.8213 79.0081 40.5631 78.5098 39.292C76.5128 34.8331 73.4708 31.9327 70.0791 28.4521C69.1475 27.4965 68.1882 26.2207 67.1182 25.4326C67.3455 25.7627 68.3439 26.9716 68.3428 27.2773C67.8113 26.8568 67.1973 26.1091 66.5518 25.9717C66.3356 26.2765 66.382 26.1457 66.3291 26.3311ZM54.2412 45.0205C56.0168 46.4395 57.8103 47.8467 59.4697 49.3955C61.812 51.5816 76.4947 66.3458 77.6934 66.8506C78.055 66.6034 77.9013 66.7568 78.1465 66.3799L79.0117 64.3535C76.4793 62.7878 74.1358 61.0893 71.8213 59.2324C69.3113 57.2187 56.0709 45.2307 54.2412 45.0205ZM44.4287 45.6289C46.3408 47.2376 48.2752 48.8325 50.1406 50.4922C53.402 53.3948 73.1958 71.7454 74.5117 72.0947C74.8749 71.9276 75.0821 71.7455 75.3604 71.4658L75.8047 70.8144C75.5701 70.0138 73.265 68.656 72.4844 68.0811C69.7223 66.0427 67.0372 63.9129 64.4277 61.6924C61.467 59.1933 47.2489 46.6159 44.8652 45.666C44.7259 45.6109 44.5738 45.6012 44.4287 45.6289ZM36.7744 46.9541C38.8553 49.5962 43.1499 53.142 45.7676 55.5801C52.7375 62.0719 62.053 71.5374 69.9268 76.5557C70.2451 76.4707 70.4997 76.3771 70.7881 76.2207C70.4778 75.3598 64.4381 71.3072 63.2324 70.4023C60.6415 68.458 58.2055 66.1693 55.8018 64.0088C51.7183 60.3119 47.6565 56.5922 43.6162 52.8506C42.2441 51.585 38.4561 47.6707 37.1182 47.0117C36.9392 46.9236 36.9672 46.9451 36.7744 46.9541ZM34.9941 55.0986C35.6536 55.9936 36.4715 56.758 37.2578 57.5469C37.0537 57.7956 36.6665 58.1102 36.7061 58.4355C36.8626 59.7191 38.5478 60.4294 39.2227 61.4658C39.7564 61.9418 40.2951 62.4127 40.8389 62.8779C41.9701 64.2939 42.9472 65.2763 44.501 66.2461C44.7052 66.4229 44.9052 66.5705 45.1406 66.7061C47.7463 68.2071 49.7883 70.6631 52.1025 72.5781C55.6768 75.485 59.4287 78.1583 63.3564 80.5957C64.0662 80.0128 64.833 79.558 65.623 79.0889C56.8008 74.6825 49.3831 67.5915 42.1016 61.1562C40.2245 59.498 37.0437 56.1406 34.9941 55.0986ZM43.2129 71.0303C47.3956 75.5434 51.8242 79.732 56.7324 83.5078L59.1006 82.7842C58.9777 82.3068 58.1068 81.9618 57.6699 81.7051C54.3264 79.7419 51.2383 77.6304 48.2617 75.1728C46.6388 73.8327 45.0419 72.0486 43.251 70.9639L43.2129 71.0303ZM38.1289 10.3691C40.242 12.0082 57.4787 24.202 58.4258 24.1982L58.4033 24.042C56.194 22.0389 43.1207 12.3134 42.5713 11.042L42.6738 10.4619C41.9046 9.89305 39.7468 9.96488 38.8057 10.0801C38.4666 10.1213 38.3816 10.1355 38.1289 10.3691ZM50.5039 11.3428C50.9891 11.9192 51.4361 12.5938 52.2676 12.6455C52.6074 12.6663 52.7195 12.54 52.999 12.3828C52.31 11.7465 51.5922 11.3919 50.6553 11.2344L50.5039 11.3428ZM30.1094 11.1201C32.6208 13.1538 51.8325 27.8324 52.5586 27.9922L52.4053 27.7012C48.8374 23.5326 41.8742 18.4946 37.4912 14.7764C35.8691 13.4002 34.5504 11.6706 32.9033 10.3447C32.1219 10.4814 30.8135 10.5378 30.1689 10.9678L30.1094 11.1201ZM22.0918 13.248C23.7978 14.1402 25.4115 15.109 26.9873 16.2031C29.3278 17.8286 49.7734 33.1648 50.5293 33.0732L49.958 32.5439C43.5791 27.1774 36.8201 22.2299 30.6787 16.6035C29.0306 15.0938 27.168 13.5548 25.834 11.7686C24.8051 12.1357 22.872 12.5618 22.0918 13.248ZM34.623 77.0635C37.8923 80.0453 41.0794 83.2162 44.5234 86.001C45.8339 85.7241 47.0913 85.6022 48.4268 85.5176C48.0419 85.0061 36.4461 77.9544 34.8242 77.0088L34.623 77.0635ZM17.8193 15.5049C20.9046 17.5786 23.7352 20.1545 26.6143 22.4961C30.4978 25.6546 34.5348 28.5015 38.6299 31.3877C40.2848 32.5543 41.8124 33.881 43.5478 34.9355L43.6318 34.8603C43.4122 34.6043 43.1979 34.3448 42.959 34.1055C38.2327 30.0778 33.2869 26.3096 28.6387 22.1924C25.6444 19.5399 22.8895 16.2307 19.5781 13.9766C18.9211 14.4524 18.3313 14.872 17.8193 15.5049ZM13.6719 19.1602C16.2343 21.0354 30.1549 33.9282 31.9053 34.1123C31.7002 33.8666 31.5043 33.6201 31.2764 33.3945C27.0289 29.6463 22.9122 25.8433 19.0342 21.7266C17.7405 20.3535 16.2995 18.954 15.2627 17.3838C14.6875 17.9454 14.0877 18.4719 13.6719 19.1602ZM9.95898 23.6992C11.2036 25.0107 12.4881 26.2843 13.8115 27.5205C15.54 29.1146 29.8432 41.8189 30.7988 42.125C30.6997 41.7589 30.5842 41.61 30.3125 41.3408C26.3397 37.6589 13.3185 25.9834 11.2637 22.0479L9.95898 23.6992ZM24.2344 58.5713C24.4817 58.9401 24.6788 59.1174 25.0625 59.3594C25.1137 59.3916 25.4287 59.5789 25.4805 59.6318C25.8836 60.0468 25.4138 60.1757 25.4912 60.668C26.0028 60.6873 26.3582 60.5795 26.832 60.4189L27.0156 60.3555L27.0039 60.5488L27.002 60.5488L26.6797 60.9531C26.7915 61.5012 27.346 61.9971 27.8076 62.3018C28.3251 62.6435 28.8561 62.8697 29.4834 62.7529C29.5401 62.3841 29.3985 62.2916 29.1777 61.9922C28.9827 61.728 28.7689 61.4742 28.5488 61.2256L27.8818 60.4883C27.3739 59.6223 26.6087 58.5631 25.7568 58C25.324 57.7135 25.0985 57.6908 24.5977 57.7754C24.3339 58.1044 24.2861 58.1615 24.2344 58.5713ZM9.12109 63.4014C14.2676 70.8447 20.3019 77.0592 28.416 81.4961C28.7014 81.4563 28.6178 81.5197 28.7266 81.4121C24.248 77.7295 19.8243 74.0345 15.6855 69.9824C13.469 67.8124 11.4787 65.4279 9.26465 63.2627L9.12109 63.4014ZM4.8164 37.1416C8.38807 41.4464 12.0518 45.6273 15.7861 49.7979C18.4072 52.7254 20.9768 55.6747 23.876 58.3496C24.305 57.9028 24.9094 57.4216 24.9775 56.793C24.7965 56.0944 24.0939 55.501 23.6064 54.9727C19.505 50.0878 15.5484 45.0936 11.7373 39.9912C9.71679 37.3336 7.59105 34.7495 5.84375 31.9072C5.14147 33.5312 4.86065 35.3868 4.8164 37.1416ZM4.30273 41.0137C3.9434 41.5311 3.98759 42.3651 4.02539 42.9844C4.07817 44.1777 4.14966 45.3744 4.17285 46.5684C4.75983 46.2984 5.00462 46.1013 5.65918 46.1758C6.76644 46.9835 7.66033 48.066 8.62207 49.0312C10.4108 50.7944 12.1742 52.5829 13.9131 54.3926C14.4915 54.9967 15.0486 55.778 15.6709 56.3145C15.9302 56.538 16.2319 56.5968 16.5605 56.6592C16.5926 57.2057 16.5325 57.2714 16.918 57.6572C17.3044 57.7665 17.6811 57.8589 18.0732 57.9463C18.4005 58.0195 18.5033 58.0979 18.7324 58.3232L18.666 58.5859L18.0596 58.9082C18.0778 59.2943 18.2912 59.563 18.6113 59.8076C19.0785 60.1643 19.7204 60.1496 20.2871 60.1846L20.6533 60.458C20.4441 60.8177 20.5824 60.6583 20.2246 60.9277C20.895 61.9816 22.6552 63.4795 23.708 64.2061C24.1271 64.0301 24.131 63.9538 24.3643 63.5635L24.3359 63.2686L23.5186 63.5146L23.3887 63.376C23.5113 63.1599 23.6261 62.9831 23.7744 62.7861L23.7705 62.7207L23.2402 62.4492C23.2356 62.1205 23.2032 62.2771 23.3311 61.9775C22.7694 61.7366 22.1652 62.0509 21.6445 61.8535C22.0536 61.6939 22.4507 61.5278 22.8477 61.3408L22.8457 61.1133L22.501 60.8867C22.1849 60.9685 21.4397 61.2875 21.1523 61.2051C21.4166 60.9046 21.658 60.7668 22.0156 60.584L21.8232 60.5391L22.1338 60.4941C21.4284 59.266 18.8975 57.0066 17.8086 55.8262C15.3382 53.1573 12.8825 50.4745 10.4424 47.7793C8.9218 46.0708 6.08003 42.1206 4.30273 41.0137ZM6.91992 29.3047C10.7448 32.4177 14.1208 36.3045 17.5869 39.7998C18.7426 40.9651 19.8856 42.28 21.1768 43.2939L20.8096 42.6182C18.2576 39.8311 15.6563 37.0956 13.165 34.2559C11.4045 32.2488 9.74789 29.9781 7.77441 28.1768L7.45019 28.1699C7.09405 28.5473 7.04077 28.8212 6.91992 29.3047ZM4.64355 49.1221C4.42072 49.4637 4.50218 49.5015 4.55176 49.8857C4.66119 50.5118 4.75082 51.148 4.88379 51.7695C7.68215 54.051 9.98272 56.6302 12.4102 59.2656C13.9135 60.8979 15.4778 62.7148 17.2861 64.0303L17.4707 64.0059L17.0566 63.4365C14.0101 60.9117 10.2419 56.2693 7.74414 53.1338C6.8589 52.0227 5.7731 49.913 4.64355 49.1221Z" fill="#54E6ED"/>
<path d="M54.7568 43.4701C53.7638 43.5596 52.8554 43.459 51.9893 43.0531C50.557 42.3818 49.6384 41.0273 49.084 39.4838L48.7813 38.64L48.2227 39.3412C47.5045 40.2433 46.7022 40.9419 45.6699 41.3705C44.4243 41.8873 43.0639 41.8546 41.8096 41.3343C40.5864 40.8269 39.5684 39.9373 39.0137 38.7758L38.9092 38.5394C38.3413 37.157 38.5568 35.8384 39.1514 34.4056L39.4717 33.6332L38.6406 33.7162C38.2616 33.7538 37.9076 33.7568 37.5469 33.7191L37.1826 33.6674C35.9553 33.4507 34.8314 32.8231 34.1611 31.8207C33.5561 30.9157 33.3532 29.7245 33.6064 28.6615C33.9432 27.2474 34.9819 26.3075 36.2959 25.4926L36.8428 25.1537L36.3799 24.7074C35.8732 24.2197 35.4608 23.7545 35.1494 23.1791L35.1484 23.1781C35.113 23.1128 35.0789 23.0467 35.0469 22.9799L34.9561 22.7767C34.9272 22.7078 34.9002 22.6383 34.875 22.5687C34.8497 22.4988 34.8254 22.4286 34.8037 22.3578C34.7821 22.287 34.7626 22.2153 34.7441 22.1429C34.726 22.0709 34.7096 21.9991 34.6953 21.9271L34.6953 21.9261C34.6807 21.8533 34.668 21.7802 34.6572 21.7074C34.6463 21.6337 34.637 21.5599 34.6299 21.4867L34.6299 21.4857L34.6133 21.264C34.6099 21.19 34.6082 21.1157 34.6084 21.0414C34.6086 20.9675 34.6113 20.8932 34.6152 20.8187C34.6191 20.7451 34.6242 20.671 34.6318 20.597C34.6395 20.523 34.6489 20.4494 34.6602 20.3763L34.6611 20.3754C34.6722 20.3026 34.6852 20.2297 34.7002 20.1576L34.7002 20.1566C34.7151 20.0838 34.7315 20.0119 34.75 19.9408C34.7686 19.8691 34.7888 19.7984 34.8105 19.7289C35.1588 18.6377 36.0173 17.7164 37.0674 17.1869C38.2311 16.6003 39.7493 16.489 40.9775 16.9232C41.8334 17.2257 42.3988 17.7435 42.7891 18.5541L43.2168 19.4427L43.6807 18.5726C44.1711 17.653 44.71 16.87 45.4209 16.1302C46.1157 15.5181 46.8738 15.0723 47.75 14.7953C49.1848 14.3418 50.6656 14.3933 51.9785 15.0736C53.5567 15.8913 54.4471 17.3448 54.9922 19.0873L55.2217 19.8226L55.7998 19.3129C56.6139 18.5943 57.3945 17.9141 58.3076 17.5472C59.3993 17.1089 60.6849 17.1211 61.7451 17.6088C62.6494 18.0247 63.3681 18.7866 63.668 19.7113C64.0409 20.8618 63.7021 21.8574 63.1113 23.0375L62.8936 23.472L63.3223 23.7025C65.4787 24.8588 67.3117 25.9586 68.123 28.142C68.6817 29.6453 68.6201 31.1465 67.9326 32.5941C67.2571 34.016 65.9672 35.2793 64.4932 35.7845C63.067 36.2732 61.8782 35.9634 60.4727 35.2777L59.7471 34.9232L59.7539 35.7308C59.7719 37.7284 59.4335 39.8217 58.3311 41.4193C57.477 42.6569 56.2808 43.1946 54.7568 43.4701Z" fill="#DAEEEE" stroke="black"/>
<path d="M27.6973 24.5533C29.3989 24.3985 30.9792 24.5683 32.4932 25.278C34.9915 26.4489 36.5668 28.7986 37.5068 31.4156L37.8096 32.2594L38.3682 31.5582C39.5892 30.0245 40.9696 28.8176 42.7568 28.0758L42.7559 28.0748C44.9196 27.177 47.279 27.2378 49.4453 28.1364C51.6892 29.0672 53.5469 30.7527 54.46 32.9752C55.4535 35.3938 55.0639 37.6905 54.0557 40.1198L53.7354 40.8922L54.5664 40.8092C55.4362 40.7229 56.2344 40.7439 57.0869 40.8942C59.2018 41.2676 61.1638 42.3532 62.3418 44.1149C63.3369 45.6033 63.7091 47.5251 63.3867 49.2916L63.3135 49.6422C62.7211 52.1302 60.8946 53.7581 58.6816 55.1305L58.1348 55.4694L58.5986 55.9156C59.4537 56.7386 60.1694 57.5418 60.7119 58.5446V58.5455C60.7737 58.6592 60.8328 58.7738 60.8887 58.8903C60.9448 59.0074 60.9981 59.125 61.0479 59.2438V59.2448C61.098 59.3643 61.1446 59.4848 61.1885 59.6061C61.2325 59.7277 61.2737 59.85 61.3115 59.9733C61.3492 60.0964 61.384 60.2208 61.416 60.3463V60.3473C61.4477 60.4728 61.477 60.5982 61.502 60.7242V60.7252C61.5274 60.8522 61.5495 60.9797 61.5684 61.1071C61.5873 61.2353 61.6028 61.3638 61.6152 61.4918V61.4928L61.6436 61.8795C61.6494 62.0082 61.6526 62.1372 61.6523 62.2662C61.6521 62.3951 61.6484 62.5246 61.6416 62.6539C61.6348 62.7826 61.6246 62.9119 61.6113 63.0406C61.598 63.1692 61.5812 63.2971 61.5615 63.4244V63.4254C61.5421 63.5526 61.5193 63.6794 61.4932 63.8053V63.8073C61.4672 63.934 61.4385 64.0599 61.4062 64.1842C61.3738 64.3091 61.338 64.4323 61.2998 64.5543C60.6885 66.47 59.1904 68.07 57.3721 68.9869C55.3536 70.0048 52.7283 70.198 50.5928 69.443C49.0817 68.9089 48.0725 67.9845 47.3848 66.5563L46.957 65.6676L46.4932 66.5377C45.6609 68.0983 44.7415 69.4334 43.5244 70.6969C42.3331 71.7477 41.0268 72.5154 39.5166 72.9928C37.0547 73.7709 34.4942 73.6881 32.2158 72.5074C29.4763 71.0881 27.952 68.5714 27.0293 65.6217L26.7988 64.8864L26.2207 65.3961C24.9562 66.5124 23.6971 67.6143 22.2393 68.2721L21.9453 68.3981C20.0448 69.1614 17.8056 69.1429 15.9512 68.2897C14.3674 67.5612 13.1003 66.2228 12.5693 64.5846C11.9048 62.5345 12.5237 60.7699 13.5156 58.7887L13.7334 58.3541L13.3047 58.1246C9.71851 56.2018 6.54954 54.3178 5.14844 50.5475C4.18624 47.9581 4.2936 45.3624 5.47852 42.8678C6.63722 40.4288 8.85044 38.2526 11.4043 37.3776C13.9024 36.5216 15.9811 37.0805 18.3574 38.2399L19.084 38.5944L19.0771 37.7858C19.0469 34.4268 19.6141 30.8584 21.5078 28.1139C23.0039 25.9457 25.101 25.0201 27.6973 24.5533Z" fill="white" stroke="black"/>
<path d="M20.0029 38.6182C21.5891 38.6182 23.0353 38.8522 24.3416 39.32C25.6947 39.7878 26.5347 40.5361 26.8613 41.5652C27.841 44.138 28.8905 47.0851 30.0102 50.4063C31.13 53.7275 32.2736 57.1889 33.44 60.7908C34.6064 64.3926 35.726 67.901 36.7991 71.3157C37.8722 74.7304 38.8287 77.8177 39.6685 80.5776C39.2019 81.0922 38.5485 81.5132 37.7087 81.8407C36.9155 82.1681 35.9824 82.3318 34.9094 82.3318C33.3699 82.3318 32.2501 82.0513 31.5503 81.4901C30.8971 80.882 30.3835 79.9694 30.0102 78.7532L27.7543 71.5264H11.9211C11.7963 71.9321 11.6669 72.3531 11.5344 72.7895C11.2545 73.8653 10.928 74.9646 10.5548 76.0871C10.2282 77.163 9.90179 78.1923 9.5752 79.1746C9.29529 80.1568 9.03844 81.0221 8.80518 81.7705C8.33861 81.9108 7.82503 82.0281 7.26515 82.1216C6.75202 82.2619 6.12228 82.3317 5.37599 82.3318C3.88307 82.3318 2.69315 82.0513 1.80669 81.4901C0.966875 80.882 0.546875 79.9929 0.546875 78.8234C0.546888 78.3089 0.617077 77.771 0.757035 77.2097C0.943654 76.6484 1.13027 76.0168 1.31689 75.3151C1.78345 73.7715 2.41292 71.8536 3.20605 69.5616C3.99921 67.2227 4.86261 64.6967 5.79574 61.9836C6.72887 59.2705 7.68529 56.534 8.66507 53.7741C9.69151 51.0142 10.6479 48.4413 11.5344 46.0557C12.4208 43.6234 13.1907 41.5887 13.8439 39.9515C14.4038 39.6241 15.2672 39.3197 16.4336 39.039C17.5999 38.7584 18.7899 38.6182 20.0029 38.6182ZM48.7633 38.548C50.3962 38.548 51.5861 38.8518 52.3326 39.4599C53.0791 40.0212 53.4523 41.0974 53.4523 42.6878V81.5597C53.079 81.7001 52.5192 81.8174 51.7727 81.9109C51.0262 82.0512 50.233 82.121 49.3932 82.1211C47.7135 82.1211 46.5003 81.8172 45.7538 81.2091C45.0074 80.5543 44.6342 79.4785 44.6341 77.9818V39.1093C45.0074 39.0157 45.5906 38.899 46.3837 38.7587C47.1769 38.6183 47.9701 38.548 48.7633 38.548ZM19.9328 46.3366C19.3263 48.0206 18.6495 49.9384 17.903 52.0902C17.2032 54.2419 16.4567 56.4871 15.6636 58.8259C14.982 60.7956 14.3358 62.714 13.7231 64.58H26.077C25.3818 62.3643 24.6871 60.189 23.9919 58.0544C23.2921 55.7156 22.6153 53.5403 21.9621 51.5289C21.3089 49.5175 20.7491 47.7867 20.2825 46.3366H19.9328Z" fill="#FBDB20"/>
<path d="M15.6636 42.7439C13.3171 47.852 11.5344 55.879 11.5344 55.879L12.7698 58.0544L10.5548 65.9128L13.8439 71.5264H11.9211C11.9211 71.5264 11.6669 72.353 11.5344 72.7895C11.2545 73.8653 10.928 74.9645 10.5548 76.0871C10.2282 77.163 9.90179 78.1922 9.5752 79.1746C9.29529 80.1568 9.03844 81.022 8.80518 81.7704C8.33861 81.9107 7.82503 82.028 7.26515 82.1216C6.75202 82.2618 6.12228 82.3317 5.37599 82.3317C3.88307 82.3317 2.69315 82.0513 1.80669 81.49C0.966875 80.8819 0.546875 79.9928 0.546875 78.8234C0.546888 78.3089 0.617077 77.771 0.757035 77.2097C0.943654 76.6484 1.13027 76.0167 1.31689 75.3151C1.78345 73.7714 2.41292 71.8535 3.20605 69.5615C3.99921 67.2226 4.86261 64.6967 5.79574 61.9836C6.72887 59.2705 7.68529 56.5339 8.66507 53.7741C9.69151 51.0142 10.6479 48.4413 11.5344 46.0556C12.4208 43.6233 13.1907 41.5886 13.8439 39.9515C14.4038 39.624 15.2672 39.3197 16.4336 39.039C17.5999 38.7584 16.4336 39.9515 15.6636 42.7439Z" fill="#F3A835"/>
<path d="M46.3844 65.1829C48.0173 65.1829 49.2072 65.4867 49.9537 66.0948C50.7002 66.6561 51.0734 67.7323 51.0734 69.3227L51.7734 81.9108C51.0269 82.0511 50.2336 82.1209 49.3938 82.1209C47.7142 82.1209 46.501 81.8171 45.7545 81.209C45.008 80.5541 44.6348 79.4783 44.6348 77.9816V39.1091C45.008 39.0155 45.5912 38.8988 46.3844 38.7585C47.1775 38.6182 45.5912 65.1829 46.3844 65.1829Z" fill="#F3A835"/>
<path d="M20.3091 38.0737C21.8292 38.102 23.2345 38.3431 24.5204 38.8027C25.9721 39.3045 26.9788 40.147 27.3777 41.3824C28.3593 43.9604 29.4096 46.9104 30.5293 50.2314L31.3741 52.7502C32.2233 55.2953 33.0857 57.9194 33.9609 60.6222L34.8275 63.3071C35.6851 65.9745 36.5165 68.5894 37.3217 71.1516L38.1049 73.6523C38.8663 76.0916 39.5622 78.347 40.1925 80.4183L40.283 80.7151L40.0742 80.9453C39.5383 81.5363 38.809 81.9974 37.9174 82.3463L37.9178 82.3467C37.0987 82.6847 36.1624 82.8567 35.1197 82.8769L34.9098 82.879C33.3267 82.879 32.0538 82.5948 31.2084 81.9169L31.1924 81.9045L31.1778 81.8906C30.4311 81.1954 29.8782 80.1862 29.4881 78.9161L27.3524 72.0738H12.3263C12.2398 72.3553 12.1508 72.6433 12.0612 72.9386C11.7787 74.0231 11.4501 75.1303 11.0746 76.2598C10.7487 77.3329 10.4228 78.3603 10.0965 79.3419C9.8176 80.3201 9.56179 81.1842 9.32828 81.9333L9.2417 82.2109L8.96342 82.2946C8.4781 82.4406 7.94903 82.5608 7.37854 82.657C6.88252 82.7891 6.3085 82.8598 5.66324 82.8754L5.37641 82.879C3.82171 82.879 2.51804 82.5881 1.51433 81.9526L1.50008 81.9433L1.48618 81.9333C0.515784 81.2307 0.0308033 80.2087 0.00142525 78.9464L0 78.8234C1.37542e-05 78.259 0.0768539 77.6763 0.226259 77.0771L0.231604 77.0568L0.238017 77.0369L0.375198 76.6121C0.512417 76.1736 0.650224 75.6944 0.788521 75.1744L0.790659 75.1655L0.79351 75.1566C1.26289 73.6037 1.89466 71.6783 2.6891 69.3826C3.48227 67.0437 4.34586 64.518 5.27878 61.8055L5.98321 59.7649C6.69222 57.7201 7.41434 55.6622 8.1496 53.5911L8.15245 53.5833C9.17885 50.8235 10.1354 48.2507 11.0218 45.8652C11.9089 43.4312 12.6805 41.392 13.3361 39.7487L13.4056 39.5741L13.5681 39.479C14.1979 39.1106 15.1236 38.7914 16.306 38.5069L16.5329 38.4542C17.669 38.1986 18.8263 38.0708 20.0034 38.0708L20.3091 38.0737ZM52.9054 42.6879C52.9054 41.1508 52.5399 40.3003 52.0039 39.8973L51.9957 39.8909L51.9872 39.8841C51.4237 39.4252 50.4783 39.1334 49.0547 39.0988L48.7636 39.0952C48.0981 39.0952 47.4321 39.147 46.7654 39.2502L46.4796 39.2976C45.9464 39.3919 45.5149 39.475 45.182 39.5459V77.9818L45.1859 78.2416C45.2268 79.504 45.5692 80.3126 46.1066 80.7896C46.7066 81.2744 47.7611 81.5738 49.3936 81.5738L49.6947 81.5706C50.392 81.5559 51.0509 81.4896 51.6718 81.3729L51.6886 81.37L51.705 81.3679C52.2078 81.3048 52.6048 81.2319 52.9054 81.1551V42.6879ZM20.6819 45.7893L20.8041 46.1691C21.2704 47.6185 21.83 49.3489 22.483 51.3599L22.9783 52.9023C23.4769 54.4719 23.9882 56.1328 24.5126 57.885L25.0346 59.4949C25.5563 61.1125 26.0777 62.7532 26.5995 64.4163L26.8229 65.1271H12.9677L13.2035 64.4091C13.8171 62.5404 14.4643 60.6192 15.1469 58.6468C15.9389 56.3112 16.6844 54.069 17.3831 51.9207L17.3845 51.9157L17.3863 51.9107C18.1333 49.7575 18.811 47.8377 19.4184 46.1513L19.5488 45.7893H20.6819ZM20.09 47.5213C19.5803 48.9486 19.0243 50.5277 18.4235 52.2592L18.4239 52.2596C17.7233 54.4136 16.9761 56.661 16.1823 59.0017L16.1813 59.0049C15.5878 60.7199 15.0219 62.3962 14.4809 64.0325H25.331C24.711 62.0639 24.0918 60.1276 23.4718 58.2239L23.47 58.2175L23.4679 58.2114C22.9438 56.4599 22.4331 54.8005 21.9354 53.2337L21.4419 51.698C20.9349 50.137 20.4846 48.7445 20.09 47.5213ZM1.09887 79.0108C1.1401 79.9249 1.48782 80.5771 2.11508 81.0368C2.88324 81.5179 3.9546 81.7844 5.37641 81.7844L5.6383 81.7812C6.23454 81.7666 6.72635 81.7017 7.12128 81.5938L7.148 81.5863L7.17544 81.5816C7.605 81.5099 8.00294 81.4235 8.3698 81.3247C8.57784 80.6483 8.80497 79.8817 9.04929 79.0244L9.0525 79.013L9.05642 79.0019C9.38135 78.0246 9.7063 76.9998 10.0316 75.928L10.0359 75.9145C10.4055 74.8028 10.7284 73.7151 11.0051 72.6517L11.0079 72.641L11.0112 72.6303C11.1439 72.1929 11.2737 71.771 11.3985 71.3654L11.5175 70.9792H28.1573L30.5332 78.59L30.5339 78.5925L30.602 78.8063C30.9461 79.8434 31.39 80.5852 31.9071 81.0735C32.4636 81.5117 33.4262 81.7844 34.9098 81.7844L35.099 81.7826C36.0354 81.7644 36.8322 81.6105 37.5002 81.3347L37.5052 81.3326L37.5102 81.3308C38.1627 81.0764 38.6697 80.7701 39.0494 80.4233C38.4454 78.4413 37.7826 76.2929 37.0602 73.9783L36.2773 71.4798C35.4729 68.9199 34.6422 66.3072 33.7853 63.642L32.9198 60.9593C32.0454 58.2593 31.184 55.6385 30.3358 53.0965L29.4921 50.581C28.374 47.2648 27.3268 44.3247 26.3501 41.7601L26.3447 41.7455L26.3401 41.7309C26.082 40.9174 25.411 40.2684 24.1634 39.837L24.1605 39.8363L24.1577 39.8353C22.9958 39.4192 21.7078 39.1947 20.2888 39.1682L20.0034 39.1654C18.9062 39.1654 17.8295 39.2844 16.7731 39.5221L16.5622 39.5712C15.5291 39.8198 14.7776 40.0786 14.2803 40.3362C13.8103 41.5199 13.2806 42.9064 12.6912 44.4962L12.0491 46.2429L12.048 46.2464C11.1615 48.6321 10.2051 51.205 9.17863 53.9649L9.17828 53.9645C8.44479 56.0307 7.72488 58.0839 7.01759 60.1237L6.31387 62.1615C5.38097 64.8739 4.51774 67.3991 3.7249 69.7371L3.72383 69.7406C2.93207 72.0287 2.30479 73.9391 1.84107 75.4734C1.65666 76.1656 1.47115 76.7933 1.28487 77.3558C1.15666 77.8741 1.09461 78.3629 1.09459 78.8234L1.09887 79.0108ZM54 81.9387L53.6455 82.0719C53.2133 82.2344 52.6061 82.3572 51.8525 82.4521C51.1736 82.5784 50.4618 82.6492 49.7178 82.6648L49.3936 82.6684C47.6726 82.6684 46.3026 82.3616 45.4086 81.6333L45.4007 81.6273L45.3932 81.6205C44.5362 80.8685 44.1384 79.7116 44.092 78.2733L44.0874 77.9818V38.6822L44.5014 38.5782L44.8349 38.5005C45.2065 38.4188 45.6925 38.3252 46.2887 38.2197L46.5979 38.1684C47.3192 38.0567 48.0412 38.0006 48.7636 38.0006L49.0747 38.0042C50.6088 38.0407 51.8425 38.3542 52.6788 39.0353C53.6236 39.7576 54 41.0537 54 42.6879V81.9387Z" fill="#203B53"/>
<path fill-rule="evenodd" clip-rule="evenodd" d="M58.8099 47.9056C58.8099 47.9056 68.0405 45.6942 68.7839 44.1219C69.5274 42.5496 55.3473 39.0278 55.3473 39.0278C55.3473 39.0278 58.0454 27.9212 57.1293 25.4942C56.2131 23.0672 47.2753 35.386 47.2753 35.386C47.2753 35.386 38.1429 31.7675 36.8242 32.2632C35.5054 32.759 41.7051 42.5427 41.7051 42.5427C41.7051 42.5427 34.2778 49.6328 33.7449 51.1298C33.2119 52.6267 34.173 52.5914 39.6579 51.7919C45.1428 50.9925 46.7911 50.6875 46.7911 50.6875C46.7911 50.6875 51.8457 60.5629 53.6405 61.1317C55.4353 61.7005 55.7633 48.9485 55.7633 48.9485L58.8099 47.9056Z" fill="#54E6ED"/>
<path fill-rule="evenodd" clip-rule="evenodd" d="M58.8092 47.9054C58.8092 47.9054 68.0398 45.694 68.7832 44.1217C69.5266 42.5494 55.3466 39.0277 55.3466 39.0277C55.3466 39.0277 58.0447 27.921 57.1286 25.4941C56.4019 23.5692 50.6299 30.9194 48.2726 34.0431C50.1691 32.4236 53.9069 29.309 54.705 29.2201C55.785 29.1 54.1609 38.4952 54.1889 39.4206C54.2171 40.346 62.709 42.299 62.9049 43.8573C63.1008 45.4155 55.3837 47.3975 54.649 48.0971C53.9143 48.7966 53.8688 56.3612 53.0389 57.9549C52.6524 58.6972 51.5207 58.0555 50.4217 57.1581C51.661 59.1575 52.9156 60.902 53.6398 61.1315C55.4345 61.7003 55.7626 48.9484 55.7626 48.9484L58.8092 47.9054ZM45.3882 34.6632C42.6403 33.635 37.7604 31.9108 36.8235 32.2631C36.1121 32.5305 37.5887 35.5008 39.0997 38.1801C39.0931 38.1594 38.0931 34.9821 38.0152 34.0633C37.9589 33.4006 42.7123 34.1754 45.3882 34.6632Z" fill="#30A0A6"/>
<path d="M58.7447 47.5947C59.0676 47.5169 67.8312 45.395 68.4975 43.9858C69.0735 42.7677 55.3103 39.346 55.2707 39.3361C55.101 39.2937 54.9977 39.1222 55.0392 38.9525L55.0391 38.9525C55.0468 38.9208 57.7134 27.9421 56.8323 25.6079C56.1261 23.7371 47.5572 35.5397 47.5325 35.5736C47.4427 35.6965 47.2811 35.7361 47.1473 35.6769C46.7964 35.5382 38.1163 32.1168 36.9365 32.5603C35.9865 32.9175 41.9573 42.3467 41.9744 42.3738C42.0561 42.5039 42.0319 42.6704 41.9249 42.7724L41.9252 42.7726C41.904 42.7929 34.5527 49.8109 34.0452 51.2366C33.8729 51.7205 33.9371 51.9562 34.4737 52.0052C35.3023 52.0807 36.8956 51.8738 39.6118 51.4779C45.0957 50.6785 46.7296 50.3762 46.7344 50.3753C46.8754 50.3495 47.0117 50.4212 47.074 50.5424L47.0744 50.5422C47.0888 50.5702 52.0698 60.3 53.7369 60.8283C55.1246 61.2681 55.4446 48.9751 55.4455 48.9398C55.4495 48.7963 55.5479 48.6776 55.6795 48.6416L58.7067 47.6052C58.7193 47.6009 58.732 47.5974 58.7447 47.5947ZM69.0714 44.2582C68.2789 45.934 59.2941 48.1159 58.9004 48.2109L56.0755 49.1779C56.0203 50.8935 55.5815 62.0806 53.5451 61.4353C51.7843 60.8772 47.3595 52.4729 46.6162 51.041C45.9992 51.1479 44.06 51.4714 39.7052 52.1062C36.9365 52.5097 35.3067 52.7202 34.4168 52.639C33.2349 52.5312 33.085 52.0362 33.4456 51.0231C33.9521 49.6005 40.1389 43.6077 41.299 42.4922C40.3782 41.0177 35.1705 32.5462 36.7129 31.9663C38.0157 31.4765 45.7331 34.4424 47.1638 35.0009C48.3399 33.4009 56.3824 22.6128 57.4274 25.3808C58.2863 27.6562 56.1566 36.9847 55.7296 38.7966C57.8115 39.3273 69.9053 42.4944 69.0714 44.2582Z" fill="#603229"/>
<path fill-rule="evenodd" clip-rule="evenodd" d="M54.5607 46.377C54.5607 46.377 59.7295 45.1387 60.1458 44.2583C60.562 43.3779 52.6218 41.4058 52.6218 41.4058C52.6218 41.4058 54.1327 35.1866 53.6196 33.8276C53.1066 32.4686 48.1018 39.3666 48.1018 39.3666C48.1018 39.3666 42.988 37.3403 42.2496 37.6179C41.5111 37.8956 44.9827 43.374 44.9827 43.374C44.9827 43.374 40.8237 47.3442 40.5253 48.1824C40.2269 49.0207 40.765 49.0009 43.8363 48.5532C46.9077 48.1056 47.8306 47.9348 47.8306 47.9348C47.8306 47.9348 50.6611 53.4646 51.6661 53.7831C52.6711 54.1016 52.8548 46.961 52.8548 46.961L54.5607 46.377Z" fill="#FFF000"/>
<path fill-rule="evenodd" clip-rule="evenodd" d="M54.56 46.3774C54.56 46.3774 59.7288 45.1391 60.1451 44.2586C60.5614 43.3782 52.6211 41.4062 52.6211 41.4062C52.6211 41.4062 54.132 35.1869 53.619 33.8279C53.1497 32.585 48.9245 38.2473 48.2056 39.2242C48.8338 39.1438 51.1974 36.8594 51.6593 37.1075C52.1213 37.3557 51.6855 41.2794 51.8417 41.8929C51.998 42.5064 56.1619 43.8721 56.1566 44.3463C56.1513 44.8205 52.1494 46.054 51.882 46.5275C51.6145 47.0009 51.8469 50.5527 51.6967 51.7937C51.5465 53.0347 50.4246 50.4057 49.4775 48.6409C48.5304 46.8761 48.1008 46.1114 47.2511 46.6178C46.6109 46.9993 42.6814 48.242 40.7821 48.8317C41.22 48.917 42.143 48.8003 43.8356 48.5536C46.907 48.1059 47.83 47.9352 47.83 47.9352C47.83 47.9352 50.6604 53.465 51.6654 53.7835C52.6704 54.102 52.8541 46.9614 52.8541 46.9614L54.56 46.3774ZM47.6178 39.1792C46.3257 38.6838 42.8479 37.3931 42.2489 37.6183C41.8382 37.7727 42.7301 39.5363 43.6025 41.0711C43.596 41.055 42.8046 39.0819 43.2263 38.6787C43.5765 38.3438 46.3224 38.9907 47.6178 39.1792Z" fill="#DFD003"/>
<path d="M54.4936 46.0661C54.7263 46.01 59.5147 44.8471 59.8575 44.1222C60.1062 43.5962 52.565 41.7195 52.5433 41.7141C52.3739 41.6717 52.2707 41.5007 52.3116 41.3313L52.3107 41.3311C52.3149 41.3135 53.7982 35.2059 53.3207 33.9412C53.0177 33.1383 48.3704 39.5358 48.3571 39.5542C48.2673 39.6771 48.1058 39.7167 47.972 39.6575C47.7126 39.555 42.9661 37.6872 42.36 37.915C41.9905 38.054 45.2408 43.1904 45.2502 43.2052C45.3318 43.3352 45.3077 43.5017 45.2006 43.6037L45.201 43.604C45.1892 43.6152 41.0968 47.5221 40.8237 48.2893C40.7687 48.4438 40.7858 48.5187 40.9443 48.5332C41.3949 48.5743 42.2789 48.4592 43.7883 48.2392C46.8392 47.7945 47.7677 47.6227 47.7705 47.6222C47.9164 47.5947 48.0577 47.6716 48.1177 47.8003C48.2491 48.0562 50.9037 53.2082 51.7606 53.4797C52.3586 53.6693 52.5347 46.9715 52.5352 46.9523C52.5391 46.8088 52.6375 46.6901 52.7691 46.6541L54.4557 46.0767C54.4682 46.0723 54.4809 46.0688 54.4936 46.0661ZM60.4313 44.3946C59.9634 45.3841 54.9516 46.6091 54.6493 46.6822L53.1645 47.1905C53.1203 48.4307 52.8386 54.4891 51.5687 54.0867C50.565 53.7686 48.1879 49.3099 47.6543 48.2883C47.221 48.3619 46.1255 48.5404 43.8817 48.8675C42.3197 49.0952 41.399 49.2137 40.8873 49.167C40.0835 49.0937 39.9807 48.7595 40.224 48.0758C40.5072 47.2805 43.7565 44.1132 44.5752 43.3233C43.918 42.262 41.1567 37.6893 42.1363 37.321C42.8846 37.0397 46.9733 38.5884 47.9886 38.9819C48.847 37.8221 53.2625 31.984 53.9157 33.7141C54.3925 34.9773 53.2994 39.8974 53.0023 41.1753C54.4941 41.561 60.9488 43.3002 60.4313 44.3946Z" fill="#603229"/>
<path fill-rule="evenodd" clip-rule="evenodd" d="M88.3233 23.7438C88.5696 22.6081 88.3445 21.2423 87.606 20.0032C86.8676 18.7641 85.7734 17.9162 84.6573 17.5926C83.7945 17.3423 82.9185 17.4055 82.1837 17.8434C80.9475 18.5802 80.4542 20.1732 80.7961 21.8371L82.5046 20.819C82.7552 20.6696 83.3964 21.2834 83.9367 22.19C84.477 23.0967 84.7118 23.9527 84.4612 24.102L82.7527 25.1202C84.0535 26.2127 85.6894 26.5368 86.9257 25.8C87.6604 25.3621 88.1327 24.6217 88.3233 23.7438Z" fill="#54E6ED"/>
<path fill-rule="evenodd" clip-rule="evenodd" d="M88.3232 23.7438C88.5696 22.6082 88.3445 21.2424 87.606 20.0032C86.8675 18.7641 85.7734 17.9163 84.6573 17.5926C83.7945 17.3424 82.9185 17.4055 82.1837 17.8434C82.1718 17.8505 82.16 17.8579 82.1482 17.8652C82.2613 17.867 82.387 17.8615 82.5265 17.8478C85.4693 17.5597 86.8636 20.602 86.9271 21.3232C86.9905 22.0444 86.2691 23.4689 84.6902 21.7409C83.1113 20.013 82.5046 20.819 82.5046 20.819C82.7552 20.6696 83.3964 21.2834 83.9367 22.19C84.477 23.0967 84.7118 23.9527 84.4612 24.102L82.7527 25.1202C84.0535 26.2127 85.6894 26.5368 86.9257 25.8C87.6604 25.3621 88.1327 24.6217 88.3232 23.7438Z" fill="#30A0A6"/>
<path d="M88.0125 23.6765C88.1292 23.1388 88.1318 22.5438 88.0152 21.9354C87.9021 21.3456 87.6761 20.7427 87.3324 20.166C86.9888 19.5894 86.566 19.1037 86.101 18.7236C85.6214 18.3316 85.0969 18.0507 84.5684 17.8974C84.1691 17.7817 83.7675 17.7396 83.382 17.7787C83.0171 17.8157 82.6666 17.9263 82.347 18.1168C81.8048 18.4399 81.4221 18.9501 81.2091 19.5632C81.026 20.0902 80.9664 20.6936 81.0362 21.3229L82.3415 20.5449C82.6051 20.3878 82.9643 20.5269 83.3318 20.8787C83.6118 21.1468 83.9268 21.5506 84.2105 22.0266C84.4942 22.5026 84.6994 22.9718 84.802 23.3456C84.9366 23.8363 84.888 24.2183 84.6244 24.3754L83.319 25.1534C83.8394 25.5142 84.3984 25.7489 84.9491 25.8386C85.5897 25.9429 86.2204 25.8491 86.7627 25.526C87.0823 25.3355 87.3463 25.0798 87.5524 24.7765C87.7703 24.456 87.9244 24.0828 88.0125 23.6765ZM88.6393 21.8157C88.7722 22.5092 88.7685 23.1909 88.6341 23.8103C88.5283 24.2981 88.3423 24.7476 88.0791 25.135C87.8214 25.514 87.4905 25.8341 87.0889 26.0734C86.4144 26.4754 85.6349 26.5929 84.8469 26.4646C84.0608 26.3365 83.2682 25.9619 82.5692 25.3804C82.5337 25.3554 82.5028 25.3228 82.4791 25.283C82.389 25.1318 82.4385 24.9363 82.5897 24.8462L84.2982 23.828C84.3111 23.8202 84.2445 23.715 84.1893 23.5137C84.102 23.1955 83.9197 22.7834 83.6631 22.3528C83.4065 21.9222 83.1307 21.5658 82.8924 21.3376C82.7416 21.1932 82.6808 21.0846 82.6678 21.0923L80.9594 22.1105L80.9589 22.1097C80.9291 22.1275 80.8959 22.1406 80.86 22.148C80.6882 22.1832 80.5203 22.0724 80.485 21.9006C80.3 21.0001 80.346 20.1148 80.6099 19.3552C80.872 18.601 81.3463 17.9713 82.0208 17.5693C82.4224 17.3299 82.8614 17.1912 83.3173 17.145C83.7833 17.0977 84.2672 17.148 84.7465 17.287C85.3553 17.4636 85.9567 17.7847 86.5034 18.2317C87.0263 18.6592 87.4991 19.2009 87.8799 19.8398C88.2606 20.4787 88.512 21.1523 88.6393 21.8157Z" fill="#603229"/>
<path fill-rule="evenodd" clip-rule="evenodd" d="M84.4616 24.1017C84.7122 23.9523 84.4774 23.0963 83.9371 22.1897C83.3968 21.2831 82.7556 20.6693 82.505 20.8187L80.7965 21.8368L55.8787 36.6871C55.5765 38.0841 55.3474 39.0276 55.3474 39.0276C55.3474 39.0276 56.5187 39.3185 58.1704 39.7704L82.7531 25.1199L84.4616 24.1017Z" fill="#54E6ED"/>
<path fill-rule="evenodd" clip-rule="evenodd" d="M84.4616 24.1017C84.7123 23.9523 84.4774 23.0963 83.9371 22.1897C83.3968 21.2831 82.7556 20.6692 82.505 20.8186L80.7965 21.8368L74.6261 25.5141C74.5143 25.6767 74.4547 25.7767 74.4644 25.7931C74.5447 25.9278 81.23 22.2583 81.6629 23.2042C82.0957 24.1501 80.6358 24.994 80.6358 24.994C80.6358 24.994 61.5783 36.404 59.8209 37.4514C58.0635 38.4987 57.1228 38.4574 56.7976 37.6044C56.6485 37.2132 57.0575 36.4291 57.544 35.6946L55.8787 36.6871C55.5765 38.0841 55.3474 39.0276 55.3474 39.0276C55.3474 39.0276 56.5187 39.3185 58.1704 39.7704L82.7531 25.1199L84.4616 24.1017Z" fill="#30A0A6"/>
<path d="M84.2971 23.8282C84.3101 23.8204 84.2435 23.7152 84.1882 23.5138C84.101 23.1957 83.9187 22.7836 83.6621 22.353C83.4055 21.9224 83.1297 21.5659 82.8914 21.3378C82.7406 21.1934 82.6798 21.0848 82.6668 21.0925L80.9583 22.1107L56.1586 36.8905C55.9717 37.7502 55.8147 38.4277 55.7278 38.7963C56.1623 38.9067 57.0296 39.1304 58.1213 39.4281L82.5887 24.8463L84.2971 23.8282ZM84.801 23.3457C84.9356 23.8364 84.887 24.2184 84.6234 24.3756L82.9149 25.3937L58.3322 40.0443L58.3318 40.0435C58.2602 40.0862 58.1719 40.1008 58.0852 40.077C56.4721 39.6357 55.3252 39.3499 55.2711 39.3365L55.2706 39.3363L55.2698 39.3361L55.269 39.3359C55.0995 39.2935 54.9959 39.1222 55.0374 38.9523C55.0381 38.9496 55.2616 38.0293 55.5622 36.6406C55.5757 36.5492 55.6287 36.4645 55.7143 36.4135L80.6321 21.5632L82.3405 20.5451C82.6041 20.3879 82.9633 20.527 83.3308 20.8789C83.6108 21.147 83.9258 21.5507 84.2095 22.0267C84.4932 22.5027 84.6984 22.9719 84.801 23.3457Z" fill="#603229"/>
<path fill-rule="evenodd" clip-rule="evenodd" d="M35.0852 50.9104C35.0852 50.9104 38.063 46.5971 39.1552 46.234C40.2474 45.871 36.9733 49.9945 36.5941 50.456C36.2149 50.9175 35.0669 51.8896 35.0852 50.9104Z" fill="#9DFAFF"/>
<path fill-rule="evenodd" clip-rule="evenodd" d="M41.3569 44.6598C41.3569 44.6598 40.1494 46.1907 39.8995 45.9471C39.6497 45.7034 40.992 44.223 41.2508 44.0425C41.5097 43.8621 41.9802 43.8172 41.3569 44.6598Z" fill="#9DFAFF"/>
<path fill-rule="evenodd" clip-rule="evenodd" d="M41.7161 41.3566C41.7161 41.3566 40.008 38.776 39.932 38.4287C39.8559 38.0815 39.8361 37.6091 40.6004 38.6061C41.3647 39.6032 42.4135 41.5167 42.2531 41.6647C42.0926 41.8126 41.7161 41.3566 41.7161 41.3566Z" fill="#9DFAFF"/>
<path fill-rule="evenodd" clip-rule="evenodd" d="M39.8432 37.4875C39.8432 37.4875 39.9275 37.9804 39.7361 37.813C39.5449 37.6457 38.8644 36.6576 38.8525 36.4291C38.8407 36.2007 39.118 35.9634 39.8432 37.4875Z" fill="#9DFAFF"/>
<path fill-rule="evenodd" clip-rule="evenodd" d="M45.5144 43.1047C45.5144 43.1047 44.2505 41.2474 44.3125 41.1319C44.3745 41.0164 44.4561 40.8239 44.9653 41.3709C45.4746 41.918 46.1517 43.0323 45.9317 43.1242C45.7117 43.2161 45.5144 43.1047 45.5144 43.1047Z" fill="#FEF9BF"/>
<path fill-rule="evenodd" clip-rule="evenodd" d="M44.2979 40.4274C44.2979 40.4274 44.4171 40.8471 44.2629 40.8408C44.1086 40.8346 43.5573 40.1948 43.493 39.7686C43.4287 39.3423 44.0612 39.6132 44.2979 40.4274Z" fill="#FEF9BF"/>
<path fill-rule="evenodd" clip-rule="evenodd" d="M81.2974 20.5101C81.2974 20.5101 81.4157 18.974 82.3329 18.4928C82.3329 18.4928 82.7995 18.4634 82.5708 18.8483C82.3422 19.2331 81.7111 20.0769 81.7004 20.5055C81.6896 20.9341 81.229 20.8126 81.2974 20.5101Z" fill="#9DFAFF"/>
<path fill-rule="evenodd" clip-rule="evenodd" d="M83.4469 18.234C83.4469 18.234 83.0956 18.391 82.9315 18.4561C82.7675 18.5211 82.5203 18.3479 82.6652 18.2288C82.8101 18.1097 83.1124 17.9033 83.2838 17.9713C83.4552 18.0393 83.6525 18.1507 83.4469 18.234Z" fill="#9DFAFF"/>
<path fill-rule="evenodd" clip-rule="evenodd" d="M51.1006 57.2417L47.4002 50.4178C47.4002 50.4178 51.1628 55.7652 51.1006 57.2417Z" fill="#603229"/>
<path fill-rule="evenodd" clip-rule="evenodd" d="M50.8398 55.709C50.8398 55.709 49.6695 53.1743 48.4691 51.6651C48.4691 51.6651 50.7829 54.1203 50.8398 55.709Z" fill="#603229"/>
<path fill-rule="evenodd" clip-rule="evenodd" d="M39.8553 48.8032C39.8553 48.8032 40.043 49.7337 42.7517 49.1839C42.7517 49.1839 40.2521 50.2155 39.8553 48.8032Z" fill="#603229"/>
<path fill-rule="evenodd" clip-rule="evenodd" d="M47.8569 38.6038C47.8569 38.6038 42.9508 36.6074 42.1594 36.9482C42.1594 36.9482 43.0842 35.8213 47.8569 38.6038Z" fill="#603229"/>
<path fill-rule="evenodd" clip-rule="evenodd" d="M46.4386 37.6301C46.4386 37.6301 44.1093 36.4664 43.1009 36.5309C43.1009 36.5309 43.4024 35.6315 46.4386 37.6301Z" fill="#603229"/>
<path fill-rule="evenodd" clip-rule="evenodd" d="M58.2733 43.7412L52.3485 42.0117C52.3485 42.0117 56.4143 43.9593 58.2733 43.7412Z" fill="#603229"/>
<path fill-rule="evenodd" clip-rule="evenodd" d="M56.398 43.8902C56.398 43.8902 54.2207 43.4866 53.167 42.5967C53.167 42.5967 54.1498 44.0262 56.398 43.8902Z" fill="#603229"/>
<path fill-rule="evenodd" clip-rule="evenodd" d="M52.1104 50.0442L52.2678 46.9929C52.2678 46.9929 51.4153 49.0975 52.1104 50.0442Z" fill="#603229"/>
<path fill-rule="evenodd" clip-rule="evenodd" d="M61.1961 46.54C61.1961 46.54 67.0159 44.6681 67.1311 43.5002C67.1311 43.5002 70.4373 44.1732 61.1961 46.54Z" fill="#603229"/>
<path fill-rule="evenodd" clip-rule="evenodd" d="M55.623 35.1259C55.623 35.1259 56.7302 28.7659 56.7802 27.1867C56.7802 27.1867 55.7249 29.4121 55.623 35.1259Z" fill="#603229"/>
<path fill-rule="evenodd" clip-rule="evenodd" d="M55.4873 32.7462C55.4873 32.7462 55.4334 30.3644 56.2804 27.9291C56.2804 27.9291 54.5545 30.0831 55.4873 32.7462Z" fill="#603229"/>
<path fill-rule="evenodd" clip-rule="evenodd" d="M57.0991 36.9428L66.8674 31.0689C66.8674 31.0689 61.1931 35.8638 57.0991 36.9428Z" fill="#603229"/>
<path fill-rule="evenodd" clip-rule="evenodd" d="M77.6017 27.4722C77.6017 27.4722 82.8859 24.1546 83.5485 23.0906C83.5485 23.0906 85.2905 23.3348 77.6017 27.4722Z" fill="#603229"/>
<path fill-rule="evenodd" clip-rule="evenodd" d="M80.8739 25.1032C80.8739 25.1032 83.4963 23.3031 83.4875 22.6819L80.8739 25.1032Z" fill="#603229"/>
<path fill-rule="evenodd" clip-rule="evenodd" d="M84.9302 24.4654C84.9302 24.4654 85.7699 23.9527 84.1062 21.5018C84.1062 21.5018 86.2566 23.7927 84.9302 24.4654Z" fill="#603229"/>
<path fill-rule="evenodd" clip-rule="evenodd" d="M85.4758 24.042C85.4758 24.042 85.7425 23.4905 84.7604 22.1718C84.7604 22.1718 86.1599 23.51 85.4758 24.042Z" fill="#603229"/>
<path fill-rule="evenodd" clip-rule="evenodd" d="M87.1472 25.0676C87.1472 25.0676 88.3508 22.2566 86.5936 19.3519C86.5936 19.3519 88.975 22.3818 87.1472 25.0676Z" fill="#603229"/>
</svg>
