<svg width="40" height="40" viewBox="0 0 40 40" fill="none" xmlns="http://www.w3.org/2000/svg">
<path d="M39.998 26.7368C39.8086 27.1654 39.4694 27.3828 39.042 27.5746C38.7095 28.7533 38.285 29.8906 37.8388 31.0327C38.087 31.3482 38.4213 31.693 38.4677 32.102C38.4969 32.3587 38.4475 32.524 38.2861 32.725L38.0586 32.7465C37.5549 32.5714 37.4233 32.2921 37.1884 31.8588C37.0985 32.0938 37.0175 32.3885 36.8896 32.6049C36.751 32.8393 36.6826 32.8361 36.4267 32.9213L36.3886 32.9067C36.0543 33.0718 35.9273 33.4426 35.7646 33.7524C35.7776 33.7661 35.7903 33.7808 35.8037 33.7944C36.0167 34.0116 36.2725 34.235 36.3877 34.518C36.4893 34.7682 36.4591 34.9397 36.3584 35.1811C36.2125 35.2601 36.181 35.2979 36.0058 35.2993C35.5374 35.3025 35.2261 34.9301 34.9101 34.645L33.7002 35.7524C33.7977 36.0485 33.9417 36.3725 33.8144 36.6801C33.7371 36.8669 33.6365 36.9708 33.4257 37.0053C33.1511 37.0501 32.9041 36.8678 32.6875 36.7328C32.1246 37.1708 28.6304 39.9089 28.3525 39.9965C28.1233 39.9574 28.066 39.9605 27.8955 39.8139L27.9004 39.6264C28.1632 39.1247 28.6075 38.8443 29.0839 38.5541C27.708 38.9353 26.2283 39.3965 24.8154 39.602C24.0827 39.7086 23.1692 39.3639 22.4834 39.642C22.3411 39.8109 22.2779 39.9196 22.0595 40.0004C21.652 39.941 21.2785 39.7315 20.8789 39.6918C20.3345 39.6378 19.7754 39.6587 19.2265 39.6049C15.8719 39.276 12.7627 38.4338 9.97946 36.5356C6.82771 34.3862 3.54865 29.7481 2.21286 26.2866C1.58109 24.6496 1.24071 22.9331 0.941373 21.2172C0.565473 20.9621 0.182782 20.6587 -3.34474e-05 20.2436C0.0815095 19.9277 0.34195 19.8712 0.544888 19.6284C0.810834 19.3098 0.703767 18.8634 0.675748 18.4809C0.658398 17.892 0.700742 17.299 0.762662 16.7133C1.21395 12.4416 2.89961 9.16673 6.37399 6.44867L5.7275 5.77093C5.90322 5.48616 6.08097 5.15861 6.45114 5.08734C6.98394 4.98453 7.55405 5.41713 7.98336 5.66937C8.15092 5.52847 9.06772 4.87193 9.06637 4.69183C9.06469 4.51555 8.9127 4.35196 8.96676 4.16742C9.02383 3.97333 9.18052 3.82409 9.3691 3.74066C9.68336 3.60132 10.2768 3.90678 10.5781 4.02191C11.1496 3.71879 11.7246 3.49485 12.3359 3.27484C12.1899 3.14674 12.0549 3.02279 11.9677 2.84906C11.8686 2.65173 11.8949 2.44986 11.9648 2.25042C12.0544 2.15735 12.1349 2.07957 12.2588 2.02874C13.0744 1.69533 13.58 2.12681 14.3017 2.39203C14.5263 2.47449 14.6443 2.50119 14.8681 2.41937C15.012 2.21072 15.133 2.04329 15.3398 1.88421C15.7208 1.81408 16.0081 1.95368 16.3535 2.08636C16.5402 2.03171 16.6203 2.0101 16.7656 1.87542C16.9364 1.71704 16.8184 1.80137 17.0039 1.67132C17.3049 1.46038 17.981 1.64553 18.331 1.69964C18.0136 1.36509 17.6777 1.1634 17.3076 0.893979C17.0731 0.723222 16.9793 0.571576 16.9345 0.296323C17.043 0.144954 17.0939 0.0490563 17.2998 0.0101902C18.0815 -0.136226 19.4304 1.33718 20.0683 1.74261C20.8467 2.23704 22.2022 2.19292 23.1103 2.46527C25.1492 3.077 27.2527 4.11406 29.0068 5.27191C33.9066 8.50614 37.8265 13.2107 39.0839 18.8686C39.4997 20.7395 39.5238 22.6375 39.8857 24.5063C39.9181 24.7686 39.9241 24.9731 39.7392 25.186C39.0422 25.9882 40.0505 25.8883 39.998 26.7368ZM9.59762 25.9213C8.43181 24.7041 7.13778 23.5998 5.93551 22.4155C4.90261 21.398 3.95548 20.2902 2.8779 19.3168C2.66567 19.125 2.25839 18.7047 1.96969 18.6821C1.9558 18.681 1.94175 18.6838 1.9277 18.685L1.92282 20.1459C3.2508 20.9399 8.82631 25.7498 9.59762 25.9213ZM12.5595 24.2846C10.3049 22.3129 8.02057 20.4582 5.9609 18.2846C5.16007 17.4394 3.34231 15.1572 2.37106 14.7104C2.23503 14.7955 2.27058 14.7384 2.2402 14.8676C2.10532 15.425 2.01833 15.9709 1.98727 16.5434C3.34908 17.3846 4.67206 18.2795 5.95504 19.228C6.8948 19.9193 11.9827 24.292 12.5595 24.2846ZM8.86715 30.7612C7.75544 29.1718 6.56882 27.6346 5.30856 26.1508C4.37917 25.0713 3.38312 24.0433 2.51754 22.9145C2.67994 23.5298 2.86571 24.117 3.10153 24.7104C4.04677 26.7922 5.48731 28.146 7.09274 29.7709C7.53359 30.217 7.98682 30.8132 8.49313 31.1811C8.38534 31.0268 7.91355 30.4625 7.91403 30.3198C8.16554 30.5161 8.45616 30.8649 8.76168 30.9291C8.86405 30.7868 8.84201 30.848 8.86715 30.7612ZM14.5888 22.0356C13.7484 21.3731 12.8987 20.7167 12.1132 19.9936C11.004 18.9724 4.0572 12.0816 3.48825 11.8442C3.31706 11.9596 3.38947 11.8879 3.2734 12.0639L2.86422 13.0102C4.06282 13.7411 5.17208 14.534 6.26754 15.4008C7.4557 16.3411 13.7228 21.9375 14.5888 22.0356ZM19.2334 21.7514C18.3285 21.0005 17.413 20.2566 16.5302 19.4819C14.9871 18.1273 5.61831 9.56031 4.99411 9.39593C4.82219 9.47397 4.72447 9.55927 4.59274 9.68988L4.3818 9.99359C4.49286 10.3674 5.58352 11.0015 5.95309 11.27C7.26051 12.2217 8.53236 13.2156 9.76754 14.2524C11.1696 15.4197 17.8997 21.2919 19.0273 21.7348C19.0932 21.7604 19.1648 21.7643 19.2334 21.7514ZM22.8564 21.1332C21.8714 19.8997 19.8386 18.2442 18.5996 17.1059C15.3005 14.075 10.891 9.65577 7.16403 7.31292C7.01344 7.35258 6.89321 7.39623 6.7568 7.46917C6.90367 7.87109 9.7623 9.76355 10.333 10.186C11.5593 11.0937 12.7118 12.1627 13.8496 13.1713C15.7824 14.8973 17.7057 16.6334 19.6181 18.3803C20.2675 18.9711 22.0596 20.7976 22.6933 21.1059C22.778 21.147 22.7652 21.1375 22.8564 21.1332ZM23.6992 17.3305C23.3871 16.9127 23 16.5562 22.6279 16.1879C22.7245 16.0718 22.9074 15.9248 22.8886 15.7729C22.8146 15.1736 22.0167 14.8417 21.6972 14.3578C21.4446 14.1357 21.1899 13.9158 20.9326 13.6987C20.3971 13.0376 19.9346 12.5792 19.1992 12.1264C19.1025 12.0439 19.0079 11.9749 18.8964 11.9116C17.6632 11.2108 16.6968 10.0644 15.6015 9.17035C13.9097 7.81323 12.1335 6.56511 10.2744 5.42718C9.93843 5.69933 9.57507 5.91129 9.20114 6.13031C13.377 8.18747 16.8884 11.498 20.3349 14.5024C21.2234 15.2766 22.7291 16.844 23.6992 17.3305ZM19.8086 9.893C17.8287 7.78592 15.7324 5.82965 13.4091 4.06683L12.289 4.40472C12.3471 4.62765 12.759 4.78874 12.9658 4.90863C14.5484 5.82517 16.01 6.81109 17.4189 7.95843C18.1871 8.58412 18.9433 9.41683 19.791 9.92328L19.8086 9.893ZM22.2158 38.2133C21.2154 37.448 13.0532 31.7536 12.6074 31.7573L12.6181 31.8305C13.6636 32.7655 19.8531 37.3068 20.1123 37.8998L20.0644 38.1703C20.4287 38.4357 21.449 38.4018 21.8945 38.3481C22.0551 38.3288 22.096 38.3225 22.2158 38.2133ZM16.3574 37.7592C16.1279 37.4902 15.9167 37.1751 15.5234 37.1508C15.3625 37.1411 15.3091 37.2005 15.1767 37.2739C15.5028 37.5708 15.8427 37.7365 16.2861 37.81L16.3574 37.7592ZM26.0117 37.8637C24.8237 36.9148 15.7356 30.0653 15.3857 29.9858L15.458 30.1225C17.1469 32.0686 20.4431 34.4199 22.5175 36.1557C23.2853 36.7981 23.9089 37.606 24.6884 38.225C25.0584 38.1612 25.6783 38.1349 25.9834 37.934L26.0117 37.8637ZM29.8066 36.8696C28.9991 36.453 28.2351 36.0005 27.4892 35.4897C26.3813 34.7308 16.7024 27.5701 16.3457 27.6137L16.6162 27.8608C19.6355 30.3662 22.8343 32.6764 25.7412 35.3032C26.5213 36.008 27.4037 36.7261 28.0351 37.56C28.5223 37.3886 29.4374 37.1899 29.8066 36.8696ZM23.875 7.07562C22.3276 5.68354 20.8186 4.20382 19.1884 2.90374C18.5682 3.03303 17.9729 3.0898 17.3408 3.12933C17.5229 3.36811 23.0105 6.65887 23.7793 7.10101L23.875 7.07562ZM31.8291 35.8159C30.3688 34.8477 29.0287 33.6454 27.666 32.5522C25.8278 31.0776 23.9167 29.7482 21.9785 28.4008C21.1952 27.8562 20.4718 27.2369 19.6504 26.7446L19.6103 26.7797C19.7143 26.8993 19.8156 27.0205 19.9287 27.1323C22.1658 29.0127 24.5078 30.7715 26.708 32.6938C28.1252 33.9321 29.4288 35.4774 30.9961 36.5297C31.3071 36.3075 31.5867 36.1114 31.8291 35.8159ZM33.792 34.1088C32.5791 33.2333 25.9896 27.2143 25.1611 27.1284C25.2581 27.243 25.3511 27.3581 25.4589 27.4633C27.4694 29.2133 29.4183 30.9896 31.2539 32.9116C31.8661 33.5525 32.5474 34.206 33.0381 34.9389C33.3103 34.6767 33.5952 34.4302 33.792 34.1088ZM35.5488 31.9907C34.9596 31.3783 34.352 30.7827 33.7256 30.2055C32.9064 29.4604 26.1365 23.5297 25.6845 23.3871C25.7314 23.5581 25.7865 23.6278 25.915 23.7534C27.7954 25.4722 33.9589 30.9237 34.9316 32.7612L35.5488 31.9907ZM28.792 15.7094C28.6749 15.5373 28.5819 15.4542 28.4004 15.3412C28.3761 15.3262 28.2263 15.2389 28.2021 15.2143C28.0112 15.0205 28.234 14.9599 28.1972 14.7299C27.9551 14.7209 27.7868 14.7721 27.5625 14.8471L27.4756 14.8764L27.4814 14.7866L27.4824 14.7866L27.6347 14.5971C27.5817 14.3413 27.3189 14.1104 27.1006 13.9682C26.8556 13.8087 26.6045 13.7027 26.3076 13.7573C26.2807 13.9295 26.3476 13.9729 26.4521 14.1127C26.5444 14.236 26.6459 14.3541 26.75 14.4702L27.0654 14.8139C27.3058 15.2182 27.668 15.7131 28.0713 15.976C28.2761 16.1098 28.3831 16.1209 28.6201 16.0815C28.745 15.9278 28.7675 15.9007 28.792 15.7094ZM35.9463 13.4545C33.5103 9.97951 30.654 7.07773 26.8134 5.00628C26.6783 5.02488 26.7172 4.99539 26.666 5.04535C28.7859 6.76465 30.8798 8.49044 32.8388 10.3823C33.8879 11.3953 34.83 12.5082 35.8779 13.519L35.9463 13.4545ZM37.9834 25.7143C36.2928 23.7046 34.5585 21.7531 32.791 19.8061C31.5503 18.4393 30.3342 17.0618 28.9619 15.8129C28.7588 16.0215 28.4727 16.2461 28.4404 16.5395C28.526 16.8655 28.8581 17.1425 29.0888 17.3891C31.0302 19.6697 32.903 22.002 34.707 24.3842C35.6633 25.6249 36.67 26.8308 37.497 28.1577C37.8294 27.3995 37.9624 26.5335 37.9834 25.7143ZM38.3574 22.9868C38.3324 22.4298 38.299 21.8712 38.2881 21.3139C38.0104 21.4398 37.8944 21.5311 37.5849 21.4965C37.0608 21.1194 36.6369 20.6142 36.1816 20.1635C35.335 19.3404 34.5007 18.5054 33.6777 17.6606C33.4039 17.3785 33.1403 17.0136 32.8457 16.7631C32.7229 16.6587 32.5803 16.6311 32.4248 16.602C32.4096 16.3471 32.4381 16.3161 32.2558 16.1362C32.0728 16.0851 31.8937 16.0422 31.708 16.0014C31.5533 15.9673 31.5047 15.9306 31.3964 15.8256L31.4277 15.7026L31.7148 15.5522C31.7062 15.372 31.6055 15.2464 31.4541 15.1323C31.2329 14.9657 30.9284 14.9728 30.6601 14.9565L30.4873 14.8285C30.5862 14.6608 30.5202 14.7345 30.6894 14.6088C30.3718 14.1168 29.5391 13.4176 29.041 13.0785C28.8428 13.1606 28.8407 13.1963 28.7304 13.3784L28.7441 13.516L29.1308 13.4018L29.1923 13.4662C29.1343 13.5671 29.0799 13.6496 29.0097 13.7416L29.0117 13.7729L29.2627 13.8989C29.2649 14.0524 29.2802 13.9796 29.2197 14.1196C29.4854 14.2319 29.7712 14.0852 30.0175 14.1772C29.824 14.2517 29.636 14.3292 29.4482 14.4164L29.4492 14.5229L29.6123 14.6284C29.7619 14.5902 30.115 14.4414 30.2509 14.4799C30.1259 14.6202 30.0111 14.6846 29.8418 14.77L29.9336 14.7905L29.7861 14.8119C30.12 15.3853 31.3185 16.4396 31.8339 16.9907C33.0032 18.2366 34.1654 19.4892 35.3203 20.7475C36.04 21.5451 37.3852 23.3899 38.2265 23.9067C38.3966 23.6651 38.3753 23.2759 38.3574 22.9868ZM36.9882 29.3735C35.1777 27.9201 33.5791 26.105 31.9384 24.4731C31.3915 23.9291 30.8503 23.3156 30.2392 22.8422L30.4131 23.1577C31.621 24.4589 32.8529 25.7361 34.0322 27.0619C34.8654 27.9989 35.649 29.059 36.583 29.8998L36.7373 29.9028C36.9055 29.7268 36.9311 29.599 36.9882 29.3735ZM38.1084 19.7641C38.0566 19.472 38.015 19.1752 37.9521 18.8852C36.6275 17.82 35.5376 16.6156 34.3886 15.3852C33.6771 14.6232 32.9369 13.7747 32.081 13.1606L31.9931 13.1723L32.1894 13.4379C33.6315 14.6167 35.4153 16.7846 36.5976 18.2485C37.0166 18.7672 37.5308 19.7513 38.0654 20.1205C38.1706 19.9614 38.1318 19.9434 38.1084 19.7641Z" fill="#54E6ED"/>
</svg>
