<svg width="40" height="40" viewBox="0 0 40 40" fill="none" xmlns="http://www.w3.org/2000/svg">
<path d="M26.7368 0.00199363C27.1651 0.191407 27.382 0.529918 27.5738 0.957072C28.7525 1.2895 29.8896 1.71495 31.0318 2.16117C31.3474 1.91299 31.693 1.5787 32.1021 1.53227C32.3586 1.50316 32.5233 1.55271 32.7241 1.71391L32.7456 1.94047C32.5705 2.44443 32.2915 2.57655 31.8579 2.81156C32.093 2.90155 32.3886 2.98242 32.605 3.11039C32.8392 3.24891 32.8362 3.31742 32.9214 3.57328L32.9068 3.61039C33.0718 3.94502 33.4425 4.07264 33.7525 4.23539C33.7662 4.22239 33.7799 4.20869 33.7935 4.19535C34.0107 3.98235 34.2342 3.72754 34.5171 3.61235C34.7676 3.51054 34.9396 3.53987 35.1812 3.64067C35.2602 3.7867 35.298 3.81862 35.2993 3.99418C35.3026 4.46257 34.9302 4.77392 34.645 5.08988L35.7525 6.29985C36.0485 6.20228 36.3717 6.05845 36.6792 6.18559C36.8662 6.26291 36.9709 6.36339 37.0054 6.57426C37.0501 6.84899 36.8669 7.09585 36.732 7.31254C37.1698 7.87537 39.9084 11.368 39.9966 11.6465C39.9574 11.8763 39.96 11.9337 39.813 12.1045L39.6265 12.0987C39.1248 11.8358 38.8444 11.3925 38.5542 10.9161C38.9354 12.292 39.3966 13.7717 39.6021 15.1846C39.7085 15.9173 39.364 16.83 39.6421 17.5157C39.8111 17.658 39.9197 17.7218 40.0005 17.9405C39.9411 18.348 39.7307 18.7206 39.6909 19.1202C39.6368 19.6645 39.6578 20.2236 39.604 20.7725C39.2752 24.1273 38.434 27.2372 36.5357 30.0205C34.3863 33.1722 29.7482 36.4513 26.2866 37.7871C24.6497 38.4189 22.9322 38.7583 21.2163 39.0577C20.9612 39.4336 20.6579 39.8162 20.2427 39.9991C19.9272 39.9174 19.8702 39.658 19.6275 39.4551C19.309 39.1893 18.8634 39.2953 18.481 39.3233C17.8918 39.3407 17.2984 39.2983 16.7124 39.2364C12.4408 38.7851 9.16678 37.1004 6.44875 33.626L5.77102 34.2715C5.48633 34.0959 5.15885 33.9188 5.08742 33.5489C4.98456 33.0161 5.41719 32.446 5.66946 32.0166C5.52886 31.8495 4.87223 30.9327 4.69192 30.9336C4.51549 30.9352 4.35122 31.0874 4.16653 31.0332C3.97259 30.9761 3.82316 30.8194 3.73977 30.6309C3.60028 30.3165 3.90697 29.7221 4.02199 29.4209C3.71895 28.8496 3.49489 28.2753 3.27492 27.6641C3.14677 27.8101 3.022 27.9442 2.84817 28.0313C2.65089 28.1304 2.44989 28.1051 2.25051 28.0352C2.15719 27.9454 2.07873 27.8645 2.02785 27.7403C1.69458 26.9248 2.12594 26.419 2.39114 25.6973C2.47351 25.473 2.50023 25.3556 2.41848 25.1319C2.20984 24.9881 2.0424 24.867 1.88332 24.6602C1.81318 24.2792 1.95378 23.9919 2.08645 23.6465C2.03169 23.4595 2.00949 23.379 1.87453 23.2334C1.71653 23.0631 1.80156 23.1807 1.67141 22.9952C1.46049 22.6942 1.6456 22.019 1.69973 21.669C1.36518 21.9864 1.16349 22.3223 0.894065 22.6924C0.723343 22.9268 0.571594 23.0207 0.296409 23.0655C0.144928 22.9569 0.0491585 22.9062 0.0102758 22.7002C-0.136817 21.9185 1.33719 20.5697 1.7427 19.9317C2.23728 19.1532 2.19286 17.7968 2.46535 16.8887C3.07712 14.8498 4.11414 12.7463 5.27199 10.9922C8.50613 6.09272 13.2101 2.17358 18.8677 0.916056C20.7388 0.500224 22.6374 0.475296 24.5064 0.113322C24.7686 0.0809195 24.9722 0.0759411 25.1851 0.260783C25.9875 0.957993 25.8882 -0.0505122 26.7368 0.00199363ZM25.9214 30.4014C24.7041 31.5673 23.6 32.8621 22.4155 34.0645C21.398 35.0975 20.2894 36.0444 19.3159 37.1221C19.124 37.3344 18.7048 37.7417 18.6822 38.0303C18.6812 38.0442 18.6839 38.0583 18.6851 38.0723L20.145 38.0772C20.9383 36.7498 25.7513 31.1714 25.9214 30.4014ZM24.2837 27.4405C22.312 29.695 20.4582 31.9785 18.2847 34.0381C17.4397 34.8389 15.1571 36.6576 14.7105 37.6289C14.7956 37.765 14.7381 37.7293 14.8677 37.7598C15.425 37.8946 15.9702 37.9817 16.5425 38.0127C17.3838 36.6508 18.2795 35.328 19.228 34.045C19.9194 33.1052 24.2911 28.0173 24.2837 27.4405ZM30.7613 31.1329C29.1719 32.2445 27.6347 33.4302 26.1509 34.6905C25.0712 35.62 24.0426 36.6168 22.9136 37.4825C23.5291 37.32 24.117 37.1343 24.7105 36.8985C26.7922 35.9532 28.1461 34.5127 29.771 32.9073C30.2172 32.4663 30.8133 32.0124 31.1812 31.5059C31.0273 31.6133 30.463 32.0851 30.3198 32.085C30.5163 31.8336 30.8651 31.5427 30.9292 31.2373C30.7871 31.1352 30.8478 31.1579 30.7613 31.1329ZM22.0357 25.4112C21.3733 26.2515 20.7166 27.1004 19.9937 27.8858C18.973 28.9945 12.0797 35.9447 11.8443 36.5118C11.9595 36.6828 11.888 36.6096 12.064 36.7256L13.0103 37.1358C13.7412 35.9371 14.534 34.828 15.4009 33.7325C16.341 32.5445 21.9369 26.2778 22.0357 25.4112ZM21.7515 20.7657C21.0004 21.6708 20.2559 22.5868 19.481 23.4698C18.1256 25.0138 9.55834 34.3838 9.39602 35.0059C9.47398 35.1775 9.55857 35.2757 9.68899 35.4073L9.99367 35.6172C10.3675 35.506 11.0007 34.4155 11.2691 34.0459C12.2208 32.7385 13.2157 31.4676 14.2525 30.2325C15.4196 28.8307 21.292 22.1004 21.7349 20.9727C21.7606 20.9067 21.7644 20.8343 21.7515 20.7657ZM21.1333 17.1436C19.8998 18.1286 18.2443 20.1614 17.106 21.4004C14.0751 24.6995 9.65583 29.1091 7.31301 32.836C7.35266 32.9865 7.39629 33.1068 7.46926 33.2432C7.87115 33.0963 9.76351 30.2379 10.1861 29.667C11.0938 28.4407 12.1618 27.2872 13.1704 26.1495C14.8964 24.2166 16.6335 22.2943 18.3804 20.3819C18.9712 19.7324 20.7983 17.939 21.106 17.3057C21.147 17.2212 21.1375 17.2344 21.1333 17.1436ZM17.3306 16.3008C16.9128 16.6129 16.5563 17 16.188 17.3721C16.0719 17.2756 15.9248 17.0918 15.773 17.1104C15.1737 17.1844 14.8418 17.9823 14.3579 18.3018C14.1357 18.5545 13.916 18.81 13.6988 19.0674C13.0377 19.6029 12.5792 20.0654 12.1265 20.8008C12.044 20.8975 11.9749 20.9921 11.9116 21.1036C11.2108 22.3368 10.0635 23.3031 9.16946 24.3985C7.81236 26.0903 6.56518 27.8665 5.42727 29.7256C5.69925 30.0614 5.91148 30.4241 6.13039 30.7979C8.1876 26.6221 11.4981 23.1106 14.5025 19.6641C15.2767 18.7757 16.844 17.2708 17.3306 16.3008ZM9.89211 20.1914C7.78519 22.1712 5.82962 24.2668 4.06692 26.5899L4.40481 27.711C4.62766 27.6529 4.78884 27.2411 4.90871 27.0342C5.82532 25.4515 6.81107 23.9891 7.95852 22.5801C8.58416 21.812 9.41694 21.0566 9.92336 20.209L9.89211 20.1914ZM38.2134 17.7842C37.4481 18.7845 31.7549 26.9442 31.7573 27.3916L31.8296 27.3809C32.7646 26.3354 37.3072 20.1455 37.8999 19.8868L38.1704 19.9356C38.436 19.5714 38.4019 18.55 38.3482 18.1045C38.3289 17.9441 38.3226 17.9039 38.2134 17.7842ZM37.7593 23.6416C37.4901 23.8713 37.175 24.083 37.1509 24.4766C37.1412 24.6375 37.1996 24.6909 37.273 24.8233C37.57 24.4972 37.7355 24.1572 37.8091 23.7139L37.7593 23.6416ZM37.8628 13.9883C36.9133 15.1772 30.061 24.2699 29.9859 24.6143L30.1216 24.542C32.0678 22.8533 34.4199 19.5571 36.1558 17.4825C36.7983 16.7146 37.6061 16.0903 38.2251 15.3106C38.1614 14.9407 38.1348 14.3217 37.9341 14.0166L37.8628 13.9883ZM36.8697 10.1934C36.4531 11.0009 36.0006 11.7649 35.4898 12.5108C34.7302 13.6196 27.569 23.2992 27.6138 23.6543L27.8609 23.3838C30.3664 20.3644 32.6764 17.1649 35.3032 14.2579C36.008 13.4778 36.7263 12.5963 37.5601 11.9649C37.3887 11.4779 37.19 10.5628 36.8697 10.1934ZM7.07571 16.125C5.68362 17.6725 4.2039 19.1814 2.90383 20.8116C3.03304 21.4316 3.08989 22.0264 3.12942 22.6582C3.37148 22.4703 6.65986 16.987 7.1011 16.2198L7.07571 16.125ZM35.8159 8.17094C34.8478 9.63127 33.6455 10.9713 32.5523 12.334C31.0777 14.1722 29.7484 16.0832 28.4009 18.0215C27.8563 18.8049 27.237 19.5282 26.7447 20.3497L26.7798 20.3887C26.8992 20.2849 27.0197 20.1833 27.1314 20.0704C29.0118 17.8332 30.7716 15.4922 32.6939 13.292C33.9322 11.8748 35.4774 10.5712 36.5298 9.00395C36.3076 8.69295 36.1114 8.41329 35.8159 8.17094ZM34.1089 6.20805C33.2333 7.42097 27.2157 14.0082 27.1284 14.8379C27.243 14.741 27.3582 14.6488 27.4634 14.5411C29.2133 12.5306 30.9888 10.5817 32.9107 8.74613C33.5517 8.13385 34.205 7.45175 34.938 6.96098C34.6759 6.6888 34.4301 6.40479 34.1089 6.20805ZM31.9907 4.45024C31.3784 5.03944 30.7828 5.64794 30.2056 6.27445C29.4601 7.09402 23.5308 13.8615 23.3872 14.3145C23.5583 14.2676 23.6277 14.2127 23.7534 14.084C25.4725 12.2034 30.9239 6.04003 32.7613 5.06742L31.9907 4.45024ZM15.7095 11.2071C15.5372 11.3242 15.4544 11.4179 15.3413 11.5996C15.3262 11.6241 15.2388 11.7739 15.2144 11.7979C15.0206 11.9887 14.96 11.766 14.73 11.8028C14.721 12.0448 14.7712 12.2133 14.8462 12.4375L14.8765 12.5245L14.7857 12.5186L14.7857 12.5176L14.5972 12.3653C14.3413 12.4183 14.1095 12.681 13.9673 12.8995C13.8079 13.1443 13.7028 13.3956 13.7573 13.6924C13.9294 13.7192 13.9721 13.6514 14.1118 13.5469C14.2351 13.4546 14.3542 13.3542 14.4702 13.25L14.814 12.9346C15.2183 12.6942 15.7132 12.3311 15.9761 11.9278C16.1096 11.7232 16.1209 11.6165 16.0816 11.3799C15.9279 11.255 15.9008 11.2315 15.7095 11.2071ZM13.4546 4.05375C9.97953 6.4898 7.07782 9.34587 5.00637 13.1866C5.02499 13.3219 4.99518 13.2825 5.04543 13.334C6.76469 11.2142 8.48961 9.12013 10.3814 7.16117C11.3945 6.11198 12.5082 5.1701 13.5191 4.12211L13.4546 4.05375ZM25.7144 2.01664C23.7046 3.70724 21.7523 5.44145 19.8052 7.20902C18.4385 8.44958 17.0618 9.66591 15.813 11.0381C16.0216 11.2412 16.2462 11.5274 16.5396 11.5596C16.8658 11.474 17.1425 11.141 17.3892 10.9102C19.6698 8.9688 22.0021 7.096 24.3843 5.29203C25.6249 4.33579 26.831 3.32992 28.1577 2.50297C27.3996 2.17057 26.5336 2.03759 25.7144 2.01664ZM22.9859 1.64164C22.4289 1.66663 21.8703 1.70098 21.313 1.71195C21.439 1.98966 21.5313 2.10539 21.4966 2.41508C21.1196 2.93909 20.6142 3.36229 20.1636 3.81742C19.3404 4.66411 18.5056 5.49925 17.6607 6.32231C17.3786 6.59614 17.0137 6.85974 16.7632 7.15434C16.6589 7.27709 16.6312 7.41967 16.6021 7.57524C16.3469 7.5904 16.3163 7.56178 16.1363 7.74418C16.0853 7.92707 16.0423 8.10548 16.0015 8.29106C15.9673 8.446 15.93 8.49506 15.8247 8.60356L15.7027 8.57231L15.5523 8.2852C15.372 8.2938 15.2465 8.39444 15.1323 8.54594C14.9659 8.767 14.9719 9.07073 14.9556 9.33891L14.8286 9.51274C14.6604 9.41354 14.7347 9.47902 14.6089 9.30961C14.117 9.62692 13.4179 10.4597 13.0786 10.958C13.1607 11.1563 13.1965 11.1584 13.3784 11.2686L13.5161 11.2549L13.4019 10.8692L13.4663 10.8067C13.5673 10.8648 13.6497 10.9201 13.7417 10.9903L13.772 10.9883L13.8989 10.7373C14.0524 10.7351 13.9797 10.7198 14.1197 10.7803C14.2321 10.5144 14.0851 10.2279 14.1773 9.98149C14.2518 10.1751 14.3292 10.363 14.4165 10.5508L14.522 10.5508L14.6284 10.3868C14.5902 10.2372 14.4418 9.88524 14.48 9.74906C14.62 9.87396 14.6838 9.98826 14.7691 10.1573L14.7905 10.0664L14.8111 10.2129C15.3843 9.87922 16.4396 8.68161 16.9907 8.16606C18.2368 6.99673 19.4892 5.83373 20.7476 4.67875C21.5453 3.95898 23.39 2.61469 23.9068 1.77348C23.6651 1.60335 23.275 1.62375 22.9859 1.64164ZM29.3736 3.01176C27.9202 4.82228 26.1051 6.42088 24.4732 8.06156C23.9292 8.60848 23.3146 9.14874 22.8413 9.75981L23.1577 9.58695C24.459 8.37901 25.7362 7.14706 27.062 5.96781C27.999 5.13456 29.059 4.3501 29.8999 3.41606L29.9029 3.26274C29.7268 3.09436 29.599 3.06889 29.3736 3.01176ZM19.7642 1.89067C19.4719 1.94247 19.1745 1.98494 18.8843 2.04789C17.8192 3.37237 16.6156 4.46147 15.3853 5.61039C14.6232 6.32202 13.7749 7.06301 13.1607 7.91899L13.1724 8.0059L13.438 7.81059C14.6168 6.36846 16.7846 4.5847 18.2486 3.40238C18.7673 2.98337 19.7514 2.46926 20.1206 1.93461C19.9612 1.82919 19.9436 1.8672 19.7642 1.89067Z" fill="#54E6ED"/>
</svg>
