<svg width="85" height="85" viewBox="0 0 85 85" fill="none" xmlns="http://www.w3.org/2000/svg">
<path d="M0.00439205 28.1855C0.406901 27.2747 1.12734 26.8129 2.03564 26.4053C2.74203 23.9005 3.64508 21.4846 4.59326 19.0576C4.06589 18.387 3.35606 17.6534 3.25732 16.7842C3.19525 16.2385 3.30107 15.8882 3.64404 15.4609L4.12549 15.415C5.19643 15.7872 5.47666 16.3805 5.97607 17.3018C6.1673 16.8022 6.33888 16.1748 6.61084 15.7148C6.90537 15.2167 7.05035 15.2241 7.59424 15.043L7.67431 15.0742C8.38541 14.7234 8.6556 13.935 9.00146 13.2764C8.97386 13.2471 8.9458 13.2174 8.91748 13.1885C8.4647 12.7268 7.92193 12.2518 7.67724 11.6504C7.46108 11.1183 7.52463 10.7534 7.73877 10.2402C8.0491 10.0722 8.11662 9.99201 8.48974 9.98926C9.48506 9.98256 10.1464 10.774 10.8179 11.3799L13.3882 9.02637C13.1808 8.39712 12.8745 7.70933 13.145 7.05566C13.3093 6.65843 13.5232 6.43664 13.9712 6.36328C14.5553 6.26791 15.0808 6.65755 15.5415 6.94434C16.7382 6.01329 24.1609 0.19406 24.7515 0.00781142C25.2395 0.0910786 25.3611 0.0843113 25.7241 0.396483L25.7124 0.793944C25.1538 1.86008 24.2111 2.45572 23.1987 3.07226C26.1227 2.2622 29.2666 1.28321 32.269 0.846678C33.826 0.620154 35.7658 1.35169 37.2231 0.760741C37.5255 0.401724 37.6611 0.171782 38.1255 -1.6665e-06C38.9916 0.126349 39.7841 0.571898 40.6333 0.656248C41.7903 0.771216 42.9783 0.726522 44.145 0.840818C51.274 1.5397 57.8818 3.32828 63.7964 7.3623C70.4939 11.9298 77.4616 21.7858 80.3003 29.1416C81.6428 32.6202 82.3654 36.2688 83.0015 39.915C83.8003 40.4572 84.6139 41.1012 85.0024 41.9834C84.8292 42.6547 84.2765 42.7749 83.8452 43.291C83.2799 43.9679 83.5064 44.9157 83.5659 45.7285C83.6029 46.9806 83.513 48.2412 83.3813 49.4863C82.4223 58.5639 78.8417 65.5209 71.4585 71.2969L72.8315 72.7373C72.4581 73.3425 72.0803 74.0389 71.2935 74.1904C70.1613 74.4088 68.9499 73.4901 68.0376 72.9541C67.6815 73.2536 65.7339 74.6485 65.7368 75.0312C65.7403 75.406 66.0638 75.7542 65.9487 76.1465C65.8274 76.5589 65.494 76.8764 65.0933 77.0537C64.4252 77.3499 63.1629 76.6985 62.5229 76.4541C61.3086 77.0982 60.0876 77.5745 58.7886 78.042C59.0989 78.3143 59.3847 78.5789 59.5698 78.9482C59.7804 79.3675 59.7261 79.795 59.5776 80.2187C59.3868 80.417 59.2156 80.5833 58.9517 80.6914C57.2186 81.3998 56.1443 80.4835 54.6108 79.9199C54.1337 79.7447 53.8835 79.6875 53.4077 79.8613C53.102 80.3048 52.8443 80.66 52.4048 80.998C51.5952 81.147 50.9854 80.8493 50.2515 80.5674C49.854 80.6837 49.6837 80.7299 49.3745 81.0166C49.0114 81.3533 49.2623 81.1734 48.8677 81.4502C48.228 81.8981 46.7931 81.5047 46.0493 81.3896C46.7238 82.1006 47.4367 82.53 48.2231 83.1025C48.7212 83.4653 48.921 83.7864 49.0161 84.3711C48.7854 84.693 48.6784 84.8969 48.2407 84.9795C46.5796 85.292 43.7128 82.1606 42.3569 81.2988C40.7026 80.2477 37.821 80.3418 35.8911 79.7627C31.5584 78.4627 27.0894 76.2593 23.3618 73.7988C12.9494 66.926 4.61991 56.9285 1.94775 44.9053C1.06421 40.9295 1.0118 36.8962 0.242674 32.9248C0.173789 32.3674 0.162314 31.9338 0.555173 31.4814C2.03656 29.7765 -0.106858 29.9884 0.00439205 28.1855ZM64.6079 29.9189C67.0855 32.5057 69.836 34.8523 72.3911 37.3691C74.5863 39.5314 76.5989 41.8864 78.8892 43.9551C79.3402 44.3628 80.2046 45.2542 80.8179 45.3027C80.8475 45.305 80.8778 45.2984 80.9077 45.2959L80.9185 42.1924C78.0972 40.5062 66.2447 30.281 64.6079 29.9189ZM58.3149 33.3975C63.1061 37.5874 67.9586 41.5277 72.3354 46.1465C74.0371 47.9422 77.9023 52.7933 79.9663 53.7422C80.2556 53.5613 80.1787 53.6829 80.2437 53.4072C80.5302 52.2228 80.7157 51.0641 80.7817 49.8477C77.8875 48.0598 75.0758 46.1573 72.3491 44.1416C70.3511 42.6716 59.5407 33.3818 58.3149 33.3975ZM66.1606 19.6338C68.5231 23.0114 71.044 26.2775 73.7222 29.4307C75.6975 31.7251 77.8141 33.9105 79.6538 36.3096C79.3087 35.0017 78.9148 33.7533 78.4136 32.4922C76.4049 28.0682 73.3438 25.1914 69.9321 21.7383C68.995 20.7902 68.0309 19.523 66.9546 18.7412C67.183 19.0685 68.1875 20.2691 68.186 20.5723C67.6515 20.155 67.0336 19.4137 66.3843 19.2773C66.1671 19.5793 66.2141 19.4494 66.1606 19.6338ZM54.0024 38.1748C55.7885 39.5827 57.5931 40.979 59.2622 42.5156C61.619 44.6853 76.3872 59.3328 77.5923 59.833C77.9557 59.5881 77.8008 59.7401 78.0474 59.3662L78.9175 57.3555C76.3704 55.8022 74.013 54.1175 71.6851 52.2754C69.1601 50.2773 55.8429 38.3833 54.0024 38.1748ZM44.1323 38.7793C46.0556 40.3752 48.0012 41.957 49.8774 43.6035C53.1572 46.4826 73.07 64.6912 74.3921 65.0361C74.757 64.8704 74.9649 64.6894 75.2446 64.4121L75.6919 63.7656C75.4559 62.9715 73.1387 61.6253 72.353 61.0547C69.5747 59.0323 66.8734 56.9189 64.2485 54.7158C61.2705 52.2364 46.9673 39.7566 44.5708 38.8154C44.4307 38.7608 44.2782 38.7519 44.1323 38.7793ZM36.4331 40.0937C38.5262 42.715 42.8459 46.2325 45.479 48.6514C52.4898 55.0921 61.8599 64.4833 69.7798 69.4619C70.1 69.3776 70.3559 69.2851 70.646 69.1299C70.3339 68.2758 64.2581 64.2551 63.0454 63.3574C60.4394 61.4285 57.9895 59.1571 55.5718 57.0137C51.4644 53.346 47.3789 49.6555 43.3149 45.9434C41.9348 44.6878 38.1248 40.8055 36.7788 40.1514C36.5988 40.064 36.6268 40.0848 36.4331 40.0937ZM34.6421 48.1738C35.3053 49.0617 36.1276 49.8199 36.9185 50.6025C36.7132 50.8493 36.3241 51.1616 36.3638 51.4844C36.521 52.7579 38.2161 53.463 38.895 54.4912C39.432 54.9635 39.9749 55.43 40.522 55.8916C41.6598 57.2964 42.6419 58.2713 44.2046 59.2334C44.4099 59.4088 44.6114 59.555 44.8481 59.6895C47.4691 61.1787 49.5232 63.6156 51.8511 65.5156C55.4462 68.3995 59.2197 71.0516 63.1704 73.4697C63.8843 72.8914 64.6561 72.441 65.4507 71.9756C56.5766 67.604 49.1157 60.5681 41.7915 54.1836C39.9033 52.5384 36.7036 49.2075 34.6421 48.1738ZM42.9097 63.9805C47.117 68.4581 51.5713 72.6133 56.5083 76.3594L58.8901 75.6416C58.7668 75.168 57.8913 74.826 57.4517 74.5713C54.0884 72.6235 50.9819 70.5281 47.9878 68.0898C46.3554 66.7603 44.7491 64.9913 42.9478 63.915L42.9097 63.9805ZM37.7954 3.79785C39.9221 5.42487 57.2606 17.5226 58.2114 17.5176L58.189 17.3623C55.9671 15.3752 42.8145 5.72546 42.2632 4.46484L42.3667 3.88965C41.5929 3.32525 39.4228 3.39645 38.4761 3.51074C38.135 3.55162 38.0498 3.56582 37.7954 3.79785ZM50.2427 4.76269C50.7308 5.33468 51.1806 6.00435 52.0171 6.05566C52.3587 6.07623 52.4714 5.95077 52.7524 5.79492C52.0594 5.16378 51.3373 4.81251 50.395 4.65625L50.2427 4.76269ZM29.729 4.54199C32.2547 6.5593 51.5746 21.1204 52.3091 21.2822L52.1558 20.9922C48.567 16.8565 41.5625 11.8588 37.1538 8.16992C35.5221 6.80451 34.1954 5.08794 32.5386 3.77246C31.7524 3.90799 30.4367 3.9649 29.7886 4.3916L29.729 4.54199ZM21.6636 6.65332C23.3796 7.53846 25.0033 8.50043 26.5884 9.58594C28.9444 11.1999 49.5143 26.4175 50.269 26.3223L49.6938 25.7978C43.2776 20.4736 36.4797 15.5644 30.3022 9.98242C28.6444 8.48454 26.77 6.95777 25.4282 5.18555C24.3932 5.54978 22.4482 5.97238 21.6636 6.65332ZM34.269 69.9658C37.5575 72.9241 40.7638 76.0693 44.228 78.832C45.5461 78.5573 46.8106 78.4365 48.1538 78.3525C47.7659 77.8446 36.1025 70.8502 34.4712 69.9121L34.269 69.9658ZM17.3667 8.89258C20.47 10.95 23.3174 13.505 26.2134 15.8281C30.1197 18.9617 34.1803 21.786 38.2993 24.6494C39.9639 25.8068 41.5009 27.1237 43.2466 28.1699L43.3306 28.0947C43.1097 27.8408 42.894 27.5841 42.6538 27.3467C37.8998 23.3508 32.925 19.6121 28.2495 15.5273C25.2377 12.8958 22.4669 9.61236 19.1362 7.37598C18.4753 7.84809 17.8817 8.26461 17.3667 8.89258ZM13.1958 12.5195C15.7743 14.3811 29.7738 27.1705 31.5347 27.3535C31.3284 27.1098 31.1311 26.8653 30.9019 26.6416C26.6295 22.923 22.4891 19.1497 18.5884 15.0654C17.2871 13.7032 15.8383 12.3146 14.7954 10.7568C14.2168 11.3141 13.614 11.8367 13.1958 12.5195ZM9.46045 17.0215C10.7125 18.3227 12.0042 19.5869 13.3354 20.8135C15.0741 22.3951 29.4617 34.9996 30.4224 35.3027C30.3227 34.9395 30.2063 34.7924 29.9331 34.5254C25.9372 30.8727 12.8389 19.2883 10.772 15.3838L9.46045 17.0215ZM23.8188 51.6191C24.0678 51.9853 24.2666 52.1612 24.6528 52.4014C24.7051 52.4338 25.0213 52.6197 25.0728 52.6719C25.4784 53.0837 25.0053 53.2114 25.0835 53.7002C25.598 53.7194 25.9557 53.6124 26.4321 53.4531L26.6167 53.3896L26.605 53.5811L26.603 53.5811L26.2788 53.9824C26.3913 54.5262 26.9493 55.0181 27.4136 55.3203C27.9341 55.6594 28.4682 55.8835 29.0991 55.7676C29.1561 55.4017 29.0136 55.3098 28.7915 55.0127C28.5953 54.7507 28.3799 54.4995 28.1587 54.2529L27.4888 53.5215C26.9779 52.6622 26.2071 51.6114 25.3501 51.0527C24.9151 50.7688 24.6884 50.7453 24.1851 50.8291C23.9196 51.1557 23.8709 51.2125 23.8188 51.6191ZM8.61767 56.4111C13.7944 63.7957 19.8633 69.9614 28.0249 74.3633C28.3123 74.3237 28.2282 74.3869 28.3374 74.2803C23.8326 70.6267 19.3841 66.9606 15.2212 62.9404C12.9915 60.7874 10.9893 58.4216 8.76221 56.2734L8.61767 56.4111ZM4.2876 30.3584C7.88017 34.6292 11.5646 38.7774 15.3208 42.915C17.9574 45.8197 20.5431 48.7454 23.4595 51.3994C23.891 50.9562 24.4983 50.4789 24.5669 49.8555C24.385 49.1623 23.6784 48.5731 23.188 48.0488C19.0625 43.2025 15.0829 38.2477 11.2495 33.1855C9.21714 30.5489 7.07835 27.9859 5.3208 25.166C4.61448 26.7771 4.33212 28.6176 4.2876 30.3584ZM3.77099 34.2002C3.40955 34.7136 3.45466 35.5408 3.49267 36.1553C3.54577 37.3392 3.61681 38.5263 3.64013 39.7109C4.23055 39.4431 4.47686 39.2484 5.13525 39.3223C6.24886 40.1235 7.14843 41.1968 8.11572 42.1543C9.91496 43.9035 11.689 45.6773 13.438 47.4727C14.0199 48.072 14.5795 48.8476 15.2056 49.3799C15.4665 49.6018 15.7694 49.6608 16.1001 49.7227C16.1323 50.2645 16.0721 50.3295 16.4595 50.7119C16.8484 50.8204 17.2279 50.9123 17.6226 50.999C17.9517 51.0716 18.0551 51.1494 18.2856 51.373L18.2183 51.6338L17.6089 51.9541C17.6273 52.3371 17.8416 52.6031 18.1636 52.8457C18.6335 53.1996 19.2791 53.186 19.8491 53.2207L20.2183 53.4912C20.0075 53.8485 20.1464 53.6899 19.7866 53.957C20.4609 55.0026 22.2315 56.4891 23.2905 57.21C23.7117 57.0355 23.7153 56.9592 23.9497 56.5723L23.9214 56.2793L23.0991 56.5234L22.9683 56.3867C23.0916 56.1724 23.2078 55.9971 23.3569 55.8018L23.353 55.7354L22.8188 55.4668C22.8142 55.1408 22.7822 55.2958 22.9106 54.999C22.3457 54.76 21.7381 55.0718 21.2144 54.876C21.6258 54.7176 22.0251 54.5527 22.4243 54.3672L22.4233 54.1416L22.0757 53.916C21.7577 53.9972 21.0083 54.3142 20.7192 54.2324C20.985 53.9344 21.2277 53.7976 21.5874 53.6162L21.394 53.5713L21.7065 53.5273C20.9973 52.3091 18.4515 50.0677 17.356 48.8965C14.8711 46.2486 12.4002 43.5871 9.9458 40.9131C8.4163 39.2181 5.55872 35.2984 3.77099 34.2002ZM6.40283 22.583C10.2502 25.6714 13.6468 29.5273 17.1333 32.9951C18.2957 34.1512 19.4449 35.4569 20.7437 36.4629L20.3745 35.792C17.8076 33.0269 15.191 30.3126 12.6851 27.4951C10.9142 25.5038 9.24726 23.2519 7.2622 21.4648L6.93603 21.457C6.57787 21.8314 6.52434 22.1035 6.40283 22.583ZM4.11377 42.2451C3.88969 42.584 3.97113 42.6215 4.02099 43.0029C4.13104 43.6239 4.22127 44.2546 4.35498 44.8711C7.1698 47.1346 9.48456 49.693 11.9263 52.3076C13.4383 53.9269 15.0109 55.7301 16.8296 57.0352L17.0161 57.0107L16.6001 56.4463C13.5355 53.9414 9.74441 49.3355 7.23193 46.2246C6.34151 45.1223 5.24994 43.0298 4.11377 42.2451Z" fill="#54E6ED"/>
<path d="M71.0303 58.2567C71.0662 58.2511 71.1008 58.2413 71.1344 58.227C71.0999 57.8642 71.0677 57.5015 71.0292 57.1391C71.0151 57.006 71.0003 56.8707 70.9619 56.7435C70.6915 55.8444 70.3778 54.9591 69.9862 54.1071C69.4103 52.8544 68.7929 51.621 68.2069 50.3728C67.6614 49.2109 67.123 48.0457 66.601 46.873C65.0814 43.4592 63.5668 40.0432 62.0602 36.6238C61.4038 35.1339 60.7715 33.6338 60.1298 32.1375C59.5257 30.7294 58.9269 29.3191 58.3198 27.9122C57.7885 26.6809 57.2547 25.4507 56.7111 24.2247C55.802 22.175 54.8878 20.1274 53.9689 18.0819C53.2849 16.5597 52.529 15.0755 51.5917 13.6904C51.2365 13.1656 50.8497 12.668 50.3399 12.2786C50.1268 12.1157 49.9224 11.9413 49.7167 11.7691C49.0427 11.2047 48.2608 10.8371 47.4217 10.6235C46.5342 10.3976 45.6462 10.1642 44.7153 10.137C43.8578 10.1121 43.0036 9.98242 42.1431 10.0851C42.0485 10.0965 41.9478 10.1079 41.857 10.0874C41.5848 10.0258 41.3292 10.0503 41.071 10.1592C40.9508 10.2099 40.8099 10.2154 40.6773 10.2315C40.1462 10.2954 39.607 10.3043 39.0957 10.4947C38.9908 10.5337 38.868 10.5207 38.7549 10.5403C38.1719 10.6412 37.5895 10.7449 37.0068 10.8478C36.988 10.8511 36.97 10.8586 36.9513 10.8625C36.6904 10.9179 36.4298 10.9743 36.1687 11.0277C36.0565 11.0507 35.9422 11.0649 35.8297 11.0882C35.5686 11.1421 35.3082 11.2 35.0473 11.2548C34.9164 11.2823 34.7843 11.304 34.6534 11.3315C34.4298 11.3782 34.207 11.4301 33.983 11.4751C33.8333 11.5053 33.6814 11.5256 33.5313 11.5549C33.2697 11.606 33.0105 11.6756 32.7467 11.7105C32.3289 11.7652 31.9083 11.8002 31.4883 11.8378C31.3364 11.8514 31.1827 11.8536 31.0299 11.8531C30.7634 11.8521 30.4969 11.8452 30.2304 11.8407C29.6908 11.9477 29.1498 12.0484 28.6116 12.1631C28.1108 12.2697 27.6131 12.3902 27.1144 12.5064C26.6711 12.6096 26.2287 12.7168 25.7851 12.8192C25.6188 12.8577 25.4484 12.8806 25.2839 12.925C25.1585 12.9585 25.0388 13.0147 24.9167 13.0609C24.9596 13.1229 25.0206 13.1787 25.0422 13.2475C25.1749 13.6676 25.2776 14.093 25.3062 14.5371C25.331 14.9187 25.3555 15.3085 25.4535 15.6754C25.5335 15.9747 25.588 16.2715 25.6191 16.5762C25.6716 17.0913 25.7213 17.6071 25.7732 18.1223C25.7867 18.2557 25.7784 18.3991 25.8251 18.5206C26.0286 19.0506 26.0203 19.6117 26.0915 20.1611C26.1112 20.3128 26.14 20.4635 26.1702 20.6132C26.2189 20.8563 26.284 21.0966 26.3198 21.3412C26.367 21.6628 26.3691 21.9903 26.5051 22.2967C26.5501 22.3984 26.5462 22.5217 26.5666 22.6348C26.664 23.1799 26.7518 23.7272 26.8628 24.2695C26.9738 24.8112 27.1142 25.3469 27.232 25.8871C27.3947 26.6331 27.5422 27.3824 27.708 28.1276C27.82 28.6305 27.9516 29.1288 28.0763 29.6287C28.1594 29.9621 28.2425 30.2957 28.3323 30.6273C28.4823 31.1802 28.6382 31.7316 28.7907 32.284C29.0041 33.0574 29.2004 33.8357 29.4344 34.603C29.7131 35.5178 29.9771 36.4395 30.3947 37.3057C30.4275 37.3739 30.4415 37.4512 30.4663 37.5237C30.8226 38.5733 31.0862 39.651 31.4768 40.6914C32.0091 42.108 32.5483 43.5214 33.161 44.9049C33.6577 46.0262 34.1586 47.1466 34.6962 48.2485C35.1826 49.2462 35.6822 50.2421 36.2493 51.195C36.7084 51.9666 37.1511 52.75 37.6644 53.4928C38.3401 54.4709 39.0467 55.419 39.8165 56.3253C40.5634 57.2046 41.3784 58.0061 42.2798 58.7229C42.6849 59.0451 43.0663 59.4001 43.4891 59.6969C44.0359 60.0807 44.6102 60.4261 45.1785 60.7785C46.2072 61.4161 47.3127 61.8978 48.4362 62.3363C48.8628 62.5029 49.3126 62.6104 49.7529 62.74C51.5712 63.2754 53.4244 63.4565 55.3117 63.2753C55.808 63.2275 56.3038 63.1781 56.7997 63.1275C56.9332 63.114 57.0677 63.103 57.1983 63.0747C57.7946 62.9456 58.3906 62.816 58.9845 62.6767C59.3744 62.5854 59.7641 62.4907 60.1472 62.3746C61.1356 62.0751 62.1181 61.7587 63.0737 61.3612C64.169 60.9055 65.2814 60.4904 66.3718 60.0231C67.6925 59.4572 68.9981 58.8552 70.3102 58.269C70.4501 58.2066 70.588 58.1388 70.7312 58.0844C70.8949 58.0222 70.9852 58.1052 71.0303 58.2567Z" fill="#00A6AA"/>
<path d="M71.0315 58.2564C70.9864 58.1047 70.896 58.022 70.7333 58.0838C70.5903 58.1382 70.4521 58.206 70.3122 58.2684C69.0001 58.8546 67.6946 59.4566 66.3738 60.0225C65.2837 60.4898 64.1713 60.9049 63.0757 61.3606C62.1201 61.7581 61.1376 62.0745 60.1492 62.374C59.7662 62.4901 59.3764 62.5848 58.9866 62.6761C58.3927 62.8154 57.7964 62.9453 57.2003 63.0741C57.0697 63.1024 56.9349 63.1131 56.8017 63.1269C56.3058 63.1775 55.81 63.2272 55.3138 63.2747C53.4265 63.4559 51.5735 63.2748 49.7549 62.7395C49.3143 62.6099 48.8645 62.5023 48.4382 62.3357C47.315 61.8972 46.2092 61.4155 45.1805 60.7779C44.6122 60.4255 44.0379 60.0801 43.4911 59.6964C43.0684 59.3998 42.6869 59.0446 42.2819 58.7223C41.3804 58.0052 40.5651 57.2041 39.8185 56.3247C39.049 55.4184 38.3421 54.4703 37.6664 53.4922C37.1531 52.7494 36.7104 51.9661 36.2513 51.1944C35.6842 50.2415 35.1849 49.2456 34.6982 48.2479C34.1609 47.1459 33.6597 46.0256 33.163 44.9043C32.5503 43.5208 32.0108 42.1075 31.4788 40.6908C31.0879 39.6504 30.8246 38.5725 30.4684 37.5231C30.4438 37.4506 30.4298 37.3736 30.3967 37.3052C29.9791 36.4389 29.7151 35.5172 29.4364 34.6025C29.2028 33.8354 29.0061 33.0569 28.7927 32.2835C28.6402 31.7311 28.4843 31.1796 28.3343 30.6267C28.2445 30.2951 28.1614 29.9615 28.0783 29.6281C27.9536 29.1282 27.822 28.6296 27.71 28.127C27.5442 27.3818 27.3967 26.6325 27.234 25.8865C27.1162 25.346 26.9758 24.8107 26.8649 24.2689C26.7536 23.7266 26.6661 23.1793 26.5686 22.6342C26.5485 22.5211 26.5525 22.3978 26.5071 22.2961C26.3711 21.9897 26.3691 21.6622 26.3219 21.3406C26.286 21.096 26.2206 20.8557 26.1722 20.6126C26.1423 20.4626 26.1132 20.3122 26.0936 20.1605C26.0223 19.6111 26.0306 19.05 25.8271 18.52C25.7804 18.3985 25.7888 18.2554 25.7752 18.1217C25.7233 17.6065 25.6736 17.0907 25.6211 16.5756C25.5901 16.2709 25.5355 15.9741 25.4555 15.6748C25.3576 15.3082 25.3331 14.9184 25.3083 14.5365C25.2793 14.0922 25.177 13.667 25.0442 13.2469C25.0227 13.1784 24.9616 13.1223 24.9187 13.0603C24.4911 13.1498 24.0602 13.2261 23.6368 13.3325C23.0103 13.4898 22.3865 13.6598 21.7671 13.8421C21.4764 13.9276 21.1933 14.0442 20.9152 14.1663C20.4917 14.3523 20.2026 14.6685 20.0766 15.1192C20.0398 15.2504 20.0225 15.3851 19.8524 15.4078C19.991 15.6072 20.0864 15.8167 20.1583 16.0575C20.3057 16.5502 20.3405 17.0524 20.3964 17.555C20.6058 17.6398 20.6499 17.8197 20.6708 18.0184C20.7719 18.986 20.8447 19.9567 21.0737 20.9079C21.203 21.4444 21.2678 21.9962 21.3874 22.5354C21.5525 23.2789 21.7408 24.0174 21.9212 24.7577C22.1013 25.4979 22.2871 26.2368 22.4637 26.9777C22.5608 27.3851 22.6437 27.7958 22.7329 28.2052C22.7722 28.2692 22.829 28.3287 22.8478 28.3986C22.9859 28.9133 23.1084 29.432 23.2505 29.9457C23.5596 31.0654 23.858 32.1885 24.1963 33.2995C24.6625 34.8309 25.1613 36.3523 25.6462 37.8781C25.6705 37.9705 25.6894 38.065 25.7195 38.1557C26.0744 39.2275 26.4417 40.2954 26.7846 41.371C27.4887 43.5781 28.2197 45.7763 29.0228 47.9493C29.5804 49.4577 30.1657 50.9564 30.7568 52.4522C31.2003 53.5742 31.6798 54.682 32.1294 55.8016C32.328 56.2968 32.59 56.7712 32.6643 57.3108L32.6592 57.3032C32.7084 57.3765 32.7576 57.4497 32.8068 57.5229C32.8827 57.6531 32.9759 57.7763 33.0321 57.9145C33.3848 58.7794 33.73 59.6473 34.0766 60.5148C34.3591 61.2227 34.6399 61.9313 34.9212 62.6398C34.9343 62.7545 34.9471 62.8689 34.9602 62.9836L34.9557 62.9762C35.0351 63.1034 35.1312 63.2235 35.1913 63.3596C35.3684 63.7609 35.5231 64.1722 35.7011 64.5731C36.3283 65.9866 36.9605 67.398 37.5937 68.8086C37.7107 69.0695 37.8413 69.3244 37.9682 69.5808C38.0127 69.671 38.0392 69.7572 37.9627 69.8434C38.1306 70.0993 38.2989 70.355 38.4668 70.6109C38.5948 70.6387 38.683 70.7141 38.7332 70.835C38.7586 70.8637 38.7839 70.8921 38.8096 70.9208C39.222 71.3812 39.6978 71.5767 40.2923 71.2766C41.8911 70.9249 43.3755 70.2511 44.8844 69.6454C46.9451 68.8182 49.0002 67.9779 51.0896 67.2235C53.8109 66.2409 56.4667 65.0989 59.094 63.889C60.3812 63.2963 61.6708 62.7086 62.9619 62.1236C64.3396 61.4994 65.7275 60.8965 67.0975 60.2557C68.3113 59.6879 69.5072 59.0826 70.7086 58.4883C70.8251 58.4299 70.9241 58.3345 71.0315 58.2564Z" fill="#009CA1"/>
<path d="M32.3879 71.9252C32.6269 71.8582 32.8694 71.8017 33.1039 71.7215C33.7921 71.4858 34.4787 71.246 35.162 70.9963C35.3951 70.911 35.6243 70.8073 35.8398 70.685C36.1613 70.5025 36.2666 70.2051 36.0657 69.9089C35.4557 69.0099 35.1385 67.9778 34.7001 67.0013C34.2607 66.0227 33.8431 65.0341 33.4161 64.0496C33.2711 63.7157 33.1177 63.385 32.9854 63.0458C32.9101 62.8519 32.8699 62.6445 32.8141 62.444C31.8421 60.0051 30.8267 57.5815 29.9062 55.1225C27.6214 49.0191 25.4547 42.8733 23.4875 36.6589C22.8685 34.7036 22.2984 32.7336 21.8082 30.741C21.3638 28.9356 20.9115 27.1325 20.4628 25.3283C20.3153 25.1596 20.3044 24.9527 20.2996 24.7441L20.3017 24.7531C20.2676 24.7076 20.2173 24.6669 20.2022 24.616C19.8969 23.5905 19.5855 22.5668 19.2968 21.5365C19.1062 20.8566 18.9425 20.1685 18.7807 19.4808C18.7194 19.221 18.701 18.9515 18.655 18.688C18.5824 18.2743 18.5155 17.8589 18.4229 17.4496C18.3233 17.0108 18.2033 16.9293 17.6992 16.8829C17.5722 16.9242 17.4463 16.967 17.3191 17.0056C16.6652 17.2049 16.0156 17.4212 15.3552 17.596C14.8972 17.7171 14.4239 17.7802 13.9575 17.8693C14.0569 18.3532 14.2032 18.8283 14.2263 19.3265C14.2279 19.3639 14.2374 19.4035 14.2534 19.4372C14.3955 19.7386 14.4005 20.0661 14.4376 20.3876C14.4549 20.5392 14.4462 20.702 14.5003 20.8398C14.6638 21.2575 14.6624 21.699 14.7293 22.1315C14.8312 22.7892 15.0139 23.4338 15.0456 24.1031C15.2159 24.4964 15.226 24.9194 15.2787 25.3348C15.293 25.4473 15.3314 25.5566 15.3554 25.6682C15.3994 25.8724 15.4436 26.0765 15.4828 26.2818C15.5115 26.4314 15.5045 26.5943 15.5623 26.7306C15.6843 27.0199 15.696 27.3245 15.7369 27.6259C15.8475 27.5982 15.9587 27.5735 16.0681 27.5419C16.5073 27.415 16.9444 27.2809 17.3852 27.1606C17.5899 27.1047 17.715 27.1675 17.8074 27.3553C17.8574 27.4571 17.8949 27.5668 17.9226 27.6768C17.9922 27.9537 18.0492 28.2338 18.1183 28.511C18.4403 29.8047 18.7685 31.0966 19.0854 32.3917C19.1802 32.7791 19.2451 33.1739 19.3238 33.5656C19.3405 33.6582 19.3618 33.7504 19.3731 33.8438C19.4129 34.1786 19.3407 34.3223 19.0313 34.4756C18.8803 34.5504 18.7163 34.6002 18.5574 34.6582C18.17 34.7999 17.7822 34.9401 17.3946 35.0806C17.5705 35.2943 17.6252 35.5596 17.6945 35.8154C17.9036 36.5892 18.0788 37.3731 18.3098 38.1401C18.8661 39.9879 19.4277 41.8343 20.0227 43.6699C20.5589 45.3248 21.1294 46.9687 21.7065 48.6097C22.6206 51.2082 23.532 53.8081 24.5675 56.362C25.0996 57.6739 25.6202 58.9907 26.1706 60.2947C26.5873 61.2829 27.0423 62.2548 27.4817 63.2331C27.56 63.4076 27.6428 63.5804 27.7275 63.7522C28.0911 64.4902 28.4579 65.2267 28.8201 65.9655C29.4016 67.1516 30.0388 68.3076 30.7046 69.4481C30.936 69.8448 31.1627 70.2444 31.3998 70.6374C31.6175 70.9982 31.8467 71.3521 32.0695 71.7098C32.1433 71.83 32.2415 71.9126 32.3879 71.9252Z" fill="#FAE3B3"/>
<path d="M30.2321 11.8408C30.4987 11.8453 30.7652 11.8521 31.0317 11.8532C31.1844 11.8537 31.3378 11.8518 31.49 11.8379C31.9101 11.8003 32.3306 11.7653 32.7484 11.7106C33.0122 11.676 33.2711 11.6064 33.533 11.555C33.6831 11.5256 33.835 11.5054 33.9847 11.4752C34.2087 11.4299 34.4315 11.3783 34.6551 11.3316C34.786 11.3041 34.9181 11.2824 35.049 11.2549C35.31 11.2004 35.5704 11.1425 35.8314 11.0883C35.9436 11.065 36.0579 11.0508 36.1704 11.0278C36.4315 10.9741 36.6923 10.9179 36.953 10.8626C36.9717 10.8587 36.9897 10.8511 37.0085 10.8478C37.5913 10.745 38.1736 10.6413 38.7566 10.5404C38.8698 10.5208 38.9928 10.5337 39.0974 10.4947C39.6088 10.3047 40.1479 10.2955 40.679 10.2316C40.8116 10.2155 40.9525 10.21 41.0727 10.1593C41.3309 10.0504 41.5865 10.0259 41.8587 10.0875C41.9495 10.108 42.0502 10.0965 42.1448 10.0851C43.0052 9.98222 43.8595 10.1119 44.717 10.1371C45.6476 10.1643 46.5358 10.3974 47.4234 10.6235C48.2625 10.8371 49.0443 11.2045 49.7184 11.7691C49.9241 11.9414 50.1285 12.1161 50.3416 12.2786C50.8514 12.6681 51.2382 13.1654 51.5934 13.6905C52.531 15.0753 53.2869 16.5597 53.9706 18.0819C54.8895 20.1275 55.8037 22.175 56.7129 24.2248C57.2566 25.4505 57.7902 26.681 58.3215 27.9123C58.9286 29.3192 59.5277 30.7295 60.1315 32.1376C60.7732 33.6339 61.4055 35.134 62.062 36.6239C63.5682 40.0433 65.0831 43.4593 66.6027 46.8731C67.1248 48.0457 67.6634 49.2112 68.2087 50.3729C68.7946 51.6211 69.4117 52.8546 69.9879 54.1071C70.3799 54.9592 70.6935 55.8444 70.9637 56.7435C71.002 56.8708 71.0169 57.0064 71.0309 57.1392C71.0694 57.5016 71.1014 57.8646 71.1361 58.227C71.4026 58.041 71.6883 57.877 71.9319 57.6646C72.4085 57.2488 72.5438 56.7287 72.3701 56.1087C72.0783 55.0677 71.5812 54.1141 71.1416 53.1364C70.9138 52.6299 70.6456 52.1416 70.4081 51.6393C69.8184 50.3915 69.2146 49.1498 68.6566 47.8878C68.091 46.6087 67.5889 45.3014 67.0311 44.0186C66.2055 42.1205 65.4402 40.1951 64.4772 38.3581C64.3192 38.0561 64.2375 37.7137 64.1257 37.3884C63.883 36.6821 63.6518 35.9715 63.4002 35.2684C63.1354 34.529 62.8474 33.7977 62.5776 33.0599C61.6298 30.4688 60.6661 27.8833 59.7477 25.282C59.2253 23.8025 58.7725 22.2982 58.3011 20.8009C58.0195 19.9067 57.7528 19.0076 57.496 18.1057C57.1606 16.9284 56.8416 15.7464 56.5152 14.5665C56.3011 13.7923 56.0825 13.0194 55.8726 12.2442C55.7176 11.6721 55.5937 11.0906 55.4182 10.5251C55.2257 9.90439 55.0291 9.28435 54.6779 8.72273C54.3906 8.26354 53.9903 8.0157 53.4729 7.92872C53.1699 7.87775 52.8668 7.85515 52.558 7.89357C52.1014 7.95067 51.6406 7.97406 51.1851 8.0383C50.3507 8.15628 49.5305 8.33475 48.7418 8.64461C48.5485 8.72045 48.3396 8.76603 48.1334 8.796C47.6228 8.87033 47.1036 8.87927 46.6058 9.04806C46.4281 9.10848 46.2258 9.09266 46.0372 9.12523C45.7364 9.17732 45.4375 9.24049 45.1379 9.2994C45.1004 9.30687 45.0638 9.32004 45.026 9.32639C44.3658 9.43608 43.7054 9.54318 43.0457 9.65512C42.8577 9.68706 42.6718 9.73209 42.4853 9.77371C42.4106 9.79037 42.3387 9.82035 42.2635 9.83214C41.4887 9.95318 40.7145 10.0759 39.9384 10.1896C39.5221 10.2505 39.1072 10.2956 38.6944 10.3979C38.2515 10.5074 37.7835 10.5168 37.3265 10.569C36.9464 10.6125 36.5699 10.6576 36.1961 10.7617C35.8676 10.853 35.5138 10.8519 35.1716 10.8951C34.7544 10.9474 34.3281 10.948 33.9295 11.1105C33.8772 11.1318 33.8173 11.134 33.7606 11.1428C33.0431 11.2576 32.3246 11.3661 31.6087 11.4885C31.2134 11.5561 30.8214 11.6435 30.4297 11.7303C30.359 11.746 30.2975 11.8027 30.2321 11.8408Z" fill="#00B3BE"/>
<path d="M20.4626 25.3279C20.9113 27.132 21.3636 28.9355 21.8081 30.7406C22.2985 32.7329 22.8686 34.7031 23.4873 36.6584C25.4543 42.8729 27.6209 49.0187 29.906 55.122C30.8266 57.5811 31.8419 60.0044 32.814 62.4436C32.9152 62.6242 33.0303 62.7993 33.116 62.9875C33.9927 64.9167 34.8929 66.8346 35.8712 68.7146C36.1177 69.1882 36.3752 69.6588 36.6654 70.1064C36.8925 70.4567 37.1644 70.7809 37.4408 71.0951C37.7381 71.433 38.1134 71.4496 38.5571 71.1832C38.5266 70.9925 38.4964 70.8017 38.4659 70.6109C38.298 70.3551 38.1297 70.0993 37.9618 69.8434C37.6281 69.2196 37.2789 68.6034 36.9637 67.9703C36.2727 66.5815 35.7271 65.1298 35.1562 63.6895C35.0656 63.461 35.0207 63.2144 34.9548 62.9762L34.9593 62.9836C34.8274 62.9108 34.8248 62.7736 34.7933 62.6507C34.7022 62.4642 34.6003 62.2822 34.5223 62.0906C34.0841 61.0141 33.6507 59.9357 33.2175 58.8575C33.0402 58.416 32.867 57.973 32.6918 57.5307C32.6805 57.4549 32.6693 57.3794 32.6583 57.3035L32.6634 57.3111C32.5697 57.1477 32.4608 56.9913 32.3851 56.8201C32.091 56.155 31.8107 55.4837 31.5193 54.8173C30.5687 52.6415 29.696 50.4342 28.879 48.2056C27.8252 45.3305 26.8937 42.4132 25.9443 39.5026C25.7964 39.0487 25.6781 38.5849 25.5461 38.1257C25.4429 37.8408 25.3254 37.5601 25.2392 37.2704C24.6948 35.4431 24.1546 33.6145 23.6187 31.7846C23.292 30.669 22.9752 29.5504 22.6539 28.4333C22.5256 27.9731 22.3883 27.5153 22.2709 27.0522C21.9567 25.811 21.6448 24.5692 21.3453 23.3248C21.2292 22.842 21.1419 22.352 21.0535 21.8629C20.9381 21.2236 20.8659 20.5744 20.7183 19.9429C20.5341 19.155 20.483 18.3542 20.3953 17.5559C20.3394 17.0533 20.3046 16.5511 20.1572 16.0584C20.0853 15.8176 19.9899 15.6081 19.8513 15.4087C19.8888 15.2062 19.9262 15.0035 19.9636 14.8026C19.8192 14.6676 19.6703 14.7295 19.5337 14.7841C19.3328 14.8648 19.1846 15.0148 19.0684 15.1964C18.672 15.8171 18.5679 16.5124 18.5615 17.2292C18.5604 17.3383 18.6029 17.4608 18.6614 17.5548C18.8 17.7774 18.8243 18.0225 18.8429 18.2709C18.9188 19.2879 19.176 20.269 19.4342 21.2494C19.7025 22.2664 19.977 23.2816 20.2421 24.2992C20.2803 24.4456 20.2827 24.6012 20.3018 24.7526L20.2998 24.7439C20.4525 24.9107 20.4573 25.1193 20.4626 25.3279Z" fill="#008386"/>
<path d="M14.3778 36.2183C14.2868 36.3159 14.1961 36.4134 14.1119 36.5038C14.0938 37.3106 14.2059 38.077 14.4903 38.822C15.0032 40.1644 15.5029 41.5122 15.9979 42.8614C16.8364 45.1461 17.6654 47.4346 18.5016 49.72C19.443 52.2936 20.3691 54.873 21.3379 57.436C21.9134 58.9594 22.5351 60.4664 23.1775 61.9629C24.1075 64.1294 25.0674 66.2829 26.0299 68.4352C26.468 69.4149 26.9336 70.3828 27.5272 71.2829C27.7192 71.5742 27.944 71.8284 28.2157 72.0482C28.5971 72.3567 29.0384 72.3291 29.4749 72.2804C29.6949 72.256 29.8452 72.0791 29.9231 71.8727C29.9764 71.7311 29.9937 71.5758 30.027 71.427C29.915 71.2047 29.8213 70.9711 29.6883 70.7618C28.8336 69.4165 28.0814 68.0136 27.3351 66.6069C25.3194 62.8072 23.5401 58.9009 22.0795 54.8536C21.3247 52.7619 20.6148 50.6537 19.8692 48.5586C19.136 46.4986 18.4401 44.4272 17.8423 42.3234C17.3338 40.5342 16.8216 38.746 16.3111 36.9569C16.2611 36.8777 16.1954 36.8047 16.164 36.7187C16.002 36.2749 15.7015 35.9894 15.2394 35.8796C14.9522 35.9928 14.6651 36.1054 14.3778 36.2183Z" fill="#008386"/>
<path d="M16.3098 36.9575C16.8203 38.7462 17.3324 40.5345 17.8409 42.3237C18.4388 44.4274 19.1349 46.4989 19.8678 48.5588C20.6134 50.654 21.3233 52.762 22.0782 54.8539C23.5388 58.9012 25.3183 62.8075 27.3338 66.6072C28.08 68.0136 28.8322 69.4168 29.687 70.7621C29.8199 70.9711 29.9137 71.205 30.0256 71.4273C30.142 71.5483 30.2601 71.6679 30.3749 71.7907C30.7605 72.2029 31.2256 72.3251 31.7612 72.161C31.9743 72.0956 32.1793 72.0041 32.3877 71.9247C32.2413 71.9124 32.1429 71.8298 32.0679 71.7094C31.845 71.3517 31.6156 70.9979 31.3982 70.637C31.1611 70.2437 30.9346 69.8442 30.703 69.4477C30.0375 68.3072 29.4003 67.1512 28.8185 65.9651C28.4563 65.2264 28.0894 64.4899 27.7259 63.7519C27.6412 63.5801 27.5587 63.4075 27.4801 63.2328C27.0406 62.2544 26.5857 61.2825 26.169 60.2944C25.6186 58.9901 25.0979 57.6735 24.5659 56.3616C23.5304 53.8078 22.619 51.2079 21.7049 48.6093C21.1275 46.9684 20.557 45.3245 20.021 43.6696C19.4264 41.834 18.8645 39.9876 18.3082 38.1397C18.0772 37.3727 17.902 36.5889 17.6928 35.815C17.6238 35.5592 17.5689 35.2939 17.393 35.0803C17.0278 35.2073 16.6629 35.3343 16.298 35.4613C16.0833 35.8019 16.0581 36.1517 16.2173 36.5256C16.2741 36.6582 16.2804 36.8129 16.3098 36.9575Z" fill="#FCEED2"/>
<path d="M12.7312 28.9843C12.5636 29.0741 12.3991 29.1705 12.2276 29.2526C10.8601 29.907 9.52221 30.6149 8.27703 31.4848C7.93187 31.7262 7.59771 31.9852 7.27283 32.2531C7.12897 32.3718 7.02061 32.5332 6.89615 32.6754C7.92528 32.6024 8.94432 32.3839 9.98559 32.4771C10.3329 32.5084 10.6735 32.5452 10.973 32.7365C11.4214 33.0232 11.6533 33.448 11.7359 33.9665C11.768 34.1679 11.7215 34.3958 11.9103 34.5561C12.1425 34.6051 12.3605 34.5514 12.5849 34.4866C13.5067 34.2206 14.386 33.8413 15.2672 33.472C16.3094 33.0352 17.3709 32.6523 18.4322 32.2677C18.5565 32.2227 18.6926 32.2101 18.8232 32.1824C18.8173 32.1257 18.8182 32.0672 18.8041 32.0125C18.6066 31.2375 18.4055 30.4634 18.209 29.6883C18.0918 29.227 17.9899 28.7616 17.8643 28.3026C17.7899 28.0309 17.7152 27.7505 17.4784 27.5579C16.7844 27.6246 16.1072 27.7024 15.4611 27.9539C15.3046 28.0148 15.1287 28.027 14.9621 28.0615L14.9728 28.0561C14.5747 28.2911 14.1533 28.4668 13.6961 28.5491C13.4066 28.7658 13.0748 28.8883 12.7312 28.9843Z" fill="#EA6481"/>
<path d="M18.8241 32.1829C18.6935 32.2106 18.5573 32.2232 18.433 32.2682C17.3717 32.6528 16.3102 33.0354 15.268 33.4725C14.3868 33.8418 13.5075 34.2211 12.5858 34.4871C12.3614 34.5519 12.1433 34.6053 11.9112 34.5566C11.722 34.396 11.7689 34.1684 11.7368 33.967C11.6542 33.4488 11.4223 33.024 10.9739 32.737C10.6746 32.5454 10.334 32.5086 9.98644 32.4776C8.94517 32.3844 7.92613 32.6029 6.897 32.6759C6.74679 32.8296 6.72156 33.01 6.79184 33.2055C6.85541 33.3829 7.00073 33.4804 7.16843 33.5324C7.33167 33.583 7.50219 33.6167 7.67233 33.6378C8.05157 33.6849 8.43368 33.7113 8.81215 33.7623C9.12936 33.8052 9.46116 33.8142 9.75455 34.0544C9.72933 34.159 9.72448 34.2764 9.67408 34.369C9.52829 34.6374 9.37249 34.9013 9.20584 35.1576C8.90366 35.6226 8.58301 36.0761 8.28517 36.5438C8.10049 36.8343 7.94357 37.1423 7.87977 37.4879C7.78917 37.9805 8.03821 38.3249 8.53218 38.3563C8.70015 38.3672 8.88026 38.3458 9.03966 38.2936C9.67475 38.0855 10.3133 37.8825 10.9331 37.6345C11.8738 37.2584 12.7991 36.8442 13.7329 36.4514C13.9431 36.3629 14.1618 36.2958 14.3765 36.2187C14.6636 36.1061 14.9509 35.9931 15.2383 35.8805C15.5917 35.7407 15.9449 35.601 16.2984 35.4613C16.6633 35.3343 17.0282 35.2076 17.3934 35.0803C17.7812 34.9395 18.1694 34.7995 18.5565 34.6576C18.7156 34.5993 18.8793 34.5498 19.0304 34.475C19.3397 34.3217 19.4122 34.1779 19.3721 33.8432C19.3611 33.7497 19.3396 33.6578 19.3228 33.5646C19.2724 33.4641 19.2096 33.3682 19.1738 33.263C19.0526 32.9047 18.9402 32.5431 18.8241 32.1829Z" fill="#E04A6D"/>
<path d="M12.7326 28.9845C13.0763 28.8885 13.408 28.766 13.6978 28.5495C13.8434 28.2033 13.8674 27.8388 13.8639 27.4701L13.8649 27.4717C13.7267 27.3492 13.7185 27.1851 13.721 27.0177C13.3878 25.9582 13.1551 24.877 13.035 23.773C12.9606 23.0896 12.8867 22.4056 12.8396 21.7199C12.764 20.6152 12.7104 19.509 12.6486 18.4032C12.6424 18.2939 12.6426 18.1846 12.6397 18.0622C13.0848 17.8871 13.5236 17.8902 13.9583 17.8688C14.4247 17.7798 14.898 17.7164 15.356 17.5955C16.0167 17.421 16.666 17.2047 17.3199 17.0052C17.4471 16.9665 17.573 16.9234 17.7 16.8825C17.854 16.8085 18.012 16.7419 18.1595 16.6573C18.24 16.6111 18.3179 16.545 18.37 16.4692C18.5099 16.2668 18.3741 15.9531 18.1313 15.9465C17.9245 15.941 17.7101 15.9718 17.5099 16.0269C16.9752 16.1742 16.4428 16.3328 15.9159 16.5062C15.2215 16.7347 14.5166 16.9003 13.7866 16.957C13.4046 16.9865 13.0238 17.0292 12.6426 17.0672C12.5091 17.0805 12.3739 17.0875 12.2433 17.1155C11.3769 17.3014 10.9558 17.6697 10.7753 18.5189C10.7117 18.817 10.6669 19.1261 10.6672 19.43C10.6684 20.715 10.7335 21.996 10.983 23.2613C11.0162 23.4301 11.037 23.6022 11.0543 23.7737C11.1838 25.0515 11.3641 26.3222 11.5773 27.5885C11.6089 27.7766 11.6647 27.9605 11.7129 28.1455C11.8495 28.6717 12.1744 28.9704 12.7326 28.9845Z" fill="#008386"/>
<path d="M13.957 17.8688C13.5224 17.8902 13.0836 17.8871 12.6385 18.0623C12.6416 18.1846 12.6414 18.2939 12.6474 18.4033C12.7092 19.509 12.7628 20.6153 12.8384 21.7199C12.8852 22.4054 12.9591 23.0894 13.0338 23.773C13.1539 24.877 13.3866 25.9583 13.7198 27.0177C13.8527 27.1419 13.8718 27.3026 13.8637 27.4718L13.8627 27.4701C13.9175 27.5217 13.9796 27.5673 14.0262 27.6254C14.2698 27.9299 14.5781 28.087 14.9728 28.0566L14.962 28.062C15.2201 27.9167 15.4781 27.7711 15.7362 27.6258C15.6951 27.3244 15.6836 27.0195 15.5616 26.7305C15.5041 26.5942 15.5108 26.4312 15.4821 26.2817C15.4429 26.0764 15.3987 25.8722 15.3547 25.6681C15.3307 25.5565 15.2924 25.4472 15.278 25.3346C15.2253 24.919 15.2152 24.496 15.0449 24.103C15.0133 23.4339 14.8305 22.7891 14.7286 22.1313C14.6618 21.6992 14.6631 21.2573 14.4996 20.8397C14.4458 20.7018 14.4545 20.539 14.4369 20.3874C14.3998 20.066 14.3951 19.7385 14.2527 19.437C14.2367 19.4033 14.2275 19.3637 14.2256 19.3263C14.2028 18.8282 14.0565 18.3527 13.957 17.8688Z" fill="#FCEED2"/>
<path d="M6.19348 32.706C6.31182 32.4904 6.46217 32.2797 6.6408 32.1121C7.00336 31.7719 7.37796 31.4395 7.77776 31.1453C8.56549 30.5657 9.40495 30.0645 10.2706 29.6085C10.6258 29.4215 10.9824 29.238 11.3923 29.0247C11.2513 28.2297 11.1247 27.4749 10.9828 26.723C10.6335 24.8735 10.3713 23.0127 10.2476 21.1342C10.1885 20.2347 10.1696 19.3318 10.3123 18.4369C10.357 18.1557 10.4324 17.8743 10.5339 17.6082C10.6876 17.2063 10.9878 16.9524 11.4188 16.8677C11.6072 16.8308 11.7941 16.7877 11.9831 16.7537C13.0964 16.5522 14.212 16.3627 15.323 16.149C16.2077 15.9789 17.0804 15.7577 17.9326 15.4577C18.1243 15.3901 18.2672 15.2996 18.3784 15.1286C18.7131 14.6153 19.1912 14.2622 19.7343 14.0042C20.1309 13.8156 20.5424 13.6513 20.9599 13.5148C22.2742 13.0854 23.6318 12.8271 24.9805 12.5352C25.8238 12.3524 26.6691 12.1793 27.5137 12.0033C28.4145 11.8154 29.3142 11.6207 30.2174 11.4444C31.2525 11.2423 32.2912 11.0581 33.3279 10.8639C34.8923 10.5706 36.4558 10.2705 38.0213 9.98259C39.1908 9.76747 40.3633 9.56883 41.5336 9.35885C43.4025 9.0238 45.2707 8.68449 47.1395 8.34888C47.7624 8.2371 48.3853 8.12418 49.0103 8.02492C50.0144 7.86554 51.018 7.701 52.0258 7.57046C52.5184 7.50689 53.0207 7.51727 53.5185 7.49079C53.7383 7.47913 53.9333 7.55265 54.1216 7.65171C54.4512 7.82557 54.7279 8.06657 54.9084 8.39028C55.0754 8.68958 55.2328 9.00142 55.3401 9.32572C55.5322 9.90716 55.6945 10.4996 55.8504 11.0922C56.2893 12.7602 56.711 14.4324 57.1533 16.0995C57.9548 19.1196 58.9145 22.0908 59.9862 25.0245C61.3135 28.6581 62.6576 32.2857 64.0126 35.909C65.5962 40.1436 67.3322 44.3143 69.2915 48.3909C70.2454 50.3754 71.1939 52.3628 72.1284 54.3565C72.3635 54.8576 72.5566 55.3814 72.7327 55.9066C73.028 56.7876 72.696 57.4884 72.054 57.9225C71.6583 58.1902 71.2571 58.4591 70.83 58.67C69.422 59.3652 68.011 60.0558 66.5836 60.7101C59.4453 63.9819 52.2356 67.0876 44.9363 69.9836C43.2818 70.6401 41.6423 71.349 39.8931 71.7358C38.6469 72.0114 37.4956 71.8409 36.5007 70.9786C36.4298 70.9171 36.3559 70.8597 36.2702 70.7895C36.0779 70.836 35.8878 70.8647 35.7104 70.9282C35.0436 71.1667 34.3809 71.4175 33.7162 71.6621C33.1232 71.8803 32.5375 72.1232 31.9337 72.3051C31.3832 72.471 30.8129 72.5946 30.2607 72.3115C30.1736 72.3404 30.1021 72.3686 30.0285 72.388C29.6401 72.4901 29.2545 72.6067 28.8615 72.6862C28.4602 72.7673 28.0906 72.6483 27.8009 72.3658C27.5556 72.1266 27.3147 71.8702 27.1307 71.5836C26.79 71.0525 26.4686 70.5061 26.1804 69.9446C24.868 67.387 23.7151 64.7554 22.63 62.0952C20.8577 57.7508 19.1699 53.3732 17.526 48.9787C16.157 45.3192 14.8324 41.6432 13.6815 37.9074C13.5825 37.5854 13.531 37.244 13.3409 36.9334C13.2391 36.9657 13.147 36.9887 13.0597 37.0234C12.1525 37.3849 11.2498 37.7587 10.3377 38.1071C9.83743 38.2984 9.3236 38.4547 8.81185 38.6144C8.51614 38.7068 8.212 38.7375 7.90323 38.6631C7.51357 38.5692 7.29309 38.3467 7.26001 37.9574C7.24406 37.7702 7.25019 37.5694 7.3019 37.3907C7.38599 37.0981 7.47905 36.7967 7.63334 36.5381C7.9375 36.029 8.28065 35.5426 8.61962 35.0549C8.78339 34.8191 8.97822 34.6049 9.14975 34.3744C9.19976 34.307 9.21884 34.2163 9.2602 34.117C9.10891 34.0907 8.99703 34.0592 8.88393 34.0534C8.53943 34.0358 8.19388 34.0338 7.84952 34.0148C7.42867 33.9914 7.00495 33.9712 6.60589 33.8175C6.09366 33.6192 5.92744 33.1911 6.19348 32.706ZM17.9052 16.2356C17.7251 16.2887 17.5463 16.3464 17.3648 16.3947C16.365 16.6619 15.3576 16.895 14.3371 17.0705C13.4683 17.22 12.6031 17.391 11.732 17.5268C11.3745 17.5825 11.1898 17.7738 11.1033 18.1002C10.9496 18.6798 10.9245 19.2729 10.9261 19.8669C10.93 21.4619 11.0934 23.0435 11.3616 24.6148C11.5776 25.8805 11.7935 27.1459 12.0107 28.4116C12.0235 28.4858 12.0475 28.5583 12.0707 28.65C12.3423 28.6755 12.5418 28.5027 12.7668 28.424C13.0008 28.3424 13.2243 28.2305 13.4673 28.1258C13.4918 27.771 13.3899 27.4407 13.3293 27.1063C13.1044 25.8617 12.8727 24.6186 12.649 23.3739C12.398 21.9762 12.23 20.5678 12.1299 19.1517C12.1057 18.8082 12.1024 18.4623 12.1102 18.1179C12.1191 17.7352 12.2216 17.64 12.5822 17.6216C14.3596 17.5308 16.0645 17.1145 17.7192 16.4744C17.8019 16.4425 17.8752 16.3852 17.9529 16.3399C17.9373 16.305 17.9211 16.2705 17.9052 16.2356ZM39.3093 71.0107C39.9188 71.0579 40.4518 70.8882 40.974 70.7022C42.056 70.317 43.1374 69.9275 44.2054 69.5053C51.7739 66.5118 59.2482 63.298 66.6417 59.8959C67.876 59.3278 69.101 58.7384 70.3182 58.1345C70.7791 57.9057 71.2102 57.6145 71.6472 57.3398C72.1011 57.0544 72.2188 56.6346 72.0566 56.1414C71.9192 55.7237 71.7789 55.3038 71.5932 54.9065C70.6934 52.9811 69.7933 51.0554 68.8651 49.1435C66.7307 44.7468 64.8633 40.238 63.1581 35.6604C61.8615 32.1795 60.5652 28.6981 59.2937 25.2077C58.2312 22.2913 57.2749 19.3394 56.4788 16.3381C56.0368 14.6714 55.6139 12.9995 55.175 11.3318C55.0141 10.7207 54.8511 10.1089 54.6511 9.5097C54.5498 9.20562 54.3898 8.91257 54.2105 8.64514C54.0086 8.3438 53.7087 8.18435 53.3236 8.21528C52.9606 8.24432 52.5926 8.22844 52.2328 8.27595C51.2632 8.40357 50.2959 8.54861 49.3293 8.6982C48.704 8.79488 48.0812 8.90866 47.4582 9.02015C45.5896 9.35488 43.7217 9.69359 41.8531 10.028C40.6827 10.2377 39.5109 10.438 38.3412 10.6514C37.2284 10.8546 36.1181 11.0716 35.0056 11.2782C33.9311 11.4778 32.8541 11.6658 31.7805 11.8709C30.8014 12.0578 29.8249 12.259 28.8478 12.4574C27.9649 12.6366 27.0801 12.8093 26.2005 13.0044C24.7036 13.3364 23.2081 13.6746 21.7168 14.0304C21.2921 14.1318 20.8676 14.2583 20.4884 14.4599C20.3763 14.6741 20.3933 14.887 20.4005 15.0966C20.4458 16.4414 20.6114 17.7735 20.8615 19.0942C21.0257 19.9604 21.1963 20.8263 21.3939 21.6855C21.6733 22.8992 21.9564 24.1132 22.2806 25.3153C22.8344 27.3684 23.4138 29.4147 23.9962 31.4595C24.8936 34.6098 25.8544 37.7408 26.9276 40.8358C28.6967 45.9378 30.5428 51.0121 32.4417 56.0674C33.6067 59.1689 34.9005 62.2186 36.2022 65.2644C36.6911 66.4085 37.2088 67.5408 37.7367 68.6674C37.9553 69.1343 38.2225 69.5799 38.4905 70.0216C38.7092 70.3817 38.972 70.7132 39.3093 71.0107ZM36.1787 69.291C36.3359 69.5962 36.5248 69.8881 36.7265 70.1663C37.0539 70.6181 37.5077 70.8953 38.0476 71.0284C38.1155 71.0451 38.1925 71.0256 38.3127 71.0209C37.8169 70.3325 37.396 69.6519 37.0657 68.9222C36.4421 67.5442 35.8164 66.1666 35.2216 64.7758C33.9337 61.7646 32.6693 58.7432 31.5291 55.6725C29.6021 50.4835 27.6908 45.2883 25.9074 40.0475C25.0186 37.4358 24.2085 34.798 23.4579 32.1425C22.9577 30.3724 22.4315 28.6093 21.9462 26.8351C21.577 25.4859 21.2368 24.1281 20.9153 22.7667C20.6333 21.5728 20.361 20.3746 20.1467 19.1671C19.9189 17.8837 19.6986 16.5953 19.6948 15.2836C19.6945 15.1732 19.6743 15.063 19.6588 14.906C19.1892 15.1588 18.8777 15.5006 18.7657 15.9875C18.7065 16.2447 18.6999 16.5201 18.7089 16.7859C18.7386 17.6724 18.9209 18.5365 19.1365 19.393C19.492 20.8055 19.8475 22.2182 20.2142 23.6278C20.6102 25.1485 21.0136 26.6675 21.4248 28.1841C21.8557 29.7747 22.298 31.3622 22.7383 32.9505C23.3984 35.3327 24.1194 37.6964 24.8975 40.0429C26.5496 45.0245 28.3063 49.9698 30.1328 54.8899C31.6793 59.0559 33.2813 63.2 35.1661 67.2281C35.4906 67.9222 35.8281 68.6101 36.1787 69.291ZM30.1521 70.9443C30.277 71.1593 30.418 71.3654 30.5633 71.5671C30.6712 71.7169 30.8256 71.7858 31.0157 71.7574C31.1864 71.7318 31.3616 71.7246 31.5273 71.6812C32.1942 71.5075 32.8389 71.271 33.493 70.9655C33.4397 70.8302 33.4035 70.7045 33.3437 70.5915C32.6268 69.2355 32.0468 67.8166 31.435 66.4125C31.3897 66.3083 31.3563 66.1964 31.3345 66.0846C31.3147 65.9839 31.3496 65.8801 31.4578 65.8601C31.5189 65.8489 31.6185 65.8853 31.6543 65.9341C31.7322 66.04 31.7857 66.1657 31.8397 66.2874C32.2897 67.3026 32.7312 68.3218 33.1889 69.3333C33.4089 69.8189 33.6477 70.297 33.9434 70.7791C34.566 70.5531 35.1782 70.3588 35.7888 70.1196C35.4428 69.4212 35.103 68.7598 34.7848 68.0882C33.2259 64.7978 31.8484 61.4307 30.5541 58.0287C28.5518 52.7653 26.654 47.4641 24.8416 42.1324C23.8242 39.1392 22.8696 36.1259 22.0365 33.0753C21.3397 30.5244 20.6257 27.9781 19.9433 25.4234C19.419 23.4607 18.9246 21.4899 18.4339 19.5185C18.2859 18.924 18.1938 18.3156 18.0783 17.713C18.0465 17.5475 18.0227 17.3804 17.9879 17.1689C17.4136 17.3487 16.8767 17.535 16.3295 17.6835C15.7568 17.8389 15.1772 17.9733 14.5951 18.0888C14.0326 18.2004 13.4631 18.2762 12.872 18.3715C12.7834 18.5423 12.8065 18.735 12.8245 18.9194C12.9201 19.8931 12.9882 20.8713 13.1325 21.8378C13.3562 23.3362 13.6295 24.827 13.8908 26.3197C13.9767 26.8093 14.0904 27.294 14.1991 27.8192C15.2217 27.5053 16.2199 27.199 17.2381 26.8866C17.0994 26.2759 16.958 25.6805 16.8298 25.082C16.5569 23.8072 16.2867 22.532 16.0239 21.255C15.8849 20.579 15.762 19.8993 15.6357 19.2205C15.6006 19.0322 15.5725 18.8418 15.5542 18.6512C15.5406 18.512 15.6225 18.4044 15.7279 18.3992C15.8707 18.3922 15.9298 18.4925 15.9658 18.605C15.9947 18.6955 16.004 18.7924 16.022 18.8863C16.3252 20.4486 16.6117 22.0145 16.937 23.5719C17.2112 24.8851 17.5012 26.1968 17.8384 27.495C18.2379 29.0341 18.6936 30.5584 19.1289 32.0879C19.3175 32.7507 19.5044 33.4142 19.7127 34.071C20.2451 35.7505 20.7847 37.4281 21.3297 39.1038C21.9458 40.9981 22.5712 42.8896 23.1904 44.7827C23.2198 44.8726 23.2477 44.9705 23.2415 45.0623C23.2373 45.1252 23.1866 45.2086 23.1323 45.2391C23.0414 45.2901 22.941 45.2558 22.8904 45.1595C22.8377 45.0589 22.796 44.9511 22.7613 44.8429C22.4258 43.8039 22.0942 42.7637 21.7584 41.7247C21.0282 39.4646 20.2966 37.2049 19.5634 34.946C19.5292 34.8406 19.4715 34.7428 19.4148 34.6197C18.3229 34.9873 17.2628 35.3553 16.2173 35.7826C16.2071 36.181 16.3694 36.5173 16.4657 36.8615C17.2448 39.6475 18.0751 42.4186 18.9808 45.1663C20.8108 50.7167 22.8033 56.2055 25.2233 61.531C26.6906 64.7617 28.3729 67.8785 30.1521 70.9443ZM14.3675 37.6875C15.4184 41.1327 16.63 44.5235 17.8854 47.8981C19.6217 52.5642 21.411 57.2106 23.291 61.8211C24.3828 64.4992 25.5439 67.147 26.8665 69.7207C27.1374 70.2478 27.4497 70.7545 27.7658 71.2563C27.8966 71.464 28.0784 71.643 28.2534 71.8188C28.3941 71.9605 28.5765 72.0081 28.7819 71.9857C29.1081 71.9502 29.4096 71.8425 29.7051 71.7131C29.7126 71.4917 29.5644 71.3505 29.4709 71.1888C28.0408 68.7187 26.6765 66.2131 25.4299 63.6446C23.9822 60.6616 22.7185 57.6002 21.5295 54.5074C20.065 50.6983 18.7378 46.8412 17.5223 42.9463C16.8776 40.8802 16.3005 38.7929 15.6914 36.7158C15.6323 36.5139 15.5649 36.3147 15.4842 36.0609C14.9882 36.2573 14.5465 36.4324 14.0998 36.6091C14.0951 37.014 14.2633 37.3455 14.3675 37.6875ZM7.28478 33.2487C7.78115 33.2868 8.27848 33.3084 8.77514 33.3408C9.00425 33.3557 9.23382 33.3722 9.46091 33.4047C9.5724 33.4206 9.68489 33.4612 9.78574 33.5128C10.0569 33.6508 10.1683 33.9001 10.067 34.1849C10.0036 34.3627 9.91269 34.5369 9.80361 34.6911C9.61592 34.957 9.40616 35.2075 9.20287 35.4619C8.83131 35.9271 8.48366 36.409 8.22004 36.9448C8.07726 37.2349 7.92666 37.5278 7.96701 37.8825C8.12878 38.0351 8.32254 38.0026 8.50399 37.951C8.92681 37.8307 9.35478 37.7186 9.76356 37.5589C11.6708 36.8146 13.5688 36.0465 15.4772 35.3044C16.5648 34.8816 17.6656 34.4928 18.7601 34.0876C18.9022 34.035 19.0415 33.9755 19.2126 33.9071C18.6063 31.7993 18.0144 29.7412 17.4142 27.6539C17.0672 27.6293 16.7462 27.778 16.4267 27.8733C13.8285 28.6471 11.3487 29.6937 9.04868 31.1423C8.46526 31.5099 7.89021 31.892 7.38408 32.3653C7.23053 32.5087 7.09103 32.6683 6.95416 32.8282C6.89481 32.8977 6.85888 32.9875 6.79614 33.0958C6.95433 33.2123 7.12331 33.2363 7.28478 33.2487Z" fill="#203B53"/>
<path d="M19.9808 42.0189C19.8641 41.5943 19.7589 41.1665 19.6708 40.8258C19.6544 40.719 19.6482 40.6997 19.6489 40.6811C19.6531 40.5832 19.6684 40.4897 19.7757 40.4484C19.8726 40.411 19.9891 40.4796 20.0345 40.6116C20.0906 40.7747 20.1386 40.9403 20.1859 41.106C20.571 42.4492 20.9364 43.7985 21.3434 45.1353C22.1747 47.8647 23.1626 50.5397 24.2038 53.1945C25.9221 57.5767 27.6837 61.9412 29.6458 66.2217C29.7093 66.3603 29.7716 66.501 29.8175 66.646C29.8473 66.74 29.8284 66.8411 29.725 66.8895C29.6252 66.9361 29.5317 66.9029 29.4771 66.8137C29.4074 66.7 29.3508 66.5777 29.2956 66.4559C28.9012 65.5845 28.501 64.7156 28.1165 63.8397C26.763 60.7557 25.51 57.6305 24.2639 54.5017C22.6337 50.4096 21.1494 46.2687 19.9808 42.0189Z" fill="#203B53"/>
<path d="M29.1845 61.672C29.0988 61.5483 29.0192 61.4171 28.9596 61.2793C27.8445 58.7018 26.7968 56.0977 25.8646 53.4478C25.8267 53.3402 25.7978 53.2294 25.7771 53.1608C25.7738 53.0981 25.7652 53.0752 25.773 53.0606C25.8066 52.9968 25.832 52.9055 25.8855 52.8825C25.936 52.8608 26.0508 52.8902 26.0798 52.9347C26.1618 53.0608 26.2224 53.2026 26.2763 53.3439C26.9032 54.9852 27.5156 56.6322 28.1564 58.268C28.5467 59.2636 28.9808 60.2417 29.392 61.2292C29.4345 61.3317 29.4737 61.4438 29.4752 61.5521C29.4759 61.6064 29.3971 61.6779 29.3373 61.7107C29.3019 61.7298 29.2082 61.7064 29.1845 61.672Z" fill="#203B53"/>
<path d="M33.3287 47.036C32.7932 47.1905 32.0778 47.0572 31.6074 47.2451C32.0319 47.7244 34.9425 50.7472 35.3056 50.8221C35.5741 50.7196 35.7142 50.4621 35.8726 50.236C37.4176 51.1743 39.0001 52.3395 40.9014 52.1833C40.8412 52.0226 40.7047 52.0172 40.5509 51.9587C38.4537 51.16 36.5145 50.0773 34.8485 48.5568C34.3189 48.0733 33.8439 47.5344 33.3287 47.036Z" fill="#492533"/>
<path d="M66.0089 12.8025C65.3834 13.2492 64.7586 13.5576 64.0466 13.8436C64.6069 13.9404 65.3165 13.2635 65.8274 13.0726C65.8822 13.155 65.8689 13.107 65.8505 13.2202C65.7767 13.2296 65.7302 13.2389 65.6621 13.2621L65.6642 13.3824C65.4824 14.0976 65.1153 14.6337 64.4745 15.0152C63.5672 15.5556 62.4323 15.8502 61.3825 15.9069C60.8201 15.9371 60.2737 15.9006 59.7151 15.8411C59.3962 15.8072 59.0434 15.7359 58.7231 15.7565C58.6229 15.7629 58.5506 15.7971 58.4667 15.8472C59.181 16.0815 59.8166 16.5095 60.4646 16.8817C63.3342 18.5304 65.598 20.8778 67.808 23.308C69.2286 24.8703 70.5723 26.4664 72.3544 27.6343L72.4012 27.7064C72.3395 27.7223 72.2785 27.7398 72.2158 27.7513L72.0969 28.0091C72.265 27.9737 72.4161 27.9353 72.5689 28.044C72.5814 28.0529 72.5923 28.0639 72.604 28.0739C72.8393 27.9246 73.0419 27.7473 73.251 27.5643C72.7005 27.2963 72.1076 27.0559 71.6164 26.6862C70.3877 25.7611 69.2011 24.279 68.1602 23.1225C66.5292 21.3105 64.8106 19.5148 62.8732 18.0254C64.7856 16.7384 65.5552 14.9981 66.0089 12.8025Z" fill="#203B53"/>
<path d="M65.0157 37.0579C64.9134 37.0599 64.8107 37.0644 64.7085 37.06C64.6061 38.1506 64.5316 39.2216 64.6456 40.3165C64.7355 41.1793 64.9528 42.0229 65.0535 42.8841C65.3457 45.386 64.4481 47.1962 62.5268 48.789C61.6044 49.5538 60.5029 50.2542 59.4101 50.75C58.4769 51.2853 57.424 51.625 56.3992 51.9409C56.0239 52.0566 55.5128 52.1401 55.175 52.3236C55.1509 52.3393 55.127 52.3557 55.1025 52.371C54.7376 52.5969 54.2784 52.528 53.8978 52.7121C54.4364 52.8339 55.1466 52.4425 55.647 52.5158C56.0337 52.4541 56.451 52.285 56.8249 52.1619C58.7113 51.54 60.4488 50.7106 62.0748 49.5631C64.195 48.0668 65.0787 46.582 65.5201 44.0716C66.1446 43.3416 66.6131 42.5441 66.8367 41.6024C67.2088 40.035 66.8695 38.986 66.0605 37.6573C65.9311 37.6503 65.7929 37.5965 65.6681 37.5604C65.4833 37.3576 65.2912 37.1263 65.0157 37.0579Z" fill="#203B53"/>
<path d="M65.668 37.5606C65.4832 37.3579 65.2912 37.1266 65.0157 37.0581L65.0038 37.1698C64.9311 37.479 64.9385 37.8278 64.9249 38.1453C64.8938 38.8743 64.8924 39.6147 64.9747 40.34C65.1025 41.4677 65.3543 42.5654 65.4522 43.7017C65.9516 42.9636 66.4637 42.1034 66.5347 41.1898C66.5436 41.145 66.5517 41.1 66.5589 41.0549C66.7747 39.7103 66.4482 38.6479 65.668 37.5606Z" fill="#F2AC7F"/>
<path d="M65.668 37.5606C65.4832 37.3579 65.2912 37.1266 65.0157 37.0581L65.0038 37.1698C65.0027 37.3254 65.0022 37.4808 64.9945 37.6363C65.8383 38.3696 66.2745 39.289 66.4121 40.3945C66.4425 40.6383 66.4228 40.9723 66.5347 41.1898C66.5436 41.145 66.5517 41.1 66.5589 41.0549C66.7747 39.7103 66.4482 38.6479 65.668 37.5606Z" fill="#FEDCB9"/>
<path d="M64.0473 13.8437C63.4996 13.9791 62.9392 14.0857 62.3733 14.0873C60.07 14.0933 57.7797 12.7553 55.6966 11.8968C50.8433 9.89677 45.8169 8.94149 40.8054 11.0701C37.9937 12.2644 35.8693 14.055 34.2466 16.6477C34.143 16.6828 34.0399 16.719 33.9372 16.7566C33.8346 16.7942 33.7324 16.8331 33.6307 16.8732C33.529 16.9133 33.4278 16.9547 33.3271 16.9973C33.2265 17.0399 33.1263 17.0838 33.0267 17.1288C32.9271 17.1739 32.8281 17.2203 32.7297 17.2679C32.6312 17.3154 32.5334 17.3642 32.4362 17.4142C32.339 17.4642 32.2424 17.5153 32.1464 17.5677C32.0504 17.6201 31.9551 17.6736 31.8604 17.7283C31.7658 17.783 31.6719 17.8389 31.5786 17.896C31.4854 17.953 31.3928 18.0113 31.301 18.0706C31.2092 18.1299 31.1181 18.1904 31.0278 18.252C30.9375 18.3136 30.8479 18.3763 30.7592 18.4401C30.6705 18.5038 30.5825 18.5687 30.4953 18.6348C30.4081 18.7008 30.3218 18.7678 30.2362 18.836C30.1508 18.9042 30.0661 18.9733 29.9823 19.0435C29.8986 19.1137 29.8156 19.185 29.7336 19.2573C29.6516 19.3295 29.5705 19.4028 29.4902 19.4771C29.41 19.5514 29.3307 19.6267 29.2524 19.7029C29.174 19.7792 29.0967 19.8564 29.0202 19.9345C28.9438 20.0127 28.8684 20.0918 28.7939 20.1718C28.7194 20.2519 28.646 20.3328 28.5735 20.4146C28.501 20.4964 28.4296 20.5792 28.3591 20.6628C28.2886 20.7465 28.2193 20.831 28.151 20.9162C28.0826 21.0016 28.0154 21.0877 27.9492 21.1747C27.883 21.2617 27.8179 21.3496 27.7539 21.4382C27.6898 21.5268 27.6269 21.6162 27.565 21.7064C27.5032 21.7965 27.4426 21.8875 27.383 21.9792C27.3235 22.0708 27.265 22.1632 27.2077 22.2563C27.1505 22.3495 27.0944 22.4433 27.0394 22.5378C26.9845 22.6323 26.9307 22.7275 26.8781 22.8233C26.8255 22.9192 26.7741 23.0156 26.7239 23.1127C26.6737 23.2099 26.6247 23.3076 26.5769 23.4059C24.3382 27.9138 24.469 33.5455 26.059 38.2361C26.2379 38.7642 26.4213 39.4542 26.7581 39.8965C26.8692 39.7711 26.989 39.6764 26.9863 39.5046C26.8407 39.1804 26.7077 38.851 26.5876 38.5165C24.8886 33.9309 24.7025 28.4095 26.7721 23.9182C28.3593 20.474 30.9979 18.2582 34.5214 16.9556C35.8029 14.4269 38.6195 12.3664 41.207 11.3289C45.3803 9.65547 49.8085 10.1341 53.9517 11.6263C55.3486 12.1294 56.6965 12.7489 58.06 13.3329C60.108 14.2099 62.2717 14.9258 64.453 14.0531L64.4693 13.9858C64.8733 13.7935 65.2714 13.5963 65.6648 13.3824L65.6627 13.2621C65.7309 13.239 65.7774 13.2296 65.8511 13.2202C65.8696 13.1072 65.8829 13.1551 65.8281 13.0727C65.3171 13.2635 64.6075 13.9405 64.0473 13.8437Z" fill="#203B53"/>
<path d="M64.452 14.0529C62.2707 14.9256 60.1071 14.2097 58.0591 13.3327C56.6955 12.7487 55.3476 12.1291 53.9508 11.6261C49.8075 10.1339 45.3794 9.65526 41.206 11.3287C38.6186 12.3661 35.8019 14.4267 34.5205 16.9554C30.997 18.258 28.3584 20.4738 26.7712 23.918C24.7015 28.4093 24.8876 33.9307 26.5866 38.5163C26.7068 38.8508 26.8397 39.1802 26.9854 39.5044C27.187 39.3158 27.3945 39.0593 27.6601 38.9709C27.7081 38.6361 27.1477 37.1777 27.0268 36.6857C26.9491 36.3783 26.8787 36.0694 26.8154 35.7588C26.7523 35.4481 26.6963 35.1363 26.6477 34.823C26.5989 34.5098 26.5577 34.1956 26.5238 33.8805C26.4898 33.5653 26.4632 33.2495 26.4441 32.9331C26.4248 32.6167 26.413 32.3 26.4087 31.9831C26.4044 31.6661 26.4073 31.3492 26.4178 31.0324C26.4283 30.7157 26.4461 30.3993 26.4713 30.0833C26.4965 29.7673 26.5291 29.4521 26.5691 29.1376C26.6329 28.6561 26.6916 28.0796 26.8752 27.6307L26.8275 27.4927C26.5564 26.7303 26.6974 25.8145 26.958 25.067C27.2308 24.2845 27.6758 23.6857 28.4362 23.3139L28.5389 23.2625C28.5523 23.1873 28.5442 23.2053 28.5725 23.1412C28.7515 22.7361 29.0371 22.355 29.2886 21.9924C29.3754 21.8669 29.4643 21.7429 29.5554 21.6205C29.6466 21.4981 29.7398 21.3773 29.8352 21.2582C29.9305 21.1391 30.028 21.0216 30.1275 20.9059C30.227 20.7903 30.3286 20.6764 30.4322 20.5642C30.5357 20.4521 30.6413 20.3418 30.7487 20.2335C30.856 20.1251 30.9653 20.0186 31.0766 19.9141C31.1878 19.8095 31.3008 19.707 31.4155 19.6064C31.5304 19.5059 31.6469 19.4074 31.7652 19.311C31.8835 19.2146 32.0034 19.1201 32.125 19.028C32.2466 18.9358 32.3699 18.8457 32.4946 18.7578C32.6194 18.67 32.7457 18.5843 32.8735 18.5009C33.0013 18.4175 33.1306 18.3364 33.2612 18.2575C33.3919 18.1787 33.5239 18.1022 33.6572 18.028C33.7905 17.9538 33.9252 17.8819 34.0611 17.8125C34.197 17.743 34.3341 17.676 34.4723 17.6114C34.6106 17.5468 34.75 17.4846 34.8904 17.4249C35.8746 15.9023 36.9427 14.6193 38.5124 13.6691C43.7105 10.5224 49.1608 11.1937 54.6176 13.1666C56.1191 13.7094 57.5955 14.5406 59.1504 14.9065C60.9038 15.3191 62.9648 15.0542 64.5059 14.102L64.452 14.0529Z" fill="#AC918E"/>
<path d="M42.7087 27.1165C42.4212 27.8693 42.1275 28.635 41.7308 29.3391C41.3279 30.0541 40.3236 31.2227 40.139 31.9412C39.8484 32.1975 39.4991 32.4693 39.2981 32.8057C39.2513 32.8588 39.2073 32.9143 39.1664 32.9721C39.1253 33.0299 39.0876 33.0896 39.0529 33.1514C39.0182 33.2131 38.9867 33.2764 38.9587 33.3415C38.9308 33.4066 38.9062 33.473 38.8852 33.5406C38.895 33.5844 38.9012 33.6351 38.9194 33.676C38.1003 34.484 36.2971 36.218 35.8295 37.1755C35.4406 37.9719 35.3842 39.1042 35.3116 39.9869C35.29 40.2492 35.3043 40.5943 35.2298 40.8424C35.2069 40.9186 35.1562 40.9763 35.1114 41.04C35.2204 42.0612 35.5691 43.0565 35.9236 44.0139C34.5934 43.1986 33.7244 41.8182 32.9706 40.488C32.775 40.1427 32.5922 39.6865 32.3366 39.3855C32.1875 39.2097 31.9488 39.0774 31.7446 38.9752C30.6382 38.4212 29.5022 38.3696 28.3417 38.7551C28.0737 38.7802 27.9063 38.9218 27.6612 38.971C27.3956 39.0595 27.1881 39.316 26.9865 39.5046C26.9892 39.6764 26.8694 39.7711 26.7583 39.8964C26.1852 41.0441 26.1145 42.1223 26.5199 43.3445C26.987 44.753 28.1238 45.957 29.451 46.6014C30.1491 46.9404 30.8803 47.0226 31.6083 47.2451C32.0787 47.0572 32.7941 47.1905 33.3296 47.036C33.8448 47.5344 34.3198 48.0733 34.8494 48.5568C36.5154 50.0773 38.4546 51.16 40.5518 51.9587C40.7056 52.0172 40.8421 52.0226 40.9023 52.1833C41.1033 52.1995 41.2986 52.2133 41.4782 52.3125C41.7457 52.283 42.1264 52.4307 42.3792 52.5222L43.027 52.6896C43.4456 52.7878 43.9012 52.8658 44.303 53.0162C45.5705 53.8558 46.9142 54.4939 48.2412 55.2252C48.9061 55.5359 49.5856 55.8126 50.2634 56.0935L50.4034 56.117C50.4448 56.1756 50.4767 56.2187 50.5011 56.2866C50.5823 56.2634 50.687 56.2745 50.7722 56.2733L50.8835 56.1451L50.8394 56.1391C50.9015 56.0198 51.0654 55.9358 51.1773 55.8589L51.2105 55.7478C51.0507 55.6966 51.022 55.6653 50.8602 55.7405C50.8357 55.7518 50.8124 55.7655 50.7884 55.7779C51.4908 54.9764 52.2185 54.1665 52.6165 53.1637L52.638 53.1072C52.8618 53.0167 53.0126 53.0388 53.24 53.0915C53.8183 52.8358 54.232 52.7588 54.8579 52.7504C55.1236 52.6805 55.3869 52.6024 55.6478 52.5161C55.1473 52.4428 54.4372 52.8343 53.8986 52.7125C54.2792 52.5284 54.7384 52.5972 55.1033 52.3713C55.1278 52.356 55.1517 52.3396 55.1758 52.3239C55.5136 52.1405 56.0247 52.0569 56.4 51.9412C57.4248 51.6253 58.4777 51.2856 59.4109 50.7503C60.5036 50.2545 61.6051 49.5541 62.5276 48.7893C64.4489 47.1965 65.3465 45.3863 65.0543 42.8844C64.9536 42.0232 64.7362 41.1796 64.6464 40.3168C64.5323 39.2219 64.6068 38.1509 64.7093 37.0603C64.9736 35.433 64.9393 33.7462 64.9144 32.1025C64.8818 32.0799 64.8544 32.0468 64.8167 32.0344C64.7925 32.0264 62.4311 32.102 62.3631 32.1153C62.3224 32.1233 62.2797 32.1375 62.2418 32.1538C62.442 32.3423 62.6414 32.5206 62.7947 32.7509C62.5412 32.7303 62.5385 32.4985 62.3215 32.4687C62.1957 32.3719 62.0692 32.274 61.9365 32.1868C61.0682 31.6162 59.779 31.4204 58.7726 31.6384C58.2383 31.7801 57.7674 32.0427 57.4688 32.5191L57.3062 32.6161L57.2831 32.644C57.2354 32.4975 56.9883 32.5292 56.8585 32.5252C55.4957 32.4824 54.1886 32.2304 52.8753 31.8697C49.1864 30.8564 45.9044 29.1946 42.7087 27.1165Z" fill="#FEDCB9"/>
<path d="M53.4528 43.4293C53.5346 43.363 53.6171 43.2923 53.6694 43.199C53.7317 43.0879 53.7072 42.9933 53.6754 42.88C53.5994 42.7894 53.5345 42.7463 53.4227 42.7127C53.1832 42.6408 52.909 42.6805 52.6925 42.8018C52.5513 42.8809 52.4114 42.9794 52.3613 43.1389C52.388 43.1385 52.4147 43.1389 52.4414 43.1379C52.7724 43.1251 52.9888 42.8705 53.3225 43.0297C53.4252 43.1671 53.4377 43.2604 53.4528 43.4293Z" fill="#8E4B4C"/>
<path d="M53.4531 43.4291C53.438 43.2602 53.4255 43.1669 53.3229 43.0295C52.9892 42.8703 52.7728 43.1249 52.4418 43.1377C52.4151 43.1387 52.3883 43.1383 52.3616 43.1387C52.4308 43.3408 52.4793 43.558 52.6883 43.6597C52.8341 43.7309 52.9954 43.6918 53.1363 43.6294C53.25 43.5792 53.3526 43.5015 53.4531 43.4291Z" fill="#EFCFC0"/>
<path d="M48.187 45.6843C48.1802 45.6878 48.1726 45.69 48.1666 45.6947C48.0675 45.7729 48.069 45.7854 48.0566 45.9056C48.1488 46.1242 48.2981 46.2983 48.47 46.4596C49.3794 47.312 50.5499 47.6336 51.7773 47.5879C52.9449 47.5444 53.9374 47.1493 54.7361 46.2907L54.8184 46.1176L54.7882 46.0379C54.5885 46.067 54.3876 46.2862 54.2262 46.41C53.235 47.1702 52.1777 47.4332 50.931 47.278C49.7735 47.134 48.892 46.5997 48.187 45.6843Z" fill="#203B53"/>
<path d="M63.0986 33.4012C61.705 32.6324 59.2785 32.6673 57.748 32.8912C57.807 33.0175 57.8263 33.1255 57.9667 33.1817C58.0725 33.224 62.1842 33.4459 62.5589 33.4551C62.7454 33.4596 62.917 33.4443 63.0986 33.4012Z" fill="#F2AC7F"/>
<path d="M62.6875 32.8882C61.4437 32.486 60.2598 32.1988 58.9381 32.2448C58.5526 32.2583 57.7596 32.6028 57.4673 32.5193L57.3047 32.6163L57.2815 32.6442C57.2889 32.7849 57.2697 32.8648 57.3588 32.977C57.4975 32.9833 57.6179 32.934 57.7476 32.8911C59.278 32.6673 61.7046 32.6324 63.0982 33.4011L63.1279 33.3341C63.0794 33.1042 62.9492 32.9225 62.7932 32.7511C62.5397 32.7305 62.537 32.4987 62.32 32.4689C62.4295 32.6224 62.557 32.7528 62.6875 32.8882Z" fill="#203B53"/>
<path d="M62.321 32.4687C62.1951 32.3719 62.0686 32.2739 61.9359 32.1867C61.0677 31.6162 59.7784 31.4204 58.772 31.6384C58.2378 31.7801 57.7668 32.0426 57.4682 32.5191C57.7605 32.6026 58.5536 32.2581 58.9391 32.2446C60.2607 32.1986 61.4446 32.4858 62.6885 32.8879C62.5579 32.7526 62.4305 32.6221 62.321 32.4687Z" fill="url(#paint0_linear_2351_4955)"/>
<path d="M62.0613 40.6329C62.1504 40.5012 62.2256 40.3654 62.2934 40.2217C62.7531 39.2474 62.9355 38.122 62.5513 37.0906C62.534 37.0445 62.5156 36.9988 62.496 36.9536C62.4765 36.9083 62.4558 36.8636 62.434 36.8195C62.4121 36.7752 62.3893 36.7316 62.3653 36.6884C62.3414 36.6454 62.3165 36.6029 62.2904 36.561C62.2644 36.5192 62.2374 36.478 62.2093 36.4375C62.1812 36.3969 62.1522 36.3571 62.1222 36.318C62.0921 36.2789 62.0612 36.2406 62.0292 36.203C61.9973 36.1655 61.9645 36.1287 61.9308 36.0928C61.8971 36.0568 61.8625 36.0217 61.8271 35.9875C61.7916 35.9532 61.7554 35.9198 61.7182 35.8874C61.6812 35.8549 61.6434 35.8234 61.6047 35.7928C61.5661 35.7623 61.5267 35.7327 61.4866 35.704C61.4465 35.6753 61.4056 35.6477 61.3642 35.621C61.3228 35.5944 61.2806 35.5688 61.2379 35.5441C61.1952 35.5196 61.1519 35.4961 61.108 35.4737C61.0641 35.4513 61.0196 35.4299 60.9747 35.4096C60.9315 35.3904 60.8877 35.3723 60.8436 35.3552C60.7995 35.3382 60.7549 35.3223 60.71 35.3074C60.665 35.2926 60.6197 35.2789 60.5741 35.2663C60.5284 35.2537 60.4825 35.2424 60.4363 35.2321C60.3901 35.2218 60.3436 35.2127 60.297 35.2047C60.2504 35.1967 60.2036 35.19 60.1565 35.1844C60.1095 35.1787 60.0623 35.1743 60.0151 35.171C59.9679 35.1678 59.9206 35.1657 59.8733 35.1648C59.826 35.1639 59.7787 35.1642 59.7313 35.1657C59.6841 35.1671 59.6368 35.1697 59.5896 35.1735C59.5424 35.1773 59.4954 35.1823 59.4484 35.1885C59.4015 35.1947 59.3548 35.202 59.3083 35.2105C59.2616 35.219 59.2153 35.2286 59.1693 35.2395C59.1232 35.2503 59.0773 35.2622 59.0319 35.2753C58.9864 35.2884 58.9412 35.3027 58.8965 35.3179C58.8517 35.3333 58.8073 35.3498 58.7634 35.3673C58.1745 35.5973 57.5022 36.1169 57.2438 36.7052C57.8832 36.1479 58.657 35.8328 59.5155 35.9002C60.259 35.9587 60.9187 36.3076 61.3986 36.8719C62.0811 37.6745 62.303 38.7988 62.2117 39.8277C62.1875 40.101 62.1373 40.3694 62.0613 40.6329Z" fill="#203B53"/>
<path d="M62.0615 40.633C62.1375 40.3695 62.1877 40.1011 62.2119 39.8278C62.3032 38.7989 62.0813 37.6746 61.3988 36.8721C60.9189 36.3078 60.2592 35.9588 59.5157 35.9004C58.6572 35.833 57.8834 36.148 57.244 36.7053C57.1283 36.8667 56.9687 37.0141 56.94 37.2157C56.9586 37.2714 56.9734 37.3261 57.0023 37.3775C57.3811 36.7891 57.8277 36.3902 58.5296 36.2341C58.5637 36.2265 58.598 36.2199 58.6326 36.214C58.6671 36.2082 58.7017 36.2033 58.7364 36.1991C58.7711 36.195 58.806 36.1918 58.8409 36.1894C58.8758 36.187 58.9107 36.1856 58.9457 36.185C58.9807 36.1844 59.0156 36.1847 59.0505 36.1859C59.0855 36.1871 59.1204 36.1891 59.1553 36.192C59.1901 36.195 59.2248 36.1988 59.2595 36.2035C59.2942 36.2082 59.3288 36.2137 59.3632 36.2201C59.3975 36.2265 59.4317 36.2338 59.4657 36.2419C59.4998 36.2501 59.5336 36.259 59.5672 36.2689C59.6007 36.2788 59.634 36.2895 59.6671 36.301C59.7 36.3125 59.7328 36.3248 59.7652 36.338C59.7976 36.3511 59.8296 36.3652 59.8613 36.3799C59.8931 36.3947 59.9244 36.4103 59.9553 36.4266C59.9862 36.4429 60.0167 36.4601 60.0468 36.4779C60.0769 36.4959 60.1064 36.5146 60.1355 36.5339C60.8012 36.9694 61.1736 37.7087 61.3116 38.4735C61.4738 39.3718 61.3549 40.2677 60.8202 41.0233C60.393 41.627 59.802 42.0386 59.0694 42.1816C58.9728 42.1955 58.8941 42.2111 58.8041 42.2494L58.847 42.307C59.4719 42.4347 60.2042 42.2779 60.7738 42.007C61.3901 41.714 61.827 41.2767 62.0615 40.633Z" fill="#F8FAFD"/>
<path d="M46.2507 38.165C46.2856 37.5949 45.9112 36.916 45.5414 36.5005C44.9228 35.8057 44.0218 35.4186 43.0987 35.3734C42.051 35.3222 40.9603 35.7678 40.1916 36.4701C39.4725 37.1269 39.0123 38.0272 38.969 39.0059C38.9668 39.0616 38.9658 39.1173 38.9663 39.1731C38.9668 39.2287 38.9685 39.2845 38.9717 39.3401C38.9748 39.3958 38.9793 39.4513 38.9851 39.5067C38.991 39.5622 38.9982 39.6174 39.0068 39.6725C39.0153 39.7276 39.0251 39.7825 39.0363 39.8371C39.0475 39.8917 39.06 39.946 39.0739 39.9999C39.0877 40.0539 39.1028 40.1076 39.1192 40.1608C39.1357 40.2141 39.1535 40.2669 39.1724 40.3193C39.1914 40.3717 39.2117 40.4236 39.2332 40.475C39.2547 40.5264 39.2775 40.5774 39.3014 40.6277C39.3254 40.6779 39.3506 40.7277 39.3771 40.7768C39.4035 40.8258 39.431 40.8743 39.4597 40.922C39.4885 40.9698 39.5184 41.0168 39.5494 41.0631C39.5805 41.1093 39.6126 41.1549 39.6459 41.1996C39.6791 41.2443 39.7134 41.2882 39.7488 41.3313C39.7842 41.3744 39.8206 41.4166 39.858 41.4579C39.9861 41.5977 40.1546 41.7765 40.3393 41.8308C40.0978 41.5956 39.9094 41.2837 39.7761 40.9753C39.3986 40.1013 39.41 39.0798 39.7718 38.2022C40.129 37.3358 40.8431 36.6813 41.7071 36.3336C41.7634 36.3113 41.8202 36.2905 41.8775 36.2712C41.9349 36.2517 41.9927 36.2338 42.0508 36.2172C42.109 36.2007 42.1676 36.1856 42.2267 36.172C42.2856 36.1583 42.3449 36.1461 42.4044 36.1354C42.464 36.1248 42.5238 36.1155 42.5838 36.1077C42.6439 36.0999 42.7041 36.0936 42.7643 36.0889C42.8247 36.0841 42.8852 36.0808 42.9457 36.0791C43.0061 36.0773 43.0667 36.077 43.1272 36.0781C43.1876 36.0794 43.2481 36.0821 43.3085 36.0863C43.3688 36.0904 43.4291 36.0961 43.4892 36.1033C43.5493 36.1105 43.6092 36.1192 43.6689 36.1293C43.7286 36.1394 43.7879 36.151 43.847 36.1642C43.9061 36.1772 43.9649 36.1918 44.0232 36.2077C44.0816 36.2237 44.1395 36.2411 44.197 36.2599C44.2545 36.2788 44.3115 36.299 44.3681 36.3208C44.4246 36.3424 44.4805 36.3655 44.5359 36.3899C45.3368 36.7458 45.9346 37.3473 46.2507 38.165Z" fill="#203B53"/>
<path d="M62.1346 43.0274C61.5154 42.9753 60.8021 43.1396 60.257 43.4373C59.8789 43.6437 59.49 43.9801 59.3788 44.4137C59.3258 44.6198 59.347 44.8443 59.4678 45.0234C59.7353 45.4197 60.3014 45.5201 60.7379 45.6092C61.5105 45.6283 62.2361 45.5782 62.9016 45.1433C63.2445 44.9192 63.6052 44.553 63.6786 44.1328C63.7113 43.9455 63.6705 43.7671 63.5534 43.6167C63.2439 43.2192 62.6129 43.0744 62.1346 43.0274Z" fill="#F49B83"/>
<path d="M45.8822 31.5737C44.5032 30.8879 42.6846 30.9471 41.2466 31.4244C40.8544 31.5546 40.491 31.7275 40.1378 31.9414C39.8471 32.1977 39.4979 32.4695 39.2969 32.8059C39.2501 32.859 39.2061 32.9145 39.1652 32.9723C39.1241 33.0301 39.0863 33.0898 39.0516 33.1516C39.0169 33.2133 38.9855 33.2767 38.9575 33.3417C38.9295 33.4068 38.905 33.4732 38.884 33.5408C38.8938 33.5846 38.8999 33.6353 38.9182 33.6762C41.5834 32.3471 43.9302 32.2726 46.8213 32.6464C46.5818 32.1602 46.357 31.861 45.8822 31.5737Z" fill="#203B53"/>
<path d="M45.8438 31.8625C44.7801 31.1827 43.1574 31.2838 41.9829 31.5386C41.1842 31.712 40.4914 32.0327 39.8493 32.5374C39.7763 32.6797 39.6428 32.8126 39.5414 32.937C40.9364 32.4605 42.3361 32.0872 43.81 31.9619C44.3242 31.9183 45.5202 32.0378 45.876 31.9247L45.8438 31.8625Z" fill="#736363"/>
<path d="M41.5973 43.5085C40.8688 43.4425 39.9918 43.5549 39.3352 43.8944C39.0522 44.0408 38.7529 44.2686 38.6663 44.5917C38.6603 44.6136 38.6554 44.6358 38.6516 44.6583C38.6479 44.6808 38.6454 44.7034 38.6441 44.7261C38.6428 44.7489 38.6427 44.7716 38.6439 44.7944C38.6449 44.8171 38.6472 44.8397 38.6508 44.8622C38.6543 44.8847 38.6589 44.907 38.6648 44.929C38.6707 44.9511 38.6778 44.9727 38.686 44.9939C38.6941 45.0152 38.7035 45.0359 38.7138 45.0562C38.7242 45.0765 38.7357 45.0961 38.7482 45.1152C39.04 45.5668 39.811 45.7821 40.3125 45.8869C41.1476 46.0241 42.2029 45.939 42.9123 45.4338C43.1483 45.2658 43.3514 45.0331 43.3851 44.735C43.4088 44.5249 43.3386 44.3259 43.2025 44.1665C42.836 43.7371 42.1364 43.5623 41.5973 43.5085Z" fill="#F49B83"/>
<path d="M59.0694 42.1814C59.8021 42.0385 60.393 41.6268 60.8202 41.0232C61.3549 40.2676 61.4738 39.3716 61.3117 38.4733C61.1736 37.7086 60.8013 36.9692 60.1356 36.5337C60.1064 36.5144 60.0769 36.4958 60.0468 36.4778C60.0167 36.4599 59.9863 36.4428 59.9553 36.4264C59.9245 36.4101 59.8931 36.3945 59.8614 36.3797C59.8297 36.365 59.7977 36.351 59.7653 36.3378C59.7329 36.3246 59.7001 36.3123 59.6671 36.3008C59.634 36.2894 59.6008 36.2787 59.5672 36.2688C59.5337 36.2589 59.4998 36.2499 59.4658 36.2418C59.4318 36.2336 59.3975 36.2264 59.3632 36.2199C59.3288 36.2135 59.2943 36.208 59.2596 36.2033C59.2249 36.1986 59.1902 36.1949 59.1554 36.1919C59.1205 36.189 59.0856 36.187 59.0506 36.1857C59.0157 36.1846 58.9807 36.1843 58.9457 36.1849C58.9107 36.1854 58.8758 36.1869 58.8409 36.1893C58.806 36.1917 58.7711 36.1949 58.7364 36.199C58.7017 36.2031 58.6671 36.208 58.6326 36.2139C58.5981 36.2198 58.5638 36.2264 58.5296 36.234C57.8278 36.39 57.3811 36.789 57.0024 37.3773C56.5556 38.3786 56.3859 39.4713 56.7944 40.5211C57.0483 41.1735 57.5304 41.7262 58.1798 42.0055C58.4763 42.133 58.7529 42.1623 59.0694 42.1814Z" fill="url(#paint1_linear_2351_4955)"/>
<path d="M60.9307 38.7742C60.8852 38.4053 60.7642 38.1073 60.6596 37.7542C60.6448 38.0114 60.6266 38.2471 60.5115 38.4839C60.649 38.6337 60.7284 38.7284 60.9307 38.7742Z" fill="#2C3643"/>
<path d="M60.5116 38.4836C60.3044 38.7173 60.0931 38.9136 59.7663 38.9366C59.5982 38.9485 59.4375 38.9169 59.274 38.8821C59.3114 39.1901 59.2419 39.4664 59.05 39.7159C58.9024 39.9078 58.6865 40.0752 58.4404 40.1006C58.3854 40.1063 58.3303 40.1084 58.2751 40.1102L58.4554 40.1478C58.4966 40.2387 58.5418 40.3141 58.5994 40.3957C59.0851 40.626 59.5134 40.0851 59.9237 39.8633C60.2008 39.7134 60.5496 39.6131 60.8547 39.5354L60.9302 39.517C60.9639 39.2742 60.9386 39.0186 60.9308 38.774C60.7285 38.7281 60.6491 38.6334 60.5116 38.4836Z" fill="url(#paint2_linear_2351_4955)"/>
<path d="M59.7781 36.9758C59.3903 37.0717 59.0817 37.18 58.8702 37.5497C58.855 37.5761 58.8413 37.6032 58.8289 37.6311C58.8166 37.659 58.8058 37.6874 58.7965 37.7164C58.7872 37.7455 58.7794 37.7749 58.7732 37.8048C58.7671 37.8347 58.7626 37.8648 58.7596 37.8951C58.7566 37.9254 58.7551 37.9559 58.7554 37.9864C58.7557 38.0169 58.7576 38.0472 58.7611 38.0775C58.7647 38.1078 58.7698 38.1378 58.7764 38.1676C58.7831 38.1973 58.7914 38.2266 58.8012 38.2555C58.8121 38.2869 58.8241 38.318 58.8372 38.3484C58.8505 38.3789 58.8649 38.4089 58.8805 38.4383C58.8962 38.4676 58.9129 38.4964 58.9308 38.5245C58.9487 38.5525 58.9676 38.5798 58.9876 38.6064C59.0076 38.633 59.0286 38.6587 59.0507 38.6836C59.0727 38.7085 59.0958 38.7325 59.1197 38.7556C59.1436 38.7787 59.1684 38.8008 59.1941 38.822C59.2198 38.8431 59.2463 38.8632 59.2735 38.8823C59.437 38.9171 59.5978 38.9486 59.7658 38.9368C60.0927 38.9137 60.304 38.7175 60.5111 38.4838C60.6262 38.247 60.6444 38.0113 60.6592 37.754C60.4907 37.3922 60.3532 37.178 59.9665 37.0396C59.9175 37.022 59.8679 37.006 59.8185 36.9896L59.7781 36.9758Z" fill="#F8FAFD"/>
<path d="M60.9297 39.5172L60.8542 39.5357C60.5491 39.6133 60.2003 39.7136 59.9232 39.8635C59.5129 40.0854 59.0846 40.6262 58.5989 40.3959C58.5413 40.3144 58.4961 40.2389 58.4549 40.148L58.2747 40.1105C58.2082 40.0846 58.1274 40.046 58.0544 40.0494C57.8045 40.061 57.5191 40.3958 57.3473 40.5588C57.3973 40.6524 57.45 40.7443 57.5054 40.8347C57.7598 41.2441 58.1728 41.5821 58.6505 41.682C59.0607 41.7677 59.4786 41.6655 59.8239 41.4348C60.4892 40.99 60.7849 40.2714 60.9297 39.5172Z" fill="#727A8C"/>
<path d="M46.251 38.165C45.9349 37.3472 45.3371 36.7457 44.5362 36.3898C44.4808 36.3654 44.4249 36.3423 44.3684 36.3207C44.3118 36.299 44.2548 36.2787 44.1973 36.2599C44.1398 36.241 44.0819 36.2236 44.0235 36.2077C43.9652 36.1917 43.9064 36.1772 43.8473 36.1641C43.7882 36.1509 43.7289 36.1393 43.6692 36.1292C43.6095 36.1191 43.5496 36.1105 43.4895 36.1033C43.4294 36.0961 43.3691 36.0904 43.3088 36.0862C43.2484 36.082 43.1879 36.0793 43.1275 36.0781C43.067 36.0769 43.0064 36.0772 42.946 36.079C42.8855 36.0808 42.825 36.084 42.7646 36.0888C42.7044 36.0936 42.6442 36.0998 42.5841 36.1076C42.5241 36.1154 42.4643 36.1247 42.4047 36.1354C42.3452 36.146 42.2859 36.1583 42.227 36.1719C42.1679 36.1856 42.1093 36.2006 42.0511 36.2172C41.993 36.2337 41.9352 36.2517 41.8778 36.2711C41.8205 36.2904 41.7637 36.3113 41.7074 36.3335C40.8434 36.6812 40.1293 37.3357 39.7721 38.2022C39.4103 39.0798 39.3989 40.1013 39.7764 40.9752C39.9097 41.2836 40.0981 41.5955 40.3396 41.8307C40.5487 41.9824 40.7371 42.1371 40.9643 42.2626C41.8287 42.7394 42.9888 42.9996 43.9525 42.7014C44.7879 42.4429 45.4206 41.821 45.8273 41.0617C46.166 40.4294 46.4916 39.4452 46.4061 38.7193C46.3843 38.5341 46.3046 38.3443 46.251 38.165Z" fill="#F8FAFD"/>
<path d="M43.2127 36.387C42.6954 36.3594 42.2171 36.436 41.7506 36.6658C41.7081 36.6868 41.6662 36.7089 41.6247 36.7321C41.5834 36.7553 41.5426 36.7795 41.5024 36.8046C41.4622 36.8298 41.4227 36.8559 41.3837 36.883C41.3448 36.9101 41.3066 36.9382 41.269 36.9671C41.2314 36.9962 41.1947 37.0261 41.1587 37.0568C41.1226 37.0877 41.0873 37.1193 41.0528 37.1519C41.0183 37.1844 40.9846 37.2178 40.9518 37.252C40.9189 37.2862 40.8869 37.3212 40.8558 37.357C40.8246 37.3927 40.7943 37.4292 40.765 37.4665C40.7357 37.5038 40.7073 37.5417 40.6798 37.5804C40.6523 37.619 40.6258 37.6583 40.6003 37.6983C40.5748 37.7382 40.5502 37.7788 40.5267 37.82C40.5031 37.8612 40.4806 37.9029 40.4591 37.9452C40.4377 37.9875 40.4172 38.0303 40.3979 38.0735C40.3784 38.1168 40.3601 38.1605 40.3429 38.2048C40.3257 38.2489 40.3096 38.2935 40.2945 38.3385C39.9828 39.2477 40.055 40.2028 40.4848 41.0605C40.8811 41.8517 41.472 42.3123 42.306 42.5905C42.9691 42.6911 43.5716 42.6061 44.1381 42.2228C44.8599 41.7342 45.3358 40.8988 45.4936 40.0518C45.6622 39.1481 45.4891 38.1661 44.9514 37.412C44.5223 36.8104 43.932 36.4948 43.2127 36.387Z" fill="url(#paint3_linear_2351_4955)"/>
<path d="M44.6806 37.8459C44.4543 37.4765 44.2377 37.2196 43.792 37.1206C43.5498 37.0668 43.2688 37.1084 43.0615 37.2477C42.8232 37.4078 42.6652 37.7106 42.6172 37.9884C42.6073 38.0491 42.5996 38.1099 42.594 38.1712C42.7113 38.536 42.8329 38.9039 43.209 39.0784C43.31 39.1252 43.4227 39.149 43.5306 39.1737C43.8556 39.106 44.2162 39.0119 44.4467 38.7552C44.6858 38.4888 44.6884 38.1811 44.6806 37.8459Z" fill="#F8FAFD"/>
<path d="M42.5946 38.1713L42.525 37.9972C42.391 37.9409 42.3031 37.9433 42.1675 38.0008C41.7998 38.1564 41.5102 38.5364 41.3766 38.9034C41.246 39.2616 41.2324 39.6879 41.4016 40.0368C41.4726 40.1834 41.5709 40.3075 41.681 40.4261C41.9429 40.63 42.2294 40.6857 42.5462 40.7501C42.7401 40.6852 42.9427 40.5509 43.0847 40.4046C43.4084 40.0711 43.5326 39.6288 43.5312 39.1738C43.4233 39.1491 43.3106 39.1254 43.2097 39.0786C42.8335 38.9041 42.7119 38.5362 42.5946 38.1713Z" fill="#271F1F"/>
<path d="M44.9873 40.2804C45.1285 39.626 45.2414 38.6823 44.9485 38.0558C44.8815 37.9125 44.8252 37.8981 44.6805 37.8459C44.6883 38.1812 44.6857 38.4889 44.4466 38.7553C44.2162 39.012 43.8555 39.1061 43.5306 39.1738C43.5319 39.6288 43.4077 40.0711 43.084 40.4046C42.942 40.5509 42.7394 40.6852 42.5456 40.7501C42.2287 40.6857 41.9422 40.6299 41.6804 40.426L41.5964 40.4362C41.2441 40.4753 41.1231 40.6935 40.9089 40.9484C41.2312 41.4212 41.5746 41.8188 42.1227 42.0317C42.5971 42.2161 43.136 42.2266 43.6033 42.015C44.3247 41.6883 44.7351 40.995 44.9873 40.2804Z" fill="#727A8C"/>
<path d="M44.9873 40.2804C45.1285 39.626 45.2414 38.6823 44.9485 38.0558C44.8815 37.9125 44.8252 37.8981 44.6805 37.8459C44.6883 38.1812 44.6857 38.4889 44.4466 38.7553C44.2162 39.012 43.8555 39.1061 43.5306 39.1738C43.5319 39.6288 43.4077 40.0711 43.084 40.4046C42.942 40.5509 42.7394 40.6852 42.5456 40.7501C43.4307 40.8049 43.7297 39.7066 44.5658 39.6012C44.6619 39.5891 44.7658 39.6124 44.8368 39.6791C45.0072 39.8395 44.9826 40.0641 44.9873 40.2804Z" fill="#454F5C"/>
<path d="M28.341 38.7551C28.0729 38.7802 27.9056 38.9218 27.6604 38.971C27.3949 39.0595 27.1874 39.316 26.9858 39.5046C26.9884 39.6764 26.8687 39.7711 26.7575 39.8964C26.1845 41.0441 26.1137 42.1223 26.5191 43.3445C26.9862 44.753 28.1231 45.957 29.4502 46.6014C30.1484 46.9404 30.8796 47.0226 31.6076 47.2451C32.078 47.0572 32.7934 47.1905 33.3289 47.036C33.8441 47.5344 34.3191 48.0733 34.8487 48.5568C36.5147 50.0773 38.4539 51.16 40.551 51.9587C40.7049 52.0172 40.8414 52.0226 40.9016 52.1833C41.1026 52.1995 41.2979 52.2133 41.4775 52.3125C41.7449 52.283 42.1256 52.4307 42.3785 52.5222L43.0263 52.6896C43.4449 52.7878 43.9005 52.8658 44.3023 53.0162C45.5697 53.8558 48.2404 55.2252 48.2404 55.2252L50.2627 56.0935L50.4027 56.117L50.5004 56.2866C50.5004 56.2866 50.6863 56.2745 50.7714 56.2733C50.8566 56.272 50.8828 56.1451 50.8828 56.1451L50.8386 56.1391C50.9007 56.0198 51.1766 55.8589 51.1766 55.8589L51.2097 55.7478C51.2097 55.7478 51.0213 55.6653 50.8595 55.7405C50.8595 55.7405 50.8116 55.7655 50.7877 55.7779C51.49 54.9764 52.2178 54.1665 52.6158 53.1637C53.0138 52.1609 52.6372 53.1072 52.6372 53.1072C52.861 53.0167 53.0119 53.0388 53.2393 53.0915C53.8176 52.8358 54.2313 52.7588 54.8571 52.7504C55.1229 52.6805 55.3862 52.6024 55.6471 52.5161C55.1466 52.4428 54.4365 52.8343 53.8978 52.7125C54.2784 52.5284 54.7377 52.5972 55.1026 52.3713C55.1271 52.356 55.1509 52.3396 55.1751 52.3239C55.5129 52.1405 56.0239 52.0569 56.3992 51.9412C57.424 51.6253 58.477 51.2856 59.4102 50.7503C59.0243 50.7227 55.689 51.6523 55.0606 51.7956C52.9521 52.2769 50.7341 52.5443 48.5717 52.4116C44.6827 52.1728 40.7062 50.0933 37.8768 47.4639C37.0885 46.7313 36.4874 45.8288 35.7073 45.0937C35.2063 44.6216 34.591 44.2803 34.0817 43.8148C33.6918 43.4584 32.2559 41.9587 31.9333 41.8041C31.9075 41.7918 31.881 41.7812 31.8549 41.7699C31.2682 41.2032 30.7146 40.7876 29.9532 40.485C29.7608 40.3142 29.4057 40.2286 29.1504 40.235C28.7791 40.2444 28.4573 40.5086 28.2283 40.7788C27.6953 41.4078 27.575 42.1908 27.6553 42.9842C27.7323 43.7434 27.9579 44.528 28.3772 45.1712C28.4826 45.3328 28.7364 45.5905 28.7485 45.7793C28.2252 45.4387 27.7595 44.9243 27.4134 44.4087C26.7748 43.4576 26.4331 42.1697 26.6674 41.0335C26.8753 40.0257 27.4969 39.301 28.341 38.7551Z" fill="#F2AC7F"/>
<path d="M29.9537 40.4849C29.6379 40.4838 29.4234 40.5034 29.1443 40.6545C29.109 40.8588 29.0755 41.1468 29.1922 41.3326C29.5656 42.7459 30.5671 44.1024 31.8378 44.8335C32.1171 44.9942 32.3918 45.1285 32.7166 45.0505C32.8298 44.9737 32.8883 44.9096 32.9185 44.7748C33.1064 43.9358 32.2963 42.4596 31.8553 41.7698C31.2687 41.2031 30.7151 40.7875 29.9537 40.4849Z" fill="#F49B83"/>
<path d="M29.9537 40.4849C29.6379 40.4838 29.4234 40.5034 29.1443 40.6545L29.182 40.6687C29.4799 40.7778 29.7912 40.8403 30.0907 40.9453C31.0772 41.2912 31.7163 41.9449 32.1606 42.8806C32.4629 43.5173 32.58 44.1581 32.6292 44.856C31.3944 44.4172 30.558 43.4851 29.8707 42.3982C29.6521 42.0524 29.4535 41.6448 29.1922 41.3326C29.5656 42.7459 30.5671 44.1024 31.8378 44.8335C32.1171 44.9942 32.3918 45.1285 32.7166 45.0505C32.8298 44.9737 32.8883 44.9096 32.9185 44.7748C33.1064 43.9358 32.2963 42.4596 31.8553 41.7698C31.2687 41.2031 30.7151 40.7875 29.9537 40.4849Z" fill="#203B53"/>
<path d="M28.3413 38.7551C28.0733 38.7802 27.9059 38.9218 27.6608 38.971C27.3953 39.0595 27.1877 39.316 26.9861 39.5046C26.9888 39.6764 26.869 39.7711 26.7579 39.8964C26.1849 41.0441 26.1141 42.1223 26.5195 43.3445C26.9866 44.753 28.1235 45.957 29.4506 46.6014C30.1488 46.9404 30.8799 47.0226 31.608 47.2451C32.0784 47.0572 32.7938 47.1905 33.3293 47.036C33.8444 47.5344 34.3194 48.0733 34.849 48.5568C36.515 50.0773 38.4543 51.16 40.5514 51.9587C40.7052 52.0172 40.8417 52.0226 40.9019 52.1833C41.1029 52.1995 41.2983 52.2133 41.4779 52.3125C41.7453 52.283 42.126 52.4307 42.3788 52.5222L43.0267 52.6896C43.4453 52.7878 43.9008 52.8658 44.3027 53.0162C44.5531 52.9599 44.7238 53.0049 44.9617 53.088C47.133 53.4138 49.2674 53.6153 51.4569 53.3583C51.8281 53.3147 52.2634 53.2893 52.6162 53.1637L52.6376 53.1072C52.8614 53.0167 53.0122 53.0388 53.2397 53.0915C53.8179 52.8358 54.2317 52.7588 54.8575 52.7504C55.1232 52.6805 55.3866 52.6024 55.6475 52.5161C55.147 52.4428 54.4368 52.8343 53.8982 52.7125C54.2788 52.5284 54.738 52.5972 55.103 52.3713C55.1275 52.356 55.1513 52.3396 55.1754 52.3239C53.0467 52.8309 50.9202 53.2016 48.7223 53.1423C47.8582 53.1156 46.9975 53.0465 46.1401 52.9351C45.2828 52.8237 44.4329 52.6703 43.5907 52.4752C39.2698 51.5071 36.439 49.9363 33.4044 46.7328C32.9311 46.8413 32.4842 46.9258 31.9969 46.9175C31.0289 46.901 29.4434 46.4954 28.7488 45.7793C28.2256 45.4387 27.7599 44.9243 27.4137 44.4087C26.7752 43.4576 26.4335 42.1697 26.6678 41.0335C26.8757 40.0257 27.4973 39.301 28.3413 38.7551Z" fill="#203B53"/>
<path d="M64.4518 14.0533L64.5057 14.1024C62.9646 15.0545 60.9036 15.3194 59.1502 14.9068C57.5953 14.5409 56.1189 13.7098 54.6174 13.1669C49.1606 11.194 43.7103 10.5227 38.5122 13.6694C36.9425 14.6197 35.8744 15.9026 34.8902 17.4253C34.7497 17.485 34.6104 17.5472 34.4721 17.6118C34.3339 17.6764 34.1968 17.7434 34.0609 17.8129C33.925 17.8823 33.7903 17.9541 33.657 18.0283C33.5237 18.1025 33.3917 18.179 33.261 18.2579C33.1304 18.3367 33.0011 18.4178 32.8733 18.5013C32.7455 18.5846 32.6192 18.6703 32.4944 18.7582C32.3697 18.846 32.2464 18.9361 32.1248 19.0283C32.0032 19.1205 31.8833 19.2149 31.765 19.3113C31.6467 19.4077 31.5302 19.5063 31.4153 19.6067C31.3006 19.7073 31.1876 19.8099 31.0764 19.9145C30.9651 20.019 30.8558 20.1255 30.7485 20.2338C30.6411 20.3422 30.5355 20.4524 30.432 20.5645C30.3284 20.6767 30.2268 20.7906 30.1273 20.9063C30.0278 21.0219 29.9304 21.1394 29.835 21.2585C29.7396 21.3776 29.6464 21.4985 29.5552 21.6208C29.4641 21.7432 29.3752 21.8672 29.2884 21.9928C29.0369 22.3553 28.7513 22.7365 28.5723 23.1416C28.544 23.2056 28.5521 23.1876 28.5387 23.2628L28.436 23.3142C27.6756 23.6861 27.2306 24.2848 26.9578 25.0673C26.6972 25.8149 26.5562 26.7307 26.8273 27.493L26.875 27.631C26.6914 28.0799 26.6327 28.6564 26.5689 29.1379C26.5289 29.4524 26.4963 29.7676 26.4711 30.0836C26.4459 30.3996 26.4281 30.716 26.4176 31.0327C26.4071 31.3495 26.4042 31.6665 26.4085 31.9834C26.4128 32.3004 26.4246 32.617 26.4439 32.9334C26.463 33.2498 26.4896 33.5656 26.5236 33.8808C26.5575 34.1959 26.5987 34.5101 26.6475 34.8233C26.6961 35.1366 26.7521 35.4485 26.8152 35.7591C26.8785 36.0697 26.9489 36.3787 27.0266 36.686C27.1475 37.178 27.7079 38.6365 27.6599 38.9712C27.905 38.922 28.0724 38.7804 28.3404 38.7553C29.5009 38.3698 30.6369 38.4213 31.7433 38.9754C31.9475 39.0775 32.1862 39.2099 32.3353 39.3856C32.5909 39.6866 32.7737 40.1429 32.9693 40.4882C33.7231 41.8183 34.5921 43.1988 35.9223 44.014C35.5678 43.0567 35.2191 42.0613 35.1101 41.0402C35.155 40.9765 35.2056 40.9188 35.2285 40.8426C35.303 40.5944 35.2887 40.2494 35.3103 39.9871C35.3829 39.1044 35.4393 37.9721 35.8282 37.1757C36.2958 36.2181 38.099 34.4842 38.9181 33.6761C38.8999 33.6353 38.8937 33.5845 38.8839 33.5408C38.905 33.4732 38.9295 33.4068 38.9574 33.3417C38.9854 33.2766 39.0169 33.2133 39.0516 33.1515C39.0863 33.0897 39.124 33.03 39.1651 32.9723C39.206 32.9145 39.25 32.859 39.2968 32.8058C39.4978 32.4695 39.8471 32.1977 40.1377 31.9414C40.3223 31.2229 41.3266 30.0543 41.7295 29.3393C42.1262 28.6352 42.4199 27.8695 42.7074 27.1166C45.9031 29.1948 49.1851 30.8565 52.874 31.8699C54.1873 32.2306 55.4944 32.4825 56.8572 32.5253C56.987 32.5294 57.2341 32.4976 57.2818 32.6442L57.3049 32.6163L57.4675 32.5193C57.7661 32.0428 58.237 31.7803 58.7713 31.6386C59.7777 31.4206 61.0669 31.6164 61.9352 32.1869C62.0679 32.2741 62.1944 32.3721 62.3202 32.4689C62.5372 32.4987 62.5399 32.7305 62.7934 32.7511C62.6401 32.5208 62.4407 32.3425 62.2405 32.154C62.2784 32.1377 62.3211 32.1235 62.3618 32.1155C62.4298 32.1021 64.7912 32.0266 64.8154 32.0346C64.8531 32.047 64.8805 32.08 64.9131 32.1027C64.938 33.7464 64.9723 35.4332 64.708 37.0605C64.8102 37.0649 64.9129 37.0604 65.0152 37.0583C65.2907 37.1268 65.4828 37.3581 65.6675 37.5608C65.7924 37.597 65.9306 37.6508 66.06 37.6577C66.1779 36.8946 67.0484 34.7815 67.4112 34.0157C67.9681 34.7157 68.3803 35.4837 68.8118 36.2635C69.5652 34.4273 69.3534 31.7899 69.179 29.8346C70.3864 29.3425 71.5425 28.8493 72.6035 28.074C72.5918 28.064 72.5809 28.0531 72.5684 28.0441C72.4156 27.9354 72.2645 27.9739 72.0964 28.0092L72.2153 27.7514C72.278 27.74 72.339 27.7225 72.4008 27.7065L72.354 27.6344C70.5718 26.4666 69.2282 24.8705 67.8075 23.3082C65.5975 20.8779 63.3337 18.5306 60.4641 16.8819C59.8161 16.5097 59.1805 16.0817 58.4662 15.8474C58.5501 15.7972 58.6224 15.7631 58.7226 15.7567C59.0429 15.7361 59.3957 15.8073 59.7146 15.8413C60.2733 15.9008 60.8196 15.9373 61.382 15.907C62.4319 15.8504 63.5667 15.5557 64.474 15.0154C65.1149 14.6338 65.4819 14.0978 65.6637 13.3825C65.2703 13.5964 64.8722 13.7936 64.4682 13.986L64.4518 14.0533Z" fill="#7F503F"/>
<path d="M31.5649 33.2584C31.6825 32.617 31.4823 31.3681 31.4507 30.6566C31.4223 30.0147 31.451 29.3692 31.4031 28.7289L31.3646 28.7068L31.3325 28.8662C31.4345 29.1909 31.3056 29.7058 31.2965 30.0549C31.2719 31.003 31.2724 32.3698 31.5649 33.2584Z" fill="#673E33"/>
<path d="M62.744 25.6915C62.2427 25.334 61.8676 24.9175 61.4179 24.5066C62.3433 25.9405 63.7329 27.0865 65.232 27.8872C65.3882 27.8863 65.5718 27.9522 65.7246 27.9884C64.8863 27.3932 63.3672 26.4274 62.744 25.6915Z" fill="#492533"/>
<path d="M31.3327 28.8666C31.212 29.1787 31.0783 29.4917 30.9926 29.8155C30.852 31.4007 30.5926 33.9478 31.6819 35.2685C31.7668 35.3715 31.8687 35.4652 31.9648 35.5575C31.9448 35.335 31.9061 35.1 31.9051 34.8774C31.8183 34.3371 31.6794 33.7946 31.5651 33.2588C31.2726 32.3702 31.2721 31.0033 31.2967 30.0553C31.3057 29.7062 31.4347 29.1913 31.3327 28.8666Z" fill="#492533"/>
<path d="M58.4677 15.8471C57.2494 15.7294 56.0281 15.4382 54.8073 15.2878C57.6285 16.353 59.7408 17.9051 62.0426 19.8178L62.0906 19.8307C62.2566 20.2151 63.3822 21.3563 63.7599 21.5421C63.7888 21.5235 63.8225 21.5096 63.8443 21.4831L63.8733 21.6037C65.4503 23.0663 70.3482 27.5159 72.3555 27.6342C70.5733 26.4663 69.2297 24.8702 67.809 23.3079C65.5991 20.8777 63.3352 18.5303 60.4656 16.8816C59.8177 16.5094 59.182 16.0814 58.4677 15.8471Z" fill="#AC918E"/>
<path d="M65.2324 27.8874C64.6817 27.9919 64.0036 27.8749 63.4438 27.8184C60.6595 27.5376 57.8533 26.9765 55.2545 25.9161C54.3411 25.5435 53.5125 24.992 52.6361 24.5455C53.2122 25.6545 55.7397 28.0246 56.7999 28.7053C57.3041 29.0289 57.8595 29.2586 58.429 29.4398C62.8922 30.8603 67.4152 30.4931 71.5648 28.327C71.7476 28.2315 71.9386 28.1428 72.0969 28.0091L72.2158 27.7512C70.2414 28.1067 66.5061 27.1678 64.5866 26.4678C63.9821 26.2474 63.3964 25.8742 62.7863 25.7028C62.7724 25.6989 62.7583 25.6954 62.7443 25.6917C63.3675 26.4276 64.8867 27.3934 65.7249 27.9886C65.5721 27.9524 65.3886 27.8865 65.2324 27.8874Z" fill="#673E33"/>
<path d="M40.2833 19.6545C40.4397 20.2146 40.5163 20.7901 40.5855 21.3664C40.8219 23.3334 40.6357 25.068 39.6552 26.8117C39.1424 27.7237 38.469 28.5418 37.7586 29.3063C37.1337 29.9788 36.4077 30.5679 35.7166 31.1706C34.8913 31.8835 34.0827 32.6145 33.2904 33.3637C33.0918 33.5503 32.8844 33.7335 32.703 33.9371C32.5019 34.1625 32.1391 34.7778 31.9047 34.8769C31.9056 35.0995 31.9443 35.3345 31.9644 35.557C31.8682 35.4648 31.7663 35.371 31.6814 35.2681C30.5921 33.9474 30.8515 31.4002 30.9922 29.815C30.1628 31.5864 29.6919 32.8473 29.5499 34.8067C28.2158 32.9811 27.9977 31.0618 27.9363 28.8598C27.4475 28.536 27.1082 28.1745 26.875 27.6308C26.6914 28.0796 26.6327 28.6562 26.5689 29.1377C26.5289 29.4521 26.4963 29.7674 26.4711 30.0834C26.4459 30.3994 26.4281 30.7157 26.4176 31.0325C26.4071 31.3493 26.4042 31.6662 26.4085 31.9832C26.4128 32.3001 26.4246 32.6168 26.4439 32.9332C26.463 33.2495 26.4896 33.5653 26.5236 33.8806C26.5575 34.1957 26.5987 34.5099 26.6475 34.8231C26.6961 35.1364 26.7521 35.4482 26.8152 35.7588C26.8785 36.0694 26.9489 36.3784 27.0266 36.6858C27.1475 37.1778 27.7079 38.6362 27.6599 38.971C27.905 38.9217 28.0724 38.7801 28.3404 38.755C29.5009 38.3695 30.6369 38.4211 31.7433 38.9751C31.9475 39.0773 32.1862 39.2097 32.3353 39.3854C32.5909 39.6864 32.7737 40.1426 32.9693 40.488C33.7231 41.8181 34.5921 43.1986 35.9223 44.0138C35.5678 43.0565 35.2191 42.0611 35.1101 41.04C35.155 40.9762 35.2056 40.9185 35.2285 40.8423C35.303 40.5942 35.2887 40.2492 35.3103 39.9868C35.3829 39.1041 35.4393 37.9718 35.8282 37.1755C36.2958 36.2179 38.099 34.4839 38.9181 33.6759C38.8999 33.635 38.8937 33.5843 38.8839 33.5405C38.905 33.473 38.9295 33.4065 38.9574 33.3414C38.9854 33.2764 39.0169 33.213 39.0516 33.1513C39.0863 33.0895 39.124 33.0298 39.1651 32.972C39.206 32.9142 39.25 32.8588 39.2968 32.8056C39.4978 32.4692 39.8471 32.1974 40.1377 31.9412C40.3223 31.2226 41.3266 30.054 41.7295 29.339C42.1262 28.6349 42.4199 27.8692 42.7074 27.1164C45.9031 29.1945 49.1851 30.8563 52.874 31.8696C54.1873 32.2303 55.4944 32.4823 56.8572 32.5251C56.987 32.5291 57.2341 32.4974 57.2818 32.6439L57.3049 32.616L57.4675 32.519C57.7661 32.0426 58.237 31.78 58.7713 31.6383C59.7777 31.4203 61.0669 31.6161 61.9352 32.1867C62.0679 32.2739 62.1944 32.3718 62.3202 32.4686C62.5372 32.4984 62.5399 32.7302 62.7934 32.7508C62.6401 32.5206 62.4407 32.3422 62.2405 32.1537C62.2784 32.1375 62.3211 32.1232 62.3618 32.1153C62.4298 32.1019 64.7912 32.0263 64.8154 32.0343C64.8531 32.0467 64.8805 32.0798 64.9131 32.1025C64.938 33.7462 64.9723 35.4329 64.708 37.0602C64.8102 37.0646 64.9129 37.0601 65.0152 37.0581C65.2907 37.1265 65.4828 37.3578 65.6675 37.5606C65.7924 37.5967 65.9306 37.6506 66.06 37.6575C66.1779 36.8944 67.0484 34.7812 67.4112 34.0154C67.9681 34.7154 68.3803 35.4834 68.8118 36.2632C69.5652 34.4271 69.3534 31.7896 69.179 29.8344C70.3864 29.3423 71.5425 28.849 72.6035 28.0738C72.5918 28.0638 72.5809 28.0528 72.5684 28.0439C72.4156 27.9351 72.2645 27.9736 72.0964 28.009C71.9381 28.1427 71.7472 28.2314 71.5643 28.3269C67.4147 30.493 62.8917 30.8602 58.4285 29.4397C57.859 29.2585 57.3036 29.0289 56.7995 28.7052C55.7392 28.0246 53.2117 25.6545 52.6356 24.5455C52.185 24.1296 51.8301 23.6569 51.4157 23.2116C52.3347 24.8236 53.4704 26.1995 54.723 27.5604C51.1812 26.313 46.6666 24.5645 44.2986 21.4972C44.7407 22.5899 45.4312 23.5399 46.1095 24.4951C44.9917 24.0866 43.36 22.9335 42.4312 22.1649C42.058 21.8559 41.734 21.459 41.3309 21.1928C40.9816 20.6835 40.5967 20.1865 40.2833 19.6545Z" fill="#203B53"/>
<path d="M68.845 29.9587C68.3679 30.0465 67.8921 30.2037 67.4155 30.3073C66.6953 30.464 65.9732 30.5569 65.2421 30.6441C65.392 32.6486 65.443 34.6736 65.1922 36.6717C65.3685 36.8758 65.5559 37.0697 65.7417 37.2651C65.943 36.6975 66.1264 36.1241 66.2919 35.545C66.5984 34.5935 66.5991 33.566 66.5663 32.5787C67.3546 33.4977 68.0737 34.4945 68.7331 35.5086C69.1733 33.9147 69.1198 31.5983 68.845 29.9587Z" fill="#673E33"/>
<path d="M41.3319 21.1929C41.531 21.6146 41.7626 22.0638 41.8741 22.5179C41.9633 22.8812 41.916 23.6694 42.0795 23.9235C42.2514 24.1907 42.679 24.446 42.93 24.6369C45.4029 26.5183 48.4738 28.0245 51.3884 29.0716C53.0492 29.6682 55.005 30.2321 56.7832 30.215C56.2201 29.2374 55.5706 28.3201 54.7239 27.5605C51.1821 26.3131 46.6676 24.5646 44.2995 21.4973C44.7416 22.59 45.4322 23.54 46.1105 24.4952C44.9926 24.0867 43.361 22.9336 42.4322 22.165C42.0589 21.856 41.7349 21.4591 41.3319 21.1929Z" fill="#673E33"/>
<path d="M57.7811 30.635C56.5049 30.6185 55.2597 30.5598 54.0057 30.3039C50.3139 29.5504 44.8514 26.9175 42.0072 24.4652C41.8687 25.2628 41.7231 26.046 41.4761 26.8192C40.5747 29.6402 38.7278 32.309 36.8169 34.5357C36.3379 35.094 35.3492 35.8286 35.0804 36.4827C34.6097 37.6282 34.878 39.8105 35.111 41.0402C35.1559 40.9764 35.2066 40.9188 35.2295 40.8425C35.304 40.5944 35.2897 40.2494 35.3113 39.987C35.3839 39.1043 35.4403 37.9721 35.8292 37.1757C36.2968 36.2181 38.1 34.4841 38.9191 33.6761C38.9008 33.6353 38.8947 33.5845 38.8849 33.5408C38.9059 33.4732 38.9305 33.4067 38.9584 33.3417C38.9864 33.2766 39.0178 33.2132 39.0525 33.1515C39.0872 33.0897 39.125 33.03 39.1661 32.9722C39.207 32.9144 39.251 32.859 39.2978 32.8058C39.4988 32.4694 39.8481 32.1977 40.1387 31.9414C40.3232 31.2229 41.3276 30.0543 41.7305 29.3392C42.1272 28.6351 42.4209 27.8694 42.7084 27.1166C45.9041 29.1947 49.186 30.8565 52.875 31.8698C54.1883 32.2305 55.4954 32.4825 56.8582 32.5253C56.988 32.5293 57.2351 32.4976 57.2827 32.6441L57.3059 32.6162L57.4685 32.5192C57.7671 32.0428 58.238 31.7802 58.7722 31.6385C59.7787 31.4205 61.0679 31.6163 61.9362 32.1869C62.0689 32.2741 62.1954 32.3721 62.3212 32.4689C62.5382 32.4987 62.5409 32.7304 62.7944 32.751C62.6411 32.5208 62.4417 32.3424 62.2415 32.1539C62.2794 32.1377 62.3221 32.1234 62.3628 32.1155C62.4308 32.1021 64.7922 32.0265 64.8164 32.0345C64.8541 32.0469 64.8815 32.08 64.9141 32.1027C64.8829 31.6335 64.8704 31.1574 64.8172 30.6906C61.7563 30.7686 59.3313 30.4178 56.5453 29.0934C56.8801 29.6793 57.3308 30.1387 57.7811 30.635Z" fill="#F2AC7F"/>
<path d="M58.59 31.4509C58.1319 31.5785 57.7099 31.7595 57.4552 32.1875C57.3748 32.3228 57.3386 32.4637 57.3061 32.6162L57.4687 32.5192C57.7673 32.0427 58.2382 31.7802 58.7725 31.6385L58.59 31.4509Z" fill="#492533"/>
<path d="M62.2411 32.1535C62.1345 32.0759 62.0256 32.0017 61.9145 31.9308C61.012 31.3625 59.6133 31.214 58.5893 31.4505L58.7718 31.6381C59.7782 31.4201 61.0675 31.6159 61.9358 32.1865C62.0684 32.2737 62.1949 32.3716 62.3208 32.4684C62.5377 32.4982 62.5404 32.73 62.7939 32.7506C62.6406 32.5203 62.4412 32.342 62.2411 32.1535Z" fill="#5D3334"/>
<defs>
<linearGradient id="paint0_linear_2351_4955" x1="59.9361" y1="33.1533" x2="60.4172" y2="31.6319" gradientUnits="userSpaceOnUse">
<stop stop-color="#5B3A4E"/>
<stop offset="1" stop-color="#71565B"/>
</linearGradient>
<linearGradient id="paint1_linear_2351_4955" x1="61.1473" y1="40.2681" x2="56.7865" y2="38.0668" gradientUnits="userSpaceOnUse">
<stop stop-color="#2D1923"/>
<stop offset="1" stop-color="#443337"/>
</linearGradient>
<linearGradient id="paint2_linear_2351_4955" x1="59.5645" y1="38.6326" x2="59.6456" y2="40.3387" gradientUnits="userSpaceOnUse">
<stop stop-color="#464352"/>
<stop offset="1" stop-color="#59626F"/>
</linearGradient>
<linearGradient id="paint3_linear_2351_4955" x1="45.3112" y1="40.5088" x2="40.3528" y2="38.4401" gradientUnits="userSpaceOnUse">
<stop stop-color="#321B2B"/>
<stop offset="1" stop-color="#3B3139"/>
</linearGradient>
</defs>
</svg>
