<svg width="63" height="171" viewBox="0 0 63 171" fill="none" xmlns="http://www.w3.org/2000/svg">
<path d="M59.1207 0C56.2567 0.465961 52.9583 0.919261 50.1207 1.53508C44.9521 2.68809 38.8456 3.63804 33.6207 4.5C25.2092 5.92374 20.0962 6.02626 11.6207 6.99997C7.59711 7.44504 4.6302 7.49511 0.620697 7.99997C-0.367798 8.12431 0.120697 11 0.120697 13.5C2.6207 16.3182 2.16614 16.8796 3.93451 19.6714C4.22533 29.96 3.89896 40.2982 3.90831 50.5935L3.86097 125.664L3.83788 145.343C3.8029 149.45 3.57743 153.641 3.78974 157.74C3.83708 158.651 3.87205 159.504 4.47667 160.211C7.04696 160.449 15.4299 154.918 18.0797 153.401L20.712 151.673C22.4017 154.361 31.5268 170.305 33.3277 171C34.2925 170.69 35.0567 169.646 35.615 168.841C36.9363 166.936 37.9299 164.644 39.0267 162.597L45.6254 150.349C48.5655 151.147 60.2432 154.398 62.4718 153.423C63.0802 152.296 62.6593 151.256 62.1353 150.162C60.2045 146.128 57.1883 141.979 55.7841 137.806C54.7711 134.796 55.3599 125.663 55.3703 121.852L55.4185 48.9599L55.5025 29.8946C55.4828 25.3918 55.2753 20.8136 55.4847 16.3182C55.6085 13.6571 55.8653 13.5339 56.6207 11C58.1207 11 59.5377 11 59.5377 11C59.5676 9.94996 59.8479 0.748124 59.1207 0Z" fill="#203B53"/>
<path d="M51.2283 10.0278C52.2866 8.09506 52.4544 5.45305 52.893 2.99995L55.6217 2.5C54.9641 5.69292 54.7229 9.13585 52.893 11.4512C52.2822 11.6742 51.6894 11.8723 51.0558 12.0234C51.0695 11.3633 51.1682 10.6866 51.2283 10.0278Z" fill="#CFFDFF"/>
<path d="M9.19014 9.234C6.66395 9.36631 4.14077 9.54306 1.6207 9.76449C4.11491 14.3208 3.78467 13.4175 6.73953 17.6883C21.4675 16.918 36.5979 14.9277 51.0547 12.0237C51.0685 11.3635 51.1671 10.6868 51.2271 10.0281L51.0457 9.76453C50.0693 9.66363 39.1513 11.7145 36.6917 11.9679C28.8483 12.7765 19.4932 12.7692 11.6207 12.5L10.5614 11.3122L9.19014 9.234Z" fill="#30A0A6"/>
<path d="M52.1117 15.012C51.2088 15.2718 50.2604 15.4291 49.3398 15.6207L49.3967 22.5374C49.8023 32.6552 49.5584 42.8679 49.5371 52.9996L49.4663 101.233L49.3922 119.243C49.3815 124.149 49.2479 129.139 49.99 134.002C50.5608 137.744 52.2627 142.073 54.5447 145.096C54.9503 145.436 55.4745 146.016 56.0143 146.055C54.6329 143.435 52.6037 140.371 52.2387 137.424C51.7513 133.488 52.1047 129.152 52.1115 125.18L52.1262 101.215L52.1117 15.012Z" fill="#CFFDFF"/>
<path d="M53.1197 3C38.1197 7.5 21.6197 8.5 9.11972 9.5C10.1772 11.8596 9.5035 10.516 11.6197 12.5C19.4922 12.7692 28.8474 12.7765 36.6909 11.9679C39.1505 11.7145 50.0685 9.66363 51.0448 9.76454L51.2263 10.0281C52.2848 8.09535 52.6812 5.45311 53.1197 3Z" fill="#54E6ED"/>
<path d="M13.2054 20.3638L7.348 20.6688L7.15301 155.611C9.58152 154.376 19.9781 147.877 21.5404 147.875C24.0997 149.937 31.4158 162.423 33.4336 165.986C34.8644 163.347 42.504 147.683 44.222 146.967C45.6561 146.37 56.0216 149.373 58.1646 149.897C57.5234 148.716 56.8508 147.079 56.0154 146.055C55.4757 146.016 54.9514 145.436 54.5458 145.096C49.6061 144.009 44.6879 141.366 40.7365 138.26C38.7499 143.299 36.2856 147.834 32.7992 151.999C32.3274 151.558 31.8686 151.104 31.4226 150.636C30.9768 150.169 30.5447 149.689 30.1263 149.197C29.708 148.704 29.304 148.201 28.9143 147.685C28.5248 147.17 28.1502 146.644 27.7908 146.107C27.4312 145.57 27.0871 145.024 26.7589 144.467C26.4306 143.911 26.1186 143.346 25.8229 142.771C25.527 142.197 25.2476 141.615 24.9849 141.025C24.7222 140.434 24.4766 139.837 24.2481 139.233C20.74 141.286 17.2884 143.041 13.4414 144.372L13.3763 84.282C13.3929 65.294 13.6776 46.3122 13.2922 27.3247C13.6204 25.1713 13.268 22.5617 13.2054 20.3638Z" fill="#30A0A6"/>
<path d="M49.3406 15.6208C37.2757 17.7548 25.4279 19.4217 13.2051 20.3638C13.2677 22.5618 13.62 25.1713 13.2919 27.3249C13.6772 46.3124 13.3926 65.2943 13.376 84.2823L13.4411 144.372C17.2879 143.041 20.7397 141.286 24.2478 139.233C24.4762 139.837 24.7218 140.435 24.9846 141.025C25.2473 141.615 25.5266 142.197 25.8225 142.772C26.1183 143.346 26.4303 143.911 26.7586 144.468C27.0868 145.024 27.4309 145.571 27.7905 146.107C28.15 146.644 28.5245 147.17 28.914 147.686C29.3037 148.201 29.7077 148.705 30.126 149.197C30.5445 149.689 30.9765 150.169 31.4222 150.637C31.8681 151.104 32.327 151.558 32.7989 152C36.2853 147.834 38.7496 143.299 40.7362 138.26C44.6876 141.366 49.6058 144.009 54.5455 145.097C52.2635 142.073 50.5616 137.744 49.9908 134.003C49.2487 129.139 49.3823 124.149 49.393 119.244L49.4672 101.234L49.5379 52.9999C49.5594 42.8683 49.8031 32.6556 49.3975 22.5378L49.3406 15.6208Z" fill="#54E6ED"/>
<path d="M49.3403 15.6208C37.2754 17.7548 25.4275 19.4217 13.2047 20.3638C13.2673 22.5618 13.6197 25.1713 13.2916 27.3249C14.222 26.6016 20.7861 26.5431 22.3484 26.4233C31.4461 25.7251 40.429 24.1588 49.3971 22.5375L49.3403 15.6208Z" fill="#30A0A6"/>
</svg>
