<svg width="55" height="50" viewBox="0 0 55 50" fill="none" xmlns="http://www.w3.org/2000/svg">
<path d="M8.24625 5.65118C8.7759 4.74165 9.40739 3.66796 10.1883 2.95744C10.9444 2.26991 11.5395 2.26327 12.5098 2.25894C16.1928 4.28504 19.6115 7.39013 23.0382 9.85967C28.6615 13.9259 34.2567 18.031 39.8227 22.1752C43.805 25.123 48.0517 27.9767 51.5657 31.4827C52.1063 33.1482 51.573 34.772 50.9403 36.3444C50.0895 38.4594 49.1056 40.9283 46.9213 41.8186C40.408 38.8368 4.27548 21.21 2.05795 16.9152C3.17346 13.1709 6.25653 9.09463 8.24625 5.65118Z" fill="#203B53"/>
<path d="M10.0701 12.7317L12.8889 8.66997C20.4123 14.8352 28.7272 20.16 36.6299 25.8357C39.7665 28.0874 43.1102 30.2737 45.9553 32.8869C46.1897 33.9661 45.5615 34.8408 45.0911 35.7762C36.2542 31.5592 27.673 26.7944 19.0907 22.0881C15.5928 20.1703 11.4653 18.4146 8.37117 15.9264C8.42931 14.7958 9.43727 13.6576 10.0701 12.7317Z" fill="#E385CC"/>
</svg>
