<svg width="103" height="103" viewBox="0 0 103 103" fill="none" xmlns="http://www.w3.org/2000/svg">
<path d="M80.8842 28.71C81.131 28.9447 81.2355 29.3777 81.3221 29.7025C81.6455 30.9096 81.3907 32.0999 80.7737 33.1673C80.123 34.2929 79.0893 35.2226 77.7935 35.4999C76.3389 35.8117 75.2964 35.3183 74.1063 34.5245C72.5042 37.3519 71.2404 40.4746 69.97 43.4631C66.6939 51.1722 63.6314 59.1799 61.7477 67.3582C64.5065 67.5558 67.3677 67.4324 70.1376 67.4396C75.0834 67.4528 80.0231 67.4897 84.9649 67.2563C85.2667 65.8282 85.7257 64.6144 86.889 63.6402C87.0035 63.5443 87.1224 63.4546 87.2458 63.3708C87.3693 63.287 87.4968 63.2094 87.628 63.1385C87.7593 63.0675 87.8937 63.0033 88.0316 62.9458C88.1692 62.8886 88.3097 62.8385 88.4525 62.7952C88.5953 62.7519 88.74 62.716 88.8865 62.6874C89.033 62.6589 89.1804 62.6376 89.3291 62.6239C89.4777 62.6103 89.6265 62.6039 89.7758 62.6053C89.925 62.6066 90.0736 62.6152 90.2222 62.6315C90.3711 62.6476 90.5187 62.6713 90.6653 62.7024C90.812 62.7336 90.9566 62.7723 91.099 62.8184C91.2415 62.864 91.3815 62.9171 91.5186 62.9771C91.6557 63.0371 91.7896 63.1042 91.9202 63.1781C92.0506 63.2516 92.1767 63.3317 92.299 63.4184C92.4211 63.5049 92.5391 63.5973 92.6519 63.6956C92.7648 63.7942 92.8722 63.8984 92.9744 64.0076C93.0768 64.1171 93.1735 64.2315 93.2641 64.3507C93.9922 65.3128 94.3557 66.5705 94.1523 67.7687C93.9373 69.0349 93.0526 70.1807 92.0136 70.9007C91.8894 70.9882 91.7612 71.0687 91.6287 71.1431C91.4963 71.2171 91.3604 71.2843 91.2208 71.3443C91.0817 71.4045 90.9396 71.4575 90.7947 71.5028C90.6498 71.5481 90.5031 71.586 90.3545 71.6165C90.2058 71.6468 90.0558 71.6692 89.9047 71.6843C89.7539 71.6991 89.6022 71.706 89.4505 71.7052C89.2988 71.7045 89.1475 71.6962 88.9964 71.6797C88.8456 71.6631 88.6961 71.6389 88.5476 71.6073C87.0319 71.2927 86.3076 70.3534 85.5121 69.1293C81.8893 72.0245 52.704 94.7358 51.851 94.964C50.8077 94.7026 50.3343 93.4325 49.81 92.5476C45.8145 85.8046 40.7419 79.822 35.0533 74.4499C30.8178 70.4503 26.2733 66.8551 21.0976 64.1351C19.8235 63.4656 14.0705 61.3261 13.6427 60.7816C14.3138 59.0015 17.5571 55.1192 18.7512 53.1837C22.7623 46.6833 26.1453 39.5612 29.1354 32.5397C30.0278 30.4443 31.1115 28.1876 31.5849 25.957C31.5989 25.8904 31.6109 25.8238 31.6241 25.7572C30.684 24.855 29.8642 23.7998 29.7609 22.4531C29.6777 21.3708 30.1032 20.3413 30.8446 19.5615C31.8571 18.4965 33.3547 17.9747 34.8085 18.0152C36.0067 18.0488 37.1544 18.498 37.9446 19.4181C38.5959 20.1765 39.019 21.3224 38.9314 22.3263C38.8249 23.5484 38.0359 24.7078 37.1183 25.4808C36.4163 26.0725 35.456 26.6221 34.5067 26.5284C34.1158 26.4898 34.3187 26.4647 33.9514 26.5811C33.8897 28.6878 34.5015 31.0233 34.8714 33.0992C35.7153 37.7994 36.624 42.4869 37.5976 47.1618C48.9734 44.9125 62.976 38.9597 72.9416 32.9725C72.7191 32.0589 72.4547 31.1426 72.6184 30.1956C72.8426 28.9 73.5746 27.8202 74.6744 27.1061C75.6525 26.4708 76.873 26.1776 78.0195 26.4536C79.3515 26.7742 80.1801 27.5855 80.8842 28.71Z" fill="#203B53"/>
<path d="M52.8891 44.6276L52.9336 45.1401C52.1868 45.8617 51.031 46.5318 50.0464 46.8877C50.039 46.8141 50.0295 46.7409 50.0241 46.6674C50.0058 46.4072 50.0316 46.2387 50.0937 45.9906C48.0851 46.1297 44.0193 48.6602 42.105 49.0324C40.4366 49.2288 37.9837 49.5905 36.4605 50.2524C36.0556 50.0485 35.6677 49.8602 35.3101 49.5769L35.7437 49.3225C37.5816 49.6257 41.4587 48.0408 43.4494 47.6192C44.5894 47.1531 45.9 46.8769 47.0835 46.5183C49.0297 45.9219 50.9649 45.2916 52.8891 44.6276Z" fill="#F8ED2A"/>
<path d="M36.9051 20.8081C36.92 20.8515 36.9387 20.8936 36.9508 20.9383C37.1544 21.6844 37.0338 22.5802 36.6253 23.238C36.2397 23.8585 35.6266 24.2067 34.9278 24.3742C33.8793 24.6258 33.161 24.2417 32.2874 23.6984C32.0605 23.3683 31.8501 23.0562 31.7812 22.6526C31.688 22.1033 32.0087 21.4094 32.3522 21.001C32.9296 20.3138 33.8611 19.9176 34.7485 19.8712C35.6889 19.8216 36.2398 20.1897 36.9051 20.8081Z" fill="#FEFEFE"/>
<path d="M79.0021 29.0823C79.1973 29.5057 79.4026 29.9822 79.4599 30.4469C79.5551 31.217 79.3161 32.0585 78.8332 32.6649C78.7872 32.7229 78.7385 32.7784 78.6869 32.8316C78.6357 32.8846 78.5817 32.9351 78.5251 32.9831C78.4684 33.0309 78.4098 33.0755 78.349 33.1175C78.2881 33.1595 78.2252 33.1987 78.1606 33.2343C78.0958 33.2701 78.0293 33.3025 77.9614 33.3316C77.8932 33.3609 77.8242 33.3866 77.7537 33.4092C77.683 33.4314 77.6115 33.4501 77.5393 33.4656C77.467 33.4807 77.3938 33.4923 77.3203 33.5005C76.4111 33.5978 75.8233 33.096 75.1574 32.5631C74.9289 32.3211 74.7263 32.1085 74.5999 31.7925C74.3407 31.1422 74.3669 30.3646 74.7152 29.7541C75.0936 29.0911 75.7643 28.6478 76.4978 28.4655C77.5215 28.2109 78.1538 28.5353 79.0021 29.0823Z" fill="#FEFEFE"/>
<path d="M91.7981 65.2526C91.9848 65.5571 92.1782 65.9013 92.2689 66.2491C92.4644 66.9992 92.1427 67.9477 91.7247 68.5675C91.2697 69.2425 90.5501 69.7353 89.7378 69.8522C88.9206 69.9698 88.4188 69.6959 87.7747 69.2267C87.585 68.9134 87.3807 68.5933 87.2566 68.247C87.0096 67.5585 87.1833 66.7358 87.5299 66.1084C87.9203 65.4018 88.5555 64.9019 89.3398 64.7008C90.2955 64.4556 90.9979 64.7484 91.7981 65.2526Z" fill="#FEFEFE"/>
<path d="M52.8886 44.6266C59.2435 42.1476 65.4826 39.4846 71.4231 36.111C66.0252 46.3965 62.0549 57.7215 59.2327 68.9844C62.4442 69.3316 65.7369 69.2661 68.9662 69.2953C73.6301 69.3374 78.4765 69.4196 83.1227 68.9656C75.7022 74.4798 68.3294 80.0568 61.0041 85.6968C58.0332 87.9946 55.1363 90.4009 52.1329 92.655C44.698 80.1309 30.558 64.731 16.3992 60.1021C16.423 60.0581 16.4463 60.014 16.4708 59.9704C17.7771 57.6312 19.5448 55.5174 20.9206 53.1937C24.876 46.5117 30.0928 36.0556 32.5321 28.7671C32.7599 30.601 32.9431 32.4534 33.2471 34.276C33.5935 37.3468 34.1967 40.3703 34.7927 43.4003C35.1508 45.2224 35.7791 47.462 35.7432 49.3215L35.3096 49.5759C35.6672 49.8592 36.0551 50.0475 36.46 50.2514C37.9832 49.5894 40.4361 49.2278 42.1045 49.0314C44.0188 48.6592 48.0846 46.1286 50.0932 45.9896C50.0311 46.2377 50.0053 46.4062 50.0236 46.6664C50.029 46.7399 50.0385 46.8131 50.0459 46.8867C51.0305 46.5308 52.1863 45.8607 52.9331 45.1391L52.8886 44.6266Z" fill="#FBDB20"/>
<path d="M42.105 49.0319C44.0193 48.6597 48.085 46.1292 50.0936 45.9902C50.0315 46.2382 50.0058 46.4068 50.0241 46.6669C50.0294 46.7405 50.039 46.8136 50.0464 46.8872C47.4656 47.8875 36.9588 52.2205 34.9011 52.1975C35.007 52.0226 35.023 51.8867 35.0608 51.6881L34.681 51.3475C33.9993 51.3393 33.2612 51.2842 32.6012 51.4623L33.0784 50.8188C33.1224 50.7455 33.1618 50.6691 33.2101 50.5984C33.7471 49.8152 34.4187 49.7094 35.31 49.5764C35.6676 49.8597 36.0555 50.048 36.4605 50.2519C37.9836 49.59 40.4365 49.2283 42.105 49.0319Z" fill="#F3E661"/>
<path d="M27.1379 51.0977C26.8651 51.329 26.9043 51.2333 26.7951 51.4969C26.4143 52.4179 25.9056 53.3877 25.2871 54.1736C25.0684 54.4516 24.7802 54.7183 24.3975 54.6731C23.9513 54.62 23.6212 54.4101 23.3072 54.106C23.2725 53.0921 30.9435 35.1232 32.0765 34.0035C32.331 33.7517 32.2019 33.821 32.5783 33.8223L32.737 34.4423C32.3514 37.252 32.0724 40.1478 30.5538 42.6281C30.2977 43.0531 30.1008 43.3996 29.9885 43.892C29.6121 44.9331 29.2403 45.9542 28.7487 46.948L28.8134 47.3415C28.3093 48.0392 27.6472 48.6631 27.7679 49.5701C27.5456 50.0752 27.3204 50.576 27.1379 51.0977Z" fill="#FEFCCC"/>
<path d="M33.2475 34.2762C33.594 37.347 34.1971 40.3705 34.7931 43.4005C35.1512 45.2226 35.7795 47.4622 35.7436 49.3217L35.31 49.5761C34.4186 49.7091 33.7471 49.8148 33.2101 50.598C33.1617 50.6687 33.1224 50.7451 33.0784 50.8185C32.7797 50.5226 32.7106 50.5092 32.2651 50.5034C31.3649 50.4919 30.8511 51.5312 29.9992 51.5418L29.7533 51.1795C29.5434 51.0562 29.4057 50.984 29.2087 50.8294C28.738 50.4606 28.7195 49.6851 28.6298 49.1329L27.7691 49.5706C27.6484 48.6636 28.3105 48.0397 28.8146 47.342L28.7499 46.9485C29.2415 45.9546 29.6133 44.9336 29.9897 43.8925C30.102 43.4001 30.2989 43.0536 30.555 42.6286C32.0736 40.1483 32.3526 37.2525 32.7381 34.4428L33.2475 34.2762Z" fill="#F8ED2A"/>
<path d="M51.4953 58.0731C52.2871 59.2538 52.9344 60.4175 53.1062 61.8541C53.3316 63.7398 52.6901 65.6443 51.4606 67.0775C51.3809 67.1715 51.2988 67.2633 51.2145 67.3527C51.1301 67.4422 51.0435 67.5297 50.9547 67.6148C50.8659 67.7 50.7749 67.7828 50.6819 67.8635C50.589 67.9442 50.4936 68.0222 50.3966 68.098C50.2996 68.1738 50.2005 68.2468 50.0997 68.3175C49.9989 68.3881 49.8964 68.4558 49.7921 68.5212C49.6879 68.5867 49.5819 68.6491 49.4743 68.7092C49.3669 68.7692 49.2579 68.8264 49.1477 68.8808C49.0372 68.9353 48.9253 68.9866 48.8122 69.0354C48.6994 69.0839 48.5851 69.1298 48.4698 69.1725C48.3542 69.2155 48.2377 69.2553 48.1204 69.292C48.0029 69.3288 47.8846 69.3628 47.7656 69.3935C47.6463 69.4245 47.5263 69.4522 47.4059 69.477C47.2855 69.5017 47.1643 69.5232 47.0423 69.5417C46.9207 69.5602 46.7987 69.5754 46.6763 69.5876C46.5538 69.5998 46.4309 69.6091 46.308 69.615C43.9138 69.7177 42.1325 68.7356 40.4465 67.1465C39.5564 66.0366 38.9391 64.7382 38.7554 63.3166C38.5228 61.5157 39.0123 59.6239 40.1639 58.2087C41.3495 56.7517 43.1001 56.0157 44.9445 55.8577C47.4326 55.6443 49.6117 56.498 51.4953 58.0731Z" fill="#203B53"/>
<path d="M50.08 59.5073L50.0405 59.8552C49.7126 59.7743 49.4833 59.6371 49.1912 59.4742C47.3052 58.4226 45.349 58.2212 43.279 58.7974C42.6494 58.9725 42.0111 59.2818 41.3579 59.3474C41.6715 58.9312 41.9912 58.4884 42.3935 58.1533C43.3538 57.3528 44.7124 57.0969 45.9305 57.2182C47.652 57.3897 49.0035 58.1884 50.08 59.5073Z" fill="#FEFEFE"/>
<path d="M50.079 59.5068C50.8606 60.7761 51.4909 62.1465 51.0992 63.6551C50.7326 65.0653 49.6621 66.3211 48.3891 67.0069C46.9825 67.7645 45.1555 67.9141 43.6463 67.3852C42.4523 66.9668 41.5784 66.1259 41.0733 64.9709C40.41 63.4546 40.3653 61.5291 41.017 60.0104C41.1192 59.7723 41.2175 59.5646 41.3569 59.347C42.0101 59.2813 42.6484 58.9721 43.2779 58.797C45.3479 58.2207 47.3042 58.4221 49.1902 59.4738C49.4823 59.6367 49.7116 59.7738 50.0395 59.8548L50.079 59.5068Z" fill="#DE235B"/>
<path d="M45.5404 63.1353C45.6468 63.7081 45.6859 63.7771 45.4508 64.3013C45.174 64.4942 44.9668 64.6425 44.6157 64.666C44.0503 64.7041 43.5004 64.4273 43.1145 64.0293C42.6463 63.5468 42.7205 62.9227 42.7206 62.2997C42.9327 61.8376 43.2321 61.2424 43.6703 60.9708L43.8115 61.0462C44.0136 61.7868 43.8665 62.5466 43.7899 63.3L45.5404 63.1353Z" fill="#203B53"/>
</svg>
