<svg width="24" height="24" viewBox="0 0 24 24" fill="none" xmlns="http://www.w3.org/2000/svg">
<path d="M10.7607 2.45798C11.4507 1.86808 12.5805 1.8682 13.2705 2.45798L14.8506 3.80856C15.1506 4.05853 15.7211 4.26852 16.1211 4.26852H17.8213C18.8811 4.26879 19.751 5.13837 19.751 6.19821V7.89841C19.7511 8.29839 19.961 8.85824 20.2109 9.15817L21.5605 10.7383C22.1505 11.4382 22.1509 12.568 21.541 13.248L20.1904 14.8281C19.9405 15.1281 19.7306 15.688 19.7305 16.0879V17.7881C19.7305 18.8481 18.8608 19.7177 17.8008 19.7177H16.1006C15.7007 19.7178 15.1408 19.9278 14.8408 20.1777L13.2607 21.5283C12.5708 22.1181 11.441 22.1181 10.751 21.5283L9.1709 20.1777C8.87094 19.9278 8.30106 19.7179 7.91113 19.7177H6.1709C5.1109 19.7177 4.24121 18.8481 4.24121 17.7881V16.0781C4.2412 15.6881 4.04097 15.1181 3.79102 14.8281L2.44043 13.2383C1.8606 12.5583 1.86067 11.4382 2.44043 10.7383L3.79102 9.14841C4.04096 8.84848 4.24112 8.2884 4.24121 7.89841V6.19821C4.24121 5.13821 5.1109 4.26852 6.1709 4.26852H7.90039C8.30038 4.26852 8.86113 4.05856 9.16113 3.80856L10.7607 2.45798ZM9.66699 9.48239C9.33422 9.4824 9.00566 9.51289 8.68164 9.57419C8.36639 9.63549 8.08603 9.72304 7.84082 9.83688C7.54303 9.97703 7.39455 10.1835 7.39453 10.455C7.39459 10.5688 7.42508 10.6782 7.48633 10.7832C7.54763 10.8795 7.61748 10.9631 7.69629 11.0332C7.95029 10.9106 8.23942 10.8004 8.56348 10.7041C8.89615 10.6078 9.23771 10.5596 9.58789 10.5595C10.0256 10.5595 10.372 10.6472 10.626 10.8222C10.88 10.9974 11.0068 11.2826 11.0068 11.6767V11.9785L9.16797 12.1631C8.4763 12.2243 7.94204 12.4124 7.56543 12.7275C7.18885 13.034 7.00005 13.4767 7 14.0547C7 14.6941 7.23697 15.1808 7.70996 15.5136C8.19158 15.8375 8.85695 15.9999 9.70605 16C10.1615 16 10.5696 15.9518 10.9287 15.8554C11.2965 15.7679 11.5946 15.6577 11.8223 15.5263C11.9796 15.4389 12.102 15.3382 12.1895 15.2246C12.277 15.1107 12.3213 14.9524 12.3213 14.7509V11.6894C12.3212 10.9277 12.0801 10.3718 11.5986 10.0215C11.1257 9.66232 10.4816 9.4824 9.66699 9.48239ZM14.6562 9.61423C14.5249 9.61423 14.4019 9.628 14.2881 9.65427C14.1743 9.67177 14.0867 9.68949 14.0254 9.707V15.2773C14.0254 15.4962 14.0864 15.6546 14.209 15.7509C14.3315 15.8472 14.5157 15.8954 14.7607 15.8955C14.8921 15.8955 15.0111 15.8817 15.1162 15.8554C15.2298 15.8292 15.3177 15.8075 15.3789 15.79V10.2324C15.3789 10.0047 15.3169 9.84635 15.1943 9.75876C15.0805 9.66269 14.901 9.61426 14.6562 9.61423ZM11.0068 14.6591C10.9017 14.7204 10.7353 14.7864 10.5078 14.8564C10.2889 14.9177 10.0213 14.9482 9.70605 14.9482C9.24208 14.9482 8.8966 14.8646 8.66895 14.6982C8.44125 14.5318 8.32719 14.3046 8.32715 14.0156C8.32716 13.7354 8.42757 13.5249 8.62891 13.3847C8.83912 13.2358 9.14595 13.1434 9.54883 13.1084L11.0068 12.9638V14.6591ZM14.6953 6.99997C14.4677 7 14.2748 7.07475 14.1172 7.2236C13.9597 7.37241 13.8809 7.56055 13.8809 7.78806C13.8809 8.00704 13.9595 8.19581 14.1172 8.35349C14.2748 8.50236 14.4676 8.57709 14.6953 8.57712C14.9405 8.57711 15.1382 8.50239 15.2871 8.35349C15.4359 8.19585 15.5098 8.00696 15.5098 7.78806C15.5097 7.56063 15.4357 7.37239 15.2871 7.2236C15.1382 7.0747 14.9405 6.99998 14.6953 6.99997Z" fill="#203B53"/>
</svg>
