<svg width="123" height="58" viewBox="0 0 123 58" fill="none" xmlns="http://www.w3.org/2000/svg">
<path d="M121.391 32.3562C121.312 32.0918 121.033 31.9417 120.768 32.0211L116.458 33.3149C116.194 33.3943 116.044 33.6731 116.123 33.9376C116.203 34.2021 116.481 34.3521 116.746 34.2727L120.577 33.1226L121.727 36.9537C121.806 37.2182 122.085 37.3683 122.35 37.2889C122.614 37.2095 122.764 36.9307 122.685 36.6662L121.391 32.3562ZM4.85982 0.723717C4.98331 0.476728 4.8832 0.176391 4.63622 0.0528942C4.38923 -0.0706025 4.08889 0.0295071 3.96539 0.276495L4.85982 0.723717ZM50.4125 35L50.7888 34.6707V34.6707L50.4125 35ZM46.9124 53.4999L47.1112 53.0412V53.0412L46.9124 53.4999ZM50.4125 35L50.0362 35.3292C50.878 36.2913 51.3193 37.1309 51.4661 37.8444C51.6094 38.541 51.4785 39.1431 51.1181 39.6774C50.3653 40.7935 48.5582 41.6849 45.8736 42.1963C40.56 43.2084 32.3483 42.63 24.3735 40.1476C16.397 37.6647 8.75581 33.3078 4.49377 26.8496C0.258111 20.4315 -0.700717 11.8445 4.85982 0.723717L4.41261 0.500106L3.96539 0.276495C-1.72429 11.6556 -0.808248 20.6312 3.65914 27.4004C8.10016 34.1298 15.9902 38.5853 24.0763 41.1024C32.164 43.62 40.5461 44.229 46.0607 43.1786C48.7901 42.6587 50.9557 41.7065 51.9471 40.2366C52.4588 39.478 52.6428 38.6015 52.4456 37.6429C52.2518 36.7011 51.697 35.7087 50.7888 34.6707L50.4125 35ZM120.912 32.5L120.472 32.263C118.955 35.0806 115.493 38.6104 110.626 42.1259C105.774 45.6317 99.57 49.0906 92.6266 51.7838C78.728 57.1747 61.9446 59.4691 47.1112 53.0412L46.9124 53.4999L46.7136 53.9587C61.8799 60.5309 78.9566 58.1586 92.9882 52.7161C100.01 49.9927 106.289 46.4932 111.212 42.9365C116.122 39.3896 119.729 35.7528 121.352 32.737L120.912 32.5ZM46.9124 53.4999L47.1112 53.0412C42.6644 51.1142 40.1553 48.4148 38.9867 45.6457C37.8154 42.8707 37.9699 39.9787 38.9343 37.6291C39.9027 35.2696 41.6638 33.5075 43.6536 32.9235C45.6047 32.3508 47.8911 32.8777 50.0362 35.3292L50.4125 35L50.7888 34.6707C48.4338 31.9794 45.7608 31.2628 43.372 31.9639C41.0219 32.6537 39.0626 34.6827 38.0092 37.2494C36.9516 39.826 36.7826 42.9953 38.0653 46.0346C39.3506 49.0799 42.0729 51.9477 46.7136 53.9587L46.9124 53.4999Z" fill="#30A0A6"/>
</svg>
