<svg width="85" height="85" viewBox="0 0 85 85" fill="none" xmlns="http://www.w3.org/2000/svg">
<path d="M0.00390377 28.1864C0.40641 27.2755 1.12685 26.8137 2.03515 26.4061C2.74155 23.9013 3.64458 21.4855 4.59277 19.0585C4.06538 18.3878 3.35549 17.6543 3.25683 16.785C3.19479 16.2394 3.30059 15.889 3.64355 15.4618L4.125 15.4159C5.19592 15.788 5.47618 16.3814 5.97558 17.3026C6.16679 16.8031 6.33745 16.1756 6.60937 15.7157C6.90392 15.2175 7.04986 15.2249 7.59375 15.0438L7.67383 15.0751C8.3847 14.7242 8.65419 13.9357 9 13.2772C8.97245 13.248 8.94525 13.2182 8.91699 13.1893C8.46427 12.7277 7.92147 12.2536 7.67675 11.6522C7.46046 11.1201 7.52419 10.7552 7.73828 10.2421C8.0485 10.0741 8.11552 9.9939 8.48828 9.99109C9.48386 9.98421 10.1458 10.7758 10.8174 11.3817L13.3877 9.0282C13.1803 8.39895 12.8742 7.7112 13.1445 7.05749C13.3088 6.66021 13.5226 6.43844 13.9707 6.36511C14.5546 6.26982 15.0795 6.65845 15.54 6.94519C16.7364 6.01444 24.159 0.195334 24.75 0.00866591C25.2383 0.0919789 25.3606 0.0860661 25.7236 0.398314L25.7109 0.795775C25.1523 1.86191 24.2097 2.45753 23.1973 3.0741C26.1212 2.26404 29.2651 1.28407 32.2676 0.847533C33.8245 0.621024 35.7644 1.35338 37.2217 0.762572C37.524 0.403601 37.6597 0.173605 38.124 0.00182939C38.9901 0.128172 39.7826 0.573736 40.6318 0.658079C41.7888 0.773047 42.9769 0.727385 44.1436 0.841673C51.2726 1.54055 57.8803 3.33003 63.7949 7.36413C70.4923 11.9315 77.4592 21.7869 80.2978 29.1425C81.6403 32.6209 82.3629 36.2688 82.999 39.9149C83.798 40.4571 84.6115 41.1019 85 41.9842C84.8267 42.6555 84.274 42.7749 83.8428 43.2909C83.2774 43.9677 83.5039 44.9156 83.5635 45.7284C83.6004 46.9804 83.5106 48.2411 83.3789 49.4862C82.4199 58.5635 78.8391 65.521 71.4561 71.2967L72.8291 72.7372C72.4557 73.3423 72.0784 74.0377 71.292 74.1893C70.1598 74.4079 68.9485 73.489 68.0361 72.953C67.681 73.2518 65.7325 74.6473 65.7354 75.0301C65.7386 75.405 66.0614 75.753 65.9463 76.1454C65.8251 76.5577 65.4924 76.8753 65.0918 77.0526C64.4238 77.349 63.1616 76.6975 62.5215 76.453C61.3071 77.0971 60.0862 77.5734 58.7871 78.0409C59.0973 78.3131 59.3823 78.578 59.5674 78.9471C59.778 79.3664 59.7237 79.7939 59.5752 80.2176C59.3843 80.4159 59.2133 80.5822 58.9492 80.6903C57.2161 81.3987 56.1421 80.4824 54.6084 79.9188C54.1314 79.7437 53.8817 79.6865 53.4062 79.8602C53.1006 80.3036 52.8427 80.6589 52.4033 80.9969C51.5937 81.146 50.9839 80.8482 50.25 80.5663C49.8526 80.6826 49.6821 80.729 49.373 81.0155C49.01 81.3522 49.2609 81.1723 48.8662 81.4491C48.2265 81.8973 46.7906 81.5045 46.0469 81.3895C46.7214 82.1004 47.4353 82.5289 48.2217 83.1014C48.7197 83.4641 48.9196 83.7854 49.0146 84.37C48.784 84.6919 48.6769 84.8958 48.2393 84.9784C46.5782 85.291 43.7113 82.1594 42.3555 81.2977C40.7012 80.2467 37.8195 80.3407 35.8896 79.7616C31.5569 78.4616 27.0879 76.2582 23.3604 73.7977C12.9483 66.9251 4.61939 56.9289 1.94726 44.9061C1.06362 40.9302 1.01138 36.8962 0.242185 32.9247C0.17337 32.3677 0.161337 31.9344 0.553709 31.4823C2.03529 29.7773 -0.107268 29.9892 0.00390377 28.1864ZM64.6055 29.9198C67.083 32.5065 69.8336 34.8532 72.3887 37.37C74.5838 39.5322 76.5965 41.8864 78.8867 43.955C79.3377 44.3626 80.2029 45.2554 80.8164 45.3036C80.846 45.3057 80.8763 45.2982 80.9062 45.2958L80.917 42.1932C78.0963 40.5076 66.2418 30.2813 64.6055 29.9198ZM58.3135 33.3983C63.1046 37.5882 67.9572 41.5285 72.334 46.1473C74.0357 47.9432 77.8999 52.7943 79.9639 53.743C80.2531 53.5622 80.1764 53.6833 80.2412 53.4081C80.5278 52.2236 80.7133 51.065 80.7793 49.8485C77.8852 48.0608 75.0742 46.1581 72.3477 44.1425C70.3507 42.6734 59.5392 33.3827 58.3135 33.3983ZM66.1592 19.6346C68.5216 23.0122 71.0426 26.2784 73.7207 29.4315C75.6959 31.7258 77.8118 33.9115 79.6514 36.3104C79.3062 35.0025 78.9123 33.7541 78.4111 32.493C76.4025 28.0693 73.3422 25.1921 69.9307 21.7391C68.9936 20.7911 68.0293 19.5249 66.9531 18.743C67.1819 19.0707 68.1867 20.2715 68.1846 20.5741C67.65 20.1568 67.0322 19.4145 66.3828 19.2782C66.1654 19.5805 66.2124 19.4509 66.1592 19.6346ZM54.001 38.1757C55.787 39.5835 57.5907 40.9799 59.2598 42.5165C61.6158 44.6854 76.3842 59.3321 77.5898 59.8329C77.9534 59.5879 77.7993 59.7409 78.0459 59.3671L78.916 57.3563C76.3688 55.803 74.0106 54.1184 71.6826 52.2762C69.1579 50.2784 55.8416 38.3844 54.001 38.1757ZM44.1309 38.7801C46.054 40.376 47.9998 41.9579 49.876 43.6044C53.1563 46.4839 73.0676 64.6911 74.3896 65.036C74.7549 64.8702 74.9632 64.6895 75.2432 64.412L75.6895 63.7655C75.4535 62.9713 73.136 61.625 72.3506 61.0546C69.5723 59.0322 66.8709 56.9197 64.2461 54.7167C61.2681 52.2374 46.9658 39.7575 44.5693 38.8163C44.4292 38.7616 44.2767 38.7527 44.1309 38.7801ZM36.4316 40.0946C38.5247 42.7158 42.8446 46.2334 45.4775 48.6522C52.4882 55.0927 61.8586 64.4823 69.7783 69.4608C70.0983 69.3766 70.3537 69.2848 70.6436 69.1298C70.3315 68.2757 64.2566 64.2549 63.0439 63.3573C60.4379 61.4284 57.988 59.1569 55.5703 57.0135C51.4631 53.346 47.3773 49.6562 43.3135 45.9442C41.9333 44.6887 38.1231 40.8051 36.7773 40.1512C36.5975 40.0639 36.6255 40.0857 36.4316 40.0946ZM34.6406 48.1737C35.3039 49.0617 36.127 49.8206 36.918 50.6034C36.7127 50.8502 36.3235 51.1624 36.3633 51.4852C36.5209 52.7585 38.2158 53.4629 38.8945 54.4911C39.4315 54.9633 39.9735 55.4309 40.5205 55.8925C41.6582 57.297 42.6406 58.2713 44.2031 59.2333C44.4085 59.4087 44.6098 59.5558 44.8467 59.6903C47.4673 61.1794 49.5211 63.6157 51.8486 65.5155C55.4438 68.3994 59.2182 71.0515 63.1689 73.4696C63.8827 72.8914 64.6538 72.4408 65.4482 71.9755C56.5746 67.6041 49.114 60.5686 41.79 54.1844C39.9019 52.5392 36.7021 49.2073 34.6406 48.1737ZM42.9082 63.9803C47.1154 68.4578 51.569 72.6134 56.5059 76.3593L58.8877 75.6415C58.7643 75.1678 57.8887 74.8249 57.4492 74.5702C54.0863 72.6226 50.9802 70.5278 47.9863 68.0897C46.354 66.7602 44.7476 64.9911 42.9463 63.9149L42.9082 63.9803ZM37.7939 3.79968C39.9204 5.42651 57.2625 17.527 58.21 17.5194L58.1875 17.3641C55.966 15.3774 42.813 5.72728 42.2617 4.46667L42.3652 3.89148C41.5914 3.32713 39.4213 3.39829 38.4746 3.51257C38.1336 3.55343 38.0483 3.56769 37.7939 3.79968ZM50.2412 4.76452C50.7293 5.33648 51.1792 6.00619 52.0156 6.05749C52.3571 6.07802 52.4699 5.9526 52.751 5.79675C52.0579 5.16556 51.3359 4.81435 50.3936 4.65808L50.2412 4.76452ZM29.7275 4.54382C32.2528 6.56077 51.5743 21.1222 52.3076 21.2831L52.1543 20.994C48.5656 16.8584 41.5609 11.8605 37.1523 8.17175C35.5207 6.80639 34.1949 5.08974 32.5381 3.77429C31.752 3.90987 30.4353 3.96663 29.7871 4.39343L29.7275 4.54382ZM21.6631 6.65515C23.3791 7.54026 25.0019 8.5023 26.5869 9.58777C28.9419 11.201 49.5129 26.4193 50.2676 26.3241L49.6924 25.7987C43.2761 20.4745 36.4781 15.5653 30.3008 9.98328C28.643 8.48546 26.7685 6.95953 25.4268 5.18738C24.3917 5.55155 22.4477 5.97438 21.6631 6.65515ZM34.2676 69.9657C37.556 72.924 40.7623 76.0692 44.2266 78.8319C45.5446 78.5572 46.8092 78.4364 48.1523 78.3524C47.7652 77.845 36.101 70.8501 34.4697 69.912L34.2676 69.9657ZM17.3652 8.89441C20.4685 10.9517 23.316 13.5069 26.2119 15.83C30.1182 18.9635 34.1789 21.7879 38.2978 24.6512C39.9624 25.8086 41.4995 27.1246 43.2451 28.1708L43.3291 28.0966C43.1082 27.8426 42.8926 27.585 42.6523 27.3475C37.8984 23.3517 32.9234 19.6138 28.248 15.5292C25.2363 12.8976 22.4655 9.61413 19.1348 7.37781C18.4739 7.8499 17.8802 8.26645 17.3652 8.89441ZM13.1943 12.5204C15.7715 14.3807 29.7708 27.1698 31.5332 27.3544C31.327 27.1108 31.1305 26.8661 30.9014 26.6425C26.629 22.9239 22.4886 19.1505 18.5879 15.0663C17.2867 13.7041 15.8378 12.3163 14.7949 10.7587C14.2164 11.3158 13.6125 11.8376 13.1943 12.5204ZM9.45996 17.0233C10.712 18.3245 12.0037 19.5888 13.335 20.8153C15.074 22.3973 29.4576 34.9979 30.4209 35.3036C30.3212 34.9404 30.2049 34.7933 29.9316 34.5262C25.9358 30.8737 12.8384 19.29 10.7715 15.3856L9.45996 17.0233ZM23.8184 51.619C24.0672 51.9851 24.2653 52.1611 24.6514 52.4012C24.703 52.4332 25.0209 52.6196 25.0723 52.6718C25.4779 53.0836 25.0049 53.2114 25.083 53.7001C25.5975 53.7192 25.955 53.6123 26.4316 53.453L26.6162 53.3905L26.6035 53.5819L26.6025 53.5819L26.2773 53.9823C26.3897 54.5263 26.9487 55.0179 27.4131 55.3202C27.9337 55.6593 28.4676 55.8835 29.0986 55.7675C29.1555 55.4019 29.012 55.3105 28.79 55.0135C28.5938 54.7515 28.3795 54.4994 28.1582 54.2528L27.4873 53.5214C26.9765 52.6623 26.2064 51.6122 25.3496 51.0536C24.9142 50.7693 24.6874 50.746 24.1836 50.83C23.9184 51.1563 23.8703 51.2128 23.8184 51.619ZM8.61719 56.411C13.7938 63.7954 19.8629 69.9614 28.0244 74.3632C28.3115 74.3237 28.2265 74.3859 28.3359 74.2792C23.8314 70.6259 19.3824 66.9602 15.2197 62.9403C12.9903 60.7876 10.9886 58.4222 8.76172 56.2743L8.61719 56.411ZM4.28711 30.3602C7.8796 34.6309 11.5642 38.7784 15.3203 42.9159C17.9568 45.8204 20.5417 48.7464 23.458 51.4003C23.8896 50.957 24.4979 50.479 24.5664 49.8553C24.3844 49.1624 23.6778 48.5738 23.1875 48.0497C19.0621 43.2035 15.0824 38.2485 11.249 33.1864C9.2167 30.5498 7.07782 27.9866 5.32031 25.1669C4.6139 26.778 4.33159 28.6193 4.28711 30.3602ZM3.77051 34.201C3.40906 34.7144 3.45417 35.5417 3.49219 36.1561C3.54528 37.34 3.61632 38.5272 3.63965 39.7118C4.23005 39.444 4.47638 39.2483 5.13476 39.3221C6.24857 40.1235 7.1478 41.1975 8.11523 42.1552C9.91438 43.9043 11.6876 45.6782 13.4365 47.4735C14.0184 48.0729 14.5791 48.8485 15.2051 49.3807C15.4659 49.6024 15.7691 49.6607 16.0996 49.7225C16.1319 50.2648 16.0712 50.33 16.459 50.7128C16.8478 50.8212 17.2275 50.9122 17.6221 50.9989C17.951 51.0715 18.0537 51.1504 18.2842 51.3739L18.2178 51.6337L17.6084 51.954C17.6267 52.3371 17.841 52.6039 18.1631 52.8466C18.6328 53.1999 19.2779 53.1859 19.8477 53.2206L20.2168 53.4911C20.006 53.8485 20.1452 53.6905 19.7852 53.9579C20.4595 55.0034 22.2301 56.489 23.2891 57.2098C23.7106 57.0353 23.7146 56.9594 23.9492 56.5721L23.9199 56.2802L23.0986 56.5243L22.9678 56.3866C23.0912 56.1721 23.2072 55.9971 23.3564 55.8016L23.3516 55.7362L22.8184 55.4667C22.8137 55.1405 22.7815 55.2962 22.9102 54.9989C22.3453 54.7599 21.7375 55.0715 21.2139 54.8759C21.6253 54.7175 22.0246 54.5526 22.4238 54.3671L22.4219 54.1415L22.0742 53.9169C21.7562 53.9982 21.0079 54.3138 20.7187 54.2323C20.9844 53.9345 21.2273 53.7984 21.5869 53.6171L21.3936 53.5712L21.7061 53.5272C20.9967 52.3088 18.4498 50.0675 17.3545 48.8964C14.8698 46.2487 12.3995 43.5877 9.94531 40.9139C8.41587 39.2191 5.55823 35.2993 3.77051 34.201ZM6.40234 22.5848C10.2497 25.6732 13.6464 29.5282 17.1328 32.996C18.2951 34.152 19.4435 35.4578 20.7422 36.4637L20.374 35.7928C17.8073 33.0279 15.1904 30.3142 12.6846 27.4969C10.9137 25.5057 9.24676 23.2528 7.26172 21.4657L6.93554 21.4589C6.57754 21.8332 6.52387 22.1053 6.40234 22.5848ZM4.11328 42.246C3.88941 42.5846 3.97065 42.6219 4.02051 43.0028C4.13059 43.624 4.22073 44.2553 4.35449 44.8719C7.16923 47.1354 9.48317 49.6939 11.9248 52.3085C13.437 53.9279 15.0102 55.7309 16.8291 57.036L17.0146 57.0106L16.5986 56.4462C13.5342 53.9412 9.74375 49.3351 7.23144 46.2245C6.34106 45.1222 5.24936 43.0306 4.11328 42.246Z" fill="#54E6ED"/>
<path d="M32.5693 2.27089C32.5016 1.04015 33.6194 -0.0438019 34.8276 0.00136291C39.9425 0.0239453 45.0687 0.00136291 50.1836 0.00136291C56.055 0.00136291 61.9264 0.0126541 67.7866 0.00136291C68.0237 0.00136291 68.2721 0.0013626 68.4979 0.102983C68.6786 0.328807 68.6334 0.63367 68.4415 0.836911C68.114 1.26598 68.2834 1.85312 68.2834 2.34993C68.7689 2.44026 69.4238 2.36122 69.7061 2.85804C70.1577 3.65971 70.169 4.60817 70.09 5.48888C70.1577 7.57775 70.1013 9.67792 70.1239 11.7668C70.1464 12.6701 70.0787 13.5734 70.0222 14.4767C70.0222 17.0285 69.9997 19.5916 70.0222 22.1434C70.1916 23.6 69.8867 25.0565 69.9545 26.5131C69.9545 26.7389 69.9545 26.9647 69.9658 27.1906C67.7527 28.1729 65.5283 29.1214 63.3378 30.1376C62.1297 30.7925 61.5313 32.3055 61.8135 33.6378C62.1071 35.117 63.5411 36.3364 65.0767 36.2348C65.1444 36.2348 65.2686 36.2574 65.3364 36.2687C63.8347 36.6978 62.4233 37.3978 60.9441 37.9285C60.0634 38.2221 59.3182 38.8995 58.9456 39.7577C58.6181 40.5481 58.5617 41.4626 58.8101 42.2869C59.1601 43.3934 60.1537 44.2854 61.3167 44.4661C61.5313 44.5113 61.7345 44.5564 61.949 44.6129C60.9328 44.85 59.815 45.2 59.1714 46.092C58.46 47.0179 58.3471 48.3277 58.844 49.3778C59.5101 50.8005 61.3054 51.5908 62.7959 51.0263L62.762 51.2182C62.2087 51.5908 61.7345 52.0989 61.5651 52.7538C61.2603 53.7813 61.7458 54.9669 62.6943 55.4637C63.4395 55.9267 64.3653 55.825 65.167 55.5766C66.7591 55.1137 68.3624 54.6959 69.9545 54.2556C70.0335 54.8427 70.0335 55.5766 69.5254 55.9718C68.9609 56.4122 68.2156 56.3444 67.5495 56.3557C66.4203 56.3557 65.2912 56.3557 64.1621 56.3557C61.3054 56.3106 58.4488 56.3557 55.5808 56.3444C50.0029 56.3444 44.4364 56.3444 38.8585 56.3444C39.7618 54.8314 40.4054 53.149 40.7442 51.4215C41.2297 48.7906 40.7329 46.1146 40.0554 43.5628C39.807 42.5127 39.4344 41.4965 39.2424 40.4351C40.7103 38.9447 42.2007 37.4656 43.5444 35.8622C43.8492 35.5235 44.1202 35.0605 44.6283 35.0154C46.322 34.7444 47.9592 34.1911 49.4948 33.4459C50.6917 32.87 51.8773 32.1926 52.8032 31.2215C53.6048 30.3521 54.0904 29.0875 53.7629 27.9132C53.5597 27.1793 52.95 26.626 52.2386 26.4002C51.9112 26.3211 51.595 26.4566 51.2789 26.5583C50.0594 26.9535 48.84 27.3712 47.6205 27.7664C45.8365 28.1164 44.0412 28.3536 42.2346 28.5907C41.7378 28.6471 41.2523 28.8165 40.8571 29.1101C39.0731 30.4086 37.2213 31.6054 35.3583 32.8023C35.1663 32.6103 35.076 32.3506 35.0873 32.0797C35.0421 29.1552 35.0986 26.2195 35.0873 23.2951C35.0873 16.7801 35.0873 10.2651 35.0873 3.76133C35.0873 3.33227 35.0986 2.91449 35.1099 2.49672C34.8389 2.49672 34.5679 2.49672 34.3082 2.49672C34.3759 6.2341 34.3195 9.9602 34.3421 13.6976C34.3195 16.8591 34.3646 20.0207 34.3421 23.1822C34.3082 26.1969 34.4098 29.2117 34.3082 32.2151C34.3082 32.6216 34.3421 33.0168 34.3985 33.4233C33.8114 33.8072 33.2242 34.1798 32.6484 34.5524C32.6032 34.225 32.5806 33.8975 32.5806 33.5588C32.5693 23.137 32.5806 12.7153 32.5806 2.28218M33.7662 1.42405C33.5065 1.70633 33.563 2.23702 33.9243 2.40639C35.4938 2.42897 37.0632 2.40639 38.6327 2.40639H38.6666C38.6553 2.45155 38.6214 2.50801 38.6101 2.54188C38.6553 6.06474 38.6214 9.59888 38.644 13.1217C38.644 13.6976 38.6101 14.2734 38.6779 14.838C38.7117 14.8154 38.7682 14.7702 38.7908 14.7477C39.2537 14.4202 39.6715 14.0363 40.0893 13.6637C40.0102 16.7349 40.1119 19.8174 40.0441 22.8999C41.5684 22.9789 43.104 22.9112 44.6396 22.9338C51.0869 22.9338 57.5342 22.9225 63.9927 22.9338C64.0153 18.6431 63.9927 14.3525 63.9927 10.0618C62.6265 10.1183 61.2603 10.0618 59.894 10.0618C56.1341 10.0731 52.3741 10.0618 48.6028 10.0618C46.9204 10.0731 45.2381 10.0167 43.5557 10.1183C43.5557 7.54388 43.4992 4.98078 43.5557 2.40639C45.0913 2.45155 46.6269 2.40639 48.1625 2.42897C54.8582 2.42897 61.5538 2.42897 68.2495 2.42897C68.1479 1.9999 68.1366 1.54826 68.1705 1.1079C56.947 1.13048 45.7123 1.1079 34.4888 1.1079C34.2179 1.09661 33.9243 1.19823 33.7662 1.43534V1.42405Z" fill="#3B414D"/>
<path d="M33.7657 1.42367C33.9351 1.19785 34.2173 1.08494 34.4883 1.09623C45.7118 1.09623 56.9465 1.11881 68.17 1.09623C68.1361 1.53659 68.1361 1.97694 68.249 2.4173C61.5533 2.4173 54.8577 2.4173 48.162 2.4173C46.6264 2.40601 45.0908 2.43988 43.5552 2.39472C43.5439 2.25922 43.5213 2.13502 43.4987 1.99953C41.8728 1.99953 40.2468 1.99953 38.6209 1.99953C38.6209 2.13502 38.6322 2.25922 38.6435 2.39472C37.074 2.40601 35.5045 2.42859 33.9351 2.39472C33.5737 2.22535 33.5173 1.70596 33.777 1.41238L33.7657 1.42367Z" fill="#E8ECEE"/>
<path d="M38.6099 1.99989C40.2359 1.9886 41.8618 1.99989 43.4877 1.99989C43.5103 2.13539 43.5216 2.25959 43.5442 2.39508C43.4877 4.96948 43.5555 7.53258 43.5442 10.107C43.5555 11.6313 43.5329 13.1556 43.5555 14.6799C43.2393 14.6122 43.0248 14.3525 42.7877 14.1605C42.2457 13.6863 41.7263 13.1895 41.1392 12.7717C40.7778 13.054 40.4278 13.3475 40.0891 13.6524C39.66 14.025 39.2535 14.4089 38.7906 14.7364C38.7906 10.6489 38.7906 6.55024 38.7906 2.46283C38.7567 2.45154 38.689 2.42896 38.6551 2.41767H38.6212C38.6212 2.27088 38.6099 2.13539 38.5986 2.01118L38.6099 1.99989Z" fill="#54E6ED"/>
<path d="M38.677 2.40601C38.7109 2.4173 38.7786 2.43988 38.8125 2.45117C38.8125 6.53858 38.8125 10.6373 38.8125 14.7247C38.7786 14.7473 38.7222 14.7924 38.6996 14.815C38.6318 14.2392 38.677 13.6633 38.6657 13.0988C38.6544 9.57592 38.6883 6.04177 38.6318 2.51892C38.6431 2.48504 38.677 2.42859 38.6883 2.40601H38.677Z" fill="#4B3B26"/>
<path d="M34.3079 2.47412C34.5789 2.47412 34.8499 2.47412 35.1096 2.47412C35.1096 2.90319 35.087 3.32096 35.087 3.73873C35.087 10.2538 35.0983 16.7575 35.087 23.2725C35.1096 26.1969 35.0531 29.1326 35.087 32.0571C35.087 32.328 35.1661 32.5877 35.358 32.7797C35.0306 32.9829 34.7031 33.1975 34.3757 33.4007C34.3079 33.0055 34.2741 32.599 34.2853 32.1926C34.387 29.1778 34.2853 26.1743 34.3192 23.1596C34.3418 19.9981 34.2966 16.8365 34.3192 13.675C34.2966 9.9376 34.3531 6.21151 34.2853 2.47412H34.3079Z" fill="#292F39"/>
<path d="M43.5555 10.1071C45.2379 10.0168 46.9203 10.0732 48.6027 10.0507C52.3626 10.0507 56.1339 10.0507 59.8939 10.0507C61.2601 10.062 62.6263 10.1071 63.9926 10.0507C64.0039 14.3413 64.0264 18.632 63.9926 22.9226C57.5453 22.9113 51.098 22.9226 44.6395 22.9226C43.1039 22.9 41.5795 22.9678 40.0439 22.8888C40.1117 19.8063 40.0101 16.735 40.0891 13.6525C40.4278 13.3477 40.7779 13.0541 41.1392 12.7718C41.7263 13.1896 42.2457 13.6977 42.7877 14.1607C43.0248 14.3526 43.2394 14.6123 43.5555 14.68C43.5329 13.1557 43.5555 11.6314 43.5442 10.1071H43.5555Z" fill="#6A6E79"/>
<path d="M51.3014 26.5357C51.6062 26.4341 51.9337 26.3099 52.2611 26.3776C52.2047 27.0664 52.4418 27.8793 52.024 28.4778C51.3126 28.8391 50.511 28.9407 49.7545 29.1665C49.2577 29.2794 48.6479 29.4601 48.2076 29.0988C47.7672 28.7939 47.7446 28.2181 47.6543 27.7438C48.8737 27.3599 50.0932 26.9309 51.3126 26.5357H51.3014Z" fill="#FCD9C8"/>
<path d="M52.2998 26.1387L52.3359 26.1504C53.1122 26.3968 53.8096 27.0062 54.0273 27.8389H54.0254C54.3809 29.1204 53.8373 30.4685 53.0107 31.3779L53.0068 31.3818C52.0484 32.3986 50.8279 33.0794 49.625 33.6582L49.626 33.6592C48.0705 34.414 46.4104 34.9635 44.6914 35.25L44.6826 35.252L44.6729 35.2529C44.5035 35.2684 44.3597 35.3545 44.21 35.498C44.1348 35.5701 44.0621 35.6521 43.9863 35.7422C43.9151 35.827 43.835 35.9235 43.7568 36.0107L43.7578 36.0117C42.4347 37.5905 40.9689 39.0393 39.5352 40.5039C39.6276 40.9787 39.7547 41.4476 39.8906 41.9229C40.037 42.4343 40.1936 42.9571 40.3193 43.4873L40.5645 44.4512C41.1104 46.7179 41.4457 49.1035 41.0117 51.4551V51.46C40.6562 53.2145 40.0019 54.9229 39.0957 56.46L39.0938 56.4629C38.8168 56.916 38.4916 57.3443 38.1611 57.7607C39.0931 57.2737 40.0898 56.882 41.1543 56.7471L41.458 56.7158C43.1663 56.5252 44.8663 56.7767 46.4902 57.2002L47.1816 57.3916L47.1846 57.3926C50.1534 58.2946 52.9459 59.8377 55.1582 62.0498L55.3848 62.2764L55.1113 62.4414C53.3998 63.4728 51.6418 64.4244 49.8389 65.2861V65.2871C48.1416 66.0899 46.3072 66.5943 44.4395 66.7891L44.3555 66.7979L44.2832 66.7539C44.092 66.637 43.9192 66.5676 43.7588 66.5752L43.7471 66.5762V66.5752C42.6384 66.5752 41.532 66.484 40.4414 66.3477V66.3467C39.6752 66.2565 38.9916 65.9681 38.3516 65.6309C38.0317 65.4623 37.7176 65.2788 37.4102 65.1016C37.4081 65.1004 37.4063 65.0988 37.4043 65.0977C37.6341 65.42 37.8681 65.7419 38.1025 66.0684C38.5424 66.6808 38.978 67.3077 39.3574 67.9746L39.4531 68.1416L39.3154 68.2764C38.6489 68.9316 37.9853 69.585 37.333 70.2598L37.1475 70.4512L36.9678 70.2539C36.4242 69.6537 35.8911 69.065 35.3047 68.5449L35.2949 68.5361L35.2852 68.5264C34.5722 67.7404 33.8278 66.9817 33.0781 66.2207C32.3295 65.4608 31.5757 64.6976 30.8496 63.9092V63.9082C30.0201 63.0841 29.2125 62.2414 28.4072 61.4023C27.5984 60.5596 26.7904 59.7208 25.958 58.9053L25.9521 58.8994C24.7904 57.6818 23.5533 56.4784 22.3926 55.2275L22.2314 55.0527L22.3975 54.8828C23.3471 53.9106 24.3216 52.9577 25.2783 52.001C25.304 51.9729 25.3333 51.9425 25.3535 51.9209C25.379 51.8937 25.3996 51.8709 25.416 51.8496C25.4488 51.8071 25.4533 51.7861 25.4541 51.7764C25.5571 47.8857 26.1701 44.0212 27.0869 40.252C27.3046 39.2794 27.643 38.2767 28.2988 37.4658C28.8596 36.7414 29.5681 36.1997 30.3008 35.7207C30.6676 35.4809 31.0454 35.2535 31.4141 35.0283C31.7845 34.802 32.1479 34.5769 32.4941 34.3359L32.5029 34.3301C33.0888 33.9583 33.6738 33.5756 34.251 33.2021L34.2549 33.1992C34.417 33.0986 34.5793 32.9951 34.7432 32.8906L35.2373 32.5781C37.0902 31.3806 38.9445 30.2008 40.7197 28.8975L40.7217 28.8955C41.1667 28.5742 41.6934 28.392 42.2148 28.3311L43.5654 28.1562C44.9129 27.9751 46.2517 27.771 47.583 27.5098L47.8242 27.4619L47.876 27.7021C47.9023 27.8252 47.9245 27.9596 47.9463 28.0781C47.969 28.2014 47.9924 28.3174 48.0244 28.4248C48.0723 28.5854 48.1356 28.7151 48.2275 28.8154L48.3291 28.9062L48.3369 28.9111L48.3428 28.917C48.4973 29.0438 48.6895 29.0845 48.9238 29.0723C49.1658 29.0596 49.4137 28.9932 49.6758 28.9336C50.0542 28.8216 50.4584 28.735 50.8213 28.6416C51.1779 28.5498 51.5148 28.4437 51.8301 28.291C51.971 28.0655 52.0137 27.7949 52.0137 27.4727C52.0137 27.2988 52.0026 27.1231 51.9932 26.9355C51.984 26.7525 51.976 26.5598 51.9883 26.3721L52.0039 26.1387H52.2998Z" fill="#ECAD84" stroke="#203B53" stroke-width="0.5"/>
<path d="M69.9764 26.5129C70.9022 26.7162 71.8281 26.8743 72.7314 27.1565C73.4315 27.3824 74.0186 27.8905 74.4251 28.5002C75.2494 29.7535 75.0913 31.594 73.9509 32.5989C73.1718 33.2764 72.1443 33.5248 71.1958 33.8974C69.5473 34.2926 68.0343 35.083 66.4196 35.5911C65.9567 35.7491 65.426 35.8395 65.0986 36.2347C63.563 36.3476 62.129 35.1168 61.8354 33.6377C61.5531 32.3166 62.1403 30.8036 63.3597 30.1374C65.5502 29.1212 67.7746 28.1727 69.9877 27.1904C69.9877 26.9646 69.9877 26.7388 69.9764 26.5129ZM63.1226 31.5036C63.1226 31.7859 63.1452 32.0682 63.2242 32.3505C63.4613 33.2764 63.7662 34.2022 64.3421 34.9813C64.5114 35.1959 64.6582 35.5007 64.9744 35.4894C65.5502 35.2297 66.1035 34.891 66.5551 34.4619C67.3568 33.6038 67.1536 32.0908 66.1712 31.4472C65.2453 30.8826 64.0711 31.1085 63.1226 31.5036Z" fill="#ECAD84" stroke="#203B53" stroke-width="0.5"/>
<path d="M63.123 31.5038C64.0715 31.1086 65.2458 30.8828 66.1717 31.4474C67.154 32.0797 67.3572 33.604 66.5556 34.4621C66.0926 34.8912 65.5394 35.2299 64.9748 35.4896C64.6699 35.4896 64.5119 35.1848 64.3425 34.9815C63.7666 34.2024 63.4731 33.2766 63.2247 32.3507C63.1456 32.0797 63.123 31.7861 63.123 31.5038Z" fill="#FAD8C7"/>
<path d="M66.4314 35.58C68.0461 35.0719 69.5591 34.2815 71.2076 33.8864C71.2189 33.9315 71.2415 34.0218 71.2528 34.067C70.1123 34.7219 68.8026 35.0042 67.5831 35.4784C66.8379 35.7042 66.1717 36.2123 65.37 36.2575C65.3023 36.2575 65.1668 36.2349 65.1104 36.2236C65.4378 35.8284 65.9685 35.7268 66.4314 35.58Z" fill="#D18C5E"/>
<path d="M71.2531 34.0667C72.2241 34.1457 73.2178 34.5071 73.8839 35.241C75.1034 36.5056 75.1937 38.6735 74.0307 39.9946C73.2968 40.8753 72.1338 41.1237 71.1063 41.4624C70.3385 41.5415 69.6272 41.8689 68.8932 42.0835C66.5559 42.8061 64.2525 43.6304 61.9266 44.3756C61.7346 44.4207 61.5427 44.4433 61.3507 44.4433C60.199 44.2627 59.1941 43.3707 58.8441 42.2641C58.5844 41.4399 58.6408 40.5253 58.9796 39.7349C59.3522 38.888 60.0974 38.1993 60.9781 37.9057C62.4459 37.3863 63.8573 36.675 65.3704 36.2459C66.172 36.2007 66.8382 35.6926 67.5834 35.4668C68.8029 34.9926 70.1127 34.7216 71.2531 34.0554M59.9167 39.6897C59.8941 39.893 59.849 40.1075 59.8716 40.322C60.0071 41.4399 60.4587 42.5012 61.1023 43.4158C61.2491 43.6416 61.5201 43.8788 61.8024 43.7094C62.6605 43.3142 63.6089 42.6932 63.7444 41.677C63.9251 40.5704 63.0331 39.4526 61.9266 39.3623C61.2378 39.3284 60.5829 39.5655 59.9167 39.6784V39.6897Z" fill="#ECAD84"/>
<path d="M71.2531 34.0667C72.2241 34.1457 73.2178 34.5071 73.8839 35.241C75.1034 36.5056 75.1937 38.6735 74.0307 39.9946C73.2968 40.8753 72.1338 41.1237 71.1063 41.4624C70.3385 41.5415 69.6272 41.8689 68.8932 42.0835C66.5559 42.8061 64.2525 43.6304 61.9266 44.3756C61.7346 44.4207 61.5427 44.4433 61.3507 44.4433C60.199 44.2627 59.1941 43.3707 58.8441 42.2641C58.5844 41.4399 58.6408 40.5253 58.9796 39.7349C59.3522 38.888 60.0974 38.1993 60.9781 37.9057C62.4459 37.3863 63.8573 36.675 65.3704 36.2459C66.172 36.2007 66.8382 35.6926 67.5834 35.4668C68.8029 34.9926 70.1127 34.7216 71.2531 34.0554M59.9167 39.6897C59.8941 39.893 59.849 40.1075 59.8716 40.322C60.0071 41.4399 60.4587 42.5012 61.1023 43.4158C61.2491 43.6416 61.5201 43.8788 61.8024 43.7094C62.6605 43.3142 63.6089 42.6932 63.7444 41.677C63.9251 40.5704 63.0331 39.4526 61.9266 39.3623C61.2378 39.3284 60.5829 39.5655 59.9167 39.6784V39.6897Z" stroke="#203B53" stroke-width="0.5"/>
<path d="M59.9165 39.6901C60.5827 39.5659 61.2376 39.34 61.9264 39.3739C63.0329 39.4529 63.9249 40.5821 63.7442 41.6886C63.6088 42.7048 62.6603 43.3258 61.8022 43.721C61.5199 43.8904 61.2489 43.6533 61.1021 43.4274C60.4698 42.5016 60.0182 41.4515 59.8714 40.3337C59.8375 40.1191 59.8827 39.9159 59.9165 39.7014V39.6901Z" fill="#F9D7C6"/>
<path d="M68.8921 42.0949C69.6261 41.8691 70.3374 41.5416 71.1052 41.4739C71.0149 41.5078 70.8342 41.5868 70.7439 41.6207C70.8003 41.6545 70.9132 41.711 70.9697 41.7449C69.547 42.3094 68.0679 42.7159 66.6339 43.2353C65.4935 43.6418 64.3192 43.9579 63.1901 44.3983C62.8062 44.5225 62.3997 44.7596 61.9819 44.6128C61.7674 44.5564 61.5641 44.5112 61.3496 44.466C61.5416 44.466 61.7335 44.4435 61.9255 44.3983C64.2514 43.6531 66.5549 42.8288 68.8921 42.1062V42.0949Z" fill="#D28D62"/>
<path d="M66.6342 43.224C68.0682 42.7046 69.5474 42.2981 70.9701 41.7335C71.6362 41.9142 72.2911 42.1852 72.7767 42.6933C73.9735 43.8337 74.0751 45.8774 73.0138 47.1307C72.2798 48.0792 71.0491 48.3163 69.9651 48.6663C68.3957 49.0954 66.8601 49.6599 65.3019 50.1342C64.4889 50.4503 63.5856 50.5519 62.8178 51.0036C61.3274 51.5682 59.5434 50.7778 58.8659 49.3551C58.3691 48.3163 58.482 46.9952 59.1933 46.0693C59.8369 45.1773 60.9548 44.8273 61.971 44.5902C62.3888 44.737 62.7839 44.4999 63.1791 44.3757C64.3083 43.9353 65.4825 43.6191 66.6229 43.2127M59.8144 46.4758C59.7805 46.7468 59.7579 47.0178 59.8257 47.2888C59.9724 47.9211 60.0966 48.576 60.4241 49.1518C60.6838 49.6374 60.9435 50.1793 61.4516 50.4503C62.1065 50.1455 62.7388 49.739 63.2017 49.1744C63.5405 48.7679 63.5969 48.1808 63.4953 47.6727C63.3372 46.7581 62.3775 46.1145 61.4742 46.1822C60.9096 46.2274 60.345 46.2952 59.8144 46.4871V46.4758Z" fill="#ECAD84"/>
<path d="M66.6342 43.224C68.0682 42.7046 69.5474 42.2981 70.9701 41.7335C71.6362 41.9142 72.2911 42.1852 72.7767 42.6933C73.9735 43.8337 74.0751 45.8774 73.0138 47.1307C72.2798 48.0792 71.0491 48.3163 69.9651 48.6663C68.3957 49.0954 66.8601 49.6599 65.3019 50.1342C64.4889 50.4503 63.5856 50.5519 62.8178 51.0036C61.3274 51.5682 59.5434 50.7778 58.8659 49.3551C58.3691 48.3163 58.482 46.9952 59.1933 46.0693C59.8369 45.1773 60.9548 44.8273 61.971 44.5902C62.3888 44.737 62.7839 44.4999 63.1791 44.3757C64.3083 43.9353 65.4825 43.6191 66.6229 43.2127M59.8144 46.4758C59.7805 46.7468 59.7579 47.0178 59.8257 47.2888C59.9724 47.9211 60.0966 48.576 60.4241 49.1518C60.6838 49.6374 60.9435 50.1793 61.4516 50.4503C62.1065 50.1455 62.7388 49.739 63.2017 49.1744C63.5405 48.7679 63.5969 48.1808 63.4953 47.6727C63.3372 46.7581 62.3775 46.1145 61.4742 46.1822C60.9096 46.2274 60.345 46.2952 59.8144 46.4871V46.4758Z" stroke="#203B53" stroke-width="0.5"/>
<path d="M59.814 46.4761C60.3447 46.2728 60.9093 46.2164 61.4738 46.1712C62.3771 46.1148 63.3369 46.7471 63.495 47.6617C63.5966 48.1698 63.5401 48.7456 63.2014 49.1634C62.7498 49.7392 62.1174 50.1457 61.4513 50.4393C60.9432 50.1683 60.6835 49.6263 60.4238 49.1408C60.0963 48.565 59.9721 47.9101 59.8253 47.2778C59.7576 47.0068 59.7689 46.7358 59.814 46.4648V46.4761Z" fill="#FAD7C6"/>
<path d="M65.3021 50.1341C66.8603 49.6599 68.3959 49.0953 69.9654 48.6663C69.9654 48.7453 69.9767 48.9034 69.988 48.9824C68.0233 49.5921 66.0586 50.2132 64.1165 50.8793C63.6875 51.0374 63.2358 51.1277 62.7842 51.2068L62.8181 51.0148C63.5859 50.5632 64.4779 50.4616 65.3021 50.1454V50.1341Z" fill="#D08B61"/>
<path d="M64.1053 50.8679C66.0474 50.2017 68.012 49.5807 69.9767 48.9709C70.5638 49.2645 71.1171 49.6484 71.4897 50.213C71.9978 51.0485 72.0882 52.1438 71.6026 53.0132C71.2526 53.6229 70.6542 54.0633 69.9654 54.2326C68.3733 54.673 66.77 55.0908 65.1779 55.5537C64.3763 55.8021 63.4504 55.9037 62.7052 55.4408C61.7567 54.944 61.2712 53.7471 61.576 52.7309C61.7454 52.076 62.2196 51.5679 62.7729 51.1953C63.2246 51.1163 63.6649 51.0259 64.1053 50.8679ZM62.5358 52.1325C62.4116 53.1826 62.8858 54.2214 63.4617 55.0682C63.6198 55.3053 63.9359 55.1585 64.1391 55.0569C64.7037 54.752 65.336 54.323 65.3925 53.6342C65.4941 52.9906 65.1215 52.3019 64.5118 52.0647C63.8795 51.8502 63.1681 51.8841 62.5471 52.1325H62.5358Z" fill="#ECAD84" stroke="#203B53" stroke-width="0.5"/>
<path d="M62.5352 52.1327C63.1562 51.8843 63.8676 51.8504 64.4999 52.0649C65.1209 52.302 65.4935 52.9908 65.3806 53.6344C65.3241 54.3231 64.6918 54.7635 64.1273 55.0571C63.9353 55.1587 63.6079 55.3055 63.4498 55.0684C62.8739 54.2102 62.411 53.1827 62.5239 52.1327H62.5352Z" fill="#F9D7C6"/>
<path d="M20.9954 54.5941C21.5373 54.2328 22.2148 54.6054 22.5761 55.0458C23.7391 56.2991 24.9586 57.4847 26.1329 58.7154C27.7927 60.3639 29.3734 62.0802 31.0332 63.7287C30.3558 64.361 29.7009 65.0385 29.0234 65.6708C28.7072 65.9644 28.4475 66.2918 28.1991 66.6531C25.015 63.3787 21.8422 60.0929 18.6807 56.7959C19.4372 56.0507 20.205 55.3055 20.9954 54.5828V54.5941Z" fill="#F5F6F8"/>
<path d="M16.5243 56.3444C16.8518 55.9718 17.3938 55.9379 17.8454 56.0621C18.2067 56.1976 18.4439 56.5138 18.681 56.8074C21.8425 60.1044 25.0153 63.3901 28.1994 66.6646C28.3236 66.7888 28.4479 66.9243 28.5721 67.0485C28.1994 67.613 27.68 68.0421 27.2171 68.5163C24.383 71.373 21.4473 74.1281 18.6358 77.0073C17.8115 76.104 16.9647 75.2459 16.1066 74.3765C15.2033 73.3264 14.1758 72.3892 13.2273 71.3843C12.7418 70.7859 12.1659 70.2552 11.6353 69.6906C10.7997 68.6857 9.82867 67.8163 8.93666 66.8565C8.42856 66.3936 7.88658 65.7839 8.02207 65.0386C8.03337 64.5192 8.4963 64.237 8.82375 63.9095C9.6593 63.0175 10.6078 62.2271 11.4546 61.3464C13.1483 59.6866 14.8194 58.0042 16.5131 56.3444M16.3663 59.3592C15.734 59.5624 15.2823 60.206 15.3275 60.8722C15.3388 61.7077 16.163 62.4304 16.9986 62.3175C17.947 62.2384 18.6471 61.1432 18.2632 60.2512C18.0035 59.4947 17.1002 59.1221 16.355 59.3705L16.3663 59.3592Z" fill="#3D424E"/>
<path d="M38.8803 56.322C44.4582 56.322 50.0247 56.322 55.6026 56.322C58.4593 56.3333 61.3159 56.2881 64.1839 56.3333C63.1903 57.0446 62.1515 57.6882 61.1353 58.377C59.0916 59.6642 57.0817 60.9965 54.9929 62.216C52.8249 60.0368 50.0586 58.5125 47.1229 57.6205C45.305 57.0785 43.3855 56.7397 41.4886 56.9543C39.9191 57.0785 38.4738 57.7898 37.1641 58.6141C37.7512 57.8576 38.3948 57.1462 38.8916 56.322H38.8803Z" fill="#D58C61"/>
<path d="M29.0239 65.6823C29.7014 65.05 30.3563 64.3725 31.0337 63.7402C32.4903 65.3097 34.0372 66.7776 35.4712 68.3583C36.0809 68.889 36.6116 69.4875 37.1536 70.0859C37.5036 70.4811 37.9101 70.8198 38.2375 71.2376C38.5198 71.5763 38.4972 72.1409 38.1472 72.4345C37.3907 73.1684 36.6342 73.9023 35.9002 74.6588C33.4726 72.107 31.0337 69.5778 28.5835 67.0486C28.4593 66.9244 28.3351 66.7889 28.2109 66.6647C28.4481 66.3146 28.719 65.9759 29.0352 65.6823H29.0239Z" fill="#DADFE1"/>
<path d="M28.5725 67.0483C31.034 69.5663 33.4729 72.1068 35.8892 74.6586C36.1715 74.9748 36.5328 75.3248 36.4877 75.7877C36.5103 76.0587 36.3522 76.2845 36.1715 76.4652C33.6084 78.9831 31.0792 81.5349 28.5274 84.0642C28.2451 84.3352 27.9741 84.6513 27.6354 84.8546C27.2289 85.0804 26.7547 84.9788 26.303 84.9675C24.9932 83.7254 23.7738 82.3705 22.5205 81.072C21.2107 79.7284 19.9235 78.3734 18.625 77.0185C21.4365 74.1392 24.3722 71.3842 27.2063 68.5275C27.6692 68.0533 28.1886 67.6129 28.5613 67.0596L28.5725 67.0483Z" fill="#2E323B"/>
</svg>
