<svg width="84" height="82" viewBox="0 0 84 82" fill="none" xmlns="http://www.w3.org/2000/svg">
<path d="M54.2467 47.6837C58.511 52.2263 62.3321 58.8047 62.2555 65.2204C62.2189 68.228 61.0787 70.8983 58.8112 72.8999C56.0897 75.3035 52.536 76.312 48.9487 75.9554C37.2485 74.793 25.452 63.2479 18.5697 54.5252C14.4387 49.2901 10.0657 42.8408 7.93374 36.4878C19.042 26.9261 38.4626 15.3791 53.708 16.5729C57.7079 16.8865 62.1103 18.2611 64.786 21.4219C66.422 23.354 67.3523 25.7685 66.9918 28.3118C66.4705 31.9846 63.9635 35.17 60.9919 37.2584C57.3553 39.8133 52.9358 40.686 49.0117 42.6181C50.8928 44.2162 52.5831 45.861 54.2467 47.6837Z" fill="#203B53"/>
<path d="M53.1803 52.9645C55.6662 56.6027 58.637 61.1098 58.0977 65.7331C57.8297 68.0239 56.8843 69.0103 55.1207 70.3903C55.0558 70.2295 54.9783 70.0733 54.9258 69.9078C53.7589 66.2252 54.6859 63.6301 52.5099 59.1784C49.8581 53.7515 44.2862 49.3547 42.5204 43.6422L44.706 44.9435C45.7814 43.691 47.5082 43.2101 49.0121 42.6183C50.8932 44.2163 52.5835 45.8611 54.2471 47.6838C53.7715 49.403 53.5125 51.2118 53.1803 52.9645Z" fill="#FEFEFE"/>
<path d="M21.2004 32.2581C23.203 30.9766 25.247 29.7653 27.332 28.6231C35.3036 24.2806 48.1325 18.4163 57.3858 21.4039C59.4345 22.0658 61.3304 23.0983 62.251 25.1382C63.0264 26.8556 62.5563 28.6115 61.9438 30.2773L59.209 26.3267C43.659 24.3208 33.739 32.6073 21.2004 32.2581Z" fill="#FEFEFE"/>
<path d="M54.8615 70.6452C51.4011 72.1535 47.9689 71.7109 44.5062 70.3934C30.756 65.1608 19.6961 50.445 12.918 37.9892C15.3471 36.1588 18.3713 33.2907 21.2011 32.2579C26.401 44.5661 43.6086 62.9635 54.8615 70.6452Z" fill="#0597BE"/>
<path d="M55.1204 70.3906L54.8609 70.6453C43.608 62.9636 26.4004 44.5662 21.2005 32.258C33.7391 32.6072 43.6592 24.3207 59.2091 26.3266L61.9439 30.2772C58.1259 37.1481 41.905 37.9532 41.9614 42.7271L42.5201 43.6425C44.2859 49.355 49.8578 53.7518 52.5096 59.1787C54.6856 63.6304 53.7586 66.2255 54.9255 69.9081C54.978 70.0736 55.0555 70.2298 55.1204 70.3906Z" fill="#13B6DC"/>
</svg>
