<svg width="85" height="83" viewBox="0 0 85 83" fill="none" xmlns="http://www.w3.org/2000/svg">
<mask id="path-1-outside-1_2143_5938" maskUnits="userSpaceOnUse" x="-0.0742223" y="-0.499882" width="85" height="84" fill="black">
<rect fill="white" x="-0.0742223" y="-0.499882" width="85" height="84"/>
<path d="M82.9195 45.1986C83.0713 53.425 80.4675 61.923 74.8297 68.0502C67.3811 76.1446 54.4078 81.0317 43.5758 81.4701C33.1115 81.8943 22.1404 77.8316 14.4556 70.7211C5.20618 62.1632 2.0112 50.3841 1.50252 38.1556C2.02442 29.7285 4.39886 21.1096 10.0601 14.6341C16.49 7.27983 26.1618 2.1242 35.9723 1.55895C47.5262 0.893914 58.4345 5.9282 66.9234 13.5599C76.756 22.4002 82.2534 31.8482 82.9195 45.1986Z"/>
</mask>
<path d="M82.9195 45.1986C83.0713 53.425 80.4675 61.923 74.8297 68.0502C67.3811 76.1446 54.4078 81.0317 43.5758 81.4701C33.1115 81.8943 22.1404 77.8316 14.4556 70.7211C5.20618 62.1632 2.0112 50.3841 1.50252 38.1556C2.02442 29.7285 4.39886 21.1096 10.0601 14.6341C16.49 7.27983 26.1618 2.1242 35.9723 1.55895C47.5262 0.893914 58.4345 5.9282 66.9234 13.5599C76.756 22.4002 82.2534 31.8482 82.9195 45.1986Z" fill="white"/>
<path d="M82.9195 45.1986L84.4193 45.1709L84.4188 45.1474L84.4177 45.1239L82.9195 45.1986ZM74.8297 68.0502L75.9334 69.0659L75.9335 69.0658L74.8297 68.0502ZM43.5758 81.4701L43.5151 79.9713L43.515 79.9713L43.5758 81.4701ZM14.4556 70.7211L15.4744 69.6201L15.4743 69.62L14.4556 70.7211ZM1.50252 38.1556L0.00539238 38.0629L0.000593491 38.1404L0.00382072 38.218L1.50252 38.1556ZM10.0601 14.6341L8.93088 13.6468L8.93086 13.6469L10.0601 14.6341ZM35.9723 1.55895L35.8861 0.061431L35.886 0.0614359L35.9723 1.55895ZM66.9234 13.5599L67.9263 12.4445L67.9263 12.4444L66.9234 13.5599ZM82.9195 45.1986L81.4198 45.2263C81.5659 53.1432 79.055 61.2428 73.7258 67.0345L74.8297 68.0502L75.9335 69.0658C81.88 62.6032 84.5768 53.7069 84.4193 45.1709L82.9195 45.1986ZM74.8297 68.0502L73.7259 67.0344C66.6045 74.7733 54.0427 79.5452 43.5151 79.9713L43.5758 81.4701L43.6364 82.9689C54.7729 82.5181 68.1576 77.5158 75.9334 69.0659L74.8297 68.0502ZM43.5758 81.4701L43.515 79.9713C33.451 80.3793 22.8678 76.461 15.4744 69.6201L14.4556 70.7211L13.4369 71.8221C21.4129 79.2021 32.772 83.4093 43.6365 82.9689L43.5758 81.4701ZM14.4556 70.7211L15.4743 69.62C6.6351 61.4417 3.5017 50.1246 3.00123 38.0933L1.50252 38.1556L0.00382072 38.218C0.520689 50.6435 3.77727 62.8847 13.4369 71.8221L14.4556 70.7211ZM1.50252 38.1556L2.99966 38.2483C3.50995 30.0086 5.82481 21.7576 11.1894 15.6214L10.0601 14.6341L8.93086 13.6469C2.97293 20.4617 0.538893 29.4484 0.00539238 38.0629L1.50252 38.1556ZM10.0601 14.6341L11.1894 15.6215C17.3812 8.53944 26.6893 3.59629 36.0585 3.05647L35.9723 1.55895L35.886 0.0614359C25.6343 0.652103 15.5988 6.02023 8.93088 13.6468L10.0601 14.6341ZM35.9723 1.55895L36.0584 3.05647C47.1131 2.42018 57.6455 7.23588 65.9206 14.6754L66.9234 13.5599L67.9263 12.4444C59.2236 4.62053 47.9394 -0.63235 35.8861 0.061431L35.9723 1.55895ZM66.9234 13.5599L65.9205 14.6754C75.5197 23.3058 80.7791 32.4 81.4214 45.2734L82.9195 45.1986L84.4177 45.1239C83.7277 31.2964 77.9924 21.4946 67.9263 12.4445L66.9234 13.5599Z" fill="#203B53" mask="url(#path-1-outside-1_2143_5938)"/>
<path d="M33.1523 70.1293C32.9883 70.7128 32.9092 70.9936 32.4385 71.3881C31.8379 71.397 31.6528 71.2497 31.1885 70.8754C26.4191 67.0314 22.0744 62.5329 17.5605 58.39C14.7494 55.8103 11.6863 53.5141 8.89453 50.933C8.98785 50.7544 9.08243 50.5752 9.18847 50.4037C9.48401 49.9253 9.56351 49.6899 10.1504 49.5707C13.8938 51.6047 29.4628 66.4411 33.1523 70.1293ZM33.1426 53.5599C32.8739 54.1567 32.6961 54.5806 32.1592 54.9935C31.7216 54.8635 11.4721 37.5112 9.37793 35.5707C9.55937 34.9707 9.64052 34.6499 10.1113 34.2064C10.7797 34.1805 11.0475 34.31 11.6064 34.6771C14.542 36.6034 17.2305 39.3226 19.8408 41.6703C24.2444 45.6671 28.6786 49.6301 33.1426 53.5599ZM66.6084 66.8402C66.2889 67.3609 66.1442 67.5953 65.5713 67.8324C63.6852 67.4586 59.8445 63.0255 58.2353 61.5638C50.5232 54.5131 42.7524 47.5264 34.9248 40.6039C28.6625 35.0581 22.4539 29.511 15.7061 24.5511C15.773 24.3692 15.8533 24.1265 15.9561 23.9662C16.3283 23.3853 16.4813 23.393 17.1143 23.3119C21.2967 24.7553 60.8004 60.8475 66.6084 66.8402ZM73.4355 58.472C73.3884 58.6696 73.3809 58.7348 73.2871 58.9418C73.0241 59.5191 72.8583 59.6992 72.2598 59.8656C71.9741 59.7539 71.74 59.6666 71.4902 59.4838C69.531 58.0525 67.6793 56.0757 65.8262 54.4681L49.459 40.0443L29.3291 22.3861C26.8618 20.1969 23.9305 18.2185 21.7432 15.7631C21.7992 15.5638 21.8637 15.3034 21.9541 15.1215C22.2407 14.544 22.3463 14.4636 22.9238 14.309C24.7214 14.9619 39.2444 28.5253 41.6572 30.6468L73.4355 58.472ZM76.0801 48.7484C76.0178 49.2118 75.9675 49.5242 75.7402 49.9437C75.5108 50.3664 75.6283 50.2204 75.1094 50.3793C71.2672 47.8845 67.2404 43.7588 63.6396 40.7562C57.5545 35.6818 51.3661 30.731 45.3262 25.601C40.7552 21.7183 36.364 17.6348 31.7383 13.8148C31.768 13.6626 31.7848 13.5062 31.8281 13.3568C31.9931 12.7924 32.3423 12.4965 32.8271 12.2269C33.7648 12.4674 72.0932 45.1816 76.0801 48.7484ZM75.7842 39.5521C75.5013 40.0764 75.176 40.4035 74.7598 40.8207C74.6127 40.8311 74.4645 40.8722 74.3184 40.8519C73.5265 40.7377 44.4067 13.669 39.3643 10.2816C39.3902 10.0893 39.415 9.82273 39.4951 9.64783C39.7539 9.08369 39.9446 9.02734 40.4902 8.90954C43.9985 10.3535 52.8663 19.2932 56.1436 22.1556C62.7412 27.9184 69.566 33.3609 75.7842 39.5521ZM50.0898 73.9974C50.0583 74.1478 50.0503 74.3048 49.9961 74.4486C49.8217 74.9081 49.5256 74.9464 49.1123 75.0599C47.0061 74.4797 42.4548 69.5869 40.6094 67.9261C41.1128 67.3953 41.523 66.8038 42.2881 66.7006C44.6961 67.8016 48.2655 71.9633 50.0898 73.9974Z" fill="#54E6ED"/>
<path d="M18.4384 38.164H21.4624V47.74C21.3344 47.788 21.1424 47.828 20.8864 47.86C20.6304 47.908 20.3584 47.932 20.0704 47.932C19.4944 47.932 19.0784 47.828 18.8224 47.62C18.5664 47.396 18.4384 47.028 18.4384 46.516V38.164ZM21.4624 41.668H18.4384V33.22C18.5664 33.188 18.7664 33.148 19.0384 33.1C19.3104 33.052 19.5824 33.028 19.8544 33.028C20.4144 33.028 20.8224 33.132 21.0784 33.34C21.3344 33.532 21.4624 33.9 21.4624 34.444V41.668ZM35.3873 40.372V42.7H32.4353V40.492C32.4353 39.788 32.2353 39.276 31.8353 38.956C31.4353 38.62 30.8993 38.452 30.2273 38.452C29.7313 38.452 29.2833 38.516 28.8833 38.644C28.4993 38.756 28.1553 38.892 27.8513 39.052V42.7H24.8993V38.86C24.8993 38.476 24.9793 38.164 25.1393 37.924C25.2993 37.668 25.5393 37.436 25.8593 37.228C26.3393 36.908 26.9553 36.644 27.7073 36.436C28.4753 36.212 29.3233 36.1 30.2513 36.1C31.8673 36.1 33.1233 36.46 34.0193 37.18C34.9313 37.9 35.3873 38.964 35.3873 40.372ZM24.8993 41.524H27.8513V47.74C27.7233 47.788 27.5393 47.828 27.2993 47.86C27.0593 47.908 26.7953 47.932 26.5073 47.932C25.9633 47.932 25.5553 47.836 25.2833 47.644C25.0273 47.436 24.8993 47.076 24.8993 46.564V41.524ZM32.4353 41.524H35.3873V47.74C35.2753 47.788 35.0913 47.828 34.8353 47.86C34.5953 47.908 34.3393 47.932 34.0673 47.932C33.5073 47.932 33.0913 47.836 32.8193 47.644C32.5633 47.436 32.4353 47.076 32.4353 46.564V41.524ZM48.981 40.372V42.7H46.029V40.492C46.029 39.788 45.829 39.276 45.429 38.956C45.029 38.62 44.493 38.452 43.821 38.452C43.325 38.452 42.877 38.516 42.477 38.644C42.093 38.756 41.749 38.892 41.445 39.052V42.7H38.493V38.86C38.493 38.476 38.573 38.164 38.733 37.924C38.893 37.668 39.133 37.436 39.453 37.228C39.933 36.908 40.549 36.644 41.301 36.436C42.069 36.212 42.917 36.1 43.845 36.1C45.461 36.1 46.717 36.46 47.613 37.18C48.525 37.9 48.981 38.964 48.981 40.372ZM38.493 41.524H41.445V47.74C41.317 47.788 41.133 47.828 40.893 47.86C40.653 47.908 40.389 47.932 40.101 47.932C39.557 47.932 39.149 47.836 38.877 47.644C38.621 47.436 38.493 47.076 38.493 46.564V41.524ZM46.029 41.524H48.981V47.74C48.869 47.788 48.685 47.828 48.429 47.86C48.189 47.908 47.933 47.932 47.661 47.932C47.101 47.932 46.685 47.836 46.413 47.644C46.157 47.436 46.029 47.076 46.029 46.564V41.524ZM53.3828 43.612L53.2628 41.548L59.6948 40.588C59.6468 39.98 59.4148 39.452 58.9988 39.004C58.5828 38.556 57.9748 38.332 57.1748 38.332C56.3588 38.332 55.6788 38.62 55.1348 39.196C54.5908 39.756 54.3108 40.564 54.2948 41.62L54.3668 42.868C54.5108 43.892 54.9028 44.644 55.5428 45.124C56.1988 45.604 57.0228 45.844 58.0148 45.844C58.6868 45.844 59.3108 45.748 59.8868 45.556C60.4628 45.348 60.9188 45.124 61.2548 44.884C61.4788 45.028 61.6548 45.212 61.7828 45.436C61.9268 45.644 61.9988 45.876 61.9988 46.132C61.9988 46.548 61.8148 46.908 61.4468 47.212C61.0788 47.5 60.5828 47.724 59.9588 47.884C59.3348 48.044 58.6228 48.124 57.8228 48.124C56.5908 48.124 55.4948 47.9 54.5348 47.452C53.5908 46.988 52.8468 46.3 52.3028 45.388C51.7748 44.476 51.5108 43.34 51.5108 41.98C51.5108 41.004 51.6628 40.148 51.9668 39.412C52.2708 38.676 52.6788 38.068 53.1908 37.588C53.7188 37.092 54.3268 36.724 55.0148 36.484C55.7028 36.228 56.4228 36.1 57.1748 36.1C58.2308 36.1 59.1508 36.316 59.9348 36.748C60.7348 37.164 61.3588 37.748 61.8068 38.5C62.2708 39.252 62.5028 40.116 62.5028 41.092C62.5028 41.54 62.3828 41.876 62.1428 42.1C61.9188 42.308 61.5988 42.436 61.1828 42.484L53.3828 43.612ZM67.8357 39.148V42.436H64.8837V38.908C64.8837 38.508 64.9797 38.172 65.1717 37.9C65.3637 37.612 65.6357 37.348 65.9877 37.108C66.4677 36.82 67.0757 36.58 67.8117 36.388C68.5477 36.196 69.3397 36.1 70.1877 36.1C71.6917 36.1 72.4437 36.564 72.4437 37.492C72.4437 37.716 72.4117 37.924 72.3477 38.116C72.2837 38.292 72.2037 38.452 72.1077 38.596C71.9477 38.564 71.7477 38.54 71.5077 38.524C71.2677 38.492 71.0117 38.476 70.7397 38.476C70.1637 38.476 69.6197 38.54 69.1077 38.668C68.6117 38.78 68.1877 38.94 67.8357 39.148ZM64.8837 41.452L67.8357 41.596V47.74C67.7077 47.788 67.5237 47.828 67.2837 47.86C67.0437 47.908 66.7797 47.932 66.4917 47.932C65.9477 47.932 65.5397 47.836 65.2677 47.644C65.0117 47.436 64.8837 47.076 64.8837 46.564V41.452Z" fill="#203B53"/>
</svg>
