<svg width="147" height="174" viewBox="0 0 147 174" fill="none" xmlns="http://www.w3.org/2000/svg">
<path d="M10.9264 30.5063C9.24628 31.0043 7.39574 31.6911 6.58542 33.4107C6.17065 34.2895 6.18089 35.1281 6.49011 36.0331C8.65771 42.3888 16.4093 45.6374 21.9933 48.2648C18.8456 48.5754 16.0237 49.0566 13.1632 50.4994C11.2629 51.4581 8.62703 53.2727 8.11431 55.5058C7.93613 56.2817 7.90448 57.0535 8.39855 57.7304C8.95598 58.4932 9.96015 58.8423 10.8564 58.9821C17.3519 59.996 24.6878 54.0529 29.5835 50.5405C33.9442 50.7773 38.4561 51.8593 42.7412 52.6868L42.4628 52.7931C37.9148 54.5718 31.8844 56.9844 29.9406 61.8862C29.4423 63.143 29.3355 64.5215 29.9153 65.7718C30.3918 66.801 31.3121 67.5558 32.3714 67.9328C34.2427 68.5981 36.3575 68.1343 38.1108 67.3379C43.5793 64.8532 46.2707 59.9822 48.1596 54.6022C54.3659 56.3192 60.4941 59.5531 66.3197 62.2513C61.9243 63.6617 57.3492 65.2716 54.27 68.926C53.0615 70.3595 52.1561 72.1704 52.3694 74.0908C52.3851 74.2477 52.4092 74.4038 52.4409 74.5586C52.4733 74.7133 52.513 74.866 52.5607 75.0166C52.609 75.167 52.6645 75.3148 52.727 75.4602C52.79 75.6046 52.8606 75.7457 52.938 75.8835C53.0154 76.0214 53.0998 76.1546 53.1914 76.2831C53.2832 76.4122 53.3805 76.5364 53.4845 76.6547C53.5887 76.7736 53.6988 76.8867 53.8149 76.9941C53.9304 77.1017 54.0516 77.2028 54.1779 77.2978C55.6291 78.3718 57.4514 78.5139 59.1731 78.1534C65.0233 76.9291 69.9075 70.6741 73.109 66.0538C79.0444 68.8149 84.4003 72.963 89.6271 76.8626C85.4157 77.0748 81.0537 77.7346 77.3994 80.0045C75.6207 81.1087 74.0005 82.7328 73.6031 84.8659C73.3592 86.1744 73.6417 87.5435 74.4955 88.5828C75.4275 89.7167 76.8163 90.2505 78.2432 90.3991C84.9659 91.0991 90.894 85.1019 95.6455 81.2022C100.75 85.3157 108.336 91.6395 112.444 96.502C106.853 96.6879 98.8069 96.6155 94.3426 100.6C93.4586 101.388 92.7559 102.488 92.8307 103.718C92.9088 105.001 93.6985 106.084 94.6704 106.862C96.7637 108.538 99.6743 108.884 102.259 108.566C107.471 107.924 112.735 104.813 115.901 100.7C123.722 108.004 132.289 120.589 137.812 129.82C139.476 132.706 141.799 138.103 144.671 139.841L145.252 139.656C145.379 139.283 145.483 139.033 145.526 138.622C145.75 136.46 143.52 133.198 142.496 131.38C135.205 118.436 126.234 106.952 116.312 95.9383C118.888 91.0157 120.413 85.5683 120.214 79.9789C120.127 77.5422 119.72 74.4565 117.762 72.7661C116.981 72.0914 115.938 71.7047 114.903 71.9274C113.736 72.1788 112.863 73.0487 112.277 74.0467C109.62 78.5702 111.031 86.4771 112.199 91.3171C107.805 87.1938 102.995 83.4963 98.708 79.268C100.938 74.3192 101.179 67.1205 99.8524 61.8662C99.2782 59.5924 98.1728 57.1192 96.011 55.9502C95.0769 55.4457 93.8102 55.2066 92.8008 55.6462C91.7577 56.1 91.1001 56.8779 90.667 57.9039C88.3843 63.3116 91.585 70.6189 93.733 75.6031C87.6318 70.9732 81.3987 66.5197 74.6098 62.9458C76.4275 56.5267 78.0222 49.183 75.8822 42.6259C75.2293 40.6249 74.0615 38.5256 72.0922 37.5702C71.0879 37.0834 69.9291 37.0107 68.8967 37.4636C67.5586 38.0506 66.6724 39.3578 66.1567 40.6784C63.6474 47.1071 67.2025 54.7554 69.8397 60.5814C62.8336 56.9047 55.8012 53.5987 48.3229 50.9838C48.9813 45.4357 49.2901 38.9015 46.9291 33.6848C46.2741 32.2375 45.0511 30.442 43.3991 30.0353C42.3147 29.7679 41.2988 29.8819 40.3496 30.491C38.9923 31.3624 38.2633 32.9132 37.9625 34.451C36.9192 39.7854 40.0136 45.4832 42.9788 49.7166C38.4985 48.4914 33.8415 47.7145 29.2905 46.7804C24.8478 40.1913 19.1638 32.2869 10.9264 30.5063Z" fill="#203B53"/>
<path d="M97.9585 70.4056C98.1021 67.2567 98.1022 61.5456 95.9219 59.0863C95.325 58.4132 94.7709 58.4039 93.9446 58.4404C93.9828 58.5623 94.023 58.6836 94.0589 58.8071C94.8619 61.5671 94.3398 68.7307 97.1086 70.1073C97.3441 70.2247 97.6998 70.3256 97.9585 70.4056Z" fill="#5FDCD8"/>
<path d="M15.8487 52.2324C14.4438 52.7506 12.9004 53.1862 12.0868 54.542C11.7637 55.0801 11.9042 55.17 12.0161 55.7328C12.1244 55.7999 12.225 55.8822 12.3407 55.935C14.5198 56.9252 18.4359 54.5966 20.3949 53.6717C22.2867 52.7771 23.9987 51.5794 25.7455 50.4347C22.3375 50.8248 19.1588 51.282 15.8487 52.2324Z" fill="#5FDCD8"/>
<path d="M93.9452 58.4404C91.5451 62.8086 93.6698 68.8919 95.0117 73.3998C95.321 74.4403 95.626 75.4378 96.4191 76.216L96.9566 76.1131C97.9122 74.3616 97.8795 72.3587 97.9591 70.4056C97.7005 70.3256 97.3448 70.2247 97.1093 70.1073C94.3404 68.7308 94.8626 61.5671 94.0595 58.8071C94.0236 58.6836 93.9834 58.5624 93.9452 58.4404Z" fill="#56CAEA"/>
<path d="M115.486 74.7562C115.337 74.9315 115.179 75.1005 115.039 75.2831C112.56 78.4946 113.338 86.4887 114.131 90.1988C114.351 91.233 114.421 91.7006 115.32 92.2818C117.038 88.746 118.031 84.2944 117.855 80.3612C117.74 77.7946 117.36 76.5054 115.486 74.7562Z" fill="#5FDCD8"/>
<path d="M45.5433 54.6567C42.9179 55.4841 40.2975 56.6346 37.8953 57.9771C36.1013 58.9789 32.6193 61.0221 32.3322 63.2749C32.1983 64.3272 32.4414 64.597 32.9701 65.4575C34.779 65.4901 36.1294 65.1755 37.7373 64.3164C41.5901 62.2565 44.2368 58.7769 45.5433 54.6567Z" fill="#5FDCD8"/>
<path d="M42.6946 32.4786C41.5523 33.2044 40.9297 33.7855 40.6248 35.1478C39.5353 40.0141 43.4558 46.4251 45.8852 50.4526C46.8099 47.2221 46.513 43.3403 46.0864 40.0363C45.6886 36.959 45.2483 34.4634 42.6946 32.4786Z" fill="#5FDCD8"/>
<path d="M10.3529 33.4826C9.93396 33.9725 9.78622 34.2435 9.53983 34.8192C9.60594 35.4194 9.66797 35.9445 9.94063 36.4924C12.2245 41.0823 19.4215 44.3735 24.0392 45.9709L24.5954 46.0865L24.958 45.758C24.7133 45.1062 24.4679 44.6718 24.0495 44.1014C21.1089 40.091 15.3913 34.2588 10.3529 33.4826Z" fill="#5FDCD8"/>
<path d="M104.138 99.8539C101.473 100.284 98.3456 100.81 96.2493 102.622C95.8545 103.456 95.8141 103.558 95.9322 104.468C96.5416 105.148 97.0463 105.438 97.9156 105.664C103.186 107.034 110.481 102.067 114.86 99.559C111.195 99.0486 107.773 99.2848 104.138 99.8539Z" fill="#56CAEA"/>
<path d="M104.139 99.8539C101.475 100.284 98.3467 100.81 96.2503 102.622C96.4357 102.719 96.6136 102.832 96.8059 102.914C98.3917 103.592 100.758 102.803 102.218 102.095C103.448 101.498 103.72 101.16 104.139 99.8539Z" fill="#5FDCD8"/>
<path d="M84.6919 80.1905C82.8446 80.6918 80.7931 81.1841 79.1738 82.2243C77.9128 83.0346 77.1121 84.0594 76.7645 85.5088C77.0031 86.3624 77.0443 86.7347 77.9423 87.1317C79.9726 88.029 82.79 86.6351 84.6973 85.9296C88.0086 84.103 90.5081 82.1467 93.1719 79.4595C90.2843 79.2537 87.5182 79.6437 84.6919 80.1905Z" fill="#5FDCD8"/>
<path d="M71.1059 40.5186C70.2283 40.3555 70.0955 40.402 69.2539 40.7215C67.9131 42.4081 68.3015 45.5675 68.5425 47.6049C69.1055 52.3627 70.838 56.7951 72.5988 61.2168C73.0933 58.8503 73.6568 56.4855 73.882 54.0748C74.1103 52.3493 74.1802 50.6168 74.0914 48.8787C73.9665 45.8537 73.4079 42.6439 71.1059 40.5186Z" fill="#5FDCD8"/>
<path d="M71.1048 40.5187C70.9789 40.7937 70.7884 41.0472 70.7254 41.3435C70.542 42.205 72.1234 51.3066 72.5294 52.5845C72.7646 53.3242 73.2666 53.6645 73.8809 54.0749C74.1092 52.3494 74.179 50.6169 74.0903 48.8788C73.9653 45.8538 73.4068 42.644 71.1048 40.5187Z" fill="#A5EEF1"/>
<path d="M67.8107 64.5822C66.6123 64.9658 65.4186 65.3995 64.2443 65.8511C61.2627 66.9981 56.1866 69.8184 55.0247 72.8468C54.7509 73.5605 54.8935 73.7159 55.1863 74.3674C56.1459 75.0711 56.8542 75.2231 58.0209 75.4044C58.9478 75.2346 59.7637 74.9759 60.6151 74.5612C63.2952 73.2546 68.8566 69.3826 69.7531 66.4973C69.98 65.7682 69.931 65.6632 69.5953 65.0321L67.8107 64.5822Z" fill="#5FDCD8"/>
</svg>
