<svg width="85" height="85" viewBox="0 0 85 85" fill="none" xmlns="http://www.w3.org/2000/svg">
<path d="M0.00488033 28.1846C0.407402 27.2739 1.12793 26.8128 2.03613 26.4053C2.74251 23.9005 3.64558 21.4846 4.59375 19.0576C4.06638 18.387 3.35651 17.6534 3.25781 16.7842C3.19574 16.2385 3.30155 15.8882 3.64453 15.4609L4.12597 15.415C5.19688 15.7872 5.47716 16.3805 5.97656 17.3018C6.16776 16.8023 6.33847 16.1748 6.61035 15.7148C6.90489 15.2167 7.05084 15.2241 7.59472 15.043L7.6748 15.0742C8.38565 14.7234 8.65519 13.9349 9.00097 13.2764C8.97342 13.2472 8.94623 13.2173 8.91797 13.1885C8.46531 12.7269 7.92249 12.2526 7.67773 11.6514C7.4614 11.1191 7.52507 10.7535 7.73925 10.2402C8.04922 10.0724 8.11655 9.99303 8.48925 9.99023C9.48482 9.98335 10.1468 10.7749 10.8184 11.3809L13.3877 9.02734C13.1803 8.39802 12.875 7.70943 13.1455 7.05566C13.3098 6.65865 13.5237 6.43756 13.9717 6.36426C14.5556 6.269 15.0804 6.65759 15.541 6.94434C16.7373 6.01363 24.1605 0.19406 24.751 0.00781142C25.2391 0.0910862 25.3608 0.084525 25.7236 0.396483L25.7119 0.794921C25.1533 1.86097 24.2106 2.4567 23.1982 3.07324C26.1222 2.26317 29.2661 1.28322 32.2686 0.846678C33.8256 0.620207 35.7654 1.35184 37.2227 0.760741C37.525 0.401793 37.6605 0.171751 38.125 -1.66645e-06C38.9909 0.126326 39.7828 0.571783 40.6318 0.656248C41.7887 0.771223 42.977 0.726568 44.1436 0.840818C51.2725 1.53969 57.8803 3.32911 63.7949 7.36328C70.4923 11.9307 77.4603 21.7859 80.2988 29.1416C81.6413 32.62 82.3629 36.268 82.999 39.9141C83.798 40.4563 84.6115 41.101 85 41.9834C84.8267 42.6547 84.275 42.775 83.8437 43.291C83.2784 43.9678 83.5039 44.9148 83.5635 45.7275C83.6004 46.9795 83.5115 48.2403 83.3799 49.4853C82.4209 58.5626 78.8398 65.5201 71.457 71.2959L72.8291 72.7363C72.4556 73.3415 72.0788 74.038 71.292 74.1895C70.1597 74.4081 68.9485 73.4882 68.0361 72.9521C67.681 73.2509 65.7334 74.6461 65.7354 75.0293C65.7386 75.4041 66.0612 75.7522 65.9463 76.1445C65.825 76.5569 65.4925 76.8744 65.0918 77.0518C64.4238 77.3482 63.1615 76.6976 62.5215 76.4531C61.3071 77.0972 60.0861 77.5735 58.7871 78.041C59.0974 78.3133 59.3832 78.5779 59.5684 78.9473C59.7788 79.3665 59.7247 79.7941 59.5762 80.2178C59.3854 80.4159 59.214 80.5813 58.9502 80.6895C57.2171 81.3979 56.143 80.4815 54.6094 79.918C54.1322 79.7427 53.882 79.6865 53.4062 79.8603C53.1007 80.3036 52.8427 80.6591 52.4033 80.9971C51.5938 81.1459 50.9839 80.8473 50.25 80.5654C49.8525 80.6818 49.6823 80.7288 49.373 81.0156C49.0103 81.352 49.2608 81.1715 48.8662 81.4482C48.2264 81.8963 46.7915 81.5036 46.0479 81.3887C46.7223 82.0995 47.4354 82.5282 48.2217 83.1006C48.72 83.4634 48.9196 83.7852 49.0146 84.3701C48.7841 84.6919 48.6769 84.8949 48.2393 84.9775C46.5782 85.2897 43.7122 82.1586 42.3564 81.2969C40.7022 80.2458 37.8204 80.3398 35.8906 79.7607C31.558 78.4608 27.0888 76.2582 23.3613 73.7979C12.9493 66.9252 4.62033 56.9282 1.94824 44.9053C1.0646 40.9293 1.01235 36.8953 0.243162 32.9238C0.174344 32.3668 0.162331 31.9335 0.554685 31.4814C2.03638 29.7763 -0.106695 29.9879 0.00488033 28.1846ZM64.6045 29.918C67.0819 32.5046 69.8318 34.8515 72.3867 37.3682C74.5818 39.5303 76.5947 41.8845 78.8848 43.9531C79.3357 44.3607 80.201 45.2536 80.8145 45.3018C80.8441 45.3039 80.8743 45.2973 80.9043 45.2949L80.915 42.1914C78.0945 40.5058 66.2415 30.2802 64.6045 29.918ZM58.3125 33.3965C63.1035 37.5864 67.9553 41.5267 72.332 46.1455C74.0336 47.9411 77.8979 52.7921 79.9619 53.7412C80.2512 53.5603 80.1744 53.6816 80.2393 53.4062C80.5259 52.2217 80.7113 51.0632 80.7773 49.8467C77.8833 48.0589 75.0722 46.1563 72.3457 44.1406C70.3488 42.6715 59.5403 33.383 58.3125 33.3965ZM66.1572 19.6328C68.5196 23.0104 71.0406 26.2766 73.7187 29.4297C75.694 31.724 77.8108 33.9096 79.6504 36.3086C79.3053 35.0007 78.9104 33.7523 78.4092 32.4912C76.4006 28.0675 73.3402 25.1903 69.9287 21.7373C68.9917 20.7892 68.0274 19.523 66.9512 18.7412C67.1798 19.0687 68.1848 20.2697 68.1826 20.5723C67.6481 20.155 67.0302 19.4127 66.3809 19.2764C66.1636 19.5786 66.2105 19.4488 66.1572 19.6328ZM53.999 38.1738C55.785 39.5817 57.5897 40.9781 59.2588 42.5146C61.6156 44.6844 76.3827 59.3316 77.5879 59.832C77.9517 59.5868 77.7973 59.7392 78.0439 59.3652L78.9141 57.3545C76.3669 55.8012 74.0096 54.1165 71.6816 52.2744C69.1571 50.2767 55.8394 38.3824 53.999 38.1738ZM44.1289 38.7783C46.0522 40.3743 47.9977 41.9559 49.874 43.6025C53.1535 46.4813 73.0653 64.6899 74.3877 65.0352C74.7531 64.8693 74.9612 64.6877 75.2412 64.4102L75.6875 63.7637C75.451 62.9693 73.1337 61.623 72.3486 61.0527C69.5705 59.0305 66.8697 56.9178 64.2451 54.7148C61.2673 52.2357 46.9656 39.7565 44.5684 38.8145C44.4281 38.7597 44.2749 38.7508 44.1289 38.7783ZM36.4307 40.0928C38.5237 42.714 42.8436 46.2316 45.4766 48.6504C52.4871 55.091 61.8567 64.4815 69.7764 69.46C70.0964 69.3757 70.3517 69.283 70.6416 69.1279C70.3293 68.2738 64.2546 64.2531 63.042 63.3555C60.4362 61.4267 57.9868 59.1559 55.5693 57.0127C51.4621 53.3451 47.3763 49.6544 43.3125 45.9424C41.9323 44.6868 38.1221 40.8032 36.7764 40.1494C36.5964 40.062 36.6242 40.0838 36.4307 40.0928ZM34.6396 48.1719C35.3029 49.0599 36.1251 49.8188 36.916 50.6016C36.7107 50.8483 36.3215 51.1607 36.3613 51.4834C36.5188 52.7566 38.2136 53.4612 38.8926 54.4893C39.4295 54.9615 39.9716 55.4291 40.5186 55.8906C41.6564 57.2955 42.6393 58.2703 44.2021 59.2324C44.4075 59.4078 44.6089 59.554 44.8457 59.6885C47.4664 61.1777 49.52 63.6148 51.8477 65.5146C55.4427 68.3985 59.2165 71.0497 63.167 73.4678C63.8809 72.8895 64.6527 72.439 65.4473 71.9736C56.5735 67.6021 49.1121 60.567 41.7881 54.1826C39.9 52.5374 36.7011 49.2055 34.6396 48.1719ZM42.9072 63.9785C47.1144 68.456 51.568 72.6115 56.5049 76.3574L58.8867 75.6396C58.7633 75.166 57.8878 74.8241 57.4482 74.5693C54.085 72.6216 50.9784 70.5262 47.9844 68.0879C46.3521 66.7584 44.7465 64.9893 42.9453 63.9131L42.9072 63.9785ZM37.793 3.79687C39.9185 5.42306 57.2557 17.5215 58.208 17.5176L58.1855 17.3623C55.964 15.3754 42.8105 5.72349 42.2607 4.46387L42.3643 3.88965C41.5908 3.32504 39.4204 3.39644 38.4736 3.51074C38.1326 3.55161 38.047 3.5652 37.793 3.79687ZM50.2402 4.76269C50.7282 5.33459 51.1774 6.00434 52.0137 6.05566C52.3556 6.07631 52.4687 5.95087 52.75 5.79492C52.0569 5.16362 51.3349 4.81158 50.3926 4.65527L50.2402 4.76269ZM29.7266 4.54199C32.2528 6.55971 51.5763 21.1227 52.3066 21.2812L52.1523 20.9912C48.5637 16.8557 41.5598 11.8586 37.1514 8.16992C35.5197 6.80454 34.1929 5.08792 32.5361 3.77246C31.7501 3.90796 30.4343 3.9641 29.7861 4.39062L29.7266 4.54199ZM21.6621 6.65332C23.378 7.53841 25.001 8.49951 26.5859 9.58496C28.9397 11.1973 49.507 26.4144 50.2656 26.3223L49.6914 25.7969C43.2752 20.4726 36.4772 15.5635 30.2998 9.98144C28.6421 8.48362 26.7675 6.9577 25.4258 5.18555C24.3907 5.54973 22.4467 5.97251 21.6621 6.65332ZM34.2666 69.9639C37.5549 72.922 40.7606 76.0674 44.2246 78.8301C45.5426 78.5554 46.8073 78.4346 48.1504 78.3506C47.7592 77.8408 36.0997 70.8481 34.4687 69.9102L34.2666 69.9639ZM17.3643 8.89258C20.4676 10.9499 23.315 13.505 26.2109 15.8281C30.1172 18.9617 34.1779 21.786 38.2969 24.6494C39.9613 25.8067 41.4977 27.1228 43.2432 28.1689L43.3271 28.0947C43.1062 27.8407 42.8907 27.5832 42.6504 27.3457C37.8965 23.3499 32.9224 19.611 28.2471 15.5264C25.2354 12.8948 22.4644 9.6123 19.1338 7.37598C18.4729 7.84807 17.8792 8.26461 17.3643 8.89258ZM13.1934 12.5186C15.7706 14.3789 29.7711 27.1693 31.5322 27.3525C31.3261 27.109 31.1295 26.8643 30.9004 26.6406C26.6281 22.922 22.4875 19.1487 18.5869 15.0645C17.2858 13.7023 15.8368 12.3145 14.7939 10.7568C14.2154 11.314 13.6116 11.8357 13.1934 12.5186ZM9.458 17.0215C10.7101 18.3228 12.0026 19.5869 13.334 20.8135C15.0736 22.396 29.4588 34.9981 30.4199 35.3018C30.3202 34.9385 30.2039 34.7914 29.9307 34.5244C25.935 30.8719 12.8377 19.2884 10.7705 15.3838L9.458 17.0215ZM23.8164 51.6172C24.0653 51.9834 24.2642 52.1602 24.6504 52.4004C24.7027 52.4328 25.0204 52.619 25.0713 52.6709C25.4762 53.0824 25.0041 53.2098 25.082 53.6982C25.5964 53.7174 25.9541 53.6105 26.4307 53.4512L26.6143 53.3887L26.6025 53.5801L26.6006 53.5801L26.2764 53.9805C26.3887 54.5245 26.9477 55.0161 27.4121 55.3184C27.9325 55.6573 28.4659 55.8824 29.0967 55.7666C29.1537 55.4006 29.0111 55.3088 28.7891 55.0117C28.5929 54.7497 28.3785 54.4976 28.1572 54.251L27.4863 53.5205C26.9755 52.6614 26.2055 51.6105 25.3486 51.0518C24.9132 50.7675 24.6863 50.7442 24.1826 50.8281C23.9173 51.1546 23.8684 51.211 23.8164 51.6172ZM8.61523 56.4102C13.7917 63.7945 19.8612 69.9595 28.0225 74.3613C28.3099 74.3218 28.2257 74.3849 28.335 74.2783C23.8303 70.6249 19.3815 66.9595 15.2187 62.9395C12.9892 60.7866 10.9877 58.4205 8.76074 56.2725L8.61523 56.4102ZM4.28613 30.3584C7.87858 34.6291 11.5633 38.7765 15.3193 42.9141C17.9558 45.8186 20.5408 48.7445 23.457 51.3984C23.8885 50.9552 24.4967 50.4779 24.5654 49.8545C24.3835 49.1613 23.6759 48.5721 23.1855 48.0479C19.0602 43.2016 15.0804 38.2466 11.2471 33.1846C9.21483 30.5481 7.07676 27.9847 5.31933 25.165C4.61293 26.7762 4.33062 28.6174 4.28613 30.3584ZM3.76953 34.1992C3.4081 34.7126 3.45319 35.5399 3.49121 36.1543C3.5443 37.3382 3.61535 38.5254 3.63867 39.71C4.22907 39.4422 4.47541 39.2464 5.13379 39.3203C6.24757 40.1216 7.14685 41.1957 8.11426 42.1533C9.91337 43.9025 11.6867 45.6764 13.4355 47.4717C14.0174 48.071 14.5772 48.8467 15.2031 49.3789C15.4639 49.6007 15.7672 49.6589 16.0977 49.7207C16.1299 50.263 16.0703 50.3282 16.458 50.7109C16.8467 50.8193 17.2256 50.9113 17.6201 50.998C17.9493 51.0706 18.0527 51.1485 18.2832 51.3721L18.2168 51.6318L17.6064 51.9521C17.6247 52.3352 17.8391 52.6021 18.1611 52.8447C18.6309 53.1985 19.2768 53.184 19.8467 53.2187L20.2158 53.4893C20.005 53.8468 20.1442 53.6887 19.7842 53.9561C20.4585 55.0016 22.2291 56.4872 23.2881 57.208C23.7094 57.0335 23.7137 56.9575 23.9482 56.5703L23.9189 56.2783L23.0977 56.5225L22.9668 56.3848C23.0901 56.1704 23.2063 55.9952 23.3555 55.7998L23.3506 55.7344L22.8174 55.4648C22.8127 55.139 22.7796 55.2943 22.9082 54.9971C22.3433 54.7582 21.7355 55.0698 21.2119 54.874C21.6234 54.7157 22.0235 54.5508 22.4229 54.3652L22.4209 54.1406L22.0732 53.915C21.7552 53.9963 21.0057 54.3124 20.7168 54.2305C20.9826 53.9324 21.2262 53.7966 21.5859 53.6152L21.3926 53.5703L21.7051 53.5264C20.9959 52.308 18.4489 50.0657 17.3535 48.8945C14.8688 46.2469 12.3985 43.5859 9.94433 40.9121C8.41491 39.2172 5.55723 35.2974 3.76953 34.1992ZM6.40136 22.583C10.2485 25.6713 13.6446 29.5265 17.1309 32.9941C18.2932 34.1502 19.4425 35.456 20.7412 36.4619L20.373 35.791C17.8062 33.0259 15.1885 30.3125 12.6826 27.4951C10.9118 25.5039 9.24576 23.251 7.26074 21.4639L6.93457 21.457C6.57659 21.8313 6.52289 22.1035 6.40136 22.583ZM4.1123 42.2441C3.8883 42.583 3.96967 42.6206 4.01953 43.002C4.12957 43.6229 4.2198 44.2536 4.35351 44.8701C7.16824 47.1336 9.48221 49.692 11.9238 52.3066C13.436 53.9261 15.0092 55.7291 16.8281 57.0342L17.0137 57.0098L16.5977 56.4453C13.5332 53.9404 9.74286 49.3334 7.23047 46.2227C6.3401 45.1203 5.24835 43.0288 4.1123 42.2441Z" fill="#54E6ED"/>
<path d="M29.4344 28.8001H29.1844C28.751 30.0001 28.2677 31.3668 27.7344 32.9001C27.2344 34.4335 26.701 36.0335 26.1344 37.7001C25.5677 39.3335 25.0344 40.9168 24.5344 42.4501L23.8344 45.5501C23.6344 46.1835 23.4177 46.8835 23.1844 47.6501C22.9844 48.4168 22.751 49.2001 22.4844 50.0001C22.251 50.7668 22.0177 51.5001 21.7844 52.2001C21.5844 52.9001 21.401 53.5168 21.2344 54.0501C20.901 54.1501 20.5344 54.2335 20.1344 54.3001C19.7677 54.4001 19.3177 54.4501 18.7844 54.4501C17.7177 54.4501 16.8677 54.2501 16.2344 53.8501C15.6344 53.4168 15.3344 52.7835 15.3344 51.9501C15.3344 51.5835 15.3844 51.2001 15.4844 50.8001C15.6177 50.4001 15.751 49.9501 15.8844 49.4501C16.2177 48.3501 16.6677 46.9835 17.2344 45.3501C17.801 43.6835 18.4177 41.8835 19.0844 39.9501C19.751 38.0168 20.4344 36.0668 21.1344 34.1001C21.8677 32.1335 22.551 30.3001 23.1844 28.6001C23.8177 26.8668 24.3677 25.4168 24.8344 24.2501C25.2344 24.0168 25.851 23.8001 26.6844 23.6001C27.5177 23.4001 28.3677 23.3001 29.2344 23.3001C30.3677 23.3001 31.401 23.4668 32.3344 23.8001C33.301 24.1335 33.901 24.6668 34.1344 25.4001C34.8344 27.2335 35.5844 29.3335 36.3844 31.7001C37.1844 34.0668 38.001 36.5335 38.8344 39.1001C39.6677 41.6668 40.4677 44.1668 41.2344 46.6001C42.001 49.0335 42.6844 51.2335 43.2844 53.2001C42.951 53.5668 42.4844 53.8668 41.8844 54.1001C41.3177 54.3335 40.651 54.4501 39.8844 54.4501C38.7844 54.4501 37.9844 54.2501 37.4844 53.8501C37.0177 53.4168 36.651 52.7668 36.3844 51.9001L34.3344 45.3501L33.6844 42.1501C33.151 40.4501 32.6177 38.7835 32.0844 37.1501C31.5844 35.4835 31.101 33.9335 30.6344 32.5001C30.1677 31.0668 29.7677 29.8335 29.4344 28.8001ZM21.0344 46.7501L23.3844 41.8001H35.8844L36.8344 46.7501H21.0344ZM57.4414 50.0501C58.4414 50.0501 59.3414 49.9501 60.1414 49.7501C60.9414 49.5501 61.5247 49.3335 61.8914 49.1001V43.4001L56.9414 43.9001C55.5747 44.0001 54.5247 44.3001 53.7914 44.8001C53.0914 45.2668 52.7414 45.9668 52.7414 46.9001C52.7414 47.8668 53.1247 48.6335 53.8914 49.2001C54.6581 49.7668 55.8414 50.0501 57.4414 50.0501ZM57.1914 29.6501C60.4581 29.6501 63.0581 30.3501 64.9914 31.7501C66.9247 33.1168 67.8914 35.2835 67.8914 38.2501V49.7501C67.8914 50.5501 67.6914 51.1835 67.2914 51.6501C66.9247 52.1168 66.4414 52.5335 65.8414 52.9001C64.9081 53.4335 63.7247 53.8668 62.2914 54.2001C60.8581 54.5668 59.2414 54.7501 57.4414 54.7501C54.1081 54.7501 51.4914 54.1168 49.5914 52.8501C47.6914 51.5501 46.7414 49.6335 46.7414 47.1001C46.7414 44.8668 47.4414 43.1668 48.8414 42.0001C50.2747 40.8001 52.3414 40.0668 55.0414 39.8001L61.8414 39.1001V38.2001C61.8414 36.8668 61.3747 35.9001 60.4414 35.3001C59.5414 34.7001 58.2581 34.4001 56.5914 34.4001C55.2914 34.4001 54.0247 34.5668 52.7914 34.9001C51.5581 35.2335 50.4581 35.6335 49.4914 36.1001C49.1581 35.8335 48.8581 35.4668 48.5914 35.0001C48.3247 34.5335 48.1914 34.0501 48.1914 33.5501C48.1914 32.3501 48.8581 31.4668 50.1914 30.9001C51.1247 30.4668 52.2081 30.1501 53.4414 29.9501C54.7081 29.7501 55.9581 29.6501 57.1914 29.6501Z" fill="#203B53"/>
<path d="M45 5.00012C45 2.2387 47.2386 0.00012207 50 0.00012207H80C82.7614 0.00012207 85 2.2387 85 5.00012V17.0001C85 19.7615 82.7614 22.0001 80 22.0001H64.8278C63.9577 22.0001 63.1026 22.2272 62.3471 22.6589L54.4961 27.1452C53.8295 27.5261 53 27.0448 53 26.2769V23.0001C53 22.4478 52.5523 22.0001 52 22.0001H50C47.2386 22.0001 45 19.7615 45 17.0001V5.00012Z" fill="#30A0A6"/>
<circle cx="65" cy="11.0001" r="2" fill="white"/>
<circle cx="56" cy="11.0001" r="2" fill="white"/>
<circle cx="74" cy="11.0001" r="2" fill="white"/>
</svg>
