<svg width="24" height="24" viewBox="0 0 24 24" fill="none" xmlns="http://www.w3.org/2000/svg">
<path d="M10.7607 2.45792C11.4506 1.86802 12.5805 1.86821 13.2705 2.45792L14.8506 3.8085C15.1506 4.0585 15.7211 4.26846 16.1211 4.26846H17.8213C18.8811 4.26867 19.751 5.13827 19.751 6.19815V7.89835C19.7511 8.29833 19.961 8.85817 20.2109 9.15811L21.5605 10.7382C22.1505 11.4381 22.1509 12.5679 21.541 13.248L20.1914 14.828C19.9415 15.128 19.7306 15.6878 19.7305 16.0878V17.788C19.7305 18.848 18.8608 19.7177 17.8008 19.7177H16.1006C15.7007 19.7178 15.1408 19.9278 14.8408 20.1776L13.2607 21.5282C12.5708 22.1181 11.4409 22.1181 10.751 21.5282L9.1709 20.1776C8.87089 19.9278 8.30102 19.7178 7.91113 19.7177H6.1709C5.11091 19.7177 4.24121 18.848 4.24121 17.788V16.078C4.24118 15.688 4.041 15.118 3.79102 14.828L2.44141 13.2382C1.86141 12.5582 1.86141 11.4382 2.44141 10.7382L3.79102 9.14835C4.04097 8.8484 4.24114 8.28834 4.24121 7.89835V6.19815C4.24121 5.13816 5.11091 4.26847 6.1709 4.26846H7.90137C8.30131 4.26831 8.86123 4.05839 9.16113 3.8085L10.7607 2.45792ZM9.66699 9.48233C9.33421 9.48234 9.00566 9.51282 8.68164 9.57413C8.36638 9.63544 8.08603 9.72297 7.84082 9.83682C7.54306 9.97696 7.39457 10.1835 7.39453 10.455C7.39459 10.5687 7.42512 10.6781 7.48633 10.7831C7.54761 10.8794 7.61751 10.9631 7.69629 11.0331C7.95029 10.9105 8.2394 10.8004 8.56348 10.704C8.89615 10.6077 9.23771 10.5595 9.58789 10.5595C10.0256 10.5595 10.372 10.6472 10.626 10.8222C10.88 10.9974 11.0068 11.2825 11.0068 11.6767V11.9784L9.16797 12.163C8.4763 12.2243 7.94203 12.4123 7.56543 12.7274C7.18886 13.034 7.00007 13.4766 7 14.0546C7 14.694 7.23703 15.1807 7.70996 15.5136C8.19157 15.8374 8.85697 15.9998 9.70605 15.9999C10.1615 15.9999 10.5696 15.9517 10.9287 15.8554C11.2965 15.7678 11.5946 15.6576 11.8223 15.5263C11.9796 15.4388 12.102 15.3382 12.1895 15.2245C12.277 15.1106 12.3213 14.9523 12.3213 14.7509V11.6894C12.3212 10.9277 12.0801 10.3717 11.5986 10.0214C11.1257 9.66229 10.4815 9.48233 9.66699 9.48233ZM14.6562 9.61417C14.5249 9.61417 14.4019 9.62793 14.2881 9.65421C14.1743 9.67172 14.0867 9.68943 14.0254 9.70694V15.2773C14.0254 15.4961 14.0865 15.6545 14.209 15.7509C14.3315 15.8472 14.5157 15.8954 14.7607 15.8954C14.8921 15.8954 15.0111 15.8816 15.1162 15.8554C15.2299 15.8291 15.3177 15.8074 15.3789 15.7899V10.2323C15.3789 10.0046 15.3169 9.84628 15.1943 9.7587C15.0805 9.66267 14.901 9.61419 14.6562 9.61417ZM11.0068 14.6591C10.9017 14.7204 10.7354 14.7863 10.5078 14.8564C10.2889 14.9176 10.0213 14.9482 9.70605 14.9482C9.2421 14.9481 8.89659 14.8645 8.66895 14.6982C8.44131 14.5318 8.32719 14.3045 8.32715 14.0155C8.32717 13.7354 8.42758 13.5248 8.62891 13.3847C8.83911 13.2358 9.14594 13.1433 9.54883 13.1083L11.0068 12.9638V14.6591ZM14.6953 6.99991C14.4677 6.99995 14.2748 7.07468 14.1172 7.22354C13.9598 7.37234 13.8809 7.56052 13.8809 7.78799C13.8809 8.00695 13.9596 8.19577 14.1172 8.35342C14.2748 8.50229 14.4677 8.57701 14.6953 8.57706C14.9406 8.57706 15.1382 8.50234 15.2871 8.35342C15.4359 8.19578 15.5098 8.00692 15.5098 7.78799C15.5097 7.56059 15.4357 7.37232 15.2871 7.22354C15.1382 7.07468 14.9405 6.99991 14.6953 6.99991Z" fill="#30A0A6"/>
</svg>
