<svg width="253" height="280" viewBox="0 0 253 280" fill="none" xmlns="http://www.w3.org/2000/svg">
<path d="M28.2402 69.6406C33.924 60.4626 40.095 51.9477 48.0999 44.6197C56.3727 37.0465 65.8616 31.7485 75.6441 26.4211C75.6898 26.3962 75.677 26.3071 75.6173 26.3237C64.9727 29.2259 55.27 36.139 47.2566 43.5403C39.4429 50.7576 32.165 59.643 28.1527 69.5901C28.1316 69.642 28.2088 69.6913 28.2402 69.6406Z" fill="#686868"/>
<path d="M80.4082 24.1041C83.6155 22.8181 86.7141 21.3048 90.0214 20.2797C93.5517 19.1856 97.1528 18.2553 100.762 17.4738C104.039 16.7634 107.354 16.1783 110.697 15.8957C113.916 15.6237 117.149 15.6091 120.362 15.3165C120.43 15.3104 120.426 15.2065 120.362 15.1953C113.787 14.014 106.472 14.9994 99.9901 16.2615C96.5426 16.9332 93.178 17.9087 89.9198 19.2397C86.651 20.5749 83.2715 21.9571 80.3632 24.0256C80.3209 24.0555 80.3627 24.1223 80.4082 24.1041Z" fill="#686868"/>
<path d="M178.863 28.9696C186.362 33.1464 193.514 37.8537 199.839 43.6835C205.964 49.3288 211.367 55.8739 215.963 62.8158C216.071 62.9797 216.343 62.8178 216.259 62.6409C212.618 55.0066 207.066 48.5339 200.87 42.8305C194.512 36.9785 187.21 31.5433 178.93 28.809C178.822 28.774 178.767 28.916 178.863 28.9696Z" fill="#686868"/>
<path d="M167.966 27.9445C148.764 19.5659 130.897 17.7048 115.309 19.1871C127.342 30.0324 150.974 55.5586 159.569 94.8906C176.374 95.6735 185.264 106.985 185.264 106.985C185.264 106.985 189.171 112.594 189.764 116.389C189.764 116.389 195.017 99.2881 214.522 101.013C227.012 102.118 232.217 112.529 234.345 119.874C233.692 112.44 226.72 53.5822 167.966 27.9445Z" fill="#54E6ED"/>
<path d="M92.0349 25.3194C91.6692 25.5817 91.3017 25.8423 90.9326 26.0995C89.7633 26.9144 88.5818 27.72 87.3886 28.5003C86.5713 29.0349 85.7282 29.5667 84.843 30.0009C83.7472 31.3314 82.6309 32.6537 81.3982 33.8483C102.746 27.781 134.141 23.7973 163.446 38.7797C185.951 50.2852 198.354 70.7923 204.128 90.1953C204.206 90.458 204.259 90.9802 203.858 91.1335C201.582 92.0012 199.303 93.9009 197.515 97.7485C204.322 94.6358 212.741 93.7446 218.992 95.5384C221.76 96.3326 224.069 97.6674 225.929 99.0783C219.137 79.2878 208.154 59.6558 190.46 45.6414C151.593 14.8558 110.317 20.5279 92.0349 25.3194Z" fill="#EFF3F4"/>
<path d="M99.9159 21.8119C92.0405 35.2656 79.3739 64.4772 87.2524 104.071C110.526 99.7608 121.804 116.61 121.804 116.61L123.48 118.717C123.48 118.717 129.694 98.5064 151.627 95.3002C154.444 94.8883 157.092 94.7758 159.568 94.8911C150.973 55.559 127.341 30.0325 115.308 19.1875C109.889 19.703 104.744 20.6215 99.9159 21.8119Z" fill="#54E6ED"/>
<path d="M99.9161 21.8118C72.6443 28.5357 55.4281 43.9029 55.4281 43.9029C55.4276 43.885 55.4276 43.8675 55.4271 43.8496C47.5961 50.4802 8.86444 86.4803 16.9623 143.68C17.6332 139.572 20.0731 132.283 28.7505 126.519C41.5691 118.004 54.6446 129.318 54.6446 129.318L58.8411 134.081C58.8411 134.081 58.9699 111.131 84.2664 104.725C85.283 104.468 86.2782 104.251 87.2526 104.07C79.374 64.4767 92.0406 35.265 99.9161 21.8118Z" fill="#54E6ED"/>
<path d="M105.301 29.474C103.677 38.827 100.68 61.4976 103.132 91.3563C103.132 91.3563 87.985 90.347 80.4913 100.322C80.4913 100.322 107.225 89.3218 122.362 110.097L110.572 22.5238C110.572 22.5238 110.26 16.7395 107.485 20.1587C106.419 21.4719 105.536 28.1167 105.301 29.474Z" fill="#EFF3F4"/>
<path d="M90.0012 24.5977C81.0557 27.7233 66.6182 33.87 55.4299 43.9021C37.9477 59.5774 25.9102 77.8801 21.7396 93.4958C17.569 109.111 12.7487 131.745 16.5466 143.523C16.5466 143.523 19.5987 131.96 28.9407 126.368C30.5453 125.407 32.3355 124.623 34.328 124.104C47.9187 120.562 57.4868 132.251 57.4868 132.251C57.4868 132.251 55.8566 121.589 55.6771 106.236C55.4976 90.8834 58.9468 77.6755 58.9468 77.6755C58.9468 77.6755 61.4765 65.0069 68.3359 52.0601C75.1953 39.1133 86.1318 29.8929 86.1318 29.8929C86.1318 29.8929 94.7694 23.9031 98.3273 22.0376C98.3272 22.0368 95.0331 22.8394 90.0012 24.5977Z" fill="#8FAA28"/>
<path d="M186.958 96.0773C186.958 96.0773 186.469 90.4583 180.28 75.1054C174.09 59.7525 163.773 46.3112 163.773 46.3112C163.773 46.3112 156.617 35.4205 141.29 26.1756C130.59 19.7217 119.644 19.0536 114.01 19.238C111.573 19.3178 110.129 19.5573 110.129 19.5573L123.475 117.388C128.222 103.643 138.541 98.0858 147.654 95.9613C156.722 93.8471 164.595 95.1316 164.595 95.1316C184.288 98.4925 190.172 115.46 190.172 115.46L186.958 96.0773Z" fill="#8FAA28"/>
<path d="M110.129 19.5572L123.475 117.388C128.222 103.643 138.541 98.0858 147.654 95.9613C138.052 47.553 122.391 27.0881 114.01 19.2379C111.573 19.3181 110.129 19.5572 110.129 19.5572Z" fill="#8FAA28"/>
<path d="M110.129 19.5573L122.212 108.905C123.86 104.062 130.449 99.8147 130.449 99.8147L133.191 98.0692C128.723 97.4601 125.594 99.1437 125.594 99.1437L113.84 26.5822C113.84 26.5822 113.86 26.5763 113.899 26.5656L110.261 19.5365C110.174 19.5497 110.129 19.5573 110.129 19.5573Z" fill="#B8D05A"/>
<path d="M182.845 81.6895C179.408 70.6756 172.379 57.9233 165.028 47.6038C157.678 37.2846 147.148 29.8784 147.148 29.8784C147.148 29.8784 136.026 22.5015 126.86 20.3831C118.398 18.4274 111.298 19.3797 110.258 19.5374L113.897 26.5665C114.337 26.447 117.179 25.7144 120.672 25.7617C124.225 25.8098 128.737 27.06 128.737 27.06C157.09 36.1969 170.45 87.5607 170.45 87.5607C163.567 87.1099 160.72 91.1081 160.72 91.1081C182.278 92.5804 188.825 105.502 188.825 105.502C188.825 105.502 186.283 92.7035 182.845 81.6895Z" fill="#B8D05A"/>
<path d="M214.519 101.014C195.015 99.2889 189.762 116.39 189.762 116.39C189.169 112.595 185.262 106.986 185.262 106.986C185.262 106.986 173.56 92.0946 151.626 95.3005C129.692 98.5064 123.479 118.717 123.479 118.717L121.803 116.61C121.803 116.61 109.561 98.32 84.2649 104.726C58.9688 111.132 58.8396 134.081 58.8396 134.081L54.6431 129.319C54.6431 129.319 41.5676 118.004 28.749 126.519C20.072 132.283 17.6317 139.572 16.9608 143.68C16.9777 143.799 16.9929 143.918 17.0102 144.037C17.0102 144.037 28.0862 143.307 35.9278 150.853C43.7692 158.399 47.5716 166.11 47.5716 166.11C47.5716 166.11 54.3307 153.2 69.6663 153.293C85.0019 153.387 94.9835 163.58 94.9835 163.58C94.9835 163.58 106.564 148.633 124.216 147.655C141.867 146.678 153.584 158.956 153.584 158.956C153.584 158.956 164.304 148.844 180.45 146.121C196.596 143.398 203.028 151.366 203.028 151.366C203.028 151.366 206.241 143.88 212.342 137.552L234.402 120.653C234.402 120.653 234.387 120.385 234.342 119.876C232.214 112.529 227.01 102.118 214.519 101.014Z" fill="white"/>
<path d="M18.6116 138.264C18.6116 138.264 18.0908 124.785 20.9384 109.02C24.868 87.2648 35.0428 59.32 60.3259 39.8723C60.3259 39.8723 33.3584 60.4716 24.8494 85.5052C16.3404 110.539 16.1592 120.115 16.1592 120.115C16.1592 120.115 15.5244 133.864 16.4669 142.94L18.6116 138.264Z" fill="#54E6ED"/>
<path d="M201.775 102.846C201.775 102.846 205.2 118.574 205.325 126.71C205.449 134.846 204.105 149.204 204.105 149.204C204.105 149.204 210.676 137.469 219.452 131.492C228.227 125.514 233.767 121.237 233.767 121.237C233.767 121.237 234.268 109.512 222.057 103.284C209.845 97.0564 201.775 102.846 201.775 102.846Z" fill="#54E6ED"/>
<path d="M85.6759 104.011C85.6759 104.011 86.235 123.367 88.7988 137.531C91.3626 151.696 95.0318 162.823 95.0318 162.823C95.0318 162.823 103.107 152.726 113.501 149.913C123.896 147.101 136.173 148.203 142.974 152.049C149.774 155.895 153.52 158.47 153.52 158.47C153.52 158.47 155.545 137.239 153.979 118.753C152.413 100.266 151.177 95.7787 151.177 95.7787C151.177 95.7787 133.25 96.5121 123.48 118.716C123.48 118.716 113.024 100.561 85.6759 104.011Z" fill="#54E6ED"/>
<path d="M17.7456 143.953C17.7456 143.953 27.4615 144.345 35.6122 150.896C43.7627 157.447 46.0366 163.291 46.0366 163.291C46.0366 163.291 43.5597 151.262 42.3371 140.564C41.1147 129.867 41.3027 123.893 41.3027 123.893C41.3027 123.893 33.1505 122.731 24.0336 130.332C14.9167 137.933 17.121 144.832 17.121 144.832L17.7456 143.953Z" fill="#B8D05A"/>
<path d="M88.5068 135.849C88.5068 135.849 98.4847 127.741 118.811 125.103C139.138 122.465 154.709 131.117 154.709 131.117C154.709 131.117 154.409 122.079 153.259 111.568C152.109 101.057 151.362 95.6138 151.362 95.6138C151.362 95.6138 144.179 96.0643 135.255 102.143C126.33 108.222 123.081 118.095 123.081 118.095C123.081 118.095 114.594 105.477 103.222 104.685C91.8511 103.893 85.7953 104.874 85.7953 104.874C85.7953 104.874 85.5967 112.102 86.6513 121.11C87.7063 130.118 88.5068 135.849 88.5068 135.849Z" fill="#30A0A6"/>
<path d="M205.434 128.044C205.434 128.044 209.933 122.265 218.938 117.583C227.943 112.901 232.884 113.587 232.884 113.587C232.884 113.587 225.993 102.877 218.307 101.695C210.621 100.514 209.738 100.333 206.982 100.801C204.226 101.27 201.776 102.847 201.776 102.847C201.776 102.847 205.581 117.71 205.434 128.044Z" fill="#30A0A6"/>
<path d="M42.3633 140.883C42.3633 140.883 28.8505 132.241 20.3086 135.272C20.3086 135.272 24.7915 127.844 31.3045 125.557C37.8176 123.269 41.3017 123.893 41.3017 123.893L42.3633 140.883Z" fill="#8FAA28"/>
<path d="M80.6175 28.1051C80.6175 28.1051 69.5705 37.149 61.7159 49.4323C52.8182 63.3469 42.6485 84.2668 39.7456 110.208C39.7456 110.208 28.584 111.522 24.9662 122.993C24.9662 122.993 40.8952 111.122 56.8721 125.465C56.8721 125.465 53.1078 96.6339 59.8805 73.825C65.2668 55.6858 71.3904 46.6125 71.3904 46.6125C71.3904 46.6125 78.4754 34.9345 85.4698 30.1994C92.4642 25.4643 97.7967 21.7564 97.7967 21.7564L80.6175 28.1051Z" fill="#B8D05A"/>
<path d="M42.4097 141.121C42.4097 141.121 47.4454 134.512 63.319 130.58C79.1925 126.649 88.4409 135.45 88.4409 135.45C88.4409 135.45 86.2154 119.121 85.9397 113.474C85.6638 107.826 85.6898 104.412 85.6898 104.412C85.6898 104.412 73.018 107.594 66.9448 114.741C60.8716 121.888 59.2805 130.654 59.2805 130.654L57.4186 131.799C57.4186 131.799 53.4019 127.148 47.8675 125.227C42.3331 123.307 41.2998 123.891 41.2998 123.891L42.4097 141.121Z" fill="#BCC9CA"/>
<path d="M155.122 130.94C155.122 130.94 166.925 122.141 183.938 121.429C200.952 120.717 205.332 128.302 205.332 128.302C205.332 128.302 205.364 121.312 203.985 113.918C202.607 106.524 201.775 102.847 201.775 102.847C201.775 102.847 198.678 104.294 193.979 109.585C189.279 114.876 189.639 115.532 189.639 115.532C189.639 115.532 186.968 104.453 174.513 98.8266C162.058 93.2005 153.883 95.3211 153.883 95.3211L151.178 95.7791C151.178 95.7791 155.225 113.724 155.122 130.94Z" fill="#BCC9CA"/>
<path d="M57.4247 127.631C54.3693 105.019 56.5936 82.209 63.6875 63.4012C70.6643 44.9044 82.0316 30.9925 95.6957 24.2288C100.191 22.0035 104.94 20.5415 109.812 19.8833C127.338 17.5151 145.214 25.5461 160.148 42.4966C175.127 59.4987 185.343 83.423 188.916 109.863C189.141 111.529 189.338 113.192 189.507 114.852C189.752 114.297 189.998 113.743 190.246 113.189C190.117 112.041 189.976 110.891 189.82 109.741C188.003 96.2917 184.484 83.4815 179.361 71.6653C176.898 65.9841 174.067 60.5655 170.946 55.5601C167.855 50.6001 164.452 46.0017 160.832 41.8938C157.21 37.7828 153.341 34.1276 149.333 31.0309C145.282 27.9013 141.053 25.3135 136.763 23.3402C132.388 21.3279 127.905 19.9338 123.438 19.1967C118.851 18.44 114.226 18.3668 109.689 18.9798C104.72 19.6513 99.8753 21.1425 95.2906 23.4118C88.2823 26.8811 81.9011 32.124 76.3252 38.9955C70.8614 45.728 66.3224 53.8313 62.8336 63.08C59.318 72.4009 56.9766 82.6055 55.8738 93.4104C54.7334 104.586 54.951 116.141 56.5201 127.753C56.7182 129.22 56.9378 130.678 57.1763 132.128C57.345 132.438 57.518 132.747 57.6954 133.053C57.9479 133.473 58.209 133.888 58.4759 134.299C58.0795 132.096 57.7276 129.872 57.4247 127.631Z" fill="#203B53"/>
<path d="M123.476 117.388C123.569 117.372 123.661 117.363 123.753 117.363L110.667 19.7285L109.763 19.8507L122.865 117.602C123.054 117.501 123.26 117.428 123.476 117.388Z" fill="#203B53"/>
<path d="M45.9217 165.037C46.1797 164.946 46.4608 164.906 46.6925 164.962C46.7448 164.974 46.7973 164.987 46.8494 165.001C46.538 163.654 46.1915 162.076 45.8305 160.296C44.6705 154.574 43.1231 145.537 42.3396 134.981C42.0811 131.496 41.8982 127.716 41.848 123.723C41.5407 123.732 41.2342 123.748 40.928 123.773C40.9797 127.476 41.1471 131.245 41.4312 135.07C42.2191 145.673 43.7742 154.749 44.9399 160.497C45.287 162.203 45.6201 163.725 45.9217 165.037Z" fill="#203B53"/>
<path d="M202.153 102.796C201.868 102.941 201.579 103.078 201.285 103.202C203.507 111.712 204.497 119.225 204.838 125.423C205.35 134.742 204.482 142.144 203.665 146.712C203.412 148.122 203.149 149.356 202.901 150.4C203.008 150.481 203.105 150.572 203.192 150.675C203.355 150.868 203.497 151.073 203.627 151.284C203.92 150.109 204.243 148.649 204.554 146.918C205.383 142.305 206.264 134.832 205.752 125.427C205.345 117.967 204.138 110.388 202.153 102.796Z" fill="#203B53"/>
<path d="M94.6835 163.109C94.9831 162.987 95.3082 162.972 95.6171 163.042C95.0236 161.117 94.2835 158.6 93.4836 155.606C91.6998 148.93 89.2433 138.451 87.6702 126.437C86.7861 119.683 86.1332 112.021 86.0883 103.966C85.7762 103.999 85.4648 104.034 85.1533 104.071C85.2073 111.245 85.7459 118.768 86.7687 126.574C88.3493 138.637 90.8164 149.158 92.6075 155.859C93.3811 158.753 94.0986 161.204 94.6835 163.109Z" fill="#203B53"/>
<path d="M151.645 95.6234C151.345 95.7204 151.047 95.8219 150.751 95.929C152.509 105.876 153.429 115.205 153.882 123.116C154.535 134.518 154.311 144.247 154.008 150.401C153.845 153.692 153.644 156.339 153.481 158.181C153.757 158.163 154.043 158.209 154.275 158.306C154.312 158.321 154.347 158.337 154.381 158.355C154.546 156.501 154.752 153.814 154.918 150.463C155.223 144.288 155.449 134.525 154.794 123.084C154.251 113.589 153.194 104.39 151.645 95.6234Z" fill="#203B53"/>
<path d="M39.243 151.868C36.2743 148.942 32.7867 146.679 28.8779 145.142C22.2255 142.527 16.6986 142.922 16.4668 142.94L17.4825 145.445C17.5346 145.442 21.9479 144.93 28.1102 147.378C36.3236 150.64 42.2106 157.097 45.6079 166.57L46.1448 168.065C46.2516 168.362 46.6511 168.41 46.8253 168.147L47.4461 167.211L46.1538 161.739C44.3251 157.904 42.0103 154.596 39.243 151.868Z" fill="#203B53"/>
<path d="M79.5136 153.597C74.9082 152.205 70.3635 151.853 66.0073 152.55C63.01 153.03 60.0784 154.011 57.2935 155.466C55.0748 156.625 52.9445 158.086 50.9621 159.808C49.2431 161.301 47.9389 162.725 47.063 163.778C46.7752 163.082 46.4724 162.402 46.1554 161.738L47.4476 167.21L47.705 166.822C47.7219 166.797 49.4158 164.264 52.5751 161.535C55.46 159.043 60.2013 155.865 66.4084 154.878C75.1844 153.484 84.5891 156.703 94.3607 164.448L95.3182 165.207L95.3393 165.178L94.195 161.344C89.2388 157.65 84.3077 155.047 79.5136 153.597Z" fill="#7A7B7B"/>
<path d="M202.813 149.087C198.061 145.998 192.621 144.445 186.62 144.467C181.453 144.486 175.868 145.67 170.021 147.987C164.853 150.034 160.425 152.609 157.621 154.409C156.35 155.225 155.294 155.954 154.491 156.531L154.254 159.656C155.031 159.042 161.857 153.762 170.891 150.182C183.541 145.17 194.231 145.731 202.667 151.85L203.163 152.212L203.651 147.444C203.297 148.083 203.022 148.634 202.813 149.087Z" fill="#7A7B7B"/>
<path d="M233.493 120.774C227.296 124.44 221.805 128.268 217.173 132.152C213.451 135.274 210.268 138.442 207.715 141.568C205.774 143.944 204.488 145.941 203.652 147.445L203.163 152.213C203.582 152.519 204.178 152.315 204.322 151.817L204.492 151.228C204.502 151.196 205.495 147.972 209.688 142.886C213.569 138.178 221.059 130.872 234.695 122.806L233.493 120.774Z" fill="#203B53"/>
<path d="M153.44 157.303C142.61 148.943 131.71 145.426 121.031 146.849C121.011 146.852 120.99 146.854 120.97 146.857C117.159 147.372 113.379 148.528 109.738 150.293C106.819 151.708 103.982 153.514 101.305 155.663C98.1377 158.204 95.9646 160.601 94.8975 161.875C94.6622 161.695 94.4274 161.518 94.1921 161.343L95.3363 165.177L96.0408 164.223C96.0646 164.191 98.4603 160.972 102.783 157.504C106.755 154.316 113.186 150.291 121.287 149.197C121.305 149.194 121.325 149.192 121.344 149.189C131.603 147.821 142.154 151.366 152.703 159.723C153.136 160.066 153.749 160.064 154.179 159.716C154.183 159.713 154.209 159.692 154.253 159.657L154.49 156.531C154.069 156.833 153.718 157.094 153.44 157.303Z" fill="#203B53"/>
<path d="M109.892 20.7277L109.892 20.7276C110.006 20.7111 110.119 20.6958 110.233 20.6805C115.609 19.954 120.949 19.6473 126.221 19.7352C123.573 19.1375 119.745 18.4657 115.104 18.1971C113.39 18.3463 111.68 18.5357 109.974 18.7662C109.866 18.7808 109.757 18.7956 109.648 18.8107L109.647 18.8108C109.635 18.8124 109.623 18.8145 109.611 18.8161L109.847 20.7342C109.862 20.7321 109.877 20.7297 109.892 20.7277Z" fill="#203B53"/>
<path d="M109.848 20.7334L109.612 18.8153C108.261 19.0026 106.913 19.2155 105.57 19.453C102.752 20.7192 100.083 22.0166 97.9738 23.0751C101.842 22.0799 105.803 21.2948 109.848 20.7334Z" fill="#7A7B7B"/>
<path d="M55.5591 128.976C52.8988 126.636 49.934 124.916 46.7459 123.862C43.4337 122.768 40.0275 122.447 36.6224 122.907C33.217 123.367 30.019 124.581 27.1156 126.515C24.3214 128.376 21.9194 130.822 19.9756 133.784C18.7579 135.64 17.7585 137.641 16.988 139.762C12.4593 85.4468 47.1628 36.1474 97.9716 23.0764C100.081 22.0179 102.749 20.7206 105.568 19.4544C99.6559 20.5016 93.8385 22.0354 88.2217 24.0313C81.3932 26.4576 74.7775 29.5951 68.5595 33.3571C62.4547 37.0501 56.6708 41.3819 51.3681 46.2311C46.1169 51.034 41.2919 56.3863 37.0272 62.1404C32.7632 67.8932 29.0237 74.0953 25.9137 80.5728C22.7739 87.1129 20.2475 93.9919 18.4054 101.019C16.529 108.176 15.3426 115.561 14.88 122.968C14.4631 129.643 14.6301 136.409 15.3744 143.12C15.4431 143.741 15.5168 144.362 15.5956 144.982C15.612 145.113 15.6285 145.244 15.6461 145.374C16.2589 145.394 16.9196 145.419 17.4811 145.446C17.5034 145.314 17.5271 145.181 17.5515 145.049C17.6619 144.459 17.7884 143.875 17.9329 143.299C20.3613 133.583 27.5537 126.081 36.8815 124.821C44.9546 123.73 52.727 127.572 57.861 134.28C58.0545 134.533 58.2444 134.789 58.4301 135.05L57.926 131.319C57.1809 130.491 56.3918 129.708 55.5591 128.976Z" fill="#203B53"/>
<path d="M114.755 108.46C111.175 106.131 107.152 104.466 102.795 103.514C98.2916 102.53 93.6282 102.353 88.9318 102.987C84.2361 103.622 79.7862 105.031 75.7066 107.174C71.7587 109.249 68.3204 111.921 65.4873 115.117C62.6456 118.323 60.5553 121.896 59.2742 125.735C58.6489 127.61 58.2303 129.51 58.0199 131.423C57.9891 131.388 57.9572 131.354 57.9264 131.319L58.4305 135.05C58.9889 135.833 59.5125 136.652 59.998 137.505C59.8308 136.207 59.769 134.916 59.8056 133.638C60.2122 119.605 72.5702 107.148 89.1905 104.902C103.197 103.009 116.209 108.912 122.42 118.848C122.744 119.366 123.049 119.895 123.335 120.434L122.658 115.774C120.536 112.952 117.884 110.496 114.755 108.46Z" fill="#7A7B7B"/>
<path d="M189.939 113.583C189.229 111.799 188.323 110.083 187.224 108.444C184.971 105.083 182.007 102.193 178.416 99.8561C174.836 97.5271 170.812 95.8628 166.455 94.9104C161.953 93.9263 157.289 93.7492 152.593 94.3837C147.898 95.0182 143.448 96.4269 139.367 98.5707C135.42 100.645 131.982 103.318 129.149 106.513C126.472 109.534 124.461 112.879 123.167 116.466C123.002 116.232 122.833 116.001 122.661 115.772L123.338 120.432C123.512 120.76 123.678 121.091 123.837 121.426C124.008 120.459 124.235 119.504 124.516 118.564C127.867 107.336 138.846 98.1909 152.852 96.2983C169.465 94.0535 184.681 102.775 188.805 116.188C189.179 117.407 189.462 118.664 189.647 119.954C189.945 118.788 190.312 117.655 190.743 116.56L190.257 112.96C190.148 113.167 190.042 113.374 189.939 113.583Z" fill="#203B53"/>
<path d="M234.481 115.516C233.437 108.174 231.699 100.937 229.312 93.9928C226.901 86.9741 223.797 80.169 220.089 73.7668C216.447 67.4803 212.186 61.5185 207.422 56.0464C202.704 50.6262 197.454 45.6394 191.815 41.2246C186.177 36.8086 180.104 32.9289 173.766 29.692C167.367 26.4239 160.641 23.7826 153.775 21.8423C146.781 19.8658 139.57 18.5963 132.342 18.0694C126.629 17.6528 120.851 17.6967 115.104 18.1973C119.745 18.466 123.573 19.1377 126.221 19.7354C177.244 20.5871 221.954 58.4147 231.75 110.815C230.433 108.948 228.923 107.262 227.236 105.778C224.576 103.438 221.611 101.718 218.422 100.664C215.11 99.5705 211.704 99.2487 208.299 99.7089C204.894 100.169 201.696 101.383 198.792 103.317C195.998 105.179 193.596 107.624 191.652 110.586C191.149 111.354 190.683 112.147 190.255 112.962L190.742 116.562C190.777 116.472 190.812 116.382 190.848 116.293C194.021 108.472 200.491 102.713 208.558 101.623C218.473 100.283 227.399 105.743 232.078 115.456C232.887 117.134 233.049 120.344 233.295 122.249C233.391 122.986 232.561 123.672 231.693 124.631C232.059 124.674 235.275 123.512 235.282 123.378C235.309 122.835 235.242 122.246 235.189 121.643C235.031 119.868 234.832 118.096 234.594 116.329C234.557 116.058 234.52 115.786 234.481 115.516Z" fill="#7A7B7B"/>
<path d="M118.229 267.998L16.732 144.75C16.5123 144.483 16.1178 144.445 15.8512 144.665C15.5842 144.884 15.5463 145.279 15.7659 145.546L116.77 268.195C117.257 268.129 117.743 268.063 118.229 267.998Z" fill="#203B53"/>
<path d="M119.265 267.383L47.4589 167.033C47.258 166.752 46.8668 166.687 46.586 166.888C46.3048 167.089 46.2403 167.48 46.4412 167.761L117.862 267.573C118.329 267.509 118.797 267.446 119.265 267.383Z" fill="#203B53"/>
<path d="M120.648 267.198L59.175 133.628C59.0305 133.314 58.6587 133.177 58.3449 133.321C58.0311 133.466 57.8935 133.837 58.038 134.151L119.351 267.374C119.783 267.316 120.216 267.257 120.648 267.198Z" fill="#203B53"/>
<path d="M122.644 266.217L94.2476 163.879C94.155 163.546 94.3501 163.201 94.6834 163.109C95.0163 163.016 95.3612 163.211 95.4537 163.545L123.85 265.882C123.943 266.215 123.748 266.56 123.415 266.653C123.082 266.745 122.737 266.55 122.644 266.217Z" fill="#203B53"/>
<path d="M128.602 266.117L124.194 119.503C124.184 119.158 123.895 118.886 123.549 118.896C123.204 118.907 122.932 119.195 122.943 119.541L127.354 266.288C127.77 266.231 128.186 266.174 128.602 266.117Z" fill="#203B53"/>
<path d="M132.224 265.624L154.154 159.522C154.225 159.184 154.007 158.853 153.668 158.783C153.33 158.712 152.999 158.93 152.929 159.269L130.908 265.804C131.347 265.744 131.785 265.684 132.224 265.624Z" fill="#203B53"/>
<path d="M190.313 115.927C189.988 115.811 189.63 115.981 189.513 116.306L136.73 265.538C137.196 265.474 137.662 265.41 138.128 265.347L190.693 116.727C190.808 116.402 190.639 116.043 190.313 115.927Z" fill="#203B53"/>
<path d="M234.436 122.369C234.144 122.185 233.757 122.273 233.573 122.565L144.561 263.937C145.101 263.863 145.64 263.789 146.18 263.715L234.632 123.232C234.817 122.939 234.729 122.553 234.436 122.369Z" fill="#203B53"/>
<path d="M203.873 151.182C203.571 151.014 203.19 151.123 203.022 151.425L139.936 265.007C140.452 264.938 140.968 264.868 141.483 264.798L204.116 152.033C204.284 151.731 204.175 151.35 203.873 151.182Z" fill="#203B53"/>
</svg>
