<svg width="85" height="85" viewBox="0 0 85 85" fill="none" xmlns="http://www.w3.org/2000/svg">
<path d="M0.00390377 28.1846C0.40639 27.2738 1.12693 26.8129 2.03515 26.4053C2.74156 23.9003 3.64455 21.4838 4.59277 19.0566C4.06549 18.3862 3.35566 17.6532 3.25683 16.7842C3.19477 16.2385 3.30057 15.8872 3.64355 15.46L4.125 15.415C5.19575 15.7872 5.4763 16.3797 5.97558 17.3008C6.16668 16.8015 6.33766 16.1746 6.60937 15.7148C6.90392 15.2167 7.04986 15.2241 7.59375 15.043L7.67383 15.0742C8.3847 14.7234 8.65426 13.9349 9 13.2764C8.97247 13.2472 8.94523 13.2173 8.91699 13.1885C8.46423 12.7268 7.92143 12.2518 7.67675 11.6504C7.46049 11.1182 7.52412 10.7535 7.73828 10.2402C8.04839 10.0723 8.11554 9.99206 8.48828 9.98926C9.48385 9.98238 10.1458 10.774 10.8174 11.3799L13.3877 9.02637C13.1803 8.39707 12.874 7.70939 13.1445 7.05566C13.3088 6.65843 13.5226 6.43661 13.9707 6.36328C14.5547 6.26804 15.0794 6.65759 15.54 6.94434C16.7361 6.01385 24.1583 0.19506 24.75 0.00781142C25.2382 0.0911091 25.3597 0.0844029 25.7227 0.396483L25.7109 0.793944C25.1523 1.86014 24.2097 2.45569 23.1973 3.07226C26.1212 2.2622 29.2651 1.28322 32.2676 0.846678C33.8246 0.620154 35.7644 1.35175 37.2217 0.760741C37.5241 0.401701 37.6595 0.171782 38.124 -1.66645e-06C38.9901 0.126349 39.7826 0.571905 40.6318 0.656248C41.7887 0.771193 42.977 0.72653 44.1436 0.840818C51.2724 1.53972 57.8804 3.32821 63.7949 7.3623C70.4923 11.9298 77.4593 21.786 80.2978 29.1416C81.6403 32.62 82.362 36.268 82.998 39.9141C83.797 40.4563 84.6105 41.101 84.999 41.9834C84.8257 42.6544 84.2739 42.7742 83.8428 43.29C83.2774 43.9669 83.5029 44.9147 83.5625 45.7275C83.5994 46.9796 83.5106 48.2402 83.3789 49.4853C82.4199 58.5628 78.8391 65.52 71.4561 71.2959L72.8281 72.7363C72.4547 73.3415 72.0777 74.038 71.291 74.1895C70.1588 74.4078 68.9474 73.4881 68.0352 72.9521C67.68 73.251 65.7322 74.6462 65.7344 75.0293C65.7376 75.4041 66.0611 75.7522 65.9463 76.1445C65.825 76.557 65.4916 76.8745 65.0908 77.0518C64.4228 77.3481 63.1605 76.6975 62.5205 76.4531C61.3064 77.0971 60.0859 77.5726 58.7871 78.04C59.0974 78.3124 59.3823 78.5779 59.5674 78.9473C59.7779 79.3665 59.7237 79.794 59.5752 80.2178C59.3845 80.4159 59.2131 80.5814 58.9492 80.6895C57.216 81.398 56.1421 80.4815 54.6084 79.918C54.1312 79.7427 53.881 79.6865 53.4053 79.8603C53.0998 80.3035 52.8426 80.6591 52.4033 80.9971C51.5936 81.1461 50.9831 80.8474 50.249 80.5654C49.8517 80.6818 49.6813 80.7289 49.3721 81.0156C49.0096 81.3518 49.2603 81.1718 48.8662 81.4482C48.2265 81.8965 46.7906 81.5037 46.0469 81.3887C46.7214 82.0996 47.4353 82.5281 48.2217 83.1006C48.7198 83.4634 48.9186 83.7853 49.0137 84.3701C48.7832 84.6917 48.6764 84.8949 48.2393 84.9775C46.5782 85.2901 43.7112 82.1586 42.3555 81.2969C40.7012 80.2458 37.8194 80.3398 35.8896 79.7607C31.5569 78.4608 27.0879 76.2574 23.3604 73.7969C12.9484 66.9242 4.61941 56.9281 1.94726 44.9053C1.06362 40.9293 1.01138 36.8954 0.242185 32.9238C0.173319 32.3665 0.160938 31.9328 0.553709 31.4805C2.03541 29.7753 -0.107672 29.9879 0.00390377 28.1846ZM64.6035 29.918C67.0811 32.5047 69.8317 34.8523 72.3867 37.3691C74.5817 39.5313 76.5947 41.8856 78.8848 43.9541C79.3358 44.3619 80.2002 45.2535 80.8135 45.3018C80.8432 45.304 80.8733 45.2974 80.9033 45.2949L80.9141 42.1914C78.0931 40.5055 66.2398 30.2794 64.6035 29.918ZM58.3115 33.3975C63.1024 37.5872 67.9545 41.5269 72.3311 46.1455C74.0327 47.9412 77.8979 52.7924 79.9619 53.7412C80.251 53.5604 80.1743 53.6819 80.2393 53.4062C80.5258 52.2218 80.7113 51.0631 80.7773 49.8467C77.8832 48.0589 75.0713 46.1563 72.3447 44.1406C70.3467 42.6706 59.538 33.3827 58.3115 33.3975ZM66.1562 19.6338C68.5186 23.0112 71.0398 26.2767 73.7178 29.4297C75.693 31.7241 77.8098 33.9095 79.6494 36.3086C79.3043 35.0009 78.9103 33.7531 78.4092 32.4922C76.4006 28.0682 73.3394 25.1904 69.9277 21.7373C68.9908 20.7892 68.0263 19.5229 66.9502 18.7412C67.1787 19.0686 68.1838 20.2697 68.1816 20.5723C67.6472 20.1551 67.0301 19.4129 66.3809 19.2764C66.1633 19.579 66.2097 19.4493 66.1562 19.6338ZM53.999 38.1748C55.7849 39.5826 57.5888 40.9782 59.2578 42.5146C61.6138 44.6836 76.3828 59.3318 77.5879 59.832C77.9512 59.5871 77.7964 59.7391 78.043 59.3652L78.9131 57.3545C76.366 55.8012 74.0086 54.1165 71.6807 52.2744C69.156 50.2766 55.8409 38.385 53.999 38.1748ZM44.1279 38.7783C46.0511 40.3742 47.9968 41.956 49.873 43.6025C53.1522 46.481 73.0608 64.6864 74.3867 65.0352C74.7519 64.8694 74.9605 64.6885 75.2402 64.4111L75.6875 63.7646C75.4515 62.9704 73.1339 61.6231 72.3486 61.0527C69.5704 59.0304 66.8689 56.9179 64.2441 54.7148C61.2661 52.2355 46.9649 39.7577 44.5674 38.8154C44.4271 38.7607 44.2739 38.7508 44.1279 38.7783ZM36.4297 40.0928C38.5227 42.714 42.8426 46.2315 45.4756 48.6504C52.4861 55.0909 61.8558 64.4814 69.7754 69.46C70.0956 69.3756 70.3515 69.2831 70.6416 69.1279C70.3286 68.2735 64.2553 64.2545 63.042 63.3564C60.4359 61.4275 57.9861 59.1561 55.5684 57.0127C51.461 53.345 47.3754 49.6545 43.3115 45.9424C41.9314 44.6869 38.1213 40.8044 36.7754 40.1504C36.5954 40.063 36.6234 40.0838 36.4297 40.0928ZM34.6387 48.1729C35.3019 49.0608 36.1242 49.8189 36.915 50.6016C36.7098 50.8483 36.3206 51.1606 36.3604 51.4834C36.5176 52.757 38.2127 53.462 38.8916 54.4902C39.4284 54.9624 39.9707 55.4292 40.5176 55.8906C41.6554 57.2954 42.6384 58.2703 44.2012 59.2324C44.4065 59.4078 44.6079 59.554 44.8447 59.6885C47.4655 61.1776 49.519 63.6147 51.8467 65.5146C55.4419 68.3986 59.2163 71.0506 63.167 73.4687C63.8809 72.8905 64.6517 72.439 65.4463 71.9736C56.5726 67.6021 49.1111 60.567 41.7871 54.1826C39.8989 52.5373 36.7 49.2064 34.6387 48.1729ZM42.9062 63.9795C47.1134 68.4569 51.5671 72.6125 56.5039 76.3584L58.8857 75.6396C58.7619 75.1662 57.8866 74.824 57.4473 74.5693C54.0841 72.6216 50.9774 70.5271 47.9834 68.0889C46.351 66.7593 44.7457 64.9893 42.9443 63.9131L42.9062 63.9795ZM37.792 3.79785C39.9192 5.42524 57.2608 17.5253 58.208 17.5176L58.1846 17.3623C55.9625 15.3751 42.8095 5.72346 42.2598 4.46387L42.3633 3.88965C41.5897 3.32514 39.4194 3.39645 38.4727 3.51074C38.1315 3.55162 38.0464 3.56582 37.792 3.79785ZM50.2393 4.76269C50.7272 5.33458 51.1765 6.00423 52.0127 6.05566C52.3546 6.07631 52.4677 5.95087 52.749 5.79492C52.056 5.16363 51.3339 4.81254 50.3916 4.65625L50.2393 4.76269ZM29.7256 4.54199C32.2512 6.5593 51.5753 21.1227 52.3057 21.2812L52.1514 20.9922C48.5628 16.8566 41.5589 11.8588 37.1504 8.16992C35.5188 6.80458 34.1928 5.0879 32.5361 3.77246C31.75 3.90804 30.4333 3.9648 29.7852 4.3916L29.7256 4.54199ZM21.6611 6.65332C23.3771 7.53844 24.9999 8.50045 26.585 9.58594C28.94 11.1992 49.503 26.412 50.2646 26.3223L49.6904 25.7969C43.2742 20.4726 36.4762 15.5635 30.2988 9.98144C28.641 8.4836 26.7666 6.95775 25.4248 5.18555C24.3897 5.54973 22.4458 5.97253 21.6611 6.65332ZM34.2656 69.9648C37.554 72.9231 40.7605 76.0683 44.2246 78.8311C45.5424 78.5564 46.8065 78.4356 48.1494 78.3516C47.7615 77.8437 36.099 70.8483 34.4678 69.9102L34.2656 69.9648ZM17.3633 8.89258C20.4666 10.9499 23.314 13.505 26.21 15.8281C30.1162 18.9617 34.1769 21.786 38.2959 24.6494C39.9605 25.8068 41.4975 27.1227 43.2432 28.1689L43.3262 28.0947C43.1053 27.8408 42.8906 27.5831 42.6504 27.3457C37.8965 23.3499 32.9214 19.612 28.2461 15.5273C25.2343 12.8958 22.4635 9.61233 19.1328 7.37598C18.4719 7.84808 17.8783 8.2646 17.3633 8.89258ZM13.1924 12.5186C15.7696 14.3789 29.7699 27.17 31.5312 27.3535C31.325 27.1098 31.1287 26.8644 30.8994 26.6406C26.6271 22.922 22.4866 19.1487 18.5859 15.0645C17.2848 13.7023 15.8358 12.3145 14.793 10.7568C14.2145 11.314 13.6106 11.8358 13.1924 12.5186ZM9.45703 17.0215C10.7091 18.3228 12.0017 19.5869 13.333 20.8135C15.0721 22.3955 29.4585 34.9998 30.4189 35.3027C30.3192 34.9392 30.203 34.7915 29.9297 34.5244C25.9338 30.8717 12.8364 19.2882 10.7695 15.3838L9.45703 17.0215ZM23.8154 51.6182C24.0644 51.9844 24.2632 52.1602 24.6494 52.4004C24.7011 52.4324 25.0194 52.6189 25.0703 52.6709C25.4757 53.0827 25.0029 53.2105 25.0811 53.6992C25.5955 53.7184 25.9531 53.6115 26.4297 53.4521L26.6143 53.3887L26.6016 53.5801L26.5996 53.5801L26.2754 53.9814C26.3879 54.5253 26.9468 55.0171 27.4111 55.3193C27.9316 55.6583 28.4657 55.8826 29.0967 55.7666C29.1537 55.4008 29.0101 55.3088 28.7881 55.0117C28.592 54.7499 28.3774 54.4984 28.1562 54.252L27.4854 53.5205C26.9745 52.6613 26.2046 51.6105 25.3477 51.0518C24.9123 50.7675 24.6854 50.7442 24.1816 50.8281C23.9162 51.1547 23.8674 51.2116 23.8154 51.6182ZM8.61523 56.4102C13.7917 63.7945 19.8602 69.9605 28.0215 74.3623C28.309 74.3227 28.2245 74.3851 28.334 74.2783C23.8294 70.6249 19.3805 66.9594 15.2178 62.9395C12.9882 60.7865 10.9868 58.4206 8.75976 56.2725L8.61523 56.4102ZM4.28515 30.3584C7.87764 34.6292 11.5623 38.7765 15.3184 42.9141C17.9548 45.8186 20.5398 48.7445 23.4561 51.3984C23.8876 50.9551 24.4959 50.4781 24.5645 49.8545C24.3825 49.1613 23.675 48.573 23.1846 48.0488C19.0591 43.2025 15.0795 38.2467 11.2461 33.1846C9.21389 30.5481 7.07575 27.9847 5.31836 25.165C4.61195 26.7762 4.32964 28.6174 4.28515 30.3584ZM3.76855 34.2002C3.40726 34.7137 3.45222 35.5409 3.49023 36.1553C3.54332 37.339 3.61437 38.5255 3.63769 39.71C4.22805 39.4422 4.47446 39.2474 5.13281 39.3213C6.24642 40.1226 7.146 41.1958 8.11328 42.1533C9.91249 43.9026 11.6856 45.6773 13.4346 47.4727C14.0164 48.072 14.5771 48.8467 15.2031 49.3789C15.464 49.6007 15.767 49.6598 16.0977 49.7217C16.1298 50.2636 16.0695 50.3284 16.457 50.7109C16.8458 50.8193 17.2247 50.9113 17.6191 50.998C17.9483 51.0706 18.0519 51.1486 18.2822 51.3721L18.2158 51.6328L17.6055 51.9531C17.6238 52.336 17.8383 52.6022 18.1602 52.8447C18.63 53.1985 19.2758 53.185 19.8457 53.2197L20.2148 53.4902C20.0043 53.8473 20.1431 53.6887 19.7832 53.9561C20.4575 55.0016 22.2282 56.4882 23.2871 57.209C23.7086 57.0345 23.7127 56.9585 23.9473 56.5713L23.918 56.2783L23.0967 56.5225L22.9658 56.3857C23.0892 56.1713 23.2053 55.9963 23.3545 55.8008L23.3496 55.7344L22.8164 55.4658C22.8117 55.1396 22.7786 55.2944 22.9072 54.9971C22.3426 54.7585 21.7354 55.0704 21.2119 54.875C21.6233 54.7167 22.0226 54.5517 22.4219 54.3662L22.4199 54.1406L22.0723 53.915C21.7542 53.9963 21.0047 54.3133 20.7158 54.2314C20.9816 53.9333 21.2252 53.7966 21.585 53.6152L21.3916 53.5703L21.7041 53.5264C20.9949 52.308 18.4479 50.0667 17.3525 48.8955C14.8677 46.2477 12.3977 43.5861 9.94336 40.9121C8.41392 39.2172 5.55623 35.2984 3.76855 34.2002ZM6.40039 22.583C10.2477 25.6714 13.6444 29.5273 17.1309 32.9951C18.293 34.151 19.4418 35.4561 20.7402 36.4619L20.3721 35.791C17.8052 33.0259 15.1875 30.3125 12.6816 27.4951C10.9108 25.5039 9.24475 23.2509 7.25976 21.4639L6.93359 21.457C6.57552 21.8314 6.52192 22.1034 6.40039 22.583ZM4.11133 42.2441C3.88716 42.5832 3.96869 42.6205 4.01855 43.002C4.12863 43.6231 4.21878 44.2544 4.35254 44.8711C7.16706 47.1344 9.48139 49.6922 11.9229 52.3066C13.435 53.926 15.0083 55.7291 16.8271 57.0342L17.0127 57.0098L16.5967 56.4453C13.5323 53.9404 9.74185 49.3344 7.22949 46.2236C6.33909 45.1213 5.24746 43.0289 4.11133 42.2441Z" fill="#54E6ED"/>
<path d="M32.9901 28.0392C34.6194 27.9072 36.1338 28.0862 37.6106 28.8356C39.5174 29.8032 40.884 31.4163 41.5206 33.4545C43.1964 38.8219 39.901 44.9938 37.5332 49.6504C36.423 51.8342 30.9989 62.3396 29.1791 62.7428C28.0243 62.9985 17.5111 55.748 15.9886 54.7122C14.3651 53.5423 12.8202 52.277 11.3535 50.9158C8.10238 47.8449 5.08768 43.7131 5.00296 39.0607C4.95714 36.5508 5.70225 33.8684 7.50476 32.0528C9.06159 30.4844 11.3135 29.7301 13.501 29.7844C18.1546 29.8995 21.6264 33.3655 24.5668 36.5581C24.8571 35.6058 25.2129 34.6963 25.702 33.8276C27.3986 30.8133 29.6508 28.9857 32.9901 28.0392Z" fill="#203B53"/>
<path d="M33.6136 30.7331C33.7799 30.7239 33.9463 30.722 34.113 30.7273C34.2798 30.7324 34.4457 30.7447 34.6109 30.7643C34.7765 30.7839 34.9409 30.8105 35.1042 30.844C35.2671 30.8775 35.4288 30.9183 35.5886 30.9657C35.7484 31.0131 35.9055 31.0674 36.0607 31.1286C36.2159 31.1898 36.368 31.2572 36.517 31.3311C36.666 31.4054 36.812 31.4859 36.9541 31.5726C37.0965 31.6592 37.2348 31.752 37.3692 31.8506C38.4835 32.685 39.0269 34.0008 39.2148 35.3466C40.0677 41.4592 32.3351 54.5662 28.5892 59.589C23.8829 57.0934 18.2767 53.4814 14.2154 50.0774C11.1171 47.2183 7.81322 43.534 7.59488 39.0926C7.50516 37.2735 7.96146 35.369 9.25529 34.0278C9.3866 33.8922 9.52446 33.7636 9.66886 33.6419C9.81326 33.5206 9.96344 33.4066 10.1194 33.3004C10.2753 33.1941 10.4367 33.0959 10.6027 33.0062C10.7686 32.9165 10.9388 32.8356 11.1133 32.7628C11.2877 32.6904 11.4652 32.6269 11.6458 32.5726C11.8264 32.5183 12.0097 32.4736 12.1949 32.4378C12.3801 32.402 12.5669 32.3758 12.7548 32.3593C12.9431 32.3427 13.1314 32.3354 13.3201 32.3381C16.7949 32.3731 20.0992 35.2396 22.0165 37.9358C22.7042 38.9027 23.2733 40.0814 24.1367 40.9032C24.6003 41.3441 24.9453 41.4592 25.5734 41.4673C26.5584 40.7626 27.61 35.6574 28.7771 33.9069C30.0186 32.0439 31.4491 31.154 33.6136 30.7331Z" fill="#EE6D74"/>
<path d="M12.3347 34.8865C12.7401 34.8819 13.3085 34.9158 13.6705 35.1356C15.3675 36.1645 13.1248 38.8673 13.0509 40.423C12.9573 42.3938 15.1838 43.5652 15.2689 45.3272C15.2993 45.9599 14.9062 46.2587 14.5349 46.7035C13.7421 46.655 13.1707 46.2106 12.6034 45.6865C11.1298 44.3245 10.293 41.7411 10.3038 39.7719C10.3146 37.8315 10.9939 36.2589 12.3347 34.8865Z" fill="#E5F5F0"/>
<path d="M66.4755 3.01123C67.4713 2.95844 68.2661 3.07023 69.1464 3.58921C70.352 4.29974 71.5476 5.69868 72.552 6.68073C74.0134 8.11926 75.4946 9.53741 76.9956 10.9348C78.3732 12.2006 79.7617 13.4544 81.1612 14.6959C81.943 15.3917 82.8206 16.0822 83.5139 16.8649C84.0016 17.4156 84.3634 18.0624 84.5285 18.7821C84.8066 19.9937 84.5485 21.1811 83.8879 22.2243C83.1624 23.3696 79.4545 27.4684 78.362 28.4087C78.1467 28.594 77.9061 28.7268 77.6243 28.7778C76.9539 28.8993 76.3761 28.394 75.8711 28.0283C73.0898 30.8712 70.5112 33.9127 67.8793 36.891C64.7443 40.4384 61.5638 43.9674 58.4828 47.5601L52.6064 54.3407C51.631 55.4658 50.5944 57.059 49.3676 57.8902C48.1717 58.7007 45.3163 59.0444 43.8376 59.348C41.4631 59.8202 29.8277 62.7502 28.4771 62.43C28.2083 62.3661 28.1817 62.3091 28.0354 62.0958C28.013 61.9584 27.9921 61.8419 28.0049 61.702C28.0825 60.8595 28.3247 59.9896 28.4505 59.1457C28.926 55.958 29.4914 52.7915 30.0031 49.6103C30.2785 47.9022 30.5413 46.192 30.7919 44.48C30.9538 43.3497 31.0273 42.1161 31.3673 41.0296C32.5466 40.1149 33.6554 38.4487 34.6382 37.2803L41.0116 29.7814C45.7389 24.2763 50.8436 19.1334 55.5167 13.5823C56.3605 12.5798 57.3643 11.6626 58.1535 10.6237C58.8523 9.70354 59.2531 8.53479 59.931 7.57273C61.4975 5.34972 63.7378 3.47742 66.4755 3.01123Z" fill="#203B53"/>
<path d="M37.334 36.4623C39.3631 33.8402 41.6373 31.3682 43.8545 28.9051L53.7587 17.9271C54.9245 16.6169 56.0267 15.2451 57.1512 13.8988C57.6126 13.3464 58.111 12.618 58.6742 12.179C58.8506 12.0414 58.8811 12.0664 59.0897 12.0998C58.2911 13.2965 57.2384 14.3752 56.2934 15.4578L51.4798 20.9515C48.3155 24.5688 45.0551 28.0815 41.8536 31.6648C40.5328 33.1433 39.3243 34.7592 37.9624 36.194C37.8367 36.3266 37.7534 36.3889 37.5727 36.4285C37.4566 36.4539 37.4421 36.4524 37.334 36.4623Z" fill="#EACAD0"/>
<path d="M57.0547 17.2268L57.2196 17.2672C57.2519 17.2243 57.2837 17.181 57.3163 17.1385C57.404 17.0242 57.4855 16.9295 57.5884 16.8303L57.7113 16.9006C57.7223 16.9592 57.7322 17.0182 57.7442 17.0766C57.7889 17.2932 57.8956 17.4875 58.0849 17.6125C57.7281 18.0268 57.168 18.534 57.0308 19.0741C54.9761 21.4215 52.6865 23.5327 50.597 25.8438C48.3773 28.299 46.381 30.9352 44.1364 33.3746C41.7826 35.9326 39.1732 38.3904 37.0773 41.1617C35.5936 41.4815 34.269 42.1018 32.7324 42.2482C33.6592 40.64 34.9653 39.0299 36.2808 37.7129C36.1962 38.1855 36.1502 38.4698 36.3864 38.9043C36.5818 39.0212 36.6389 39.0639 36.8751 39.0476C37.1577 39.028 37.4005 38.9082 37.6118 38.7235C38.1741 38.2322 38.6674 37.609 39.1786 37.0614C40.4402 35.7088 41.6926 34.3477 42.9359 32.9783C44.61 31.1607 46.3627 29.4 47.9888 27.5399C49.278 26.0647 50.4516 24.487 51.7541 23.0236C52.8862 21.7514 54.1167 20.5654 55.2697 19.3117C55.89 18.6374 56.4429 17.9079 57.0547 17.2268Z" fill="url(#paint0_linear_2351_5072)"/>
<path d="M79.1842 14.9681C80.4496 16.0818 83.0121 17.7947 83.1433 19.5807C83.1862 20.1651 83.0276 20.7312 82.7598 21.2472C82.0267 22.6596 79.4445 25.3381 78.2709 26.6204C78.0552 26.8552 77.833 27.0837 77.6042 27.3059C75.9097 25.8314 74.1195 24.3496 72.5674 22.7263C73.1242 22.6182 73.6878 22.5169 74.2353 22.3687C76.1115 21.8611 77.8142 20.7157 78.7687 18.9913C79.5037 17.6633 79.5976 16.4076 79.1842 14.9681Z" fill="#905E96"/>
<path d="M59.0899 12.0997C59.4175 12.4196 59.763 12.7317 60.0741 13.067C59.7746 13.6289 59.4334 14.1207 59.0493 14.6278C58.392 15.4733 57.6312 16.3286 57.0544 17.2268C56.4426 17.9078 55.8897 18.6374 55.2694 19.3116C54.1164 20.5654 52.8859 21.7514 51.7538 23.0236C50.4513 24.487 49.2777 26.0647 47.9884 27.5399C46.3624 29.3999 44.6097 31.1606 42.9355 32.9782C41.6923 34.3477 40.4399 35.7087 39.1783 37.0613C38.6671 37.609 38.1738 38.2322 37.6115 38.7234C37.4002 38.9082 37.1574 39.0279 36.8748 39.0475C36.6386 39.0638 36.5815 39.0211 36.3861 38.9043C36.1499 38.4697 36.1959 38.1854 36.2805 37.7128C36.5842 37.2779 36.9895 36.8688 37.3342 36.4622C37.4423 36.4523 37.4568 36.4538 37.5729 36.4284C37.7536 36.3888 37.8368 36.3265 37.9626 36.1939C39.3245 34.7591 40.533 33.1432 41.8537 31.6647C45.0553 28.0814 48.3157 24.5687 51.48 20.9514L56.2936 15.4577C57.2386 14.3751 58.2913 13.2964 59.0899 12.0997Z" fill="#E5F5F0"/>
<path d="M72.419 24.6852C73.1166 24.9196 74.3422 26.3958 74.8903 26.9794C72.8049 29.563 70.3971 31.9549 68.2071 34.4585C62.1418 41.3921 56.0265 48.2938 50.0778 55.3263C49.7232 55.782 49.291 56.1391 48.8321 56.4833C48.7524 55.0337 48.8793 53.552 48.9447 52.1015C50.7308 49.4851 53.1679 47.1982 55.1939 44.7499C57.1617 42.3316 59.1712 39.9487 61.2229 37.6013C62.6199 35.9962 64.072 34.4356 65.4488 32.8137C67.7698 30.0791 69.8839 27.2373 72.419 24.6852Z" fill="#F3A835"/>
<path d="M32.4141 43.5523C33.8527 43.7438 35.3776 43.071 36.7095 42.5793C36.6882 43.4527 36.3553 47.3712 36.9719 47.9024C37.6013 48.4447 41.1371 47.6439 42.1642 47.5929C42.0656 48.578 41.4581 52.3616 42.0499 52.9404C42.3507 53.2344 42.8627 53.2094 43.2458 53.1581C44.6863 52.9652 46.0899 52.6446 47.5416 52.5C47.5014 54.0216 47.4879 55.5434 47.5005 57.0656C45.0578 57.5517 42.6207 58.0645 40.1892 58.6042C36.7513 59.4025 33.296 60.3032 29.8096 60.8503C29.9875 58.2256 30.4863 55.5843 30.9409 52.9945C31.2264 51.3677 31.4686 49.6732 31.8742 48.0753C31.8837 47.5564 31.9943 46.9966 32.057 46.4788C32.137 45.496 32.2717 44.5275 32.4141 43.5523Z" fill="#EACAD0"/>
<path d="M32.0575 46.4789C32.391 45.8411 32.6609 45.2284 33.2787 44.8172L33.4819 44.8092C33.7125 45.0227 33.7517 45.2682 33.7662 45.5686C33.8132 46.5369 32.0715 57.5145 31.7552 57.9442C31.5861 58.1742 31.4582 58.1694 31.1997 58.2059C30.9788 58.1106 30.9464 58.0832 30.802 57.8905C30.4335 55.7137 32.0457 50.8515 31.8747 48.0754C31.8842 47.5564 31.9948 46.9967 32.0575 46.4789Z" fill="#E5F5F0"/>
<path d="M59.749 10.5965C60.2119 9.54125 60.8673 8.56755 61.612 7.69147C62.8557 6.2281 64.7949 4.46778 66.8244 4.36239C67.3745 4.33386 67.8643 4.46293 68.3317 4.7523C69.6905 5.59364 70.873 6.97278 72.0254 8.08506C74.4088 10.3847 76.7327 12.7405 79.1843 14.9682C79.5977 16.4077 79.5038 17.6634 78.7688 18.9913C77.8143 20.7157 76.1116 21.8611 74.2354 22.3687C73.6879 22.5169 73.1243 22.6183 72.5675 22.7264C69.6522 20.2774 66.8767 17.5749 64.1261 14.9418C62.6655 13.5436 61.0234 12.1645 59.749 10.5965Z" fill="#C399D6"/>
<path d="M65.9587 5.70131C66.3766 5.69645 66.6131 5.73449 66.9291 6.03901C67.0345 6.27637 67.0578 6.43649 66.9767 6.68355C66.5501 7.98331 64.4181 10.1399 63.1783 10.7331C63.0799 10.7305 62.9949 10.7325 62.8994 10.7175C62.6481 10.6785 62.383 10.518 62.2448 10.3047C62.1454 10.1516 62.1526 9.94295 62.1928 9.77119C62.4656 8.59991 64.8986 6.33207 65.9587 5.70131Z" fill="#E5F5F0"/>
<path d="M60.0737 13.0671C62.4499 15.3746 64.8495 17.6574 67.2726 19.9155C68.6345 21.1724 70.0833 22.364 71.4104 23.6523C66.8528 29.1536 62.1211 34.49 57.4952 39.9303C54.2641 43.7304 51.1813 47.7136 47.782 51.3634C46.2101 51.3669 44.6375 51.6868 43.0912 51.9418C43.1883 50.4625 43.2277 48.9498 43.4282 47.4818C44.5168 46.6479 47.7562 44.5337 47.964 43.2817C47.8771 43.0401 47.8788 43.0488 47.6539 42.9232C46.6519 42.9454 45.395 44.3214 44.6256 44.9638C44.2439 45.2825 43.8427 45.6916 43.3952 45.9035C42.102 46.5161 39.3901 46.7169 37.8829 46.9056C37.8739 45.8775 37.6529 42.9729 38.0247 42.1069C38.5577 40.8652 44.226 35.2153 45.5964 33.6718C46.7493 32.373 47.7876 30.9742 48.9057 29.6456C50.4209 27.8451 52.0362 26.0974 53.6848 24.418C54.7825 23.2999 60.7814 17.366 60.8002 16.2965C60.6028 16.0671 60.5011 15.9611 60.2102 15.847C59.8872 15.8889 59.8185 15.9675 59.5658 16.1612C58.8535 17.1558 57.9214 18.2346 57.0302 19.0741C57.1674 18.534 57.7275 18.0269 58.0842 17.6125C57.895 17.4875 57.7882 17.2933 57.7436 17.0767C57.7316 17.0182 57.7217 16.9592 57.7106 16.9006L57.5878 16.8304C57.4849 16.9295 57.4034 17.0243 57.3156 17.1386C57.283 17.1811 57.2512 17.2244 57.219 17.2673L57.054 17.2269C57.6308 16.3287 58.3916 15.4734 59.049 14.6279C59.4331 14.1208 59.7743 13.629 60.0737 13.0671Z" fill="#FACA2E"/>
<path d="M59.0491 14.6279C59.0355 14.9301 59.0901 15.2288 58.8674 15.465C58.8416 15.4924 58.6658 15.6137 58.641 15.6315C58.3628 15.8314 58.2627 15.9688 58.201 16.316C58.1647 16.5193 58.3423 16.7306 58.4393 16.9088L58.6262 16.988C58.9808 16.7549 59.1267 16.3454 59.4699 16.0814L59.5659 16.1612C58.8537 17.1558 57.9215 18.2345 57.0303 19.0741C57.1675 18.534 57.7276 18.0269 58.0843 17.6125C57.8951 17.4875 57.7884 17.2932 57.7437 17.0767C57.7317 17.0182 57.7218 16.9592 57.7107 16.9006L57.5879 16.8304C57.485 16.9295 57.4035 17.0242 57.3158 17.1386C57.2832 17.1811 57.2513 17.2243 57.2191 17.2672L57.0542 17.2269C57.631 16.3287 58.3918 15.4733 59.0491 14.6279Z" fill="#FEA76F"/>
<path d="M61.9164 21.9863C62.0546 21.9939 62.1023 21.9914 62.2469 22.0257C62.494 22.0845 62.6655 22.2481 62.7964 22.4556C62.7946 22.5544 62.8202 22.6575 62.7909 22.7518C62.5724 23.4542 55.9523 30.2986 54.8567 31.3837C54.681 31.4243 54.4714 31.4491 54.2974 31.3863C54.0633 31.3016 54.041 31.1926 53.9707 30.9822C54.0025 30.7023 54.1064 30.5523 54.2735 30.3369C55.507 28.7468 57.0624 27.2795 58.4307 25.7946C59.5822 24.5449 60.6811 23.1431 61.9164 21.9863Z" fill="#203B53"/>
<defs>
<linearGradient id="paint0_linear_2351_5072" x1="44.3978" y1="28.6601" x2="47.149" y2="31.7124" gradientUnits="userSpaceOnUse">
<stop stop-color="#F3959A"/>
<stop offset="1" stop-color="#FFC9CA"/>
</linearGradient>
</defs>
</svg>
