<svg width="85" height="85" viewBox="0 0 85 85" fill="none" xmlns="http://www.w3.org/2000/svg">
<path d="M56.8174 0.00427415C57.7282 0.406746 58.1891 1.12734 58.5967 2.03552C61.1016 2.74194 63.5182 3.64491 65.9453 4.59314C66.6159 4.06576 67.3495 3.35586 68.2187 3.2572C68.7642 3.19522 69.1148 3.30101 69.542 3.64392L69.5869 4.12537C69.2148 5.19617 68.6223 5.47662 67.7012 5.97595C68.2007 6.16714 68.8282 6.33881 69.2881 6.61072C69.7857 6.90507 69.778 7.05041 69.959 7.59412L69.9287 7.6742C70.2796 8.38504 71.0681 8.65457 71.7266 9.00037C71.7556 8.97298 71.7848 8.94546 71.8135 8.91736C72.2751 8.46459 72.7501 7.92181 73.3516 7.67713C73.8838 7.46081 74.2485 7.52452 74.7617 7.73865C74.9296 8.04886 75.0099 8.11594 75.0127 8.48865C75.0196 9.48424 74.228 10.1461 73.6221 10.8178L75.9756 13.3881C76.6049 13.1807 77.2926 12.8745 77.9463 13.1449C78.3436 13.3092 78.5653 13.523 78.6387 13.9711C78.734 14.5551 78.3444 15.0798 78.0576 15.5404C78.9881 16.7364 84.8077 24.1584 84.9951 24.7504C84.9118 25.2387 84.9177 25.3609 84.6055 25.724L84.208 25.7113C83.1419 25.1527 82.5463 24.21 81.9297 23.1976C82.7397 26.1215 83.7187 29.2655 84.1553 32.2679C84.3818 33.825 83.6501 35.7657 84.2412 37.223C84.6002 37.5254 84.8302 37.6608 85.002 38.1254C84.8755 38.9912 84.4301 39.7832 84.3457 40.6322C84.2307 41.7892 84.2754 42.9772 84.1611 44.1439C83.4623 51.273 81.6737 57.8807 77.6396 63.7953C73.0722 70.4928 63.216 77.4606 55.8603 80.2992C52.382 81.6416 48.7339 82.3633 45.0879 82.9994C44.5458 83.7982 43.9016 84.6117 43.0195 85.0004C42.3482 84.8271 42.2279 84.2754 41.7119 83.8441C41.0351 83.2787 40.0872 83.5043 39.2744 83.5638C38.0224 83.6008 36.7617 83.5119 35.5166 83.3803C26.4393 82.4212 19.4819 78.8405 13.7061 71.4574L12.2656 72.8295C11.6605 72.4561 10.9649 72.0789 10.8135 71.2924C10.5949 70.1601 11.5138 68.9488 12.0498 68.0365C11.7508 67.6811 10.3555 65.7328 9.97265 65.7357C9.59786 65.7391 9.24977 66.0627 8.85742 65.9476C8.44498 65.8264 8.12749 65.4929 7.95019 65.0922C7.65382 64.4241 8.30538 63.1619 8.5498 62.5219C7.90567 61.3074 7.42943 60.0866 6.96191 58.7875C6.68964 59.0978 6.42497 59.3836 6.05566 59.5687C5.63643 59.7793 5.20886 59.725 4.78515 59.5765C4.58685 59.3857 4.4206 59.2136 4.3125 58.9496C3.60442 57.2168 4.52045 56.1431 5.08398 54.6097C5.25922 54.1326 5.31643 53.8823 5.14258 53.4066C4.69916 53.1009 4.34393 52.8432 4.00586 52.4037C3.85689 51.5941 4.1546 50.9843 4.43652 50.2504C4.32018 49.8529 4.27395 49.6826 3.9873 49.3734C3.65061 49.0103 3.8305 49.2612 3.55371 48.8666C3.10579 48.2268 3.49926 46.7919 3.61426 46.0482C2.90334 46.7227 2.47389 47.4356 1.90137 48.222C1.53862 48.7202 1.21744 48.9199 0.632811 49.015C0.310917 48.7843 0.107038 48.6773 0.0244126 48.2396C-0.287955 46.5785 2.84339 43.7116 3.70508 42.3558C4.75602 40.7015 4.66216 37.8198 5.24121 35.89C6.5412 31.5573 8.74466 27.0882 11.2051 23.3607C18.0778 12.9486 28.0747 4.61974 40.0977 1.94763C44.0735 1.06407 48.1068 1.01171 52.0781 0.242555C52.6354 0.173682 53.0692 0.161408 53.5215 0.554079C55.2266 2.03577 55.0142 -0.107212 56.8174 0.00427415ZM55.084 64.6058C52.4972 67.0834 50.1497 69.833 47.6328 72.3881C45.4706 74.5832 43.1165 76.5959 41.0478 78.8861C40.6402 79.3371 39.7484 80.2023 39.7002 80.8158C39.698 80.8455 39.7046 80.8756 39.707 80.9056L42.8105 80.9164C44.4961 78.0958 54.7212 66.2434 55.084 64.6058ZM51.6045 58.3129C47.4146 63.104 43.4743 67.9566 38.8555 72.3334C37.0597 74.035 32.21 77.8993 31.2607 79.9633C31.4417 80.2526 31.32 80.1757 31.5957 80.2406C32.78 80.5271 33.938 80.7127 35.1543 80.7787C36.942 77.8846 38.8447 75.0736 40.8603 72.347C42.3294 70.3501 51.6201 59.5386 51.6045 58.3129ZM65.3682 66.1586C61.9907 68.5209 58.7253 71.042 55.5723 73.7201C53.2779 75.6954 51.0924 77.8121 48.6934 79.6517C50.0012 79.3066 51.2487 78.9117 52.5098 78.4105C56.9336 76.4019 59.8106 73.3416 63.2637 69.9301C64.2118 68.993 65.4789 68.0288 66.2607 66.9525C65.9334 67.181 64.7325 68.1858 64.4297 68.184C64.8469 67.6494 65.5893 67.0316 65.7256 66.3822C65.423 66.1647 65.5526 66.212 65.3682 66.1586ZM46.8271 54.0004C45.4194 55.7863 44.0237 57.5901 42.4873 59.2592C40.3185 61.6151 25.6714 76.383 25.1699 77.5892C25.4151 77.953 25.2627 77.7986 25.6367 78.0453L27.6475 78.9154C29.2008 76.3682 30.8854 74.011 32.7275 71.683C34.7252 69.1584 46.6184 55.841 46.8271 54.0004ZM46.2236 44.1303C44.6277 46.0535 43.046 47.9991 41.3994 49.8754C38.5207 53.1548 20.3124 73.0663 19.9668 74.389C20.1326 74.7543 20.3133 74.9626 20.5908 75.2426L21.2373 75.6888C22.0315 75.4529 23.3778 73.1354 23.9482 72.35C25.9706 69.5717 28.0831 66.8702 30.2861 64.2455C32.7654 61.2676 45.245 46.9655 46.1865 44.5687C46.2412 44.4286 46.2511 44.2761 46.2236 44.1303ZM44.9082 36.431C42.287 38.5242 38.7693 42.844 36.3506 45.4769C29.91 52.4876 20.5205 61.858 15.542 69.7777C15.6263 70.0978 15.7189 70.3529 15.874 70.6429C16.7291 70.3288 20.748 64.2558 21.6455 63.0433C23.5745 60.4372 25.8458 57.9874 27.9893 55.5697C31.6569 51.4624 35.3475 47.3768 39.0596 43.3129C40.3153 41.9325 44.1978 38.1224 44.8516 36.7767C44.939 36.5967 44.9172 36.6249 44.9082 36.431ZM36.8291 34.64C35.9411 35.3033 35.1831 36.1264 34.4004 36.9174C34.1536 36.7121 33.8414 36.323 33.5186 36.3627C32.245 36.5199 31.54 38.2151 30.5117 38.8939C30.0395 39.4308 29.5719 39.973 29.1104 40.5199C27.7059 41.6576 26.7315 42.64 25.7695 44.2025C25.5942 44.4079 25.448 44.6093 25.3135 44.8461C23.8243 47.467 21.3873 49.5212 19.4873 51.849C16.6034 55.4442 13.9513 59.2177 11.5332 63.1683C12.1115 63.8822 12.5629 64.654 13.0283 65.4486C17.3997 56.5749 24.4341 49.1134 30.8184 41.7894C32.4636 39.9013 35.7955 36.7015 36.8291 34.64ZM21.0225 42.9076C16.545 47.1148 12.3895 51.5684 8.64355 56.5052L9.36133 58.8881C9.83504 58.7646 10.1779 57.8881 10.4326 57.4486C12.3802 54.0857 14.475 50.9796 16.9131 47.9857C18.2426 46.3534 20.0117 44.747 21.0879 42.9457L21.0225 42.9076ZM81.2041 37.7933C79.5775 39.9195 67.4774 57.261 67.4844 58.2094L67.6396 58.1869C69.6265 55.9653 79.2771 42.8114 80.5371 42.2611L81.1123 42.3646C81.6766 41.5908 81.6055 39.4206 81.4912 38.474C81.4503 38.133 81.4361 38.0477 81.2041 37.7933ZM80.2393 50.2406C79.6673 50.7287 78.9976 51.1786 78.9463 52.015C78.9257 52.3566 79.0512 52.4693 79.207 52.7504C79.8382 52.0574 80.1894 51.3352 80.3457 50.3929L80.2393 50.2406ZM80.46 29.7269C78.4431 32.252 63.8831 51.5717 63.7207 52.307L64.0098 52.1537C68.1454 48.565 73.1432 41.5603 76.832 37.1517C78.1974 35.5201 79.9141 34.1942 81.2295 32.5375C81.0939 31.7514 81.0372 30.4347 80.6104 29.7865L80.46 29.7269ZM78.3486 21.6625C77.4635 23.3785 76.5015 25.0013 75.416 26.5863C73.803 28.9411 58.5845 49.5122 58.6797 50.267L59.2041 49.6918C64.5283 43.2755 69.4375 36.4776 75.0195 30.3002C76.5174 28.6424 78.0442 26.7679 79.8164 25.4261C79.4522 24.3912 79.0294 22.4473 78.3486 21.6625ZM15.0371 34.267C12.0788 37.5554 8.93363 40.7617 6.1709 44.226C6.4456 45.544 6.56639 46.8086 6.65039 48.1517C7.15784 47.7646 14.1527 36.1004 15.0908 34.4691L15.0371 34.267ZM76.1094 17.3646C74.0521 20.4679 71.4969 23.3154 69.1738 26.2113C66.0403 30.1175 63.2159 34.1783 60.3525 38.2972C59.1952 39.9618 57.8792 41.4989 56.833 43.2445L56.9072 43.3285C57.1613 43.1075 57.4187 42.8921 57.6562 42.6517C61.6521 37.8978 65.3899 32.9228 69.4746 28.2474C72.1062 25.2356 75.3896 22.4649 77.626 19.1342C77.1538 18.4732 76.7374 17.8796 76.1094 17.3646ZM72.4824 13.1937C70.6219 15.7712 57.8324 29.7708 57.6484 31.5326C57.892 31.3264 58.1367 31.1298 58.3604 30.9008C62.0789 26.6285 65.8524 22.4879 69.9365 18.5873C71.2988 17.286 72.6873 15.8372 74.2451 14.7943C73.6879 14.2158 73.1653 13.6119 72.4824 13.1937ZM67.9805 9.45838C66.6792 10.7105 65.4151 12.003 64.1885 13.3344C62.6067 15.0732 50.0031 29.4588 49.6992 30.4203C50.0628 30.3206 50.2104 30.2044 50.4775 29.931C54.1304 25.9349 65.7138 12.8377 69.6182 10.7709L67.9805 9.45838ZM33.3838 23.8168C33.0176 24.0657 32.8418 24.2646 32.6016 24.6508C32.5695 24.7024 32.383 25.0207 32.3311 25.0717C31.9192 25.4772 31.7915 25.0042 31.3027 25.0824C31.2836 25.5968 31.3905 25.9545 31.5498 26.431L31.6133 26.6156L31.4209 26.6029L31.4209 26.6019L31.0205 26.2767C30.4766 26.3891 29.9849 26.9481 29.6826 27.4125C29.3436 27.933 29.1193 28.467 29.2354 29.098C29.601 29.1549 29.6923 29.0114 29.9893 28.7894C30.2513 28.5933 30.5034 28.3789 30.75 28.1576L31.4814 27.4867C32.3406 26.9758 33.3915 26.2059 33.9502 25.349C34.2344 24.9136 34.2577 24.6867 34.1738 24.183C33.8472 23.9176 33.7904 23.8688 33.3838 23.8168ZM28.5918 8.6156C21.2074 13.7922 15.0414 19.8614 10.6396 28.0228C10.6792 28.3104 10.6169 28.2259 10.7236 28.3353C14.377 23.8307 18.0425 19.3819 22.0625 15.2191C24.2154 12.9896 26.5814 10.9881 28.7295 8.76111L28.5918 8.6156ZM54.6436 4.2865C50.3728 7.87902 46.2254 11.5636 42.0879 15.3197C39.1834 17.9562 36.2574 20.5411 33.6035 23.4574C34.0468 23.889 34.5239 24.4973 35.1475 24.5658C35.8406 24.3839 36.4289 23.6763 36.9531 23.1859C41.7994 19.0604 46.7543 15.0809 51.8164 11.2474C54.4529 9.21517 57.0163 7.07719 59.8359 5.3197C58.2248 4.61339 56.3844 4.33099 54.6436 4.2865ZM50.8018 3.7699C50.2883 3.40841 49.4611 3.45258 48.8467 3.4906C47.6629 3.54369 46.4765 3.61571 45.292 3.63904C45.5597 4.22921 45.7545 4.4759 45.6807 5.13416C44.8794 6.24775 43.8061 7.14735 42.8486 8.11463C41.0994 9.91385 39.3247 11.6869 37.5293 13.4359C36.9301 14.0177 36.1553 14.5776 35.623 15.2035C35.4012 15.4643 35.3421 15.7675 35.2803 16.098C34.7381 16.1302 34.6728 16.0707 34.29 16.4584C34.1817 16.847 34.0906 17.2261 34.0039 17.6205C33.9313 17.9496 33.8533 18.0532 33.6299 18.2836L33.3691 18.2172L33.0488 17.6068C32.6659 17.6251 32.3998 17.8397 32.1572 18.1615C31.8034 18.6313 31.817 19.2771 31.7822 19.847L31.5117 20.2162C31.1545 20.0055 31.3132 20.1445 31.0459 19.7845C30.0004 20.4589 28.5138 22.2295 27.793 23.2885C27.9675 23.71 28.0434 23.714 28.4307 23.9486L28.7236 23.9193L28.4795 23.098L28.6162 22.9672C28.8307 23.0906 29.0057 23.2066 29.2012 23.3558L29.2676 23.351L29.5361 22.8177C29.8621 22.8131 29.7072 22.7802 30.0039 22.9086C30.2428 22.3438 29.9315 21.7368 30.127 21.2133C30.2853 21.6246 30.4502 22.024 30.6357 22.4232L30.8613 22.4213L31.0869 22.0736C31.0057 21.7556 30.6886 21.0061 30.7705 20.7172C31.0686 20.983 31.2053 21.2265 31.3867 21.5863L31.4316 21.3929L31.4756 21.7054C32.6939 20.9962 34.9353 18.4493 36.1064 17.3539C38.7542 14.869 41.4159 12.399 44.0898 9.9447C45.7847 8.41527 49.7035 5.55759 50.8018 3.7699ZM62.4189 6.40174C59.3306 10.249 55.4746 13.6448 52.0068 17.1312C50.8509 18.2935 49.546 19.443 48.54 20.7416L49.2109 20.3734C51.976 17.8065 54.6894 15.1889 57.5068 12.683C59.498 10.9122 61.7501 9.24602 63.5371 7.26111L63.5449 6.93494C63.1705 6.57671 62.8986 6.52327 62.4189 6.40174ZM42.7578 4.11267C42.4188 3.88848 42.3814 3.97003 42 4.0199C41.3788 4.12998 40.7476 4.22011 40.1309 4.35388C37.8675 7.16841 35.3097 9.48272 32.6953 11.9242C31.0759 13.4364 29.2719 15.0095 27.9668 16.8285L27.9922 17.014L28.5566 16.598C31.0615 13.5336 35.6676 9.74322 38.7783 7.23084C39.8806 6.34042 41.9731 5.24882 42.7578 4.11267Z" fill="#54E6ED"/>
<path d="M38.5224 54.7328C38.5224 52.8219 38.5091 50.9109 38.5329 49.0004C38.5381 48.587 38.4201 48.4747 38.0171 48.4769C35.3599 48.4911 32.7026 48.4794 30.0454 48.4836C28.2234 48.4864 26.6294 47.9244 25.435 46.5111C23.8441 44.6285 23.6207 42.4697 24.5609 40.2689C25.4884 38.0976 27.3061 36.9744 29.6333 36.8884C32.378 36.787 35.1288 36.8508 37.877 36.8438C38.6278 36.8419 38.65 36.829 38.6479 36.0853C38.6386 32.7003 38.6159 29.3154 38.6153 25.9305C38.6148 23.4167 40.0257 21.3751 42.3758 20.4387C44.6578 19.5295 47.2608 20.0564 48.9278 21.7921C49.9812 22.8889 50.5215 24.2141 50.5334 25.7378C50.5594 29.0498 50.5738 32.3619 50.5928 35.6739C50.5973 36.4687 50.6326 36.4992 51.4251 36.5009C53.6272 36.5057 55.8335 36.4326 58.0304 36.5439C60.5687 36.6724 62.445 37.9592 63.4857 40.2913C65.1197 43.9528 62.7151 48.0144 58.715 48.338C56.2472 48.5377 53.7669 48.3938 51.2924 48.4177C50.5092 48.4253 50.5059 48.4171 50.5121 49.1896C50.5413 52.7746 50.5387 56.3602 50.613 59.9442C50.6763 62.9999 48.1045 65.4623 45.2269 65.7207C42.1503 65.997 39.2371 63.962 38.6931 61.0583C38.4751 59.8946 38.6095 58.698 38.5678 57.5169C38.5351 56.5899 38.5612 55.6609 38.5612 54.7328C38.5483 54.7328 38.5354 54.7328 38.5224 54.7328Z" fill="#203B53"/>
<path d="M61.9235 39.8037C63.5188 41.5728 63.3466 45.6801 60.255 46.9474C59.895 47.0949 59.517 47.1272 59.1314 47.1262C56.4925 47.1197 53.8536 47.1116 51.2146 47.1147C49.7715 47.1165 49.2142 47.6895 49.2169 49.1481C49.2233 52.7149 49.243 56.2816 49.2392 59.8484C49.2372 61.8383 48.2323 63.246 46.5073 64.1021C44.8216 64.9386 43.131 64.7821 41.6107 63.6658C40.4238 62.7943 39.7605 61.5739 39.7023 60.081C39.5575 56.3718 39.5098 52.6608 39.5275 48.9489C39.5324 47.9177 38.9402 47.275 37.894 47.2558C35.9472 47.22 33.9996 47.2194 32.0524 47.2116C31.0878 47.2077 30.1201 47.1723 29.1594 47.2358C27.5231 47.3441 26.4468 46.5127 25.7031 45.1989C23.8985 42.011 25.8573 37.8137 29.9242 37.7633C32.5811 37.7304 35.2384 37.736 37.8955 37.7217C39.1366 37.715 39.5301 37.3143 39.5286 36.0925C39.5243 32.7988 39.5095 29.5049 39.5284 26.2112C39.5422 23.7983 41.083 21.8485 43.3614 21.4272C45.2833 21.0717 46.96 21.5766 48.2808 23.0964C49.1 24.039 49.1767 25.1798 49.1903 26.3301C49.2254 29.3143 49.2306 32.2988 49.2493 35.2831C49.2592 36.8738 49.9309 37.5316 51.5132 37.5456C53.7692 37.5654 56.0263 37.4911 58.2812 37.6091C58.6533 37.6286 59.0409 37.6072 59.3572 37.8685C59.2759 37.951 59.1714 37.9866 59.0615 37.9903C57.1557 38.0544 55.2511 38.1899 53.3424 38.0975C53.2913 38.0951 53.2318 38.0911 53.2114 38.0622C53.3907 38.1637 53.6113 38.1231 53.8226 38.1242C55.2408 38.1318 56.659 38.1227 58.0771 38.129C58.6973 38.1317 59.3173 38.1847 59.9023 38.3999C61.377 38.9424 62.1645 40.148 62.2184 41.8769C62.2427 42.6607 62.0554 43.4098 61.865 44.1608C62.1316 43.1677 62.3454 42.1714 62.1369 41.1358C62.0759 40.8323 62.0025 40.5358 61.8936 40.2469C61.8366 40.0958 61.7523 39.9404 61.9235 39.8037Z" fill="#30A0A6"/>
<path d="M42.7898 43.0872C41.5833 42.8773 40.3778 43.1428 39.1716 43.0946C38.9627 43.2827 38.7024 43.2685 38.4503 43.2689C35.6776 43.2728 32.9049 43.2732 30.1323 43.2689C29.8974 43.2686 29.6575 43.2767 29.4573 43.1164C29.1259 43.0813 28.8131 42.9894 28.8602 42.5768C28.9029 42.2019 29.1849 42.1045 29.5389 42.1062C31.0297 42.1129 32.5206 42.1151 34.0112 42.0995C36.9362 42.069 39.861 42.0255 42.7859 41.9874C43.2363 41.7916 43.26 41.4059 43.2595 40.9864C43.2543 36.8374 43.2544 32.6884 43.2594 28.5394C43.2598 28.2188 43.1916 27.8783 43.4246 27.5949C43.5939 27.357 43.7524 27.0691 44.1109 27.1859C44.4846 27.3077 44.5385 27.6223 44.5381 27.9785C44.5332 32.4355 44.5448 36.8926 44.5258 41.3495C44.5235 41.8658 44.6477 42.0231 45.1828 42.0203C49.2763 41.9987 53.3699 42.0092 57.4635 42.0123C58.0582 42.0128 58.277 42.2221 58.1864 42.6805C58.1105 43.064 57.7825 43.041 57.5074 43.1039C57.314 43.2816 57.0707 43.2675 56.8363 43.2682C54.9269 43.2743 53.0174 43.2732 51.1079 43.269C50.8543 43.2685 50.5938 43.2778 50.3875 43.0846C50.142 43.0012 49.8884 42.9987 49.6326 42.9992C48.1769 43.0023 46.7211 43.0017 45.2653 43.0025C44.5414 43.0028 44.5395 43.0029 44.5394 43.7121C44.5388 49.1525 44.5392 54.593 44.5385 60.0334C44.5384 60.8131 44.3096 60.9614 43.5718 60.6657C43.2376 60.4816 43.2674 60.1512 43.2622 59.849C43.2464 58.9406 43.2563 58.032 43.2561 57.1234C43.2555 52.7805 43.2535 48.4375 43.26 44.0946C43.2606 43.6719 43.2201 43.2959 42.7898 43.0872Z" fill="#FDFEFE"/>
<path d="M42.79 43.0872C43.3134 42.9439 43.4606 43.1368 43.4591 43.676C43.4441 49.0172 43.4557 54.3585 43.46 59.6998C43.4602 60.026 43.4308 60.3557 43.572 60.6657C43.0697 60.871 42.8563 60.7577 42.8049 60.2481C42.7886 60.0861 42.7989 59.9215 42.7988 59.758C42.7958 54.2011 42.7929 48.6442 42.79 43.0872Z" fill="#203B53"/>
<path d="M43.425 27.5949C43.436 27.9395 43.4566 28.2841 43.4567 28.6288C43.4577 32.8859 43.4464 37.143 43.4658 41.4C43.4683 41.947 43.2982 42.1204 42.7864 41.9874C42.7859 37.4383 42.788 32.8892 42.7813 28.3401C42.7806 27.8831 42.8371 27.5217 43.425 27.5949Z" fill="#203B53"/>
<path d="M29.458 43.1165C30.9496 43.1075 32.4412 43.0937 33.9328 43.0907C35.6793 43.0872 37.4258 43.093 39.1723 43.0947C39.129 43.5826 38.8577 43.7692 38.3744 43.7852C35.6461 43.8755 32.9172 43.8176 30.1887 43.8398C29.5617 43.8449 29.4574 43.7272 29.458 43.1165Z" fill="#203B53"/>
<path d="M48.661 32.6573C48.661 33.5658 48.6642 34.4743 48.6585 35.3828C48.6573 35.5722 48.7049 35.8466 48.4215 35.8458C48.1487 35.8449 48.2462 35.5748 48.24 35.4153C48.1575 33.2941 48.1309 31.1693 47.9876 29.0524C47.9091 27.8932 47.9782 26.7301 47.8321 25.5742C47.7921 25.2579 47.8738 24.9255 47.9065 24.6012C47.9227 24.4399 48.0091 24.3215 48.1813 24.3179C48.3623 24.3142 48.4331 24.4487 48.4496 24.6031C48.4899 24.9815 48.5468 25.361 48.5483 25.7402C48.5574 28.0459 48.5528 30.3516 48.5528 32.6573C48.5889 32.6573 48.625 32.6573 48.661 32.6573Z" fill="#F9FDFD"/>
<path d="M48.6766 53.9273C48.733 55.1421 48.5573 56.7161 48.5571 58.2943C48.5571 58.4024 48.5491 58.5125 48.5274 58.618C48.5088 58.7078 48.4568 58.7878 48.3487 58.7905C48.2373 58.7933 48.1906 58.7099 48.1697 58.6208C48.1492 58.5337 48.1414 58.4412 48.1433 58.3514C48.1905 56.1368 47.9189 53.9335 47.9101 51.721C47.9095 51.5757 47.9104 51.4305 47.9085 51.2853C47.9046 50.9794 47.9286 50.6488 48.3133 50.6343C48.7661 50.6174 48.6707 51.0018 48.6736 51.2752C48.682 52.0376 48.6766 52.8001 48.6766 53.9273Z" fill="#FBFDFE"/>
<path d="M50.3873 43.0847C52.7608 43.0381 55.1342 43.0238 57.5073 43.104C57.5053 43.5381 57.3315 43.768 56.8532 43.77C54.9455 43.778 53.038 43.8135 51.1303 43.829C50.4553 43.8344 50.3542 43.72 50.3873 43.0847Z" fill="#203B53"/>
</svg>
