<svg width="76" height="76" viewBox="0 0 76 76" fill="none" xmlns="http://www.w3.org/2000/svg">
<path d="M21.2615 59.1749C20.6097 58.6492 19.8932 58.0245 19.5412 57.2494C17.7035 53.2029 22.2573 44.6096 23.7828 40.5588C21.3389 38.0673 18.5534 35.7894 16.2947 33.1357C14.7249 31.2916 12.9019 28.5132 13.1755 26.0093C13.3096 24.7788 14.0365 23.8011 15.0316 23.1024C19.519 19.9508 27.1353 21.3683 32.1571 22.1844C33.7181 18.9228 35.1065 15.5127 36.9546 12.4006C38.0832 10.5009 39.8236 8.09931 42.1042 7.60712C43.1067 7.39053 44.023 7.66312 44.8692 8.20829C49.4311 11.1467 50.2582 18.7639 51.2278 23.6362L51.6768 25.9533C55.9395 26.0566 60.3267 26.0375 64.3453 27.6549C66.307 28.4444 68.3046 29.6729 69.1026 31.7329C69.5676 32.9335 69.5898 34.2827 69.0366 35.4582C67.2056 39.3477 57.6296 41.9928 53.6851 43.4844C54.3328 46.1761 55.2733 48.7306 55.5204 51.5177C55.7698 54.3328 55.391 57.7614 53.444 59.9424C52.577 60.914 51.4669 61.3958 50.1734 61.4628C45.0721 61.7287 40.0972 56.2864 36.6622 53.06C32.4595 55.4972 26.3467 60.1469 21.2615 59.1749Z" fill="#203B53"/>
<path d="M22.4374 56.3815C20.9079 51.1418 27.7278 44.464 26.7458 39.8817C25.9971 36.3884 16.8453 31.4806 16.5023 27.2135C16.4554 26.6274 16.6133 26.1369 17.0364 25.7151C19.8296 22.9286 30.3407 25.3963 33.9832 25.6182L34.3 25.6346C35.5851 23.1297 36.6309 20.47 37.7883 17.9017C38.7649 15.7348 40.2177 11.8345 42.5502 10.949C43.2261 10.9906 43.5708 11.0503 44.0945 11.5096C47.0705 14.1201 47.7689 23.8825 48.2242 27.7938C48.315 28.1965 48.4243 28.804 48.6332 29.1524C48.8884 29.5785 49.1459 29.7254 49.6216 29.7733C50.7327 29.8853 52.1708 29.5497 53.3047 29.4397C56.6048 29.1189 60.5434 29.3646 63.633 30.6531C64.6345 31.0705 65.646 31.7743 65.9994 32.8539C66.2096 33.4973 66.2451 33.9492 65.883 34.542C64.158 37.3654 53.592 38.8782 50.8554 41.5819C48.651 43.7595 54.2414 52.4017 51.9092 56.4378C51.4368 57.2549 50.5286 58.0123 49.5817 58.1866C46.1193 58.8247 41.0954 52.213 38.4987 50.3652C37.9093 49.9461 37.5596 49.6943 36.8089 49.7456C33.3096 49.984 27.4415 55.5416 22.4374 56.3815Z" fill="#FACA2E"/>
<path d="M42.716 49.7121C41.0664 48.3307 38.8129 46.3944 37.8437 44.475C37.4712 43.7363 37.2663 42.8536 37.6328 42.0667C37.9442 41.3978 38.5877 40.7966 39.3357 40.6816C40.4341 40.5133 41.407 41.2261 42.2777 41.7844C44.2475 43.386 46.4976 45.058 47.2496 47.6058C47.5135 48.4987 47.5856 49.5149 47.0535 50.3199C46.8014 50.7021 46.2988 50.9479 45.8381 50.9593C44.6147 50.9898 43.6397 50.4426 42.716 49.7121Z" fill="#E5F5F0"/>
</svg>
