<svg width="35" height="35" viewBox="0 0 35 35" fill="none" xmlns="http://www.w3.org/2000/svg">
<path d="M11.6053 34.998C11.2303 34.8323 11.0406 34.536 10.8728 34.1621C9.84139 33.8712 8.84589 33.4998 7.84647 33.1093C7.5705 33.3264 7.26859 33.6184 6.91093 33.6591C6.68633 33.6847 6.54182 33.641 6.366 33.5L6.34647 33.3017C6.49971 32.8608 6.7445 32.7456 7.12382 32.54C6.91817 32.4613 6.65988 32.3902 6.4705 32.2783C6.26537 32.157 6.2687 32.097 6.19413 31.873L6.20683 31.8408C6.06242 31.5481 5.73772 31.4363 5.46659 31.2939C5.45468 31.3052 5.44224 31.3166 5.43046 31.3281C5.24036 31.5145 5.04433 31.7381 4.79667 31.8388C4.57766 31.9278 4.42777 31.9015 4.21659 31.8134C4.14745 31.6857 4.11423 31.6583 4.11308 31.5049C4.11024 31.0949 4.43584 30.8224 4.68534 30.5459L3.71659 29.4873C3.45754 29.5726 3.17418 29.699 2.90507 29.5879C2.74147 29.5202 2.6501 29.4316 2.61991 29.247C2.58088 29.0068 2.74115 28.7911 2.85917 28.6015C2.47599 28.109 0.0794185 25.0517 0.002724 24.8086C0.0369914 24.6077 0.0343478 24.5576 0.16288 24.4082L0.326943 24.4131C0.765755 24.6431 1.01062 25.0314 1.26444 25.4482C0.930878 24.2442 0.52818 22.9492 0.348427 21.7129C0.255299 21.0718 0.555657 20.2728 0.312294 19.6728C0.164734 19.5486 0.0704541 19.4927 -0.000205526 19.3017C0.0518193 18.9452 0.234528 18.6191 0.269326 18.2695C0.316674 17.7931 0.298432 17.3036 0.345498 16.8232C0.633279 13.8877 1.3699 11.1668 3.03104 8.73142C4.91177 5.97365 8.96995 3.10437 11.9988 1.93552C13.4312 1.38272 14.9339 1.08611 16.4353 0.824188C16.6586 0.495212 16.9236 0.159969 17.2869 -3.10455e-05C17.5633 0.0713229 17.6125 0.298961 17.825 0.476531C18.1037 0.709346 18.4942 0.616291 18.8289 0.591766C19.3443 0.576564 19.8632 0.612777 20.3758 0.666961C24.1136 1.06184 26.9789 2.53701 29.3572 5.57712L29.95 5.01169C30.1992 5.16547 30.4862 5.32053 30.5486 5.6445C30.6386 6.11073 30.2596 6.60965 30.0389 6.98532C30.1619 7.13152 30.7364 7.93313 30.8943 7.93259C31.0487 7.93126 31.1927 7.79825 31.3543 7.84567C31.5238 7.89569 31.6544 8.0325 31.7273 8.19724C31.8494 8.47231 31.5809 8.99228 31.4803 9.25583C31.7455 9.75589 31.942 10.259 32.1346 10.7939C32.2467 10.6661 32.3555 10.5479 32.5076 10.4717C32.6802 10.385 32.8566 10.4076 33.031 10.4687C33.1126 10.5473 33.1809 10.6179 33.2254 10.7265C33.517 11.44 33.1401 11.8824 32.908 12.5136C32.8359 12.71 32.8122 12.8131 32.8836 13.0088C33.0661 13.1345 33.2122 13.2411 33.3514 13.4218C33.4127 13.7551 33.2906 14.0065 33.1746 14.3086C33.2225 14.4722 33.2412 14.5426 33.3592 14.6699C33.4978 14.8194 33.4239 14.7164 33.5379 14.8789C33.7221 15.1423 33.5609 15.7328 33.5135 16.039C33.8058 15.7615 33.9821 15.468 34.2176 15.1445C34.367 14.9393 34.5002 14.8565 34.741 14.8174C34.8735 14.9123 34.957 14.9566 34.991 15.1367C35.1197 15.8207 33.8302 17.0013 33.4754 17.5595C33.0426 18.2407 33.081 19.427 32.8426 20.2217C32.3073 22.0056 31.4006 23.846 30.3875 25.3808C27.5575 29.6682 23.4408 33.0979 18.49 34.1982C16.8528 34.5621 15.1918 34.5836 13.5564 34.9004C13.327 34.9287 13.1489 34.9332 12.9627 34.7715C12.2606 34.1614 12.3477 35.0439 11.6053 34.998ZM12.3191 8.39841C13.3842 7.37827 14.3502 6.24539 15.3865 5.19333C16.2769 4.28943 17.2466 3.46058 18.0984 2.51755C18.2662 2.33191 18.6329 1.97613 18.6531 1.7236C18.654 1.71143 18.6512 1.69881 18.6502 1.68649L17.3728 1.68161C16.6787 2.84309 12.468 7.72464 12.3191 8.39841ZM13.7517 10.9892C15.477 9.01642 17.0989 7.01799 19.0008 5.21579C19.7402 4.51513 21.7379 2.92409 22.1287 2.07419C22.0543 1.95516 22.1041 1.98651 21.991 1.95993C21.5033 1.84193 21.0261 1.76544 20.5252 1.73825C19.7891 2.92986 19.0055 4.0873 18.1756 5.20993C17.5707 6.03222 13.7453 10.4845 13.7517 10.9892ZM8.08378 7.75876C9.47457 6.78598 10.8196 5.74727 12.118 4.6445C13.0625 3.83134 13.9624 2.96043 14.95 2.20309C14.4116 2.34519 13.8979 2.5075 13.3787 2.71384C11.5571 3.54092 10.3718 4.80029 8.94999 6.20505C8.5596 6.5909 8.03853 6.98845 7.71659 7.43161C7.85151 7.33741 8.34591 6.92389 8.4705 6.92478C8.29877 7.14476 7.99366 7.39877 7.93729 7.66599C8.06179 7.7555 8.00784 7.73676 8.08378 7.75876ZM15.7185 12.7646C16.2982 12.0293 16.873 11.2868 17.5057 10.5996C18.3987 9.62947 24.4302 3.54824 24.6365 3.05173C24.5356 2.90194 24.5981 2.96579 24.4441 2.86423L23.616 2.50583C22.9764 3.55459 22.2827 4.52582 21.5242 5.48435C20.7006 6.52494 15.8052 12.0062 15.7185 12.7646ZM15.9676 16.8291C16.6247 16.0372 17.276 15.2363 17.9539 14.4638C19.1393 13.1135 26.637 4.91349 26.7791 4.36911C26.7109 4.21901 26.6363 4.13353 26.5223 4.01853L26.2557 3.83396C25.9286 3.93113 25.3743 4.88552 25.1394 5.20896C24.3068 6.35282 23.4371 7.4652 22.5301 8.54587C21.5092 9.77209 16.3698 15.6616 15.9822 16.6484C15.9597 16.7062 15.9562 16.769 15.9676 16.8291ZM16.5086 19.999C17.5879 19.1372 19.0361 17.3585 20.032 16.2744C22.6841 13.3877 26.5513 9.5296 28.6014 6.26853C28.5667 6.13678 28.5284 6.03142 28.4646 5.91208C28.113 6.04058 26.4575 8.54136 26.0877 9.04099C25.2934 10.114 24.358 11.1226 23.4754 12.1181C21.9651 13.8094 20.4453 15.4926 18.9168 17.166C18.3994 17.7346 16.8016 19.3021 16.532 19.8564C16.4961 19.9305 16.5049 19.9194 16.5086 19.999ZM19.8357 20.7363C20.2013 20.4632 20.5135 20.1244 20.8357 19.7988C20.9374 19.8833 21.0661 20.0437 21.199 20.0273C21.7233 19.9624 22.0139 19.2648 22.4373 18.9853C22.6317 18.7643 22.8234 18.5406 23.0135 18.3154C23.5919 17.8468 23.9933 17.4423 24.3894 16.7988C24.4617 16.7142 24.5225 16.6317 24.5779 16.5342C25.1911 15.4552 26.1941 14.6096 26.9764 13.6513C28.1638 12.171 29.2561 10.6169 30.2517 8.99021C30.0136 8.69624 29.8282 8.37795 29.6365 8.05075C27.8364 11.7047 24.9392 14.7771 22.3103 17.7929C21.633 18.5703 20.2615 19.8874 19.8357 20.7363ZM26.3445 17.332C28.188 15.5998 29.8989 13.766 31.4412 11.7334L31.1463 10.7519C30.9512 10.8027 30.8098 11.1637 30.7049 11.3447C29.9028 12.7295 29.0399 14.0083 28.0359 15.2412C27.4885 15.9133 26.7603 16.5747 26.3172 17.3164L26.3445 17.332ZM1.56327 19.4384C2.233 18.5631 7.21588 11.4213 7.21269 11.0312L7.14823 11.041C6.32971 11.9563 2.35633 17.3722 1.83769 17.5986L1.60136 17.5556C1.36887 17.8741 1.39804 18.7683 1.44511 19.1582C1.46192 19.2984 1.46778 19.3338 1.56327 19.4384ZM1.96073 14.3125C2.19618 14.1116 2.47184 13.9263 2.49296 13.582C2.50132 13.4416 2.44968 13.395 2.38554 13.2793C2.1256 13.5646 1.98116 13.862 1.91679 14.25L1.96073 14.3125ZM1.86991 22.7597C2.70094 21.7193 8.69722 13.7626 8.76249 13.4619L8.64335 13.5254C6.94041 15.0031 4.88204 17.8868 3.36308 19.7021C2.80085 20.374 2.0942 20.9203 1.55253 21.6025C1.60836 21.9262 1.63166 22.4684 1.80741 22.7353L1.86991 22.7597ZM2.73905 26.08C3.10348 25.3736 3.49917 24.7053 3.94608 24.0527C4.61018 23.0832 10.8769 14.6125 10.8377 14.3017L10.6219 14.539C8.42952 17.181 6.40768 19.9798 4.10917 22.5234C3.49244 23.206 2.86424 23.9778 2.13456 24.5302C2.2845 24.9563 2.45879 25.7568 2.73905 26.08ZM28.8094 20.8906C30.0274 19.5366 31.3222 18.2163 32.4598 16.79C32.3466 16.2473 32.2971 15.7259 32.2625 15.1728C32.0536 15.3322 29.174 20.1336 28.7869 20.8066L28.8094 20.8906ZM3.66093 27.8496C4.50806 26.5718 5.56083 25.3994 6.51737 24.207C7.80758 22.5986 8.97023 20.9264 10.1492 19.2304C10.6258 18.5451 11.1676 17.9121 11.5984 17.1933L11.5682 17.1592C11.4636 17.2501 11.3573 17.3386 11.2596 17.4375C9.61419 19.395 8.07529 21.444 6.39335 23.3691C5.30985 24.6091 3.95776 25.7498 3.0369 27.1211C3.23125 27.3931 3.40247 27.6376 3.66093 27.8496ZM5.15409 29.5674C5.92 28.5063 11.185 22.7436 11.2625 22.0166C11.1623 22.1014 11.0615 22.1821 10.9695 22.2763C9.43834 24.0355 7.88462 25.7405 6.20292 27.3466C5.64199 27.8824 5.06995 28.4787 4.42851 28.9082C4.65788 29.1463 4.87303 29.3952 5.15409 29.5674ZM7.00858 31.1054C7.54438 30.5899 8.06506 30.0579 8.57011 29.5097C9.22183 28.7933 14.4081 22.8733 14.5359 22.4746C14.3863 22.5156 14.3256 22.5632 14.2156 22.6758C12.7115 24.3212 7.9415 29.7143 6.33378 30.5654L7.00858 31.1054ZM21.2547 25.1933C21.4053 25.0909 21.4771 25.0085 21.576 24.8496C21.5892 24.8282 21.6656 24.6984 21.6873 24.6767C21.8569 24.5097 21.9099 24.704 22.1111 24.6718C22.1189 24.4603 22.0751 24.3132 22.0096 24.1172L21.9832 24.041L22.0623 24.0459L22.2273 24.1806C22.4513 24.1344 22.6536 23.9041 22.7781 23.7129C22.9177 23.4985 23.0105 23.2784 22.9627 23.0185C22.8121 22.9951 22.7743 23.0541 22.6521 23.1455C22.5442 23.2263 22.4402 23.3151 22.3387 23.4062L22.0379 23.6826C21.6841 23.8929 21.2513 24.2096 21.0213 24.5625C20.9042 24.7418 20.8949 24.8355 20.9295 25.0429C21.0636 25.1519 21.0874 25.1719 21.2547 25.1933ZM23.2273 31.4521C26.268 29.3206 28.8074 26.8215 30.6199 23.4609C30.6037 23.3428 30.6287 23.378 30.5848 23.333C29.0805 25.1877 27.571 27.0194 25.9158 28.7334C25.0293 29.6514 24.0552 30.4756 23.1707 31.3925L23.2273 31.4521ZM12.4998 33.2353C14.2583 31.7561 15.9661 30.2389 17.6697 28.6924C18.8657 27.6067 20.071 26.5416 21.1639 25.3408C20.9814 25.1631 20.7848 24.913 20.5281 24.8847C20.2427 24.9596 19.9998 25.2512 19.784 25.4531C17.7885 27.1517 15.7482 28.7907 13.6639 30.3691C12.5784 31.2058 11.523 32.0859 10.3621 32.8095C11.0254 33.1003 11.783 33.217 12.4998 33.2353ZM14.8875 33.5625C15.3747 33.5406 15.8629 33.5115 16.3504 33.5019C16.2402 33.2591 16.1599 33.1574 16.1902 32.8867C16.5202 32.4281 16.9629 32.0575 17.3572 31.6591C18.0774 30.9184 18.8075 30.1878 19.5467 29.4677C19.7933 29.2283 20.1127 28.9978 20.3318 28.7402C20.4232 28.6328 20.4479 28.5072 20.4734 28.3711C20.6964 28.3578 20.7233 28.383 20.8807 28.2236C20.9253 28.0635 20.9631 27.9066 20.9988 27.7441C21.0287 27.6089 21.0611 27.5665 21.1531 27.4716L21.2605 27.499L21.3924 27.75C21.55 27.7423 21.6597 27.654 21.7596 27.5215C21.905 27.3281 21.8996 27.0626 21.9139 26.8281L22.0252 26.6758C22.1722 26.7625 22.1068 26.7056 22.2166 26.8535C22.6471 26.5758 23.2596 25.8472 23.5564 25.4111C23.4846 25.2376 23.453 25.2361 23.2937 25.1396L23.1736 25.1513L23.2742 25.4892L23.2176 25.5429C23.1293 25.4922 23.0568 25.4451 22.9764 25.3838L22.949 25.3847L22.8387 25.6045C22.7045 25.6064 22.7681 25.6201 22.6463 25.5674C22.5479 25.8 22.6761 26.05 22.5955 26.2656C22.5303 26.0962 22.4619 25.9319 22.3855 25.7675L22.2928 25.7675L22.2 25.9111C22.2334 26.042 22.3636 26.3507 22.3299 26.4697C22.2073 26.3604 22.1515 26.2601 22.0769 26.1123L22.0584 26.1914L22.0398 26.0625C21.5382 26.3545 20.6149 27.4034 20.1326 27.8545C19.0424 28.8776 17.9465 29.8947 16.8455 30.9052C16.1475 31.535 14.534 32.7121 14.0818 33.4482C14.2933 33.597 14.6345 33.5781 14.8875 33.5625ZM9.29862 32.3642C10.5703 30.7801 12.1579 29.3818 13.5857 27.9463C14.0617 27.4677 14.5993 26.9946 15.0135 26.4599L14.7371 26.6113C13.5986 27.6682 12.4811 28.7455 11.3211 29.7773C10.5011 30.5065 9.57356 31.1933 8.83768 32.0107L8.83476 32.1445C8.98894 32.292 9.1011 32.3142 9.29862 32.3642ZM17.7058 33.3447C17.9615 33.2994 18.2216 33.263 18.4754 33.208C19.4074 32.049 20.4613 31.0952 21.5379 30.0898C22.2045 29.4673 22.9468 28.82 23.4842 28.0713L23.4744 27.9941L23.242 28.166C22.2106 29.4277 20.3139 30.9879 19.033 32.0224C18.5791 32.389 17.7175 32.8388 17.3943 33.3066C17.5338 33.3988 17.5492 33.3652 17.7058 33.3447Z" fill="white"/>
</svg>
