<svg width="60" height="60" viewBox="0 0 60 60" fill="none" xmlns="http://www.w3.org/2000/svg">
<path d="M0.0029884 19.8955C0.287132 19.2527 0.795548 18.9273 1.43658 18.6396C1.9352 16.8715 2.57295 15.1663 3.24225 13.4531C2.86997 12.9797 2.36853 12.4612 2.29889 11.8476C2.25516 11.4627 2.32949 11.2154 2.57135 10.914L2.91217 10.8818C3.66766 11.1445 3.86549 11.5628 4.21783 12.2128C4.35278 11.8603 4.47415 11.4173 4.66607 11.0927C4.87383 10.7415 4.97663 10.7469 5.36041 10.6191L5.41705 10.6406C5.91868 10.3928 6.10951 9.83679 6.35357 9.37203C6.33407 9.35137 6.31401 9.32994 6.294 9.30953C5.97449 8.98376 5.5917 8.64894 5.419 8.22457C5.26629 7.84886 5.31078 7.59082 5.46197 7.22847C5.68103 7.10988 5.72886 7.05366 5.99225 7.05172C6.69487 7.04695 7.16179 7.6055 7.6358 8.03316L9.45025 6.37203C9.30392 5.92796 9.08776 5.44273 9.27838 4.9814C9.39433 4.70104 9.54527 4.54396 9.86139 4.49215C10.2737 4.42483 10.6446 4.69987 10.9698 4.9023C11.814 4.24551 17.0524 0.138545 17.4708 0.00581665C17.8153 0.0646087 17.9012 0.0600273 18.1573 0.280231L18.1495 0.560504C17.7552 1.31303 17.0896 1.73371 16.3751 2.1689C18.4389 1.5971 20.6581 0.905753 22.7774 0.597613C23.8765 0.437709 25.2458 0.954268 26.2745 0.537066C26.4879 0.283694 26.5835 0.121203 26.9112 -4.3138e-05C27.5225 0.0891445 28.0823 0.404284 28.6817 0.463824C29.4983 0.544966 30.3368 0.513053 31.1602 0.593707C36.1925 1.08703 40.8572 2.34955 45.0323 5.19722C49.76 8.42137 54.678 15.3789 56.6817 20.5712C57.6294 23.0267 58.1389 25.6019 58.588 28.1757C59.1519 28.5585 59.7267 29.0129 60.001 29.6357C59.8787 30.1096 59.4881 30.1943 59.1837 30.5585C58.7846 31.0363 58.9443 31.7055 58.9864 32.2793C59.0125 33.163 58.9494 34.0527 58.8565 34.9316C58.1796 41.3393 55.6521 46.2509 50.4405 50.3281L51.4092 51.3447C51.1457 51.7718 50.8795 52.2631 50.3243 52.3701C49.525 52.5244 48.6695 51.8754 48.0255 51.497C47.7743 51.7082 46.4008 52.6921 46.4014 52.9628C46.4037 53.2275 46.6321 53.4739 46.5508 53.7509C46.4652 54.0419 46.2301 54.2655 45.9473 54.3906C45.4758 54.5998 44.5847 54.1403 44.1329 53.9677C43.2757 54.4224 42.4141 54.7588 41.4971 55.0888C41.7162 55.2811 41.9182 55.4677 42.0489 55.7285C42.1974 56.0243 42.1585 56.3259 42.0538 56.625C41.919 56.7649 41.7978 56.8826 41.6114 56.9589C40.3882 57.4587 39.6304 56.8118 38.5479 56.414C38.2112 56.2904 38.0348 56.2505 37.6993 56.373C37.4835 56.686 37.3015 56.9371 36.9913 57.1757C36.4197 57.281 35.9889 57.0701 35.4708 56.871C35.1902 56.9532 35.0699 56.986 34.8516 57.1884C34.5954 57.4261 34.7726 57.2988 34.4942 57.4941C34.0427 57.8105 33.029 57.5333 32.504 57.4521C32.9801 57.9539 33.484 58.2569 34.0391 58.6611C34.3907 58.9172 34.5316 59.1438 34.5987 59.5566C34.4359 59.7837 34.3605 59.9269 34.0518 59.9853C32.8793 60.206 30.8556 57.996 29.8985 57.3877C28.7308 56.6457 26.6963 56.7124 25.334 56.3037C22.2758 55.3861 19.1214 53.8304 16.4903 52.0937C9.14045 47.2423 3.2603 40.1852 1.37408 31.6982C0.750416 28.8917 0.7139 26.0445 0.170957 23.2412C0.122353 22.8479 0.113662 22.5418 0.390684 22.2226C1.43661 21.0189 -0.0757726 21.1684 0.0029884 19.8955ZM45.6036 21.1191C47.3525 22.9451 49.2941 24.6022 51.0977 26.3789C52.6472 27.9052 54.068 29.5671 55.6846 31.0273C56.003 31.3151 56.6139 31.9445 57.0469 31.9785C57.0678 31.9799 57.0893 31.9753 57.1104 31.9736L57.1172 29.7832C55.1258 28.593 46.7586 21.3743 45.6036 21.1191ZM41.1622 23.5752C44.5441 26.5327 47.9692 29.3139 51.0587 32.5742C52.2598 33.8418 54.9884 37.2667 56.4454 37.9365C56.6496 37.8087 56.5949 37.8938 56.6407 37.6992C56.8429 36.8633 56.974 36.0459 57.0206 35.1875C54.9776 33.9255 52.9931 32.582 51.0684 31.1591C49.6583 30.1217 42.0274 23.5641 41.1622 23.5752ZM46.7003 13.8593C48.3679 16.2435 50.1477 18.5486 52.0381 20.7744C53.4325 22.394 54.9261 23.9373 56.2247 25.6308C55.9811 24.7077 55.7024 23.8266 55.3487 22.9365C53.9308 19.8136 51.7706 17.7822 49.3624 15.3447C48.7009 14.6754 48.0205 13.7813 47.2608 13.2294C47.4221 13.4606 48.1315 14.3088 48.1299 14.5224C47.7526 14.2279 47.3168 13.7037 46.8585 13.6074C46.7049 13.8209 46.7379 13.7293 46.7003 13.8593ZM38.1182 26.9472C39.379 27.941 40.6519 28.927 41.8301 30.0117C43.4936 31.543 53.9189 41.8822 54.7696 42.2353C55.0259 42.0626 54.9169 42.1701 55.0909 41.9062L55.7051 40.4873C53.9071 39.3908 52.243 38.2007 50.5997 36.9003C48.8174 35.4899 39.4182 27.0954 38.1182 26.9472ZM31.1505 27.374C32.5081 28.5006 33.8817 29.6169 35.2061 30.7793C37.521 32.8113 51.5739 45.662 52.5098 45.9082C52.7676 45.7911 52.9148 45.6636 53.1124 45.4677L53.4278 45.0117C53.2612 44.451 51.6246 43.5002 51.0704 43.0976C49.1093 41.6701 47.2024 40.179 45.3497 38.624C43.2475 36.8738 33.1516 28.0638 31.46 27.3994C31.3611 27.3608 31.2534 27.3546 31.1505 27.374ZM25.7159 28.3017C27.1933 30.1521 30.243 32.6353 32.1016 34.3427C37.0504 38.8891 43.6645 45.5179 49.2549 49.0322C49.481 48.9727 49.6615 48.9073 49.8663 48.7978C49.646 48.1949 45.3571 45.3572 44.501 44.7236C42.6614 43.3619 40.9323 41.7581 39.2256 40.2451C36.3264 37.6561 33.4429 35.0509 30.5743 32.4306C29.6 31.5443 26.91 28.8033 25.96 28.3418C25.8331 28.2801 25.8528 28.2954 25.7159 28.3017ZM24.4522 34.0048C24.9204 34.6316 25.5004 35.1672 26.0587 35.7197C25.9138 35.8938 25.6394 36.1141 25.6671 36.3418C25.7781 37.2408 26.975 37.7389 27.4542 38.4648C27.833 38.798 28.2157 39.1274 28.6016 39.4531C29.4049 40.4448 30.099 41.1333 31.2022 41.8125C31.3471 41.9362 31.4892 42.0398 31.6563 42.1347C33.5062 43.1859 34.9557 44.906 36.5987 46.247C39.1365 48.2828 41.8011 50.1543 44.5899 51.8613C45.0938 51.4532 45.6385 51.1351 46.1993 50.8066C39.9353 47.7208 34.6681 42.7547 29.4981 38.248C28.1653 37.0867 25.9074 34.7345 24.4522 34.0048ZM30.2881 45.163C33.2579 48.3236 36.402 51.2571 39.8868 53.9013L41.5674 53.3945C41.4804 53.0602 40.8631 52.8184 40.5528 52.6386C38.1787 51.2637 35.9856 49.7846 33.8721 48.0634C32.7199 47.1249 31.5861 45.8758 30.3145 45.1162L30.2881 45.163ZM26.6778 2.68062C28.1782 3.82856 40.4182 12.3701 41.0889 12.3662L41.0733 12.2558C39.5049 10.8532 30.2201 4.04048 29.8321 3.15132L29.9044 2.74605C29.3581 2.34768 27.8265 2.3978 27.1583 2.47847C26.9176 2.50732 26.8571 2.51707 26.6778 2.68062ZM35.4639 3.36226C35.8084 3.76592 36.1257 4.23796 36.7159 4.27437C36.9571 4.28895 37.037 4.2008 37.2354 4.09078C36.7463 3.64532 36.2364 3.39736 35.5713 3.28707L35.4639 3.36226ZM20.9835 3.20601C22.7661 4.6299 36.4074 14.9105 36.9229 15.0224L36.8145 14.8183C34.2813 11.899 29.3366 8.37147 26.2247 5.76754C25.0729 4.80374 24.1373 3.59161 22.9678 2.66304C22.4129 2.75875 21.483 2.79832 21.0254 3.09957L20.9835 3.20601ZM15.2911 4.69722C16.5023 5.32199 17.6479 6.00037 18.7667 6.76656C20.4283 7.90481 34.9497 18.6482 35.4825 18.581L35.0772 18.2109C30.548 14.4525 25.7484 10.9872 21.3878 7.04683C20.2175 5.9895 18.8954 4.91111 17.9483 3.66011C17.2177 3.91722 15.845 4.21656 15.2911 4.69722ZM24.1885 49.3877C26.5097 51.4758 28.7726 53.6963 31.2178 55.6464C32.1483 55.4525 33.0412 55.3678 33.9893 55.3085C33.7161 54.9503 25.4826 50.0118 24.3311 49.3496L24.1885 49.3877ZM12.2579 6.2773C14.4484 7.72955 16.4579 9.53396 18.502 11.1738C21.2593 13.3857 24.1258 15.3792 27.0333 17.4003C28.2083 18.2173 29.2932 19.1462 30.5254 19.8847L30.585 19.832C30.4291 19.6528 30.277 19.4713 30.1075 19.3037C26.7518 16.483 23.2398 13.8442 19.9395 10.9609C17.8135 9.10327 15.8571 6.78561 13.5059 5.20699C13.0396 5.5401 12.6213 5.83424 12.2579 6.2773ZM9.31353 8.83785C11.1341 10.1523 21.0162 19.1797 22.2588 19.3086C22.1132 19.1365 21.9734 18.9636 21.8116 18.8056C18.796 16.1808 15.8735 13.5176 13.1202 10.6347C12.2017 9.67312 11.1786 8.69334 10.4424 7.59371C10.0341 7.98696 9.60869 8.35591 9.31353 8.83785ZM6.67682 12.0156C7.56062 12.9342 8.4724 13.8265 9.41217 14.6923C10.6391 15.8085 20.7901 24.7017 21.4727 24.9199C21.4023 24.6636 21.3208 24.5595 21.128 24.3711C18.3074 21.7927 9.06157 13.6155 7.6026 10.8593L6.67682 12.0156ZM16.8116 36.4375C16.9873 36.6959 17.1279 36.8197 17.4005 36.9892C17.4369 37.0118 17.6614 37.1439 17.6973 37.1806C17.9835 37.4713 17.6499 37.5612 17.7051 37.9062C18.0683 37.9197 18.3209 37.8439 18.6573 37.7314L18.7872 37.6875L18.7784 37.8222L18.7774 37.8222L18.5479 38.1054C18.6272 38.4894 19.0218 38.8364 19.3497 39.0498C19.717 39.2891 20.0938 39.4479 20.5391 39.3662C20.5794 39.1078 20.4791 39.0427 20.3223 38.833C20.1838 38.648 20.0323 38.47 19.876 38.2959L19.4024 37.7802C19.0419 37.1739 18.4984 36.4325 17.8936 36.038C17.5863 35.8374 17.4259 35.8206 17.0704 35.8798C16.883 36.1104 16.8483 36.1504 16.8116 36.4375ZM6.08209 39.8203C9.73616 45.0328 14.0203 49.385 19.7813 52.4921C19.984 52.4643 19.9248 52.5089 20.002 52.4335C16.8222 49.8546 13.6818 47.2664 10.7432 44.4287C9.16937 42.9089 7.75572 41.239 6.18365 39.7226L6.08209 39.8203ZM3.02545 21.4296C5.56132 24.4443 8.1622 27.3723 10.8135 30.2929C12.6746 32.3432 14.5 34.4088 16.5587 36.2822C16.8633 35.9694 17.2915 35.6324 17.3399 35.1923C17.2115 34.703 16.7124 34.287 16.3663 33.9169C13.4543 30.4962 10.6453 26.9989 7.93951 23.4257C6.50494 21.5646 4.99554 19.755 3.75494 17.7646C3.25637 18.9018 3.05689 20.2008 3.02545 21.4296ZM2.66119 24.1416C2.406 24.504 2.43709 25.0887 2.46393 25.5224C2.5014 26.3579 2.55195 27.1952 2.56842 28.0312C2.98508 27.8422 3.15939 27.7046 3.62408 27.7568C4.41018 28.3224 5.04478 29.0809 5.7276 29.7568C6.9976 30.9915 8.24988 32.2434 9.48443 33.5107C9.89515 33.9338 10.2906 34.4807 10.7325 34.8564C10.9166 35.013 11.13 35.0549 11.3633 35.0986C11.3861 35.4811 11.3439 35.5269 11.6172 35.7968C11.8918 35.8734 12.16 35.9387 12.4385 36C12.6706 36.0512 12.7437 36.1059 12.9063 36.2636L12.8585 36.4472L12.4288 36.6738C12.4418 36.9441 12.5931 37.1324 12.8204 37.3037C13.152 37.5531 13.6076 37.5428 14.0098 37.5673L14.2706 37.7587C14.1218 38.0111 14.2199 37.8992 13.9659 38.0878C14.4419 38.8258 15.6911 39.8749 16.4385 40.3837C16.736 40.2606 16.7388 40.2068 16.9044 39.9336L16.8838 39.7275L16.3047 39.8994L16.212 39.8027C16.2991 39.6513 16.3811 39.5276 16.4864 39.3896L16.4825 39.3427L16.1065 39.1533C16.1032 38.9232 16.0803 39.0326 16.171 38.8232C15.7722 38.6545 15.3434 38.8745 14.9737 38.7363C15.2642 38.6245 15.5463 38.5079 15.8282 38.3769L15.8262 38.2177L15.5811 38.0586C15.3566 38.1159 14.8281 38.3398 14.6241 38.2822C14.8117 38.0718 14.9834 37.9757 15.2374 37.8476L15.1006 37.8154L15.3213 37.7841C14.8208 36.9242 13.0234 35.3424 12.2501 34.5156C10.496 32.6465 8.75208 30.7674 7.01959 28.8798C5.93998 27.6834 3.9231 24.9169 2.66119 24.1416ZM4.51861 15.9414C7.23439 18.1214 9.63183 20.8431 12.0928 23.291C12.9134 24.107 13.7249 25.0291 14.6417 25.7392L14.3809 25.2646C12.5691 23.3129 10.7219 21.3978 8.95318 19.4091C7.70315 18.0035 6.52628 16.4128 5.12506 15.1513L4.89557 15.1464C4.6427 15.4107 4.6044 15.6028 4.51861 15.9414ZM2.90338 29.8203C2.74513 30.0596 2.80177 30.0862 2.83697 30.3554C2.91466 30.7938 2.9789 31.2395 3.0733 31.6748C5.05999 33.2724 6.69366 35.0783 8.41705 36.9238C9.48445 38.0669 10.5951 39.3395 11.879 40.2607L12.0098 40.2431L11.7159 39.8447C9.55271 38.0764 6.87699 34.8247 5.10357 32.6289C4.47517 31.8508 3.70516 30.3743 2.90338 29.8203Z" fill="white"/>
</svg>
