<svg width="185" height="185" viewBox="0 0 185 185" fill="none" xmlns="http://www.w3.org/2000/svg">
<path d="M116.247 22.0039C117.758 22.6717 118.523 23.8671 119.199 25.374C123.354 26.5459 127.363 28.0433 131.389 29.6162C132.501 28.7414 133.717 27.5631 135.159 27.3994C136.064 27.2965 136.646 27.4721 137.354 28.041L137.43 28.8398C136.812 30.6163 135.829 31.0817 134.301 31.9102C135.129 32.2274 136.171 32.5108 136.934 32.9619C137.76 33.4504 137.747 33.6918 138.047 34.5938L137.996 34.7266C138.578 35.906 139.886 36.354 140.979 36.9277C141.027 36.8819 141.076 36.8361 141.124 36.7891C141.89 36.0381 142.676 35.1374 143.674 34.7314C144.557 34.3726 145.162 34.4788 146.014 34.834C146.292 35.3487 146.425 35.4602 146.43 36.0791C146.441 37.7304 145.128 38.8274 144.123 39.9414L148.027 44.2051C149.071 43.8611 150.212 43.353 151.297 43.8018C151.956 44.0743 152.323 44.4296 152.444 45.1729C152.602 46.1416 151.957 47.0123 151.481 47.7764C153.025 49.7606 162.679 62.0751 162.988 63.0547C162.85 63.8641 162.861 64.0661 162.344 64.668L161.684 64.6484C159.915 63.7218 158.927 62.158 157.904 60.4785C159.248 65.3289 160.873 70.5446 161.597 75.5254C161.972 78.1082 160.759 81.3258 161.739 83.7432C162.335 84.2449 162.716 84.4695 163.001 85.2402C162.791 86.6768 162.053 87.9908 161.913 89.3994C161.722 91.3187 161.796 93.2893 161.606 95.2246C160.447 107.051 157.48 118.013 150.788 127.824C143.211 138.934 126.862 150.491 114.66 155.2C108.89 157.427 102.838 158.625 96.79 159.681C95.8906 161.006 94.8211 162.355 93.3574 163C92.2439 162.713 92.0454 161.796 91.1894 161.081C90.0668 160.143 88.4948 160.518 87.1465 160.617C85.0694 160.678 82.9778 160.53 80.9121 160.312C65.8541 158.721 54.3136 152.781 44.7324 140.533L42.3428 142.811C41.3388 142.191 40.1839 141.565 39.9326 140.26C39.5702 138.382 41.0952 136.373 41.9844 134.859C41.4888 134.27 39.1748 131.039 38.5391 131.042C37.9172 131.047 37.3395 131.584 36.6885 131.393C36.0043 131.191 35.4777 130.639 35.1836 129.975C34.6919 128.866 35.7723 126.773 36.1777 125.711C35.1092 123.696 34.3195 121.672 33.5439 119.517C33.0922 120.031 32.6528 120.504 32.04 120.812C31.3444 121.161 30.6356 121.071 29.9326 120.824C29.6038 120.508 29.3287 120.224 29.1494 119.786C27.9741 116.911 29.4938 115.129 30.4287 112.585C30.7194 111.793 30.8138 111.379 30.5254 110.59C29.79 110.083 29.2004 109.656 28.6396 108.927C28.3924 107.584 28.8868 106.572 29.3545 105.354C29.1615 104.695 29.085 104.412 28.6094 103.899C28.0509 103.297 28.3496 103.714 27.8906 103.06C27.1471 101.998 27.7995 99.6165 27.9902 98.3828C26.8109 99.5017 26.0991 100.686 25.1494 101.99C24.5476 102.817 24.0141 103.147 23.0439 103.305C22.5102 102.922 22.1732 102.744 22.0361 102.019C21.5182 99.263 26.7122 94.5077 28.1416 92.2588C29.885 89.5145 29.7289 84.7344 30.6895 81.5332C32.8459 74.3457 36.5015 66.9325 40.583 60.749C51.9838 43.4767 68.5664 29.6602 88.5107 25.2275C95.1061 23.7618 101.797 23.6744 108.385 22.3984C109.309 22.2842 110.029 22.2645 110.779 22.916C113.608 25.374 113.256 21.8188 116.247 22.0039ZM113.373 129.17C109.082 133.28 105.189 137.843 101.014 142.081C97.4269 145.722 93.5213 149.061 90.0898 152.86C89.4135 153.609 87.9335 155.043 87.8535 156.061C87.8498 156.11 87.8622 156.16 87.8662 156.21L93.0137 156.228C95.8099 151.548 112.773 131.884 113.373 129.17ZM107.603 118.732C100.652 126.68 94.1161 134.73 86.4541 141.99C83.4751 144.813 75.4284 151.224 73.8545 154.647C74.1545 155.127 73.9528 155 74.4102 155.107C76.375 155.583 78.2965 155.891 80.3144 156C83.2801 151.199 86.4365 146.536 89.7803 142.013C92.2175 138.7 107.628 120.766 107.603 118.732ZM130.435 131.746C124.832 135.665 119.414 139.847 114.184 144.29C110.378 147.567 106.752 151.077 102.772 154.129C104.942 153.556 107.012 152.903 109.104 152.071C116.442 148.739 121.215 143.662 126.943 138.003C128.516 136.448 130.617 134.849 131.914 133.063C131.371 133.443 129.379 135.11 128.877 135.106C129.569 134.22 130.8 133.195 131.026 132.118C130.525 131.757 130.74 131.835 130.435 131.746ZM99.6768 111.578C97.3415 114.541 95.0263 117.533 92.4775 120.302C88.8796 124.21 64.5808 148.71 63.751 150.709C64.1575 151.312 63.9041 151.056 64.5244 151.465L67.8603 152.908C70.4371 148.683 73.2312 144.772 76.2871 140.91C79.601 136.722 99.3305 114.631 99.6768 111.578ZM98.6748 95.2041C96.0274 98.3944 93.4042 101.622 90.6728 104.734C85.8974 110.175 55.6914 143.207 55.1191 145.4C55.3942 146.006 55.695 146.351 56.1553 146.815L57.2275 147.557C58.5451 147.165 60.7794 143.32 61.7256 142.018C65.0802 137.409 68.584 132.928 72.2383 128.574C76.3509 123.634 97.0519 99.909 98.6143 95.9326C98.7051 95.6999 98.7205 95.4463 98.6748 95.2041ZM96.4941 82.4326C92.1458 85.9047 86.3113 93.0717 82.2988 97.4395C71.615 109.069 56.038 124.612 47.7793 137.75C47.9192 138.281 48.0727 138.705 48.3301 139.187C49.7473 138.668 56.4153 128.591 57.9043 126.579C61.1041 122.256 64.8721 118.192 68.4277 114.182C74.5118 107.368 80.6333 100.591 86.791 93.8496C88.8737 91.5602 95.3145 85.2395 96.3994 83.0068C96.5445 82.7081 96.509 82.7546 96.4941 82.4326ZM83.0918 79.4629C81.6187 80.5632 80.3609 81.9272 79.0625 83.2393C78.6531 82.8988 78.1352 82.2533 77.5996 82.3193C75.487 82.5803 74.3181 85.3925 72.6123 86.5186C71.829 87.4093 71.0537 88.3085 70.2881 89.2158C67.9579 91.1033 66.3411 92.7328 64.7451 95.3252C64.4541 95.6659 64.2114 95.9997 63.9883 96.3926C61.5179 100.74 57.4759 104.147 54.3242 108.009C49.5402 113.973 45.1412 120.233 41.1299 126.786C42.0892 127.97 42.8373 129.25 43.6094 130.568C50.8611 115.848 62.5314 103.471 73.1221 91.3213C75.8512 88.1892 81.3771 82.8825 83.0918 79.4629ZM56.8711 93.1768C49.4436 100.156 42.5509 107.545 36.3369 115.734L37.5273 119.686C38.3132 119.481 38.8811 118.028 39.3037 117.299C42.5347 111.72 46.01 106.567 50.0547 101.601C52.2602 98.8927 55.1952 96.2285 56.9805 93.2402L56.8711 93.1768ZM156.703 84.6934C154.004 88.2215 133.931 116.989 133.944 118.561L134.201 118.522C137.497 114.837 153.508 93.0174 155.598 92.1055L156.551 92.2773C157.487 90.9943 157.368 87.394 157.179 85.8232C157.111 85.257 157.088 85.1154 156.703 84.6934ZM155.103 105.342C154.154 106.151 153.043 106.897 152.958 108.284C152.924 108.851 153.131 109.038 153.39 109.505C154.437 108.355 155.02 107.158 155.279 105.595L155.103 105.342ZM155.469 71.3125C152.122 75.5022 127.963 107.558 127.7 108.77L128.181 108.515C135.041 102.562 143.331 90.9421 149.45 83.6289C151.715 80.9222 154.563 78.722 156.745 75.9736C156.52 74.6697 156.427 72.4864 155.719 71.4111L155.469 71.3125ZM151.966 57.9346C150.498 60.781 148.902 63.4733 147.102 66.1025C144.425 70.0099 119.181 104.133 119.339 105.385L120.209 104.432C129.041 93.7879 137.184 82.5102 146.444 72.2627C148.929 69.5127 151.462 66.4045 154.401 64.1787C153.797 62.4619 153.095 59.2364 151.966 57.9346ZM46.9424 78.8428C42.0351 84.2978 36.8173 89.6167 32.2344 95.3633C32.6901 97.5498 32.8909 99.6478 33.0303 101.876C33.8721 101.234 45.4758 81.8861 47.0322 79.1797L46.9424 78.8428ZM148.252 50.8057C144.839 55.9536 140.6 60.6765 136.746 65.4805C131.548 71.9604 126.863 78.6965 122.113 85.5293C120.193 88.2906 118.01 90.8396 116.274 93.7354L116.398 93.875C116.82 93.5084 117.247 93.1507 117.641 92.752C124.269 84.8658 130.47 76.6132 137.246 68.8574C141.611 63.8614 147.058 59.2654 150.768 53.7402C149.984 52.6439 149.294 51.66 148.252 50.8057ZM142.235 43.8857C139.149 48.1611 117.932 71.3857 117.628 74.3076C118.032 73.9654 118.438 73.6391 118.81 73.2588C124.978 66.1716 131.238 59.3037 138.013 52.833C140.272 50.6745 142.575 48.2711 145.159 46.541C144.235 45.5813 143.368 44.5795 142.235 43.8857ZM134.767 37.6904C132.608 39.7674 130.511 41.9107 128.477 44.1191C125.852 47.0041 104.944 70.8697 104.441 72.4629C105.044 72.2974 105.289 72.1048 105.732 71.6514C111.792 65.0228 131.007 43.2948 137.483 39.8662L134.767 37.6904ZM77.377 61.5088C76.7695 61.9217 76.4775 62.251 76.0791 62.8916C76.026 62.9772 75.7164 63.5038 75.6299 63.5889C74.9467 64.2617 74.7355 63.4778 73.9248 63.6074C73.893 64.4609 74.0707 65.0541 74.335 65.8447L74.4385 66.1504L74.1211 66.1299L74.1211 66.127L73.4561 65.5889C72.5538 65.7754 71.7377 66.7023 71.2363 67.4727C70.674 68.3361 70.3017 69.2219 70.4941 70.2686C71.1011 70.3632 71.2534 70.1261 71.7461 69.7578C72.1809 69.4323 72.5986 69.0751 73.0078 68.708L74.2207 67.5957C75.6459 66.7483 77.3887 65.4712 78.3154 64.0498C78.787 63.3275 78.8257 62.9509 78.6865 62.1152C78.1449 61.6751 78.051 61.595 77.377 61.5088ZM69.4268 36.292C57.177 44.8793 46.9494 54.9476 39.6475 68.4863C39.713 68.9629 39.6092 68.8225 39.7861 69.0039C45.8466 61.5313 51.9271 54.1516 58.5957 47.2461C62.1671 43.5475 66.0918 40.2266 69.6553 36.5322L69.4268 36.292ZM112.644 29.1104C105.559 35.0699 98.6791 41.1822 91.8154 47.4131C86.9972 51.7867 82.1427 56.0743 77.7402 60.9121C78.4755 61.628 79.2674 62.6362 80.3018 62.75C81.4516 62.4482 82.4283 61.2754 83.2979 60.4619C91.3371 53.6184 99.5568 47.0173 107.954 40.6582C112.328 37.287 116.579 33.7396 121.257 30.8242C118.584 29.6525 115.531 29.1842 112.644 29.1104ZM106.271 28.2529C105.419 27.6533 104.047 27.727 103.027 27.79C101.063 27.8781 99.0949 27.9974 97.1299 28.0361C97.574 29.0153 97.8979 29.4236 97.7754 30.5156C96.4461 32.3633 94.6648 33.8552 93.0762 35.46C90.1745 38.4446 87.2321 41.3868 84.2539 44.2881C83.2597 45.2533 81.9737 46.1823 81.0908 47.2207C80.7228 47.6534 80.6251 48.1557 80.5225 48.7041C79.6234 48.7575 79.5154 48.658 78.8809 49.3008C78.701 49.9459 78.5492 50.5758 78.4053 51.2305C78.2849 51.7763 78.1551 51.9477 77.7842 52.3301L77.3525 52.2188L76.8213 51.207C76.1858 51.2374 75.7434 51.5927 75.3408 52.127C74.7538 52.9065 74.7783 53.9783 74.7207 54.9238L74.2715 55.5352C73.6784 55.1854 73.9416 55.4166 73.498 54.8193C71.7637 55.9379 69.2983 58.8752 68.1025 60.6318C68.392 61.3309 68.5178 61.3374 69.1602 61.7266L69.6455 61.6777L69.2402 60.3154L69.4687 60.0986C69.8243 60.3032 70.1143 60.4957 70.4385 60.7432L70.5479 60.7354L70.9941 59.8506C71.5352 59.8429 71.2773 59.7886 71.7705 60.002C72.1669 59.0648 71.6497 58.0572 71.9746 57.1885C72.2373 57.8709 72.5106 58.5331 72.8184 59.1953L73.1924 59.1934L73.5654 58.6172C73.4308 58.0898 72.9063 56.8467 73.042 56.3672C73.5361 56.8079 73.7617 57.2111 74.0625 57.8076L74.1377 57.4863L74.2109 58.0049C76.232 56.8283 79.9508 52.6042 81.8936 50.7871C86.2857 46.6652 90.7002 42.5674 95.1357 38.4961C97.9473 35.959 104.449 31.2185 106.271 28.2529ZM125.541 32.6191C120.418 39.0013 114.022 44.6355 108.27 50.4189C106.352 52.3472 104.186 54.2529 102.518 56.4072L103.631 55.7959C108.218 51.5378 112.719 47.196 117.393 43.0391C120.696 40.1015 124.433 37.3378 127.397 34.0449L127.409 33.5039C126.788 32.9096 126.337 32.8208 125.541 32.6191ZM92.9258 28.8223C92.3635 28.4505 92.3023 28.5852 91.6699 28.668C90.6395 28.8506 89.5924 28.9998 88.5693 29.2217C84.8147 33.8908 80.5715 37.7301 76.2344 41.7803C73.5481 44.2887 70.5566 46.8978 68.3916 49.915L68.4326 50.2236L69.3691 49.5342C73.5244 44.4506 81.1648 38.1619 86.3252 33.9941C88.1536 32.5172 91.6239 30.7068 92.9258 28.8223Z" fill="#54E6ED"/>
<path d="M76.6149 162.596C75.6903 162.711 74.9713 162.73 74.2209 162.079C71.3922 159.621 71.7446 163.176 68.7532 162.991C67.2421 162.323 66.4774 161.128 65.8013 159.621C61.646 158.45 57.638 156.952 53.6118 155.379C52.4993 156.254 51.2829 157.432 49.8409 157.596C48.9357 157.699 48.3543 157.524 47.6456 156.955L47.5702 156.155C48.1875 154.379 49.171 153.914 50.6992 153.086C49.8706 152.768 48.83 152.484 48.067 152.033C47.2407 151.545 47.2532 151.304 46.9528 150.401L47.0043 150.269C46.4223 149.089 45.1145 148.642 44.022 148.068C43.9734 148.114 43.9244 148.16 43.8764 148.207C43.1105 148.958 42.3236 149.858 41.3259 150.264C40.443 150.623 39.8376 150.517 38.9861 150.162C38.7074 149.647 38.5749 149.536 38.5703 148.917C38.5589 147.265 39.8719 146.168 40.877 145.054L36.973 140.791C35.929 141.135 34.788 141.642 33.7035 141.193C33.0444 140.921 32.6772 140.566 32.5556 139.823C32.3974 138.854 33.0427 137.983 33.5184 137.219C31.9748 135.235 22.3204 122.921 22.0115 121.941C22.1497 121.131 22.1388 120.93 22.6568 120.327L23.3164 120.348C25.0851 121.274 26.0731 122.838 27.0959 124.517C25.7521 119.667 24.1273 114.452 23.4032 109.471C23.0274 106.888 24.2416 103.67 23.261 101.253C22.6654 100.751 22.2839 100.526 21.9989 99.7558C22.2085 98.3191 22.9475 97.0051 23.0874 95.5964C23.2781 93.6771 23.2039 91.7065 23.3935 89.7711C24.5528 77.9451 27.5202 66.9839 34.2123 57.1724C41.789 46.0624 58.1383 34.5048 70.3403 29.796C76.1106 27.569 82.1619 26.371 88.2104 25.3158C89.1098 23.9905 90.1789 22.6413 91.6427 21.9967C92.7563 22.2842 92.955 23.2001 93.8111 23.9155C94.9339 24.8534 96.5055 24.4785 97.8539 24.3797C99.931 24.3184 102.022 24.4666 104.088 24.685C119.146 26.2758 130.687 32.2159 140.268 44.4632L142.657 42.1862C143.661 42.8058 144.816 43.4312 145.067 44.7364C145.43 46.6146 143.905 48.6238 143.016 50.1373C143.512 50.7265 145.826 53.9587 146.461 53.9539C147.083 53.9485 147.661 53.4123 148.312 53.6033C148.996 53.8045 149.522 54.3568 149.817 55.0216C150.308 56.1297 149.228 58.2234 148.822 59.2852C149.891 61.2997 150.681 63.3243 151.456 65.4793C151.908 64.9645 152.347 64.4914 152.96 64.1843C153.656 63.835 154.364 63.9255 155.067 64.1718C155.396 64.4885 155.671 64.7723 155.851 65.2104C157.026 68.0855 155.506 69.8667 154.571 72.4109C154.28 73.2025 154.186 73.6167 154.474 74.4058C155.21 74.9129 155.799 75.3402 156.36 76.0692C156.607 77.4125 156.113 78.4242 155.645 79.6419C155.838 80.3013 155.915 80.5834 156.391 81.0964C156.95 81.6987 156.65 81.2821 157.109 81.9367C157.853 82.9979 157.201 85.379 157.01 86.6127C158.189 85.4939 158.9 84.3107 159.85 83.0062C160.452 82.1795 160.985 81.8486 161.956 81.6909C162.49 82.0736 162.827 82.2509 162.964 82.977C163.482 85.7325 158.288 90.4877 156.858 92.7367C155.115 95.4809 155.271 100.261 154.311 103.462C152.154 110.65 148.499 118.063 144.417 124.247C133.017 141.519 116.434 155.335 96.4895 159.768C89.894 161.234 83.2031 161.32 76.6149 162.596Z" fill="#54E6ED"/>
<path d="M29.8995 79.6582L29.7225 79.4047C29.9817 77.8413 30.5665 76.6456 31.6139 75.4958C31.8726 75.9624 32.0794 76.1475 32.0451 76.7147C31.9606 78.1031 30.8487 78.8482 29.8995 79.6582Z" fill="white"/>
<path d="M110.782 117.403C111.587 116.669 112.387 115.893 113.257 115.241C113.749 114.873 113.9 114.637 114.507 114.731C114.7 115.778 114.328 116.662 113.765 117.526C113.264 118.296 112.448 119.223 111.545 119.409L110.881 118.871L110.782 117.403Z" fill="white"/>
<path d="M110.878 118.871L110.56 118.851L110.665 119.157C110.929 119.948 111.106 120.54 111.074 121.394C110.263 121.524 110.053 120.738 109.37 121.412C109.283 121.497 108.975 122.023 108.922 122.109C108.523 122.75 108.231 123.079 107.624 123.492C106.949 123.406 106.856 123.326 106.314 122.886C106.175 122.05 106.212 121.673 106.684 120.951C107.611 119.529 109.354 118.251 110.779 117.403L110.878 118.871Z" fill="white"/>
<path d="M93.333 156.334C92.7002 156.416 92.6397 156.551 92.0772 156.179C93.3787 154.294 96.8492 152.484 98.6778 151.006C103.838 146.839 111.479 140.55 115.635 135.467L116.571 134.778L116.611 135.086C114.446 138.103 111.456 140.711 108.77 143.219C104.432 147.27 100.189 151.109 96.434 155.778C95.4106 156 94.3638 156.151 93.333 156.334Z" fill="white"/>
<path d="M59.4605 152.38C58.6644 152.178 58.2138 152.089 57.5925 151.495L57.6044 150.955C60.569 147.662 64.3045 144.897 67.6077 141.96C72.2816 137.803 76.7835 133.462 81.3705 129.204L82.4824 128.593C80.8137 130.747 78.6492 132.652 76.7315 134.581C70.9789 140.364 64.5838 145.998 59.4605 152.38Z" fill="white"/>
<path d="M128.127 91.8232L128.018 91.7601C129.803 88.772 132.738 86.1093 134.943 83.4014C138.988 78.4344 142.463 73.2805 145.694 67.7011C146.117 66.972 146.683 65.5211 147.469 65.3164L148.662 69.2669C142.448 77.4566 135.554 84.8441 128.127 91.8232Z" fill="white"/>
<path d="M138.061 106.159L137.971 105.822C139.527 103.116 151.13 83.7707 151.972 83.1285C152.111 85.3567 152.312 87.4522 152.768 89.6387C148.185 95.3854 142.968 100.704 138.061 106.159Z" fill="white"/>
<path d="M115.573 148.707L115.344 148.467C118.908 144.772 122.832 141.453 126.404 137.754C133.073 130.848 139.153 123.467 145.214 115.994C145.392 116.176 145.286 116.035 145.352 116.512C138.05 130.051 127.823 140.12 115.573 148.707Z" fill="white"/>
<path d="M42.7638 141.113C41.6307 140.419 40.765 139.418 39.8404 138.458C42.4246 136.728 44.7272 134.325 46.987 132.166C53.7625 125.695 60.0223 118.827 66.1912 111.74C66.5624 111.359 66.9668 111.034 67.3711 110.692C67.0684 113.612 45.8494 136.838 42.7638 141.113Z" fill="white"/>
<path d="M50.2352 147.311L47.5162 145.133C53.9924 141.706 73.2086 119.977 79.2679 113.348C79.7111 112.895 79.9555 112.703 80.5586 112.538C80.056 114.131 59.1488 137.998 56.5252 140.882C54.4904 143.09 52.394 145.234 50.2352 147.311Z" fill="white"/>
<path d="M88.5072 102.566C88.4923 102.244 88.4558 102.292 88.6009 101.993C89.6854 99.7609 96.1267 93.4405 98.2095 91.151C104.368 84.4093 110.489 77.6313 116.574 70.8175C120.129 66.8069 123.896 62.7451 127.096 58.422C128.584 56.4116 135.253 46.3323 136.67 45.8146C136.928 46.296 137.083 46.7192 137.223 47.2506C128.964 60.3883 113.386 75.931 102.702 87.5606C98.6892 91.9283 92.8555 99.0944 88.5072 102.566Z" fill="white"/>
<path d="M71.6244 55.8301C72.224 53.1157 89.1901 33.4523 91.9856 28.7739L97.1323 28.7906C97.1363 28.8412 97.1477 28.8917 97.1437 28.9417C97.0637 29.9594 95.584 31.3919 94.9079 32.14C91.4762 35.9394 87.571 39.2775 83.984 42.9192C79.8087 47.1577 75.9156 51.7201 71.6244 55.8301Z" fill="white"/>
<path d="M28.2985 100.307C27.9131 99.8841 27.8914 99.7425 27.8234 99.1753C27.6338 97.6047 27.515 94.0065 28.4516 92.7234L29.4036 92.8942C31.4904 91.9866 47.5027 70.1623 50.7991 66.4766L51.0566 66.4391C51.0715 68.0078 30.9964 96.7804 28.2985 100.307Z" fill="white"/>
<path d="M29.5313 113.688L29.2818 113.588C28.5736 112.512 28.4805 110.329 28.2555 109.025C30.4377 106.277 33.2845 104.078 35.5495 101.371C41.6688 94.0584 49.9588 82.4389 56.8193 76.4858L57.3008 76.2299C57.0489 77.4273 32.8757 109.502 29.5313 113.688Z" fill="white"/>
<path d="M85.325 73.4229C85.6677 70.3728 105.402 48.2776 108.716 44.0902C111.772 40.2284 114.566 36.3177 117.142 32.0923L120.478 33.5355C121.099 33.9449 120.845 33.6884 121.252 34.2925C120.422 36.2916 96.1238 60.7892 92.5259 64.6975C89.9766 67.4667 87.6608 70.4597 85.325 73.4229Z" fill="white"/>
<path d="M54.5689 53.2529C54.2628 53.1643 54.4804 53.2422 53.9779 52.881C54.204 51.8038 55.4342 50.7813 56.1263 49.8946C55.6243 49.891 53.6335 51.5562 53.0904 51.9353C54.3873 50.1499 56.4867 48.5519 58.0595 46.9974C63.7881 41.3377 68.5607 36.2599 75.8999 32.9278C77.9918 32.0964 80.0609 31.4435 82.2305 30.8709C78.2505 33.9228 74.6264 37.4342 70.82 40.711C65.5894 45.1537 60.1719 49.3339 54.5689 53.2529Z" fill="white"/>
<path d="M77.398 66.2695C77.3672 64.2407 92.7862 46.2985 95.2213 42.9877C98.5651 38.4647 101.72 33.8024 104.686 29.0014C106.704 29.1109 108.626 29.418 110.591 29.8935C111.049 30.0012 110.846 29.8738 111.146 30.3541C109.572 33.7779 101.526 40.1882 98.5468 43.0109C90.8844 50.2716 84.3488 58.3215 77.398 66.2695Z" fill="white"/>
<path d="M36.7499 134.194C35.7076 133.34 35.0166 132.355 34.2331 131.259C37.9429 125.733 43.3894 121.138 47.7549 116.141C54.5309 108.386 60.7329 100.135 67.3616 92.2484C67.7557 91.8496 68.1823 91.4931 68.6038 91.1265L68.7266 91.264C66.991 94.1599 64.8072 96.7077 62.8871 99.4692C58.1368 106.303 53.4526 113.04 48.254 119.521C44.4002 124.325 40.1627 129.046 36.7499 134.194Z" fill="white"/>
<path d="M33.0353 127.066C31.9057 125.765 31.2038 122.54 30.5996 120.823C33.5396 118.597 36.0707 115.489 38.5555 112.739C47.8158 102.491 55.959 91.2147 64.7916 80.5706L65.6614 79.6166C65.8207 80.867 40.5698 114.999 37.8982 118.899C36.0975 121.529 34.5036 124.22 33.0353 127.066Z" fill="white"/>
<path d="M86.3233 89.7939C86.2776 89.5517 86.2936 89.3 86.3844 89.0673C87.9435 85.0941 108.646 61.366 112.759 56.4257C116.414 52.0711 119.919 47.5897 123.274 42.9803C124.221 41.6776 126.454 37.833 127.772 37.4426L128.843 38.1823C129.304 38.6471 129.604 38.9929 129.879 39.5994C129.307 41.7924 99.1027 74.8244 94.3272 80.2646C91.5956 83.3772 88.9709 86.6034 86.3233 89.7939Z" fill="white"/>
<path d="M81.9741 157.211C80.9547 157.274 79.5829 157.347 78.7309 156.748C80.5526 153.782 87.0528 149.042 89.8643 146.505C94.3 142.434 98.714 138.337 103.106 134.215C105.049 132.398 108.769 128.172 110.79 126.996L110.862 127.515L110.937 127.194C111.238 127.791 111.463 128.195 111.958 128.636C112.095 128.158 111.569 126.914 111.435 126.386L111.809 125.808L112.182 125.807C112.489 126.47 112.764 127.13 113.027 127.813C113.352 126.944 112.833 125.937 113.229 124.999C113.723 125.213 113.465 125.161 114.006 125.153L114.452 124.266L114.561 124.259C114.886 124.507 115.175 124.699 115.531 124.903L115.759 124.686L115.354 123.323L115.839 123.277C116.482 123.666 116.607 123.671 116.896 124.371C115.701 126.128 113.237 129.065 111.502 130.184C111.058 129.585 111.322 129.817 110.729 129.467L110.281 130.078C110.223 131.024 110.246 132.094 109.659 132.874C109.256 133.409 108.816 133.764 108.18 133.795L107.647 132.784L107.216 132.673C106.845 133.056 106.715 133.226 106.595 133.773C106.451 134.427 106.299 135.055 106.119 135.7C105.484 136.344 105.377 136.243 104.477 136.296C104.374 136.845 104.278 137.348 103.909 137.782C103.026 138.82 101.74 139.747 100.745 140.713C97.7671 143.614 94.8265 146.556 91.9248 149.541C90.336 151.146 88.5548 152.637 87.2253 154.485C87.1025 155.578 87.4263 155.986 87.8706 156.965C85.9055 157.004 83.9381 157.122 81.9741 157.211Z" fill="white"/>
<path d="M105.944 101.761C104.645 103.074 103.387 104.438 101.914 105.538C103.628 102.118 109.154 96.8116 111.884 93.6794C122.475 81.5296 134.147 69.1537 141.398 54.433C142.171 55.7512 142.918 57.0307 143.877 58.215C139.866 64.7687 135.468 71.0278 130.684 76.9917C127.532 80.8535 123.489 84.2595 121.019 88.6076C120.796 89.001 120.553 89.3337 120.262 89.6747C118.665 92.2677 117.05 93.8978 114.719 95.7855C113.953 96.6931 113.179 97.5924 112.395 98.4833C110.689 99.6093 109.519 102.423 107.406 102.683C106.87 102.749 106.353 102.102 105.944 101.761Z" fill="white"/>
<path d="M120.26 89.6763C118.664 92.2693 117.048 93.8993 114.717 95.7871C114.5 94.2397 115.994 94.1939 114.836 92.599C116.3 91.1325 117.732 89.6596 119.349 88.377C119.736 88.0705 119.576 88.2277 119.882 87.8462L120.381 87.8277C120.344 88.4443 120.304 89.0603 120.26 89.6763Z" fill="#54E6ED"/>
<path d="M112.39 98.4825C110.684 99.6085 109.514 102.422 107.4 102.682C106.865 102.748 106.348 102.101 105.938 101.761C107.459 100.201 108.953 98.589 110.52 97.0804C111.89 95.6163 113.287 93.8368 114.833 92.5966C115.99 94.1916 114.496 94.2374 114.714 95.7847C113.948 96.6923 113.174 97.5916 112.39 98.4825Z" fill="#54E6ED"/>
<path d="M45.1483 127.389C45.0891 127.385 45.0313 127.375 44.9744 127.357C44.9721 126.763 44.966 126.168 44.9702 125.573C44.9716 125.355 44.974 125.133 45.0158 124.92C45.3103 123.416 45.6772 121.928 46.1762 120.481C46.91 118.354 47.7143 116.251 48.465 114.129C49.164 112.154 49.8509 110.175 50.51 108.186C52.4286 102.397 54.3388 96.6051 56.2354 90.8088C57.0617 88.2832 57.8472 85.7449 58.6487 83.2113C59.4032 80.8272 60.1487 78.4401 60.9084 76.0574C61.5731 73.9719 62.2421 71.8879 62.9275 69.8091C64.0743 66.3336 65.2295 62.8609 66.3927 59.3905C67.2586 56.8081 68.2475 54.2759 69.5469 51.8753C70.0393 50.9657 70.5875 50.0952 71.3528 49.3807C71.6727 49.0819 71.9767 48.7657 72.283 48.4528C73.2869 47.4277 74.4976 46.7047 75.8262 46.2227C77.2313 45.713 78.636 45.1911 80.1436 44.997C81.5323 44.8185 82.8989 44.4704 84.313 44.4986C84.4685 44.5019 84.6338 44.5042 84.7781 44.4563C85.2103 44.3125 85.6293 44.3111 86.0662 44.4464C86.2697 44.5094 86.4994 44.4958 86.7174 44.5005C87.5902 44.5188 88.4673 44.4464 89.3285 44.6733C89.5051 44.7199 89.7024 44.679 89.8894 44.6926C90.8525 44.7626 91.8151 44.8373 92.7782 44.9106C92.8092 44.9129 92.8397 44.9223 92.8707 44.9256C93.3034 44.9735 93.7356 45.0233 94.1683 45.068C94.3543 45.0872 94.5422 45.0919 94.7287 45.1117C95.1614 45.1572 95.5936 45.2094 96.0263 45.2564C96.2433 45.2798 96.4613 45.2939 96.6784 45.3174C97.049 45.3574 97.4192 45.4058 97.7904 45.4429C98.0384 45.4678 98.2883 45.4762 98.5369 45.4997C98.97 45.5406 99.4022 45.612 99.8363 45.6261C100.524 45.6477 101.212 45.6369 101.901 45.6303C102.15 45.628 102.399 45.6068 102.648 45.5815C103.08 45.5368 103.512 45.4828 103.944 45.4325C104.838 45.5194 105.733 45.596 106.625 45.6956C107.456 45.7882 108.284 45.9037 109.112 46.0123C109.849 46.1086 110.585 46.2114 111.322 46.3063C111.598 46.342 111.878 46.3519 112.153 46.3975C112.362 46.4318 112.565 46.5037 112.771 46.5591C112.711 46.6667 112.621 46.7672 112.597 46.8823C112.449 47.5861 112.351 48.2936 112.376 49.0194C112.397 49.6433 112.42 50.2803 112.32 50.892C112.238 51.3909 112.197 51.8818 112.196 52.3817C112.194 53.2269 112.196 54.0725 112.195 54.9176C112.194 55.1366 112.231 55.3682 112.174 55.573C111.929 56.4665 112.033 57.3765 112.006 58.2804C111.998 58.5299 111.976 58.7793 111.951 59.0274C111.911 59.43 111.844 59.8307 111.825 60.2338C111.8 60.7637 111.849 61.296 111.678 61.8156C111.621 61.988 111.647 62.1877 111.632 62.3747C111.562 63.2757 111.507 64.1787 111.414 65.0774C111.321 65.9751 111.179 66.8677 111.075 67.7641C110.931 69.002 110.812 70.2427 110.663 71.4797C110.562 72.3145 110.428 73.1451 110.306 73.9771C110.225 74.5319 110.144 75.0872 110.051 75.6402C109.896 76.5624 109.732 77.4832 109.573 78.4049C109.351 79.6954 109.157 80.9911 108.901 82.2751C108.596 83.8056 108.315 85.3451 107.776 86.8194C107.734 86.9354 107.724 87.0632 107.695 87.1849C107.285 88.947 107.031 90.7398 106.564 92.4926C105.927 94.8791 105.279 97.2614 104.507 99.6071C103.88 101.508 103.247 103.409 102.551 105.285C101.922 106.984 101.271 108.682 100.503 110.321C99.8814 111.648 99.2885 112.991 98.5745 114.281C97.6344 115.978 96.6394 117.632 95.5349 119.228C94.4633 120.776 93.2686 122.209 91.9198 123.518C91.3138 124.107 90.7515 124.745 90.1125 125.295C89.2862 126.006 88.4091 126.66 87.5428 127.323C85.9746 128.525 84.2566 129.485 82.5024 130.378C81.8362 130.717 81.1231 130.964 80.4287 131.246C77.5616 132.408 74.5807 133 71.4862 133.01C70.6725 133.012 69.8593 133.012 69.0457 133.009C68.8267 133.009 68.6064 133.013 68.3898 132.988C67.4004 132.874 66.4115 132.759 65.4245 132.629C64.7766 132.543 64.1283 132.452 63.4875 132.325C61.8339 131.998 60.1873 131.642 58.5712 131.15C56.7188 130.587 54.8452 130.091 52.999 129.508C50.7627 128.801 48.5453 128.034 46.3199 127.293C46.0827 127.214 45.8478 127.126 45.6063 127.061C45.3305 126.986 45.1971 127.136 45.1483 127.389Z" fill="#00A6AA"/>
<path d="M45.1484 127.388C45.1973 127.134 45.3307 126.985 45.6051 127.059C45.8461 127.125 46.0814 127.212 46.3187 127.291C48.5441 128.032 50.7615 128.8 52.9977 129.506C54.8435 130.09 56.7171 130.585 58.5699 131.149C60.186 131.641 61.8326 131.996 63.4863 132.324C64.1271 132.451 64.7754 132.542 65.4233 132.627C66.4103 132.758 67.3997 132.873 68.3886 132.986C68.6052 133.011 68.826 133.007 69.0444 133.008C69.8581 133.01 70.6713 133.011 71.485 133.008C74.5795 132.999 77.5599 132.407 80.4275 131.244C81.1223 130.963 81.8355 130.716 82.5012 130.377C84.2549 129.483 85.9734 128.523 87.5416 127.322C88.4079 126.658 89.285 126.005 90.1113 125.293C90.7502 124.744 91.3126 124.105 91.9186 123.517C93.2674 122.207 94.4625 120.774 95.5337 119.226C96.6377 117.63 97.6332 115.976 98.5732 114.279C99.2873 112.99 99.8802 111.646 100.502 110.319C101.269 108.68 101.92 106.982 102.55 105.284C103.245 103.407 103.879 101.507 104.505 99.6056C105.278 97.2599 105.926 94.8776 106.563 92.4911C107.03 90.7383 107.284 88.9451 107.694 87.1834C107.722 87.0617 107.732 86.9344 107.775 86.8179C108.314 85.3437 108.594 83.8042 108.9 82.2736C109.156 80.9901 109.35 79.6939 109.572 78.4034C109.731 77.4817 109.895 76.5609 110.05 75.6387C110.142 75.0858 110.224 74.5305 110.305 73.9756C110.427 73.1436 110.56 72.3126 110.661 71.4782C110.811 70.2413 110.93 69.0005 111.074 67.7626C111.178 66.8658 111.32 65.9737 111.413 65.0759C111.507 64.1772 111.561 63.2742 111.631 62.3732C111.646 62.1862 111.619 61.9865 111.677 61.8141C111.848 61.2945 111.799 60.7623 111.824 60.2323C111.843 59.8292 111.91 59.4285 111.95 59.0259C111.974 58.7774 111.997 58.5284 112.005 58.2789C112.032 57.3751 111.928 56.4651 112.173 55.5715C112.23 55.3667 112.193 55.1356 112.193 54.9162C112.195 54.071 112.192 53.2254 112.195 52.3802C112.196 51.8804 112.237 51.3894 112.319 50.8905C112.419 50.2793 112.396 49.6423 112.375 49.0179C112.35 48.2916 112.448 47.5846 112.596 46.8808C112.62 46.7662 112.71 46.6652 112.77 46.5576C113.479 46.6342 114.191 46.6887 114.896 46.7935C115.939 46.948 116.979 47.1237 118.015 47.3201C118.5 47.4122 118.979 47.5559 119.45 47.7095C120.168 47.9435 120.689 48.4105 120.966 49.1222C121.047 49.3294 121.096 49.5455 121.376 49.5549C121.183 49.9011 121.062 50.2568 120.984 50.6594C120.824 51.4834 120.848 52.3046 120.839 53.13C120.512 53.3015 120.469 53.6007 120.467 53.9268C120.459 55.5147 120.497 57.103 120.278 58.6848C120.155 59.577 120.138 60.4837 120.031 61.3786C119.882 62.6128 119.695 63.8427 119.521 65.074C119.348 66.3053 119.165 67.5352 118.997 68.767C118.905 69.4445 118.837 70.1247 118.758 70.8041C118.704 70.9145 118.622 71.0202 118.602 71.1367C118.461 71.995 118.345 72.8571 118.197 73.7144C117.876 75.5828 117.572 77.4549 117.201 79.3139C116.69 81.8761 116.125 84.4276 115.583 86.9837C115.559 87.1378 115.543 87.2942 115.509 87.4465C115.105 89.2444 114.68 91.038 114.296 92.8401C113.508 96.5383 112.675 100.226 111.72 103.885C111.057 106.425 110.348 108.953 109.628 111.478C109.089 113.371 108.488 115.248 107.938 117.139C107.695 117.975 107.346 118.788 107.312 119.676L107.319 119.663C107.251 119.79 107.183 119.917 107.115 120.043C107.013 120.267 106.881 120.482 106.812 120.716C106.378 122.177 105.957 123.643 105.534 125.107C105.189 126.303 104.847 127.499 104.504 128.695C104.502 128.883 104.499 129.071 104.496 129.259L104.502 129.247C104.394 129.466 104.257 129.677 104.182 129.907C103.958 130.587 103.773 131.28 103.549 131.96C102.758 134.357 101.958 136.751 101.157 139.144C101.009 139.587 100.838 140.022 100.673 140.459C100.615 140.612 100.586 140.757 100.724 140.884C100.492 141.327 100.26 141.769 100.029 142.212C99.8252 142.278 99.6941 142.415 99.6321 142.619C99.5955 142.67 99.5588 142.72 99.5217 142.771C98.926 143.585 98.1847 143.979 97.1709 143.587C94.5175 143.273 91.998 142.418 89.4499 141.677C85.9696 140.665 82.4965 139.631 78.9815 138.742C74.4033 137.584 69.906 136.157 65.4439 134.615C63.258 133.859 61.0688 133.112 58.8776 132.37C56.5395 131.578 54.1882 130.822 51.8599 130.002C49.797 129.275 47.7572 128.484 45.7103 127.712C45.5116 127.636 45.3354 127.497 45.1484 127.388Z" fill="#009CA1"/>
<path d="M110.112 143.368C109.713 143.297 109.31 143.244 108.917 143.152C107.761 142.88 106.607 142.601 105.457 142.305C105.065 142.204 104.676 142.073 104.306 141.909C103.755 141.664 103.536 141.198 103.814 140.685C104.66 139.126 105.009 137.399 105.564 135.742C106.12 134.082 106.64 132.409 107.175 130.741C107.356 130.176 107.552 129.614 107.713 129.042C107.804 128.715 107.836 128.371 107.894 128.037C109.08 123.919 110.339 119.819 111.439 115.677C114.167 105.396 116.697 95.0654 118.892 84.6553C119.582 81.3799 120.191 78.0885 120.667 74.7732C121.098 71.7694 121.542 68.7678 121.981 65.7654C122.193 65.4676 122.178 65.1298 122.152 64.7901L122.15 64.8051C122.198 64.7258 122.273 64.6515 122.289 64.5665C122.62 62.8517 122.961 61.1389 123.264 59.419C123.464 58.284 123.619 57.14 123.772 55.997C123.829 55.5653 123.816 55.1246 123.848 54.6891C123.899 54.0056 123.941 53.3201 124.026 52.6403C124.117 51.9117 124.299 51.76 125.11 51.6035C125.323 51.65 125.534 51.6994 125.747 51.7416C126.841 51.9601 127.931 52.2067 129.032 52.3843C129.795 52.5074 130.574 52.5337 131.346 52.6032C131.262 53.4052 131.101 54.2005 131.144 55.0133C131.147 55.0743 131.138 55.1401 131.118 55.1974C130.935 55.71 130.98 56.2427 130.972 56.7708C130.968 57.0198 131.008 57.2828 130.942 57.5154C130.744 58.2201 130.817 58.937 130.778 59.6501C130.719 60.7349 130.526 61.8112 130.582 62.9034C130.369 63.5696 130.42 64.2583 130.402 64.9414C130.397 65.1265 130.352 65.3102 130.331 65.4953C130.292 65.834 130.253 66.1727 130.223 66.5124C130.2 66.76 130.238 67.0235 130.166 67.2542C130.014 67.7437 130.044 68.2403 130.026 68.7364C129.842 68.7091 129.658 68.687 129.475 68.6532C128.741 68.5179 128.01 68.3704 127.274 68.2459C126.933 68.1881 126.74 68.3103 126.62 68.6302C126.555 68.8035 126.512 68.9877 126.485 69.1709C126.416 69.6318 126.369 70.0959 126.301 70.5573C125.986 72.7103 125.661 74.8615 125.355 77.016C125.263 77.6605 125.221 78.3121 125.156 78.9609C125.144 79.1141 125.125 79.2672 125.121 79.4209C125.11 79.971 125.251 80.1927 125.778 80.3919C126.035 80.4892 126.31 80.5437 126.577 80.6122C127.229 80.78 127.882 80.9453 128.534 81.1112C128.282 81.4865 128.236 81.9263 128.165 82.3528C127.95 83.6433 127.792 84.9447 127.54 86.2277C126.934 89.3184 126.319 92.4078 125.648 95.4849C125.043 98.2591 124.381 101.021 123.708 103.779C122.642 108.147 121.58 112.516 120.309 116.831C119.656 119.047 119.022 121.27 118.338 123.477C117.821 125.149 117.238 126.8 116.682 128.46C116.583 128.756 116.476 129.05 116.366 129.343C115.895 130.6 115.417 131.855 114.948 133.113C114.194 135.134 113.345 137.114 112.448 139.073C112.136 139.755 111.832 140.44 111.51 141.117C111.214 141.738 110.899 142.35 110.595 142.966C110.494 143.174 110.348 143.323 110.112 143.368Z" fill="#FAE3B3"/>
<path d="M103.942 45.4328C103.51 45.4831 103.078 45.5371 102.645 45.5818C102.397 45.6071 102.148 45.6287 101.898 45.6306C101.21 45.6372 100.522 45.648 99.8342 45.6264C99.4001 45.6128 98.9684 45.5414 98.5348 45.5C98.2863 45.4765 98.0363 45.4681 97.7883 45.4432C97.4171 45.4056 97.0469 45.3577 96.6763 45.3177C96.4592 45.2943 96.2412 45.2802 96.0242 45.2567C95.5915 45.2102 95.1593 45.158 94.7266 45.112C94.5406 45.0922 94.3527 45.0875 94.1662 45.0683C93.7335 45.0232 93.3008 44.9739 92.8686 44.9259C92.8376 44.9227 92.8071 44.9133 92.776 44.9109C91.813 44.8376 90.8504 44.7629 89.8873 44.6929C89.7003 44.6793 89.5025 44.7202 89.3264 44.6737C88.4652 44.4472 87.5881 44.5191 86.7153 44.5008C86.4973 44.4961 86.2675 44.5097 86.0641 44.4468C85.6272 44.3115 85.2082 44.3129 84.776 44.4566C84.6317 44.5045 84.4664 44.5022 84.3109 44.4989C82.8968 44.4702 81.5302 44.8184 80.1415 44.9973C78.6344 45.1914 77.2292 45.7128 75.8241 46.223C74.4955 46.705 73.2848 47.4276 72.2809 48.4531C71.9746 48.766 71.6706 49.0827 71.3507 49.381C70.5854 50.0955 70.0372 50.9656 69.5448 51.8756C68.2449 54.2757 67.256 56.8084 66.3906 59.3908C65.2274 62.8612 64.0722 66.3339 62.9255 69.8094C62.2396 71.8878 61.571 73.9723 60.9063 76.0577C60.1466 78.4404 59.4006 80.8275 58.6466 83.2117C57.8451 85.7453 57.0596 88.2835 56.2333 90.8091C54.3372 96.6054 52.4265 102.397 50.5079 108.187C49.8488 110.175 49.1615 112.155 48.4629 114.13C47.7122 116.251 46.9083 118.354 46.1741 120.481C45.6747 121.928 45.3078 123.416 45.0137 124.92C44.9719 125.133 44.9695 125.356 44.9681 125.574C44.9639 126.169 44.9705 126.763 44.9723 127.358C44.5096 127.098 44.0191 126.878 43.5893 126.572C42.7483 125.974 42.4449 125.15 42.6271 124.116C42.9334 122.378 43.5874 120.749 44.1441 119.09C44.4325 118.231 44.7896 117.395 45.0945 116.541C45.8513 114.419 46.6321 112.305 47.3354 110.166C48.0481 107.997 48.6532 105.793 49.3527 103.619C50.3881 100.404 51.3211 97.1532 52.5895 94.0145C52.7977 93.4987 52.8752 92.9293 53.0044 92.3829C53.2848 91.1967 53.546 90.0053 53.8415 88.8229C54.1525 87.5793 54.5025 86.3452 54.822 85.1035C55.9443 80.7424 57.0934 76.3879 58.1665 72.0151C58.7767 69.528 59.27 67.0118 59.7948 64.5041C60.1081 63.0064 60.3966 61.503 60.6686 59.9969C61.0237 58.0308 61.3516 56.0595 61.6918 54.0906C61.9149 52.7987 62.1456 51.5082 62.3617 50.2153C62.5214 49.2612 62.629 48.2967 62.823 47.3501C63.0358 46.3109 63.2552 45.2722 63.7354 44.3035C64.1281 43.5114 64.7384 43.0444 65.5647 42.8199C66.0486 42.6883 66.5372 42.6028 67.0451 42.6155C67.7958 42.6348 68.5479 42.5986 69.2982 42.6296C70.6723 42.6869 72.0333 42.8448 73.3642 43.2211C73.6903 43.3131 74.037 43.3535 74.3766 43.369C75.218 43.4076 76.0627 43.3385 76.8985 43.5325C77.1968 43.6021 77.5228 43.5438 77.8343 43.5664C78.3313 43.6025 78.827 43.657 79.3231 43.7045C79.3851 43.7106 79.4466 43.7261 79.5091 43.7303C80.599 43.8022 81.689 43.8698 82.7784 43.9455C83.0889 43.9671 83.3981 44.0103 83.7077 44.0479C83.8317 44.0629 83.9534 44.1 84.0774 44.1071C85.3552 44.179 86.6326 44.2537 87.9114 44.3133C88.5973 44.3453 89.2785 44.3519 89.9653 44.4514C90.7024 44.5581 91.4639 44.498 92.2147 44.5092C92.839 44.5186 93.4577 44.5313 94.0816 44.6403C94.6299 44.7357 95.2044 44.677 95.7672 44.692C96.4531 44.7098 97.1456 44.6422 97.8193 44.8418C97.9076 44.8682 98.0053 44.862 98.0988 44.8672C99.2827 44.9382 100.467 44.9988 101.649 45.0824C102.302 45.1284 102.953 45.2073 103.603 45.2853C103.721 45.2994 103.83 45.3816 103.942 45.4328Z" fill="#00B3BE"/>
<path d="M121.979 65.7651C121.54 68.7675 121.096 71.7695 120.665 74.7729C120.189 78.0877 119.58 81.3796 118.89 84.655C116.695 95.0651 114.165 105.396 111.436 115.677C110.337 119.819 109.078 123.918 107.892 128.037C107.757 128.346 107.598 128.649 107.489 128.969C106.375 132.243 105.222 135.503 103.936 138.714C103.612 139.523 103.269 140.329 102.87 141.102C102.557 141.708 102.168 142.278 101.77 142.833C101.341 143.43 100.734 143.517 99.9707 143.156C99.9895 142.841 100.008 142.526 100.027 142.212C100.258 141.769 100.49 141.326 100.722 140.884C101.164 139.817 101.631 138.76 102.042 137.681C102.94 135.314 103.593 132.868 104.288 130.437C104.398 130.051 104.432 129.644 104.5 129.246L104.494 129.259C104.697 129.119 104.679 128.896 104.71 128.691C104.828 128.374 104.965 128.062 105.06 127.738C105.599 125.919 106.129 124.098 106.659 122.277C106.876 121.531 107.086 120.784 107.299 120.037C107.306 119.912 107.312 119.788 107.317 119.663L107.31 119.676C107.436 119.396 107.588 119.124 107.683 118.834C108.054 117.706 108.401 116.571 108.767 115.441C109.961 111.754 111.023 108.029 111.991 104.278C113.24 99.4384 114.283 94.5502 115.357 89.67C115.524 88.9089 115.642 88.1366 115.782 87.3694C115.904 86.8902 116.049 86.4153 116.143 85.9309C116.733 82.8754 117.316 79.8184 117.892 76.7601C118.243 74.8955 118.577 73.0276 118.919 71.1616C119.054 70.3935 119.203 69.6277 119.319 68.8568C119.63 66.7902 119.936 64.7231 120.223 62.6536C120.333 61.8508 120.396 61.0408 120.461 60.2323C120.546 59.1753 120.558 58.1093 120.697 57.0598C120.869 55.7505 120.823 54.4417 120.837 53.131C120.847 52.3055 120.822 51.4843 120.983 50.6603C121.061 50.2577 121.182 49.9021 121.375 49.5558C121.281 49.2331 121.188 48.9099 121.095 48.5895C121.308 48.3471 121.56 48.4236 121.79 48.4903C122.129 48.589 122.394 48.8089 122.612 49.0851C123.356 50.0294 123.637 51.1419 123.763 52.3051C123.782 52.4822 123.733 52.6879 123.653 52.85C123.464 53.2338 123.464 53.636 123.473 54.0423C123.514 55.7064 123.254 57.3412 122.992 58.9752C122.72 60.6702 122.438 62.3633 122.171 64.0588C122.133 64.3026 122.154 64.5558 122.147 64.8048L122.149 64.7903C121.928 65.0858 121.954 65.4254 121.979 65.7651Z" fill="#008386"/>
<path d="M133.617 82.474C133.781 82.6178 133.944 82.7615 134.095 82.895C134.254 84.2024 134.196 85.4652 133.854 86.721C133.237 88.9839 132.642 91.2535 132.055 93.5245C131.061 97.3702 130.083 101.221 129.093 105.067C127.978 109.399 126.889 113.737 125.728 118.056C125.038 120.623 124.271 123.171 123.469 125.705C122.307 129.373 121.094 133.026 119.878 136.676C119.324 138.338 118.723 139.985 117.904 141.542C117.639 142.047 117.315 142.496 116.909 142.896C116.339 143.459 115.618 143.485 114.901 143.476C114.54 143.472 114.267 143.209 114.108 142.886C113.998 142.665 113.945 142.415 113.867 142.179C114.013 141.8 114.128 141.405 114.31 141.044C115.482 138.721 116.478 136.322 117.463 133.917C120.126 127.421 122.387 120.79 124.108 113.981C124.997 110.462 125.811 106.924 126.685 103.401C127.544 99.9372 128.341 96.4607 128.973 92.9476C129.511 89.9597 130.055 86.9728 130.596 83.9849C130.665 83.8482 130.759 83.719 130.797 83.5743C130.988 82.8273 131.43 82.3152 132.163 82.0625C132.648 82.2001 133.132 82.3369 133.617 82.474Z" fill="#008386"/>
<path d="M130.597 83.987C130.055 86.9744 129.511 89.9613 128.974 92.9492C128.341 96.4623 127.544 99.9388 126.685 103.403C125.811 106.926 124.998 110.464 124.108 113.983C122.387 120.791 120.126 127.423 117.464 133.918C116.478 136.323 115.482 138.723 114.311 141.046C114.129 141.406 114.014 141.801 113.868 142.181C113.698 142.396 113.526 142.609 113.359 142.827C112.799 143.559 112.063 143.832 111.167 143.652C110.81 143.58 110.463 143.464 110.111 143.369C110.347 143.325 110.494 143.175 110.596 142.968C110.901 142.351 111.216 141.739 111.511 141.118C111.833 140.441 112.137 139.756 112.449 139.074C113.346 137.115 114.195 135.135 114.949 133.115C115.419 131.856 115.896 130.601 116.368 129.344C116.477 129.051 116.584 128.758 116.683 128.461C117.239 126.801 117.822 125.15 118.34 123.478C119.024 121.271 119.658 119.049 120.311 116.832C121.581 112.517 122.643 108.148 123.709 103.78C124.383 101.022 125.045 98.2602 125.649 95.4861C126.32 92.4089 126.935 89.3196 127.541 86.2288C127.793 84.9458 127.951 83.6445 128.166 82.354C128.237 81.9274 128.284 81.4877 128.535 81.1123C129.149 81.2598 129.762 81.4073 130.375 81.5548C130.778 82.0735 130.876 82.6377 130.677 83.2705C130.606 83.4951 130.621 83.7474 130.597 83.987Z" fill="#FCEED2"/>
<path d="M135.126 70.4592C135.412 70.5781 135.695 70.7082 135.987 70.8139C138.313 71.6567 140.6 72.5911 142.763 73.8037C143.362 74.14 143.946 74.507 144.517 74.8898C144.77 75.0594 144.972 75.3042 145.197 75.5151C143.514 75.5621 141.823 75.3714 140.147 75.6904C139.588 75.797 139.041 75.9116 138.585 76.2706C137.903 76.8085 137.595 77.5357 137.544 78.3912C137.524 78.7233 137.637 79.086 137.356 79.3768C136.986 79.4938 136.624 79.4417 136.249 79.3726C134.709 79.0888 133.22 78.6143 131.729 78.1563C129.966 77.6146 128.18 77.1636 126.395 76.7098C126.185 76.6567 125.962 76.6581 125.746 76.6342C125.746 76.5412 125.735 76.4463 125.749 76.3551C125.945 75.0646 126.147 73.775 126.342 72.4845C126.458 71.7164 126.549 70.944 126.679 70.1783C126.756 69.7249 126.832 69.2575 127.186 68.9066C128.323 68.9033 129.436 68.9207 130.526 69.2251C130.79 69.2988 131.077 69.2904 131.354 69.3195L131.335 69.3125C132.02 69.63 132.732 69.8476 133.488 69.9077C133.993 70.2131 134.552 70.3587 135.126 70.4592Z" fill="#EA6481"/>
<path d="M125.745 76.6355C125.961 76.6594 126.184 76.658 126.393 76.7111C128.179 77.1649 129.965 77.6155 131.728 78.1576C133.219 78.6156 134.708 79.0901 136.248 79.3739C136.623 79.4429 136.985 79.4946 137.355 79.3781C137.636 79.0868 137.523 78.7246 137.543 78.3925C137.594 77.5375 137.902 76.8102 138.584 76.2718C139.039 75.9125 139.587 75.7978 140.146 75.6917C141.822 75.3727 143.513 75.5634 145.196 75.5164C145.465 75.7419 145.535 76.0308 145.452 76.3597C145.377 76.658 145.157 76.8398 144.893 76.9512C144.636 77.0597 144.364 77.1419 144.091 77.2034C143.483 77.3411 142.867 77.4454 142.26 77.5891C141.752 77.7099 141.214 77.778 140.777 78.2154C140.834 78.3812 140.861 78.571 140.958 78.7134C141.238 79.1258 141.533 79.5294 141.845 79.9188C142.411 80.6254 143.005 81.3104 143.564 82.0221C143.911 82.4642 144.215 82.9391 144.374 83.4902C144.601 84.2757 144.252 84.8752 143.454 85.0058C143.183 85.0504 142.887 85.0447 142.62 84.9856C141.555 84.7497 140.485 84.5228 139.439 84.2198C137.85 83.7603 136.281 83.2365 134.701 82.7489C134.345 82.6389 133.979 82.5652 133.618 82.4745C133.134 82.3378 132.649 82.2006 132.164 82.0639C131.567 81.8939 130.971 81.7238 130.374 81.5537C129.761 81.4062 129.148 81.2592 128.535 81.1112C127.882 80.9449 127.229 80.78 126.578 80.6118C126.31 80.5427 126.036 80.4887 125.778 80.3915C125.251 80.1923 125.11 79.9705 125.122 79.4204C125.125 79.2668 125.145 79.1141 125.157 78.96C125.223 78.7885 125.309 78.6227 125.35 78.446C125.49 77.8447 125.614 77.2391 125.745 76.6355Z" fill="#E04A6D"/>
<path d="M135.125 70.4592C134.551 70.3587 133.993 70.2131 133.487 69.9082C133.195 69.3693 133.097 68.7811 133.044 68.1817L133.042 68.1845C133.247 67.9632 133.234 67.6954 133.203 67.4239C133.574 65.6495 133.778 63.8558 133.795 62.0434C133.806 60.9215 133.816 59.7987 133.782 58.6773C133.727 56.871 133.636 55.0655 133.558 53.2597C133.551 53.0811 133.533 52.9036 133.518 52.7044C132.767 52.4915 132.054 52.5672 131.345 52.6024C130.573 52.5329 129.794 52.5061 129.031 52.3835C127.93 52.2064 126.84 51.9597 125.746 51.7408C125.533 51.6985 125.322 51.6487 125.109 51.6027C124.847 51.5073 124.58 51.4246 124.326 51.311C124.188 51.2489 124.051 51.154 123.954 51.0394C123.694 50.7331 123.865 50.2018 124.258 50.152C124.593 50.1097 124.946 50.1252 125.28 50.1825C126.172 50.3357 127.062 50.5076 127.946 50.7045C129.111 50.9638 130.282 51.1193 131.477 51.0939C132.102 51.0803 132.728 51.0883 133.353 51.0887C133.572 51.0887 133.793 51.0784 134.009 51.1028C135.446 51.2654 136.19 51.7958 136.619 53.146C136.771 53.62 136.893 54.1147 136.942 54.6084C137.147 56.6957 137.247 58.7868 137.046 60.882C137.019 61.1616 137.013 61.4444 137.012 61.7258C137.007 63.822 136.919 65.9149 136.777 68.006C136.756 68.3165 136.695 68.6242 136.646 68.9324C136.509 69.809 136.029 70.3465 135.125 70.4592Z" fill="#008386"/>
<path d="M94.6769 96.163C95.3191 96.1471 95.935 96.4041 96.5006 96.7277C98.4112 97.8205 99.9822 99.2707 100.954 101.282C101.224 101.841 101.385 102.453 101.592 103.041C101.622 103.129 101.641 103.223 101.649 103.315C101.697 103.899 101.181 104.248 100.65 103.986C100.512 103.917 100.389 103.816 100.268 103.718C98.9637 102.658 97.4843 101.938 95.8974 101.412C95.1861 101.176 94.4843 100.907 93.7923 100.62C92.5966 100.124 92.024 99.3045 92.49 97.7383C92.8099 96.6624 93.5216 96.1367 94.6769 96.163Z" fill="#00A6AA"/>
<path d="M68.4443 88.8691C69.102 88.8865 69.6836 89.0021 70.2309 89.2403C70.8938 89.5292 71.3561 90.0234 71.544 90.7323C71.6065 90.9682 71.66 91.2421 71.6013 91.4685C71.372 92.3555 70.5842 93.7752 69.1983 93.7057C68.5467 93.6732 67.897 93.5816 67.2501 93.4896C65.829 93.288 64.413 93.0874 62.9707 93.3153C62.4812 93.3928 61.9748 93.3726 61.4759 93.381C61.2917 93.3843 61.1 93.3636 60.9229 93.3138C60.6044 93.2251 60.4574 92.8408 60.6349 92.5561C60.7322 92.4001 60.8618 92.2573 61.0014 92.137C62.9825 90.4232 65.2492 89.3126 67.8495 88.9166C68.0647 88.8842 68.2841 88.8814 68.4443 88.8691Z" fill="#00A6AA"/>
<path d="M131.345 52.6038C132.054 52.5686 132.766 52.493 133.517 52.7058C133.532 52.905 133.55 53.0826 133.558 53.2611C133.635 55.067 133.726 56.8724 133.781 58.6787C133.816 59.7996 133.806 60.9224 133.795 62.0448C133.777 63.8572 133.573 65.6509 133.203 67.4253C133.007 67.6485 133.002 67.9125 133.042 68.1859L133.043 68.1831C132.963 68.2756 132.869 68.3597 132.803 68.4617C132.456 68.9954 131.981 69.3003 131.335 69.3143L131.353 69.3214C130.91 69.1269 130.468 68.9319 130.025 68.7374C130.044 68.2413 130.013 67.7443 130.165 67.2552C130.236 67.0246 130.199 66.761 130.222 66.5134C130.252 66.1738 130.291 65.8351 130.33 65.4963C130.351 65.3112 130.396 65.1276 130.401 64.9425C130.42 64.2589 130.368 63.5702 130.581 62.9045C130.525 61.8127 130.718 60.7359 130.778 59.6512C130.817 58.9385 130.743 58.2211 130.941 57.5165C131.007 57.2839 130.966 57.0208 130.971 56.7718C130.979 56.2438 130.934 55.711 131.117 55.1985C131.137 55.1412 131.146 55.0754 131.143 55.0143C131.1 54.2016 131.261 53.4058 131.345 52.6038Z" fill="#FCEED2"/>
<path d="M146.342 75.4506C146.115 75.1194 145.837 74.8013 145.52 74.558C144.876 74.0637 144.214 73.5841 143.517 73.1707C142.145 72.356 140.701 71.6772 139.221 71.0759C138.614 70.8292 138.005 70.5887 137.305 70.3082C137.406 68.9942 137.491 67.7478 137.6 66.5038C137.87 63.4436 137.996 60.3792 137.895 57.3081C137.846 55.8377 137.731 54.3682 137.355 52.9376C137.237 52.4881 137.07 52.0432 136.862 51.6274C136.548 50.9993 136.019 50.6352 135.305 50.5671C134.994 50.5375 134.683 50.4975 134.371 50.4726C132.53 50.3247 130.687 50.1964 128.849 50.0282C127.384 49.8943 125.931 49.6754 124.499 49.3254C124.177 49.2465 123.93 49.1225 123.722 48.8627C123.096 48.0828 122.262 47.5862 121.339 47.2546C120.664 47.0122 119.969 46.8116 119.269 46.657C117.065 46.1712 114.819 45.9702 112.581 45.7132C111.182 45.552 109.781 45.4069 108.381 45.257C106.888 45.0968 105.395 44.9253 103.9 44.7844C102.186 44.6228 100.469 44.4908 98.7543 44.3423C96.1662 44.1178 93.5785 43.8819 90.9895 43.6663C89.0554 43.5052 87.1189 43.3713 85.1843 43.2186C82.0949 42.9752 79.0061 42.7248 75.9167 42.4805C74.8869 42.3993 73.8571 42.3161 72.8259 42.2555C71.1695 42.1583 69.513 42.0526 67.8551 42.0028C67.0447 41.9788 66.2305 42.0765 65.4178 42.1136C65.0589 42.1301 64.754 42.2809 64.4641 42.4721C63.9567 42.8075 63.5461 43.2435 63.3051 43.7983C63.082 44.3113 62.8767 44.8431 62.7545 45.3871C62.5361 46.3624 62.3679 47.3509 62.21 48.3384C61.7656 51.1181 61.3498 53.9021 60.8998 56.6809C60.0842 61.7152 59.0037 66.6955 57.7353 71.633C56.1643 77.7483 54.5651 83.8566 52.9476 89.9596C51.0572 97.0925 48.9088 104.146 46.3827 111.082C45.1528 114.459 43.9323 117.84 42.7353 121.229C42.4341 122.08 42.2049 122.962 42.0033 123.843C41.6656 125.322 42.3176 126.407 43.4301 127.008C44.116 127.38 44.8108 127.752 45.5385 128.025C47.9373 128.928 50.3403 129.822 52.7639 130.655C64.8846 134.821 77.0945 138.704 89.4162 142.233C92.2091 143.033 94.986 143.92 97.8894 144.267C99.9579 144.514 101.8 144.052 103.277 142.491C103.383 142.38 103.494 142.275 103.621 142.147C103.941 142.192 104.255 142.208 104.553 142.282C105.674 142.562 106.791 142.863 107.91 143.153C108.908 143.412 109.899 143.712 110.909 143.911C111.83 144.091 112.776 144.2 113.627 143.652C113.773 143.685 113.894 143.719 114.016 143.739C114.664 143.842 115.309 143.969 115.96 144.035C116.625 144.102 117.206 143.85 117.631 143.344C117.991 142.916 118.341 142.461 118.594 141.966C119.061 141.048 119.496 140.109 119.873 139.151C121.593 134.785 123.042 130.326 124.376 125.83C126.556 118.489 128.592 111.107 130.555 103.705C132.189 97.5407 133.749 91.3568 135.017 85.1039C135.126 84.565 135.155 84.0022 135.414 83.4671C135.584 83.5033 135.737 83.5258 135.885 83.5681C137.416 84.0092 138.943 84.471 140.48 84.8901C141.324 85.1203 142.183 85.2913 143.04 85.4684C143.535 85.5708 144.034 85.5718 144.524 85.4012C145.142 85.1861 145.464 84.7891 145.455 84.1516C145.451 83.8448 145.408 83.5197 145.296 83.2378C145.112 82.776 144.912 82.3015 144.62 81.9064C144.044 81.1285 143.408 80.3937 142.779 79.6561C142.475 79.2996 142.125 78.9829 141.809 78.6362C141.717 78.5347 141.671 78.3905 141.588 78.236C141.829 78.1688 142.006 78.0997 142.189 78.072C142.746 77.9879 143.307 77.9292 143.863 77.8427C144.543 77.737 145.228 77.636 145.851 77.3222C146.651 76.9177 146.852 76.1957 146.342 75.4506ZM124.668 50.5845C124.97 50.6418 125.269 50.7066 125.572 50.7559C127.239 51.0289 128.913 51.2455 130.598 51.3662C132.033 51.4691 133.466 51.6077 134.903 51.688C135.492 51.7209 135.823 52.0018 136.016 52.5181C136.359 53.4347 136.495 54.394 136.589 55.359C136.839 57.9503 136.828 60.5455 136.645 63.1406C136.498 65.2312 136.351 67.3213 136.202 69.4118C136.193 69.5345 136.166 69.6561 136.143 69.8088C135.706 69.8939 135.354 69.6453 134.976 69.5537C134.583 69.4588 134.202 69.3132 133.79 69.1821C133.694 68.6099 133.806 68.057 133.851 67.504C134.015 65.4463 134.192 63.3901 134.355 61.3324C134.537 59.0219 134.583 56.7073 134.518 54.3912C134.502 53.8293 134.452 53.267 134.384 52.7089C134.308 52.0887 134.126 51.9506 133.537 51.9788C130.636 52.1174 127.8 51.7157 125.009 50.9424C124.87 50.9039 124.741 50.8226 124.608 50.7616C124.628 50.7024 124.648 50.6436 124.668 50.5845ZM98.7209 142.995C97.7386 143.17 96.8455 142.98 95.9674 142.762C94.1479 142.311 92.3289 141.852 90.5263 141.338C77.7517 137.695 65.0946 133.678 52.5384 129.342C50.4422 128.618 48.3577 127.858 46.2836 127.073C45.4981 126.776 44.7512 126.372 43.9971 125.996C43.214 125.606 42.9551 124.943 43.1393 124.116C43.2953 123.415 43.4555 122.711 43.6932 122.036C44.8447 118.764 45.9966 115.491 47.1964 112.236C49.9555 104.752 52.2627 97.1277 54.2955 89.4184C55.8411 83.5559 57.3862 77.6929 58.8896 71.8191C60.1458 66.9111 61.2239 61.9628 62.0339 56.96C62.4835 54.1817 62.9011 51.3981 63.3455 48.6188C63.5086 47.6003 63.6749 46.5804 63.9032 45.5751C64.0187 45.0649 64.2316 44.5631 64.4796 44.0999C64.7591 43.578 65.2205 43.2707 65.8509 43.259C66.4452 43.2477 67.0405 43.1627 67.6324 43.1819C69.2278 43.2331 70.8223 43.313 72.4163 43.4004C73.4475 43.4568 74.4773 43.5413 75.507 43.6221C78.5959 43.865 81.6843 44.1145 84.7732 44.3569C86.7078 44.5091 88.6434 44.6458 90.5775 44.8041C92.4177 44.9549 94.256 45.1288 96.0962 45.2852C97.8734 45.4365 99.653 45.5685 101.43 45.7287C103.05 45.8748 104.668 46.0444 106.287 46.2093C107.75 46.3582 109.215 46.4963 110.675 46.6716C113.16 46.9699 115.643 47.2785 118.123 47.6163C118.829 47.7126 119.539 47.8498 120.187 48.1162C120.404 48.446 120.41 48.7945 120.432 49.1361C120.575 51.3277 120.521 53.5178 120.327 55.7033C120.2 57.1366 120.062 58.5705 119.879 59.9977C119.621 62.014 119.357 64.0313 119.023 66.0359C118.455 69.4598 117.843 72.8766 117.226 76.2915C116.276 81.5527 115.219 86.7928 113.974 91.9924C111.922 100.564 109.74 109.103 107.47 117.619C106.077 122.844 104.466 128.006 102.842 133.162C102.233 135.099 101.574 137.022 100.898 138.936C100.618 139.73 100.256 140.497 99.8916 141.257C99.5942 141.877 99.2208 142.458 98.7209 142.995ZM103.529 139.698C103.323 140.219 103.063 140.724 102.78 141.208C102.321 141.995 101.628 142.518 100.773 142.821C100.665 142.859 100.537 142.84 100.341 142.852C101.036 141.654 101.61 140.481 102.029 139.242C102.82 136.904 103.614 134.565 104.357 132.211C105.964 127.113 107.531 122.002 108.889 116.831C111.183 108.093 113.451 99.347 115.504 90.5478C116.527 86.1628 117.419 81.7481 118.21 77.3142C118.738 74.3588 119.309 71.4103 119.811 68.4507C120.194 66.1999 120.528 63.9397 120.831 61.6767C121.097 59.6923 121.346 57.7023 121.5 55.7066C121.663 53.5855 121.814 51.4573 121.609 49.3264C121.591 49.1469 121.606 48.9646 121.606 48.7072C122.41 49.0421 122.971 49.5472 123.231 50.32C123.369 50.7282 123.424 51.1745 123.452 51.6077C123.546 53.0523 123.389 54.4851 123.177 55.911C122.827 58.2623 122.477 60.6141 122.108 62.9625C121.71 65.4961 121.299 68.0283 120.875 70.5577C120.431 73.2106 119.969 75.8602 119.509 78.5108C118.82 82.4862 118.03 86.4414 117.144 90.3777C115.262 98.7349 113.205 107.05 111.03 115.335C109.189 122.35 107.254 129.339 104.841 136.185C104.426 137.364 103.989 138.536 103.529 139.698ZM113.583 141.414C113.415 141.783 113.219 142.14 113.016 142.491C112.864 142.752 112.625 142.889 112.312 142.873C112.03 142.859 111.744 142.876 111.468 142.832C110.357 142.657 109.272 142.377 108.16 141.986C108.225 141.758 108.264 141.548 108.343 141.354C109.289 139.036 110.002 136.639 110.77 134.26C110.827 134.083 110.863 133.896 110.881 133.711C110.896 133.544 110.823 133.381 110.644 133.366C110.543 133.358 110.387 133.433 110.337 133.518C110.228 133.702 110.161 133.915 110.093 134.122C109.525 135.843 108.972 137.569 108.392 139.286C108.113 140.11 107.802 140.925 107.399 141.756C106.351 141.489 105.326 141.272 104.295 140.981C104.745 139.791 105.19 138.663 105.599 137.52C107.601 131.925 109.297 126.235 110.851 120.501C113.256 111.63 115.485 102.714 117.571 93.7626C118.742 88.7372 119.807 83.6893 120.669 78.6005C121.39 74.3451 122.14 70.0945 122.837 65.8353C123.373 62.5632 123.859 59.2827 124.338 56.0016C124.483 55.0122 124.535 54.0092 124.625 53.0119C124.65 52.738 124.662 52.4627 124.684 52.1136C125.646 52.3133 126.548 52.5294 127.461 52.6825C128.416 52.8427 129.379 52.9677 130.343 53.0617C131.275 53.1523 132.212 53.1838 133.187 53.2435C133.359 53.5066 133.352 53.8232 133.353 54.1257C133.354 55.7226 133.401 57.3222 133.322 58.9153C133.2 61.385 132.996 63.8505 132.812 66.3169C132.751 67.1258 132.645 67.9315 132.553 68.8021C130.841 68.4568 129.17 68.1199 127.467 67.7765C127.593 66.7622 127.727 65.7724 127.839 64.7797C128.077 62.6652 128.311 60.5506 128.532 58.4342C128.649 57.3138 128.739 56.19 128.835 55.0672C128.862 54.7557 128.877 54.4419 128.876 54.1295C128.875 53.9012 128.725 53.7396 128.553 53.748C128.32 53.7598 128.24 53.9322 128.2 54.1206C128.167 54.2723 128.168 54.4311 128.154 54.5866C127.913 57.1728 127.7 59.7623 127.422 62.3443C127.188 64.5213 126.928 66.6983 126.589 68.8613C126.188 71.4254 125.694 73.9745 125.233 76.5287C125.033 77.6356 124.836 78.7433 124.604 79.8436C124.009 82.6572 123.403 85.4689 122.787 88.2782C122.092 91.454 121.38 94.627 120.679 97.8014C120.646 97.9522 120.617 98.1157 120.641 98.2637C120.658 98.3652 120.754 98.4925 120.847 98.5333C121.003 98.6015 121.161 98.5296 121.227 98.3652C121.297 98.1932 121.347 98.0114 121.386 97.8301C121.764 96.0885 122.135 94.3456 122.513 92.6041C123.335 88.8157 124.16 85.0277 124.987 81.2408C125.026 81.0641 125.103 80.8959 125.176 80.6869C127.008 81.1083 128.789 81.5353 130.556 82.061C130.637 82.7065 130.428 83.2787 130.327 83.8533C129.51 88.5037 128.607 93.1382 127.578 97.7469C125.5 107.056 123.147 116.292 120.073 125.331C118.21 130.815 115.98 136.148 113.583 141.414ZM133.867 84.8572C132.715 90.622 131.293 96.3244 129.797 102.007C127.728 109.866 125.57 117.7 123.259 125.491C121.916 130.017 120.457 134.504 118.723 138.897C118.368 139.797 117.942 140.67 117.509 141.536C117.33 141.895 117.064 142.215 116.808 142.528C116.602 142.781 116.314 142.888 115.976 142.885C115.441 142.879 114.934 142.753 114.433 142.59C114.385 142.232 114.603 141.979 114.729 141.701C116.654 137.459 118.467 133.17 120.078 128.797C121.949 123.719 123.509 118.544 124.942 113.329C126.708 106.906 128.243 100.428 129.59 93.9064C130.305 90.4468 130.906 86.9638 131.561 83.492C131.624 83.1547 131.702 82.8202 131.792 82.395C132.629 82.6342 133.375 82.8474 134.129 83.0626C134.201 83.7194 133.982 84.285 133.867 84.8572ZM144.657 76.5076C143.857 76.6495 143.052 76.7646 142.251 76.8971C141.881 76.9581 141.511 77.022 141.147 77.1113C140.969 77.155 140.793 77.2391 140.637 77.3391C140.219 77.6069 140.078 78.0297 140.289 78.476C140.42 78.7546 140.596 79.0229 140.798 79.2559C141.145 79.6576 141.526 80.0306 141.898 80.4111C142.576 81.1069 143.218 81.8336 143.733 82.6614C144.011 83.1096 144.303 83.5611 144.295 84.1436C144.056 84.4175 143.736 84.3959 143.433 84.3414C142.727 84.2141 142.014 84.1008 141.324 83.9073C138.107 83.0053 134.901 82.0634 131.682 81.1651C129.847 80.6535 127.996 80.1992 126.153 79.7172C125.914 79.6547 125.679 79.5805 125.39 79.4969C126.035 75.9758 126.665 72.5378 127.304 69.0511C127.864 68.9552 128.409 69.145 128.943 69.2484C133.288 70.0869 137.484 71.3878 141.453 73.3703C142.46 73.8735 143.455 74.4015 144.353 75.0888C144.626 75.2969 144.878 75.5337 145.126 75.7714C145.234 75.8748 145.306 76.0148 145.426 76.1806C145.188 76.3953 144.917 76.4616 144.657 76.5076Z" fill="#203B53"/>
<path d="M125.449 92.7959C125.57 92.0874 125.672 91.3757 125.76 90.8082C125.769 90.632 125.777 90.5996 125.772 90.5695C125.75 90.4112 125.71 90.2618 125.529 90.212C125.365 90.1669 125.187 90.297 125.135 90.5188C125.07 90.7927 125.019 91.0694 124.968 91.3461C124.559 93.5898 124.183 95.8401 123.737 98.0768C122.826 102.644 121.652 107.148 120.388 111.627C118.303 119.021 116.144 126.394 113.646 133.662C113.566 133.897 113.487 134.136 113.436 134.379C113.403 134.536 113.45 134.697 113.625 134.759C113.795 134.819 113.942 134.75 114.016 134.596C114.111 134.4 114.183 134.193 114.253 133.986C114.753 132.507 115.264 131.031 115.747 129.547C117.449 124.32 118.981 119.042 120.501 113.76C122.49 106.851 124.235 99.8864 125.449 92.7959Z" fill="#203B53"/>
<path d="M113.661 126.2C113.78 125.985 113.888 125.759 113.963 125.526C115.359 121.16 116.641 116.762 117.729 112.308C117.773 112.127 117.802 111.942 117.825 111.828C117.82 111.725 117.83 111.687 117.815 111.664C117.751 111.566 117.695 111.422 117.604 111.393C117.519 111.366 117.337 111.432 117.297 111.509C117.184 111.727 117.108 111.967 117.044 112.205C116.29 114.972 115.56 117.745 114.782 120.506C114.309 122.185 113.761 123.844 113.252 125.514C113.2 125.687 113.154 125.876 113.169 126.052C113.177 126.14 113.316 126.244 113.419 126.287C113.479 126.313 113.628 126.26 113.661 126.2Z" fill="#203B53"/>
</svg>
