<svg width="32" height="32" viewBox="0 0 32 32" fill="none" xmlns="http://www.w3.org/2000/svg">
<rect width="32" height="32" rx="10" fill="#FF5C5C"/>
<g clip-path="url(#clip0_2327_21815)">
<g clip-path="url(#clip1_2327_21815)">
<path d="M8.03926 10.3453C7.85143 10.6381 7.7299 11.0082 7.69123 11.4004C7.65532 11.7899 7.72161 12.16 7.89286 12.5302L8.01716 12.7981L9.57777 14.3863C11.0113 15.8475 11.1439 15.9856 11.166 16.1016C11.2268 16.3944 11.2903 16.3143 9.62196 18.0213C8.13317 19.5377 8.10002 19.5708 7.97297 19.825C7.58903 20.579 7.62217 21.4574 8.05307 22.1203C8.26299 22.4407 9.98104 24.1588 10.3097 24.3714C10.9782 24.8079 11.8786 24.852 12.6078 24.4874C12.8398 24.3714 12.8979 24.319 14.4032 22.8357C16.0909 21.1701 16.0577 21.1977 16.3146 21.2502C16.4279 21.2751 16.5715 21.4077 18.0023 22.8108C19.538 24.3134 19.5684 24.3438 19.8225 24.4709C20.5766 24.8548 21.455 24.8217 22.1179 24.3908C22.4383 24.1808 24.1563 22.4628 24.369 22.1341C24.8054 21.4657 24.8524 20.5625 24.485 19.836C24.369 19.604 24.3082 19.5377 22.8001 18.002L21.2395 16.4082L21.234 16.2646C21.2312 16.1845 21.2395 16.0823 21.2533 16.0353C21.2671 15.9718 21.7229 15.4884 22.8222 14.3725C24.3055 12.8616 24.3718 12.7898 24.4629 12.5882C24.8413 11.7457 24.8082 10.9889 24.3635 10.3066C24.1563 9.98899 22.4383 8.26542 22.1206 8.05826C21.524 7.67156 20.8031 7.58594 20.1595 7.82624C19.6623 8.00854 19.6872 7.98921 17.9857 9.65754L16.4058 11.2043L16.2621 11.2099C16.182 11.2126 16.0798 11.2043 16.0329 11.1905C15.9693 11.1767 15.486 10.721 14.3701 9.62163C12.8592 8.13837 12.7874 8.07207 12.5857 7.98092C11.7433 7.60251 10.9865 7.63566 10.3042 8.08036C9.98932 8.28476 8.23813 10.036 8.03926 10.3453Z" fill="white"/>
</g>
</g>
<defs>
<clipPath id="clip0_2327_21815">
<rect width="20" height="20" fill="white" transform="translate(6 6)"/>
</clipPath>
<clipPath id="clip1_2327_21815">
<rect width="20" height="20" fill="white" transform="translate(2.08008 16.2217) rotate(-45)"/>
</clipPath>
</defs>
</svg>
