<svg width="102" height="41" viewBox="0 0 102 41" fill="none" xmlns="http://www.w3.org/2000/svg">
<path d="M18.4117 0C18.4117 0 32.7014 15.2034 27.6392 24.5995L27.6456 24.6029L19.7141 40.7999L26.2037 23.9732L26.197 23.9707C29.3794 16.5862 21.3326 6.87617 17.1703 2.53592L18.4117 0ZM37.5022 4.05894C37.5022 4.05894 43.1006 24.1587 34.2545 30.1305L34.2587 30.1366L19.7144 40.7999L33.2739 28.9096L33.269 28.9041C39.5162 23.8411 36.8968 11.5052 35.225 5.72871L37.5022 4.05894ZM13.5689 0.444519C13.5689 0.444519 29.5652 13.8407 25.6564 23.7721L25.6631 23.7743L19.7141 40.799C19.6341 40.7703 0.073199 33.7354 0.308753 23.0872L0.302041 23.0875L0 5.05537L0.220581 5.13713C2.37792 5.95002 19.6258 12.7642 19.405 22.7675L19.4124 22.7672L19.7141 40.7892L19.9557 22.7665L19.9484 22.7662C20.3682 14.7363 9.44998 8.42525 4.03911 5.80071L4.32345 2.99173C4.34493 3.00242 23.0029 12.2925 21.5196 22.8556L21.527 22.8562L19.7141 40.7969V40.7981L22.0868 22.9215L22.0798 22.9209C23.446 14.9968 13.3508 7.43903 8.28842 4.19318L8.90196 1.43729C8.94462 1.46527 26.3486 12.8879 23.6287 23.1949L23.6358 23.1964L19.7141 40.7984V40.7987L24.1569 23.3206L24.1498 23.3188C26.4316 15.6081 17.287 6.92385 12.6381 3.10949L13.5689 0.444519ZM27.9839 0.825883C27.9839 0.825883 38.3243 18.9483 31.2063 26.9005L31.2121 26.9051L19.7193 40.7938L31.6767 27.3039L31.671 27.299C37.2344 21.4929 33.0895 9.58255 30.7072 4.06107L32.7574 2.11947C32.7708 2.15139 40.8237 21.3653 32.8025 28.3924L32.8074 28.3976L19.7159 40.7978L19.7162 40.7966L29.9576 25.956L29.9515 25.9517C34.7717 19.5156 29.217 8.19359 26.1842 3.00088L27.9839 0.825883ZM23.1543 0.124477C23.1543 0.124477 35.5838 16.8836 29.4654 25.6286L29.4718 25.6326L19.7169 40.7953L28.1127 24.8396L28.1063 24.8363C32.1238 17.8709 25.2576 7.29289 21.6267 2.49901L23.1543 0.124477Z" fill="#203B53"/>
<path d="M49.0957 21.5155L49.3818 21.576L49.5859 21.6581L49.8916 21.7802L50.1572 22.0048V22.4735L50.2178 22.8407L50.2383 23.0858L50.2588 23.2899V23.6981L50.2383 24.0858L50.2178 24.412L50.3408 24.7177L50.1367 24.9833L50.2383 25.3505V25.7792L50.2793 26.2479L50.708 26.1659L51.0137 25.9628L51.3604 25.8807L51.6865 25.7177L52.0742 25.6766H52.6045L53.0537 25.6151L53.625 25.6971L53.9102 25.6561L54.2773 25.9012L54.5635 26.0233L54.7266 26.2684L54.9717 26.37L55.0527 26.6766L55.4199 26.9208L55.3789 27.1659L55.6035 27.5126L55.7666 27.8798L55.7871 28.2059L55.9092 28.4716L55.9297 28.7772L56.0322 29.1239V29.3075L56.0732 29.7567L56.0322 30.1854L56.0928 30.4501L56.1543 30.8173L56.0527 31.1844L56.0322 31.6747L55.9707 32.0624L55.8896 32.3065V32.5721L55.6445 32.9188L55.5225 33.2655L55.502 33.5507L55.3994 33.9178L55.2773 34.1014L55.0938 34.3876L54.9717 34.6327L54.7471 34.9178L54.3594 35.285L54.1348 35.5096L53.9717 35.7948L53.4824 35.8973L53.2373 36.0604L52.9111 36.244L52.4414 36.285L52.1562 36.3251L51.8496 36.3866L51.2588 36.3456L50.9521 36.4481L50.6465 36.3055L50.2383 36.2645L49.8506 36.4071L49.6465 36.3251L49.3203 36.285L48.9531 36.203L48.3008 36.1415L48.0352 36.1219L47.8311 35.9784L47.4229 35.8153L47.4844 35.4891L47.2393 34.9794L47.2188 34.7548V34.285L47.2393 33.9794L47.1377 33.5917L47.1172 33.327L47.1582 32.9803L47.1377 32.6327L47.1992 32.2655V31.9188L47.2188 31.5721L47.3008 31.3885V30.9803L47.2598 30.7157L47.2393 30.3485L47.4023 29.9403L47.2393 29.5936L47.2188 29.1854L47.4229 28.9003L47.3213 28.7167L47.3623 28.329V28.0018L47.3418 27.7577L47.3008 27.2069L47.2598 26.8397L47.3623 26.5331L47.2188 26.1864L47.1992 25.8397L47.4639 25.6356L47.3008 25.3094V24.8602L47.4023 24.5135L47.3213 24.2079L47.2188 23.9022L47.2598 23.5555L47.4023 23.2489L47.4229 22.8817L47.4639 22.6376L47.627 22.454L47.709 21.8827L47.9941 21.7196L48.2393 21.5155L48.5244 21.4745L49.0957 21.5155ZM62.4873 25.6971L62.875 25.7587L63.3242 25.8602L63.5078 26.0643L63.875 26.1864L64.1396 26.37L64.3643 26.5331L64.5479 26.7577L64.793 27.0643L64.9355 27.411L64.9766 27.5946L65.3232 27.9413L65.2617 28.2469L65.5273 28.451L65.6084 28.6962L65.6699 28.9813L65.7314 29.3895L65.915 29.7362L65.792 30.0829L65.8125 30.5321L65.9561 30.8173L65.874 31.4501L65.915 31.8583L65.8945 32.1229L65.7725 32.5106L65.752 32.7968L65.7314 33.204L65.5684 33.5712L65.5273 33.8573L65.2822 34.0614L65.0986 34.286L64.9766 34.5917L64.7314 34.8563L64.5889 35.163L64.3027 35.326L64.0176 35.5712L63.752 35.8153L63.4053 35.9784L63.0996 36.0809L62.7119 36.162L62.4473 36.3055H62.0596L61.6514 36.3456L61.2637 36.4071L60.8965 36.3661L60.5293 36.3055L60.0801 36.203L59.7129 36.1415L59.4482 35.9579L58.9785 35.8973L58.7549 35.6727L58.5303 35.4686L58.2031 35.285L58.04 35.1014L57.959 34.8768L57.6328 34.5507L57.5713 34.286L57.3877 34.0409L57.1836 33.8573L57.1631 33.4491L57 33.204L56.8779 32.9188L56.8164 32.6532L56.7344 32.246L56.6328 31.7762L56.8164 31.1844L56.7754 30.6337L56.8164 30.4091L56.8984 30.0018L56.7549 29.7772L56.8779 29.41L57.0615 29.1444L57 28.8798L57.1631 28.4716L57.2041 28.2264L57.3877 28.0634L57.4688 27.6356L57.7549 27.452L57.8564 27.1864L58.04 26.9413L58.2441 26.7987L58.3877 26.5135L58.7744 26.2889L59.0195 26.1464L59.2236 25.9012L59.7744 25.8192L60.0195 25.6971L60.3867 25.5546L60.7334 25.5751L61.2021 25.5546L61.7939 25.6151L62.1816 25.5135L62.4873 25.6971ZM72.2305 25.6971L72.6182 25.7587L73.0674 25.8602L73.251 26.0643L73.6182 26.1864L73.8828 26.37L74.1074 26.5331L74.291 26.7577L74.5361 27.0643L74.6787 27.411L74.7197 27.5946L75.0664 27.9413L75.0049 28.2469L75.2705 28.451L75.3516 28.6962L75.4131 28.9813L75.4746 29.3895L75.6582 29.7362L75.5352 30.0829L75.5557 30.5321L75.6992 30.8173L75.6172 31.4501L75.6582 31.8583L75.6377 32.1229L75.5156 32.5106L75.4951 32.7968L75.4746 33.204L75.3115 33.5712L75.2705 33.8573L75.0254 34.0614L74.8418 34.286L74.7197 34.5917L74.4746 34.8563L74.332 35.163L74.0459 35.326L73.7607 35.5712L73.4951 35.8153L73.1484 35.9784L72.8428 36.0809L72.4551 36.162L72.1904 36.3055H71.8027L71.3945 36.3456L71.0068 36.4071L70.6396 36.3661L70.2725 36.3055L69.8232 36.203L69.4561 36.1415L69.1914 35.9579L68.7217 35.8973L68.498 35.6727L68.2734 35.4686L67.9463 35.285L67.7832 35.1014L67.7021 34.8768L67.376 34.5507L67.3145 34.286L67.1309 34.0409L66.9268 33.8573L66.9062 33.4491L66.7432 33.204L66.6211 32.9188L66.5596 32.6532L66.4775 32.246L66.376 31.7762L66.5596 31.1844L66.5186 30.6337L66.5596 30.4091L66.6416 30.0018L66.498 29.7772L66.6211 29.41L66.8047 29.1444L66.7432 28.8798L66.9062 28.4716L66.9473 28.2264L67.1309 28.0634L67.2119 27.6356L67.498 27.452L67.5996 27.1864L67.7832 26.9413L67.9873 26.7987L68.1309 26.5135L68.5176 26.2889L68.7627 26.1464L68.9668 25.9012L69.5176 25.8192L69.7627 25.6971L70.1299 25.5546L70.4766 25.5751L70.9453 25.5546L71.5371 25.6151L71.9248 25.5135L72.2305 25.6971ZM78.0557 21.8212L78.3818 21.9432L78.6064 22.2704L78.627 22.413L78.8721 22.6171L78.8926 22.8212L79.0762 23.0048L78.9941 23.3719L79.2598 23.453L79.3203 23.7997L79.2998 24.0243L79.4434 24.33V24.6571L79.4834 24.9628L79.4434 25.371V25.6971L79.2803 25.9423L79.2598 26.2684L79.3203 26.6561L79.3818 26.9618L79.3408 27.2274L79.2998 27.4921L79.4434 27.7987L79.3203 28.2059L79.3408 28.451L79.3818 28.7372L79.3408 29.0018L79.2998 29.288L79.5244 29.2675L79.8311 29.1649L79.9326 28.9813L80.1367 28.8182L80.2998 28.5536L80.4014 28.3085L80.5654 27.9823L80.8506 27.7782L81.0342 27.6552L81.1973 27.37L81.4629 27.1044L81.6465 26.8192L81.9316 26.6356L82.0742 26.4315L82.2578 26.2889L82.4414 26.1259L82.707 25.9423L82.9316 25.7987L83.2783 25.8192L83.4824 25.6766L83.666 25.7177L84.0127 25.8192L84.4814 25.8807L84.6455 26.1464L84.7266 26.4725L84.6455 26.6971V27.0839L84.543 27.288L84.2578 27.5536L84.0127 27.7782L83.9307 28.0634L83.6455 28.3085L83.4209 28.5331L83.1562 28.7372L83.0947 28.9608L82.8906 29.1854L82.585 29.4305L82.625 29.6747L82.4824 30.0223L82.7891 30.2255L83.1357 30.4296L83.3193 30.4911L83.4824 30.7968L83.6045 30.9403L83.8701 31.2665L84.1143 31.4501L84.2168 31.7352L84.4619 31.9803L84.6455 32.246L84.6855 32.5721L84.7471 32.7762L85.0938 33.1024L85.0127 33.3475L85.2363 33.6122L85.3594 33.9589L85.2568 34.285L85.5635 34.5507L85.4404 34.7753L85.3994 35.163L85.4609 35.5507L85.0527 35.9989L84.9102 36.1219L84.6045 36.203L84.1553 36.3055L83.7676 36.2645L83.666 36.1825L83.3799 35.9178L83.0537 35.6522L82.9111 35.4071L82.8291 35.1014L82.6055 34.7958L82.625 34.6532L82.4414 34.4491L82.2178 33.9999V33.7343L82.1152 33.4696L81.8301 33.1024L81.7275 32.8778L81.6055 32.5516L81.5234 32.3065L81.1973 32.1229L81.0957 31.9188L80.7891 31.8788L80.4629 32.0819L80.2588 32.286L80.0146 32.4091L79.9326 32.6942L79.79 32.8573L79.708 33.1835L79.4639 33.5106L79.4434 33.9794L79.5039 34.326L79.5449 34.5712L79.4639 34.7958L79.4023 35.1219V35.3876L79.2998 35.8153L78.9736 36.0194L78.668 36.285L78.4023 36.3661L77.7705 36.3055H77.4844L77.3008 36.1825L77.0361 36.0399L76.791 35.7743L76.6689 35.3671L76.709 35.1014L76.5254 34.7753L76.4648 34.3876L76.5664 34.1219V33.7958L76.5059 33.4696L76.6074 33.3065L76.5254 32.9188L76.6484 32.5927L76.5869 32.2655L76.5664 32.0009L76.6279 31.6952V31.368L76.709 31.1034L76.6689 30.6542L76.6895 30.4911L76.709 30.1444L76.75 29.8182L76.6074 29.4911L76.5254 29.1239L76.6895 28.8182L76.6689 28.6141L76.6895 28.2469V27.9618L76.75 27.6552L76.6689 27.2479L76.5869 27.0438L76.5664 26.7167L76.5254 26.37L76.5459 26.0643L76.5869 25.7177L76.6689 25.4725L76.5869 25.1669L76.5664 24.8202L76.5059 24.5546L76.5869 24.2284L76.6279 23.9833L76.6484 23.6571L76.5059 23.2899L76.4238 22.8817L76.5254 22.4335L76.75 22.0868L76.9746 22.0253L77.2803 21.7802L77.75 21.7196L77.9541 21.6786L78.0557 21.8212ZM61.0186 27.9823L60.6104 28.0634L60.3457 28.37L60.1826 28.6141L59.999 28.7167L59.9375 28.9608L59.7744 29.1649L59.6729 29.41L59.7744 29.7157L59.7129 29.9198L59.6729 30.246L59.5703 30.4706L59.6729 30.7362L59.5703 31.1844L59.5498 31.6337L59.7334 31.8173L59.6729 32.1434L59.8154 32.368L59.8359 32.6532V32.9598L60.0596 33.1229L60.1006 33.3475L60.5908 33.5712L60.835 33.6942L61.0801 33.7147L61.2842 33.8573L61.876 33.6942L62.2021 33.6327L62.3857 33.4491L62.6309 33.286L62.7734 32.9598L62.916 32.6532L62.8545 32.4696L62.9365 32.2655L63.0176 32.0009V31.6747L63.0586 31.5116L63.0791 31.0009L63.0381 30.6132L63.1406 30.369V30.1649L63.0176 29.6346L62.8545 29.4911L62.7734 29.0223L62.6504 28.7372L62.5078 28.5936L62.4668 28.329L62.1201 28.2675L62.0801 28.1044L61.4883 27.9413L61.0186 27.9823ZM70.7617 27.9823L70.3535 28.0634L70.0889 28.37L69.9258 28.6141L69.7422 28.7167L69.6807 28.9608L69.5176 29.1649L69.416 29.41L69.5176 29.7157L69.4561 29.9198L69.416 30.246L69.3135 30.4706L69.416 30.7362L69.3135 31.1844L69.293 31.6337L69.4766 31.8173L69.416 32.1434L69.5586 32.368L69.5791 32.6532V32.9598L69.8027 33.1229L69.8438 33.3475L70.334 33.5712L70.5781 33.6942L70.8232 33.7147L71.0273 33.8573L71.6191 33.6942L71.9453 33.6327L72.1289 33.4491L72.374 33.286L72.5166 32.9598L72.6592 32.6532L72.5977 32.4696L72.6797 32.2655L72.7607 32.0009V31.6747L72.8018 31.5116L72.8223 31.0009L72.7812 30.6132L72.8838 30.369V30.1649L72.7607 29.6346L72.5977 29.4911L72.5166 29.0223L72.3936 28.7372L72.251 28.5936L72.21 28.329L71.8633 28.2675L71.8232 28.1044L71.2314 27.9413L70.7617 27.9823ZM51.666 27.9823L51.5234 28.0839L51.3193 28.1044L51.0342 28.2469L50.9521 28.5126L50.7275 28.6141L50.585 28.8593L50.4014 29.3075L50.3203 29.4911L50.2383 29.7362L50.3203 30.246L50.1768 30.3895L50.0752 30.7157L50.0957 30.8993L50.2588 31.246L50.1162 31.4296L50.1973 31.7762L50.1162 32.0419L50.2178 32.2655L50.1768 32.6132L50.1572 33.0819L50.2588 33.4286L50.626 33.6327L50.7891 33.6737L51.3193 33.6942H51.6865L52.0947 33.6327L52.3398 33.4491L52.584 33.4286L52.6455 33.1639L52.9512 33.0204L52.9922 32.8163L53.0127 32.5721L53.1963 32.286L53.1758 31.8583L53.3184 31.6132L53.1963 31.3475L53.1758 31.0419L53.2988 30.6542V29.9198L53.3184 29.6747L53.2578 29.2675L53.2373 29.0018L53.0537 28.7167L52.9316 28.5731L52.9717 28.329L52.7881 28.1249L52.3398 27.9618L51.9521 27.8593L51.666 27.9823ZM52.0537 5.18835L52.2988 5.14734L52.6455 5.12683L53.0537 5.22937L53.4824 5.29089L53.9717 5.41296L54.2363 5.63757L54.4404 5.69812L55.0527 6.08582L55.0732 6.22839L55.2363 6.71863L55.2979 6.96277L55.0938 7.2489L54.9512 7.53406L54.7266 7.59558L54.3594 7.79968L54.0732 7.69714L53.8291 7.77917H53.502L53.1348 7.73816L52.625 7.82019L52.2373 7.90125L51.585 7.94226L51.2988 8.00378L51.0137 8.14636L50.7275 8.28894L50.585 8.43152L50.3604 8.61609L50.1768 8.83972L49.9531 9.10535L49.8711 9.41101L49.708 9.75769L49.626 9.9823L49.7695 10.2684L49.5039 10.6962L49.4424 11.0428L49.5039 11.329L49.3613 11.7372L49.4023 12.369L49.4424 12.5936L49.4629 13.328L49.5859 13.6747L49.5039 13.8993L49.5449 14.287L49.6465 14.6337L49.7695 14.9188L49.8711 15.1639V15.5106L50.2178 15.6737L50.2383 15.8778L50.5244 16.0819L50.8916 16.245L51.2988 16.4491L51.666 16.5311L51.8701 16.5712L52.0742 16.4901L52.4004 16.5516L53.0537 16.4696L53.625 16.4081L53.8896 16.3475H54.1963L54.5635 16.4901L54.9102 16.6532L55.2979 16.8163L55.3994 16.9384L55.5625 17.286L55.624 17.4891L55.7871 18.0399L55.624 18.4071L55.2773 18.6727L54.7061 18.8358L54.3184 18.9784L53.9307 19.1425L53.625 19.1219L53.4004 19.244L52.9316 19.3055L52.584 19.4071L52.1562 19.326H51.7686L51.3193 19.3055L50.9521 19.3456L50.7891 19.203H50.4629L50.1768 19.1014L49.7695 18.9384H49.5859L49.3408 18.7137L49.0557 18.5907L48.8516 18.2645L48.4639 18.0604L48.3008 17.8368L48.1172 17.5712L47.79 17.4081L47.7295 17.0614L47.4229 16.7548L47.2803 16.4491L47.1992 16.204L47.1172 15.8173L46.9541 15.5106L46.8516 15.1844L46.9541 14.8983L46.6279 14.5721L46.6484 14.3075L46.75 13.9403L46.6279 13.6132L46.6074 13.328L46.6885 12.5321L46.668 12.0018L46.5664 11.5331L46.709 11.1659L46.6885 10.9413L46.8115 10.6356L46.709 10.2684L46.9131 9.94128V9.61511L47.0967 9.35046V9.08484L47.0557 8.88074L47.1377 8.59558L47.4844 8.10535L47.627 7.86121L47.75 7.41199L47.9531 7.18738L48.1367 6.86121L48.3818 6.6366L48.5654 6.37195L48.7695 6.22839L49.0146 5.96375L49.3818 5.80066L49.6875 5.69812L50.0137 5.47449L50.4219 5.33093L50.8506 5.22937L51.1973 5.24988L51.5234 5.1073L52.0537 5.18835ZM58.3633 4.55554L58.5469 4.59656L58.9346 4.6991L58.9756 4.94324L59.2607 5.41296L59.3223 5.61707L59.2607 5.94324L59.4854 6.2489L59.5059 6.453L59.4854 6.75964L59.3428 7.32996L59.4443 7.53406L59.3018 7.88074L59.3838 8.20789L59.4043 8.63562V8.90125L59.4248 9.14636L59.6484 9.02332L60.0361 8.86023L60.2197 8.75867L60.71 8.69714L60.8525 8.59558L61.3623 8.53406H61.8115L62.2598 8.51355L62.6475 8.65613L63.0557 8.75867L63.1982 8.71765L63.5449 8.96277L63.8105 9.04382L64.0752 9.24792L64.1367 9.47253L64.4629 9.75769L64.5449 9.94128L64.749 10.3085L64.8301 10.5126L64.9531 10.8192V11.1454L65.0957 11.41L65.1768 11.6757V11.9608L65.2178 12.3075L65.1973 12.7157V13.0829L65.1162 13.5116L65.1768 13.9608L65.1973 14.246L65.2178 14.4911L65.2383 14.8173L65.1572 15.1024L65.1768 15.6327L65.2588 15.8573L65.2178 16.2245L65.3809 16.5311L65.3604 16.8778L65.3809 17.2655L65.2588 17.5917L65.2793 17.8973L65.3408 18.204L65.1572 18.6727L65.0547 18.8973L64.7285 19.1415L64.4629 19.2235L64.1367 19.3251L63.7695 19.4071L63.2803 19.3251L62.8311 19.1219L62.5664 18.8563L62.4844 18.4276L62.5254 18.2235L62.3213 17.8563L62.3623 17.5302L62.3418 17.3055L62.2803 16.9794L62.3008 16.6942L62.2188 16.3475L62.3213 15.9598L62.3623 15.4296L62.3828 15.205L62.3213 14.7557L62.2803 14.5721L62.3828 14.2255L62.3623 13.8378L62.4023 13.3485L62.4229 13.1034L62.3828 12.7977V12.328L62.3623 12.0634L62.3418 11.8182L62.0967 11.5126L61.9746 11.2264L61.8516 11.0028L61.5049 10.8798L61.1582 10.9003L60.71 11.0428L60.5059 11.2264L60.3828 11.288L60.1592 11.5936L59.9141 11.8182L59.751 12.1444L59.6084 12.4911V12.7362L59.3223 13.0624L59.4248 13.246L59.3838 13.5936L59.2607 13.9198L59.4248 14.3885V14.6542L59.4043 15.0214L59.3633 15.3885L59.3223 15.8573L59.3018 16.0204L59.4043 16.3671L59.1592 16.6737L59.1182 17.0204L59.0977 17.2245L59.0771 17.5096L58.874 17.8163L58.792 18.0399L58.5879 18.3876L58.4658 18.5712L58.3027 18.9178L58.0166 19.0604L57.8535 19.0809L57.7109 19.1415L57.4658 19.0809L56.9766 19.0194L56.6699 18.7948L56.4863 18.6112L56.2627 18.4071L56.3027 17.9999L56.2627 17.5096L56.3232 17.1835L56.2422 16.9384L56.3643 16.5917L56.3027 16.286L56.3438 15.9803L56.3232 15.6942L56.3438 15.327L56.2012 15.0419L56.3848 14.7968L56.4053 14.4911L56.3232 14.1034L56.4258 13.7968L56.3643 13.5116L56.4053 13.2255V12.8993L56.4463 12.6141V12.2059L56.4258 12.0223L56.4053 11.6141V11.451L56.3643 11.0634L56.4053 10.6962L56.4258 10.411L56.5273 10.0643L56.3438 9.86023L56.4053 9.61511L56.3848 9.28894L56.5273 8.92175L56.4258 8.63562L56.3438 8.41199L56.3027 8.02429L56.4258 7.75867L56.3848 7.41199V7.06531L56.4258 6.61609L56.3848 6.37195L56.4668 5.98425L56.5684 5.73914L56.6904 5.49402L56.7314 5.08679L56.8945 4.75964L57.1807 4.55554L57.3643 4.47449H57.9355L58.3633 4.55554ZM68.9541 8.73816L69.2188 9.00281L69.5664 9.28894L69.4229 9.71765L69.5859 10.0028L69.6064 10.3085L69.6885 10.7577L69.5049 11.0028L69.6475 11.41L69.6064 11.6552L69.5664 12.0223L69.5254 12.3485L69.5459 12.7977V13.0829L69.5859 13.4296L69.5254 13.7567L69.6064 13.9803L69.627 14.368L69.5254 14.6747L69.6885 14.8788L69.6064 15.1844L69.709 15.5927L69.6475 15.8368L69.6885 16.3065V16.7753L69.75 17.0204V17.5302L69.6885 17.7753L69.6064 18.204L69.6475 18.6522L69.3418 18.9384L69.0762 19.0399L68.8926 19.2645L68.5664 19.285L68.0771 19.3866L67.7295 19.3661L67.5264 19.162L66.9551 18.9579L66.8115 18.7948L66.71 18.4071L66.5879 18.0204V17.7958L66.6895 17.3671L66.6084 16.9794L66.6895 16.5516L66.6279 16.2245L66.5674 15.7968L66.6689 15.3885L66.5674 15.0819L66.6689 14.5721L66.792 14.3475L66.6895 14.0829L66.7305 13.7772L66.71 13.4501L66.7715 13.0018L66.6484 12.7362V12.3075L66.5264 12.0428L66.6084 11.6552L66.5059 11.2675L66.5879 11.0028L66.5469 10.5741L66.71 10.2274L66.6279 9.7782L66.8115 9.55359L66.792 9.06433L67.0361 8.94226L67.3623 8.65613L67.6689 8.57507L68.2402 8.61511L68.75 8.55457L68.9541 8.73816ZM83.2344 4.45398L83.5605 4.57605L83.8672 4.80066L84.2949 4.96375L84.3975 5.27039V5.69812L84.4385 5.92273L84.5195 6.28992L84.4385 6.73914L84.458 6.96277L84.4385 7.32996L84.458 7.59558L84.377 8.10535L84.2744 8.39148L84.458 8.71765L84.3154 9.04382L84.2744 9.3905L84.3564 9.5741L84.2744 9.92078L84.3564 10.1864L84.2949 10.5536L84.2139 10.7782L84.3154 11.3085V11.5731L84.2139 11.9813L84.2744 12.369L84.1934 12.5936L84.1523 13.0829L84.2949 13.4501V13.7567L84.2344 14.2665L84.1729 14.6132L84.3975 14.8583L84.3564 15.205V16.0819L84.4785 16.4081L84.418 16.7548L84.458 17.0204L84.6016 17.5507L84.7236 18.0399L84.54 18.244L84.4385 18.6727L84.2949 18.9989L84.1934 19.0809L83.9072 19.3055L83.1729 19.1825H83.0713L82.7246 19.0194L82.5615 18.8563L82.1943 18.3055L81.8672 18.285L81.3574 18.6112L81.2354 18.7343L80.8477 18.9784L80.5215 19.0809L80.2969 19.162L79.9297 19.3251L79.624 19.3661L79.0322 19.3456H78.502L78.1748 19.285L77.8691 19.2235L77.543 19.1014L77.3389 18.9384H77.0127L76.8291 18.7343L76.5635 18.4686L76.3193 18.244L76.3389 17.8768L75.9717 17.6327L76.0127 17.3055L75.8086 16.7548L75.748 16.3876L75.666 16.1835V15.7762L75.625 15.5927L75.666 15.2255L75.5439 14.8983L75.707 14.4706L75.5234 13.8583L75.4619 13.5116L75.5645 13.0428L75.625 12.7157L75.7686 12.3075L75.748 12.1044L75.9316 11.7372L76.0742 11.5536L76.1553 11.2059L76.3193 10.8387L76.4824 10.5536L76.5635 10.329L76.8701 10.0438L76.9307 9.73718L77.2373 9.55359L77.502 9.34949L77.7676 9.12585L77.9912 8.9823L78.3789 8.88074L78.624 8.69714L78.9707 8.63562L79.3584 8.59558L80.0723 8.55457L80.2354 8.53406L80.5625 8.47253L80.9092 8.59558L81.3164 8.51355L81.4805 8.24792L81.5615 7.8407L81.541 7.47351L81.5 7.14636L81.4189 6.88171V6.49402L81.5615 6.20886L81.6836 5.78015V5.49402L81.7656 4.92273L81.8672 4.75964L82.2354 4.47449L82.582 4.41296L83.2344 4.45398ZM73.5596 4.55554L73.8252 4.88269L74.0293 5.02527L73.9473 5.47449L74.0898 5.73914L74.1514 6.08582L73.9883 6.51453L74.1719 6.94324L73.9268 7.32996L74.0703 7.69714L74.0498 8.10535L73.8457 8.37097L73.9062 8.83972L73.7637 9.12585L73.9473 9.49304L73.7842 9.83972L73.8047 10.1044L73.7637 10.3085L73.7842 10.6151L73.8252 11.0839L73.7227 11.5936L73.6826 11.9813L73.7227 12.2675L73.8252 12.5526L73.8662 12.7567L73.7637 13.1854L73.6621 13.41L73.7842 13.7567L73.6006 14.0624L73.7227 14.4296L73.7842 14.7557L73.7637 15.1434V15.5311L73.8047 15.7762L73.8662 16.0204L74.0498 16.1639L74.2539 16.327L74.4775 16.6122L74.5596 16.8163L75.0078 16.9589L75.1719 17.245L75.3555 17.4491L75.3955 17.8163L75.2529 18.3876L75.0898 18.8768L74.7637 19.1014L74.1924 19.244L74.0088 19.326L73.417 19.3055L73.2539 19.2645L72.7441 19.1014L72.2949 18.9784L72.0098 18.7948L71.9072 18.5712L71.6221 18.3671L71.499 18.1425L71.3154 17.6727L71.1523 17.4286L71.2344 17.0819L71.1123 16.9188L71.1318 16.4901L70.9482 16.2655L70.8467 15.9188L71.0303 15.6532L70.8262 15.0624L70.9287 14.7147V14.3885L70.8877 14.1034L70.9482 13.5116L70.9893 13.2059L71.0508 12.9198L71.1123 12.41L70.9893 12.1854L71.0713 11.8798L71.1523 11.6552L71.1729 11.288L70.9893 11.0223L71.1123 10.5331V10.1659L71.1523 9.90125L71.2139 9.63562L71.2549 9.26843L70.9893 9.02332L71.0303 8.69714L71.1318 8.41199L71.1729 8.0448L71.2139 7.86121L71.1318 7.4325L71.1934 7.12683V6.86121L71.0918 6.4325L71.3154 6.02527L71.2959 5.73914V5.41296L71.459 5.06628L71.5811 4.67859L71.8262 4.495H72.8662L73.1318 4.45398L73.5596 4.55554ZM80.6846 10.8192L80.3174 10.8593L79.8281 10.8387L79.542 10.9003L79.2158 11.1044L79.0117 11.3495L78.9297 11.5731L78.7666 11.7772L78.624 11.9813L78.5225 12.3075L78.4609 12.5116V12.9198L78.542 13.1444L78.5225 13.41L78.4814 13.7567L78.4199 14.1444L78.3584 14.5927L78.3789 14.8173L78.3584 15.1229L78.502 15.3885V15.7557L78.6855 16.0409L78.7871 16.286L78.8281 16.5516L79.1133 16.6122L79.4199 16.8163L79.8076 16.8368L80.0723 16.7958L80.623 16.5917L80.7256 16.368L81.0107 16.2245L81.1328 15.9188L81.2354 15.8163L81.2969 15.4491L81.4805 15.205L81.5 14.9188L81.4395 14.5516L81.582 14.1639L81.4805 13.9608L81.541 13.4296L81.582 13.1854L81.46 12.8788L81.582 12.6747L81.541 12.41V12.0839L81.5615 11.9003V11.3895L81.5205 11.0223L81.1328 10.8798L80.8887 10.7987L80.6846 10.8192ZM68.0771 3.98523L68.4648 4.00476L68.8926 4.02527L69.0557 4.29089L69.3418 4.53601L69.5459 4.75964L69.7295 4.92273L69.8105 5.18835L69.9336 5.41296L69.8926 5.71863L69.8721 6.26941L69.8311 6.67761L69.5254 6.98328L69.4434 7.16687L69.2188 7.41199L68.8516 7.55457L68.4648 7.61609L68.1787 7.59558H67.71L67.4648 7.47351L67.1592 7.37097L66.9551 7.10632L66.6279 6.8407L66.5674 6.61609L66.3633 6.4325L66.3428 6.06531L66.4248 5.88171L66.4648 5.35144L66.5879 5.04578L66.6895 4.7196L66.9756 4.43347L67.2607 4.22937L67.6484 4.08679L67.8115 3.9032L68.0771 3.98523Z" fill="#203B53"/>
<rect x="88.4004" y="24.48" width="13.6" height="13.6" rx="6.79998" fill="#203B53"/>
<path d="M100.376 26.9163V35.6436H98.7949V26.9163H100.376Z" fill="#9DFAFF"/>
<path d="M91.7129 35.6436H90.0254L93.0978 26.9163H95.0495L98.1262 35.6436H96.4387L94.1078 28.7061H94.0396L91.7129 35.6436ZM91.7683 32.2217H96.3706V33.4916H91.7683V32.2217Z" fill="#9DFAFF"/>
</svg>
