<svg width="185" height="185" viewBox="0 0 185 185" fill="none" xmlns="http://www.w3.org/2000/svg">
<path d="M116.247 22.0039C117.758 22.6717 118.523 23.8671 119.199 25.374C123.354 26.5459 127.363 28.0433 131.389 29.6162C132.501 28.7414 133.717 27.5631 135.159 27.3994C136.064 27.2965 136.646 27.4721 137.354 28.041L137.43 28.8398C136.812 30.6163 135.829 31.0817 134.301 31.9102C135.129 32.2274 136.171 32.5108 136.934 32.9619C137.76 33.4504 137.747 33.6918 138.047 34.5938L137.996 34.7266C138.578 35.906 139.886 36.354 140.979 36.9277C141.027 36.8819 141.076 36.8361 141.124 36.7891C141.89 36.0381 142.676 35.1374 143.674 34.7314C144.557 34.3726 145.162 34.4788 146.014 34.834C146.292 35.3487 146.425 35.4602 146.43 36.0791C146.441 37.7304 145.128 38.8274 144.123 39.9414L148.027 44.2051C149.071 43.8611 150.212 43.353 151.297 43.8018C151.956 44.0743 152.323 44.4296 152.444 45.1729C152.602 46.1416 151.957 47.0123 151.481 47.7764C153.025 49.7606 162.679 62.0751 162.988 63.0547C162.85 63.8641 162.861 64.0661 162.344 64.668L161.684 64.6484C159.915 63.7218 158.927 62.158 157.904 60.4785C159.248 65.3289 160.873 70.5446 161.597 75.5254C161.972 78.1082 160.759 81.3258 161.739 83.7432C162.335 84.2449 162.716 84.4695 163.001 85.2402C162.791 86.6768 162.053 87.9908 161.913 89.3994C161.722 91.3187 161.796 93.2893 161.606 95.2246C160.447 107.051 157.48 118.013 150.788 127.824C143.211 138.934 126.862 150.491 114.66 155.2C108.89 157.427 102.838 158.625 96.79 159.681C95.8906 161.006 94.8211 162.355 93.3574 163C92.2439 162.713 92.0454 161.796 91.1894 161.081C90.0668 160.143 88.4948 160.518 87.1465 160.617C85.0694 160.678 82.9778 160.53 80.9121 160.312C65.8541 158.721 54.3136 152.781 44.7324 140.533L42.3428 142.811C41.3388 142.191 40.1839 141.565 39.9326 140.26C39.5702 138.382 41.0952 136.373 41.9844 134.859C41.4888 134.27 39.1748 131.039 38.5391 131.042C37.9172 131.047 37.3395 131.584 36.6885 131.393C36.0043 131.191 35.4777 130.639 35.1836 129.975C34.6919 128.866 35.7723 126.773 36.1777 125.711C35.1092 123.696 34.3195 121.672 33.5439 119.517C33.0922 120.031 32.6528 120.504 32.04 120.812C31.3444 121.161 30.6356 121.071 29.9326 120.824C29.6038 120.508 29.3287 120.224 29.1494 119.786C27.9741 116.911 29.4938 115.129 30.4287 112.585C30.7194 111.793 30.8138 111.379 30.5254 110.59C29.79 110.083 29.2004 109.656 28.6396 108.927C28.3924 107.584 28.8868 106.572 29.3545 105.354C29.1615 104.695 29.085 104.412 28.6094 103.899C28.0509 103.297 28.3496 103.714 27.8906 103.06C27.1471 101.998 27.7995 99.6165 27.9902 98.3828C26.8109 99.5017 26.0991 100.686 25.1494 101.99C24.5476 102.817 24.0141 103.147 23.0439 103.305C22.5102 102.922 22.1732 102.744 22.0361 102.019C21.5182 99.263 26.7122 94.5077 28.1416 92.2588C29.885 89.5145 29.7289 84.7344 30.6895 81.5332C32.8459 74.3457 36.5015 66.9325 40.583 60.749C51.9838 43.4767 68.5664 29.6602 88.5107 25.2275C95.1061 23.7618 101.797 23.6744 108.385 22.3984C109.309 22.2842 110.029 22.2645 110.779 22.916C113.608 25.374 113.256 21.8188 116.247 22.0039ZM113.373 129.17C109.082 133.28 105.189 137.843 101.014 142.081C97.4269 145.722 93.5213 149.061 90.0898 152.86C89.4135 153.609 87.9335 155.043 87.8535 156.061C87.8498 156.11 87.8622 156.16 87.8662 156.21L93.0137 156.228C95.8099 151.548 112.773 131.884 113.373 129.17ZM107.603 118.732C100.652 126.68 94.1161 134.73 86.4541 141.99C83.4751 144.813 75.4284 151.224 73.8545 154.647C74.1545 155.127 73.9528 155 74.4102 155.107C76.375 155.583 78.2965 155.891 80.3144 156C83.2801 151.199 86.4365 146.536 89.7803 142.013C92.2175 138.7 107.628 120.766 107.603 118.732ZM130.435 131.746C124.832 135.665 119.414 139.847 114.184 144.29C110.378 147.567 106.752 151.077 102.772 154.129C104.942 153.556 107.012 152.903 109.104 152.071C116.442 148.739 121.215 143.662 126.943 138.003C128.516 136.448 130.617 134.849 131.914 133.063C131.371 133.443 129.379 135.11 128.877 135.106C129.569 134.22 130.8 133.195 131.026 132.118C130.525 131.757 130.74 131.835 130.435 131.746ZM99.6768 111.578C97.3415 114.541 95.0263 117.533 92.4775 120.302C88.8796 124.21 64.5808 148.71 63.751 150.709C64.1575 151.312 63.9041 151.056 64.5244 151.465L67.8603 152.908C70.4371 148.683 73.2312 144.772 76.2871 140.91C79.601 136.722 99.3305 114.631 99.6768 111.578ZM98.6748 95.2041C96.0274 98.3944 93.4042 101.622 90.6728 104.734C85.8974 110.175 55.6914 143.207 55.1191 145.4C55.3942 146.006 55.695 146.351 56.1553 146.815L57.2275 147.557C58.5451 147.165 60.7794 143.32 61.7256 142.018C65.0802 137.409 68.584 132.928 72.2383 128.574C76.3509 123.634 97.0519 99.909 98.6143 95.9326C98.7051 95.6999 98.7205 95.4463 98.6748 95.2041ZM96.4941 82.4326C92.1458 85.9047 86.3113 93.0717 82.2988 97.4395C71.615 109.069 56.038 124.612 47.7793 137.75C47.9192 138.281 48.0727 138.705 48.3301 139.187C49.7473 138.668 56.4153 128.591 57.9043 126.579C61.1041 122.256 64.8721 118.192 68.4277 114.182C74.5118 107.368 80.6333 100.591 86.791 93.8496C88.8737 91.5602 95.3145 85.2395 96.3994 83.0068C96.5445 82.7081 96.509 82.7546 96.4941 82.4326ZM83.0918 79.4629C81.6187 80.5632 80.3609 81.9272 79.0625 83.2393C78.6531 82.8988 78.1352 82.2533 77.5996 82.3193C75.487 82.5803 74.3181 85.3925 72.6123 86.5186C71.829 87.4093 71.0537 88.3085 70.2881 89.2158C67.9579 91.1033 66.3411 92.7328 64.7451 95.3252C64.4541 95.6659 64.2114 95.9997 63.9883 96.3926C61.5179 100.74 57.4759 104.147 54.3242 108.009C49.5402 113.973 45.1412 120.233 41.1299 126.786C42.0892 127.97 42.8373 129.25 43.6094 130.568C50.8611 115.848 62.5314 103.471 73.1221 91.3213C75.8512 88.1892 81.3771 82.8825 83.0918 79.4629ZM56.8711 93.1768C49.4436 100.156 42.5509 107.545 36.3369 115.734L37.5273 119.686C38.3132 119.481 38.8811 118.028 39.3037 117.299C42.5347 111.72 46.01 106.567 50.0547 101.601C52.2602 98.8927 55.1952 96.2285 56.9805 93.2402L56.8711 93.1768ZM156.703 84.6934C154.004 88.2215 133.931 116.989 133.944 118.561L134.201 118.522C137.497 114.837 153.508 93.0174 155.598 92.1055L156.551 92.2773C157.487 90.9943 157.368 87.394 157.179 85.8232C157.111 85.257 157.088 85.1154 156.703 84.6934ZM155.103 105.342C154.154 106.151 153.043 106.897 152.958 108.284C152.924 108.851 153.131 109.038 153.39 109.505C154.437 108.355 155.02 107.158 155.279 105.595L155.103 105.342ZM155.469 71.3125C152.122 75.5022 127.963 107.558 127.7 108.77L128.181 108.515C135.041 102.562 143.331 90.9421 149.45 83.6289C151.715 80.9222 154.563 78.722 156.745 75.9736C156.52 74.6697 156.427 72.4864 155.719 71.4111L155.469 71.3125ZM151.966 57.9346C150.498 60.781 148.902 63.4733 147.102 66.1025C144.425 70.0099 119.181 104.133 119.339 105.385L120.209 104.432C129.041 93.7879 137.184 82.5102 146.444 72.2627C148.929 69.5127 151.462 66.4045 154.401 64.1787C153.797 62.4619 153.095 59.2364 151.966 57.9346ZM46.9424 78.8428C42.0351 84.2978 36.8173 89.6167 32.2344 95.3633C32.6901 97.5498 32.8909 99.6478 33.0303 101.876C33.8721 101.234 45.4758 81.8861 47.0322 79.1797L46.9424 78.8428ZM148.252 50.8057C144.839 55.9536 140.6 60.6765 136.746 65.4805C131.548 71.9604 126.863 78.6965 122.113 85.5293C120.193 88.2906 118.01 90.8396 116.274 93.7354L116.398 93.875C116.82 93.5084 117.247 93.1507 117.641 92.752C124.269 84.8658 130.47 76.6132 137.246 68.8574C141.611 63.8614 147.058 59.2654 150.768 53.7402C149.984 52.6439 149.294 51.66 148.252 50.8057ZM142.235 43.8857C139.149 48.1611 117.932 71.3857 117.628 74.3076C118.032 73.9654 118.438 73.6391 118.81 73.2588C124.978 66.1716 131.238 59.3037 138.013 52.833C140.272 50.6745 142.575 48.2711 145.159 46.541C144.235 45.5813 143.368 44.5795 142.235 43.8857ZM134.767 37.6904C132.608 39.7674 130.511 41.9107 128.477 44.1191C125.852 47.0041 104.944 70.8697 104.441 72.4629C105.044 72.2974 105.289 72.1048 105.732 71.6514C111.792 65.0228 131.007 43.2948 137.483 39.8662L134.767 37.6904ZM77.377 61.5088C76.7695 61.9217 76.4775 62.251 76.0791 62.8916C76.026 62.9772 75.7164 63.5038 75.6299 63.5889C74.9467 64.2617 74.7355 63.4778 73.9248 63.6074C73.893 64.4609 74.0707 65.0541 74.335 65.8447L74.4385 66.1504L74.1211 66.1299L74.1211 66.127L73.4561 65.5889C72.5538 65.7754 71.7377 66.7023 71.2363 67.4727C70.674 68.3361 70.3017 69.2219 70.4941 70.2686C71.1011 70.3632 71.2534 70.1261 71.7461 69.7578C72.1809 69.4323 72.5986 69.0751 73.0078 68.708L74.2207 67.5957C75.6459 66.7483 77.3887 65.4712 78.3154 64.0498C78.787 63.3275 78.8257 62.9509 78.6865 62.1152C78.1449 61.6751 78.051 61.595 77.377 61.5088ZM69.4268 36.292C57.177 44.8793 46.9494 54.9476 39.6475 68.4863C39.713 68.9629 39.6092 68.8225 39.7861 69.0039C45.8466 61.5313 51.9271 54.1516 58.5957 47.2461C62.1671 43.5475 66.0918 40.2266 69.6553 36.5322L69.4268 36.292ZM112.644 29.1104C105.559 35.0699 98.6791 41.1822 91.8154 47.4131C86.9972 51.7867 82.1427 56.0743 77.7402 60.9121C78.4755 61.628 79.2674 62.6362 80.3018 62.75C81.4516 62.4482 82.4283 61.2754 83.2979 60.4619C91.3371 53.6184 99.5568 47.0173 107.954 40.6582C112.328 37.287 116.579 33.7396 121.257 30.8242C118.584 29.6525 115.531 29.1842 112.644 29.1104ZM106.271 28.2529C105.419 27.6533 104.047 27.727 103.027 27.79C101.063 27.8781 99.0949 27.9974 97.1299 28.0361C97.574 29.0153 97.8979 29.4236 97.7754 30.5156C96.4461 32.3633 94.6648 33.8552 93.0762 35.46C90.1745 38.4446 87.2321 41.3868 84.2539 44.2881C83.2597 45.2533 81.9737 46.1823 81.0908 47.2207C80.7228 47.6534 80.6251 48.1557 80.5225 48.7041C79.6234 48.7575 79.5154 48.658 78.8809 49.3008C78.701 49.9459 78.5492 50.5758 78.4053 51.2305C78.2849 51.7763 78.1551 51.9477 77.7842 52.3301L77.3525 52.2188L76.8213 51.207C76.1858 51.2374 75.7434 51.5927 75.3408 52.127C74.7538 52.9065 74.7783 53.9783 74.7207 54.9238L74.2715 55.5352C73.6784 55.1854 73.9416 55.4166 73.498 54.8193C71.7637 55.9379 69.2983 58.8752 68.1025 60.6318C68.392 61.3309 68.5178 61.3374 69.1602 61.7266L69.6455 61.6777L69.2402 60.3154L69.4687 60.0986C69.8243 60.3032 70.1143 60.4957 70.4385 60.7432L70.5479 60.7354L70.9941 59.8506C71.5352 59.8429 71.2773 59.7886 71.7705 60.002C72.1669 59.0648 71.6497 58.0572 71.9746 57.1885C72.2373 57.8709 72.5106 58.5331 72.8184 59.1953L73.1924 59.1934L73.5654 58.6172C73.4308 58.0898 72.9063 56.8467 73.042 56.3672C73.5361 56.8079 73.7617 57.2111 74.0625 57.8076L74.1377 57.4863L74.2109 58.0049C76.232 56.8283 79.9508 52.6042 81.8936 50.7871C86.2857 46.6652 90.7002 42.5674 95.1357 38.4961C97.9473 35.959 104.449 31.2185 106.271 28.2529ZM125.541 32.6191C120.418 39.0013 114.022 44.6355 108.27 50.4189C106.352 52.3472 104.186 54.2529 102.518 56.4072L103.631 55.7959C108.218 51.5378 112.719 47.196 117.393 43.0391C120.696 40.1015 124.433 37.3378 127.397 34.0449L127.409 33.5039C126.788 32.9096 126.337 32.8208 125.541 32.6191ZM92.9258 28.8223C92.3635 28.4505 92.3023 28.5852 91.6699 28.668C90.6395 28.8506 89.5924 28.9998 88.5693 29.2217C84.8147 33.8908 80.5715 37.7301 76.2344 41.7803C73.5481 44.2887 70.5566 46.8978 68.3916 49.915L68.4326 50.2236L69.3691 49.5342C73.5244 44.4506 81.1648 38.1619 86.3252 33.9941C88.1536 32.5172 91.6239 30.7068 92.9258 28.8223Z" fill="#54E6ED"/>
<path d="M76.6149 162.596C75.6903 162.711 74.9713 162.73 74.2209 162.079C71.3922 159.621 71.7446 163.176 68.7532 162.991C67.2421 162.323 66.4774 161.128 65.8013 159.621C61.646 158.45 57.638 156.952 53.6118 155.379C52.4993 156.254 51.2829 157.432 49.8409 157.596C48.9357 157.699 48.3543 157.524 47.6456 156.955L47.5702 156.155C48.1875 154.379 49.171 153.914 50.6992 153.086C49.8706 152.768 48.83 152.484 48.067 152.033C47.2407 151.545 47.2532 151.304 46.9528 150.401L47.0043 150.269C46.4223 149.089 45.1145 148.642 44.022 148.068C43.9734 148.114 43.9244 148.16 43.8764 148.207C43.1105 148.958 42.3236 149.858 41.3259 150.264C40.443 150.623 39.8376 150.517 38.9861 150.162C38.7074 149.647 38.5749 149.536 38.5703 148.917C38.5589 147.265 39.8719 146.168 40.877 145.054L36.973 140.791C35.929 141.135 34.788 141.642 33.7035 141.193C33.0444 140.921 32.6772 140.566 32.5556 139.823C32.3974 138.854 33.0427 137.983 33.5184 137.219C31.9748 135.235 22.3204 122.921 22.0115 121.941C22.1497 121.131 22.1388 120.93 22.6568 120.327L23.3164 120.348C25.0851 121.274 26.0731 122.838 27.0959 124.517C25.7521 119.667 24.1273 114.452 23.4032 109.471C23.0274 106.888 24.2416 103.67 23.261 101.253C22.6654 100.751 22.2839 100.526 21.9989 99.7558C22.2085 98.3191 22.9475 97.0051 23.0874 95.5964C23.2781 93.6771 23.2039 91.7065 23.3935 89.7711C24.5528 77.9451 27.5202 66.9839 34.2123 57.1724C41.789 46.0624 58.1383 34.5048 70.3403 29.796C76.1106 27.569 82.1619 26.371 88.2104 25.3158C89.1098 23.9905 90.1789 22.6413 91.6427 21.9967C92.7563 22.2842 92.955 23.2001 93.8111 23.9155C94.9339 24.8534 96.5055 24.4785 97.8539 24.3797C99.931 24.3184 102.022 24.4666 104.088 24.685C119.146 26.2758 130.687 32.2159 140.268 44.4632L142.657 42.1862C143.661 42.8058 144.816 43.4312 145.067 44.7364C145.43 46.6146 143.905 48.6238 143.016 50.1373C143.512 50.7265 145.826 53.9587 146.461 53.9539C147.083 53.9485 147.661 53.4123 148.312 53.6033C148.996 53.8045 149.522 54.3568 149.817 55.0216C150.308 56.1297 149.228 58.2234 148.822 59.2852C149.891 61.2997 150.681 63.3243 151.456 65.4793C151.908 64.9645 152.347 64.4914 152.96 64.1843C153.656 63.835 154.364 63.9255 155.067 64.1718C155.396 64.4885 155.671 64.7723 155.851 65.2104C157.026 68.0855 155.506 69.8667 154.571 72.4109C154.28 73.2025 154.186 73.6167 154.474 74.4058C155.21 74.9129 155.799 75.3402 156.36 76.0692C156.607 77.4125 156.113 78.4242 155.645 79.6419C155.838 80.3013 155.915 80.5834 156.391 81.0964C156.95 81.6987 156.65 81.2821 157.109 81.9367C157.853 82.9979 157.201 85.379 157.01 86.6127C158.189 85.4939 158.9 84.3107 159.85 83.0062C160.452 82.1795 160.985 81.8486 161.956 81.6909C162.49 82.0736 162.827 82.2509 162.964 82.977C163.482 85.7325 158.288 90.4877 156.858 92.7367C155.115 95.4809 155.271 100.261 154.311 103.462C152.154 110.65 148.499 118.063 144.417 124.247C133.017 141.519 116.434 155.335 96.4895 159.768C89.894 161.234 83.2031 161.32 76.6149 162.596Z" fill="#54E6ED"/>
<path d="M29.8995 79.6582L29.7225 79.4047C29.9817 77.8413 30.5665 76.6456 31.6139 75.4958C31.8726 75.9624 32.0794 76.1475 32.0451 76.7147C31.9606 78.1031 30.8487 78.8482 29.8995 79.6582Z" fill="white"/>
<path d="M110.782 117.403C111.587 116.669 112.387 115.893 113.257 115.241C113.749 114.873 113.9 114.637 114.507 114.731C114.7 115.778 114.328 116.662 113.765 117.526C113.264 118.296 112.448 119.223 111.545 119.409L110.881 118.871L110.782 117.403Z" fill="white"/>
<path d="M110.878 118.871L110.56 118.851L110.665 119.157C110.929 119.948 111.106 120.54 111.074 121.394C110.263 121.524 110.053 120.738 109.37 121.412C109.283 121.497 108.975 122.023 108.922 122.109C108.523 122.75 108.231 123.079 107.624 123.492C106.949 123.406 106.856 123.326 106.314 122.886C106.175 122.05 106.212 121.673 106.684 120.951C107.611 119.529 109.354 118.251 110.779 117.403L110.878 118.871Z" fill="white"/>
<path d="M93.333 156.334C92.7002 156.416 92.6397 156.551 92.0772 156.179C93.3787 154.294 96.8492 152.484 98.6778 151.006C103.838 146.839 111.479 140.55 115.635 135.467L116.571 134.778L116.611 135.086C114.446 138.103 111.456 140.711 108.77 143.219C104.432 147.27 100.189 151.109 96.434 155.778C95.4106 156 94.3638 156.151 93.333 156.334Z" fill="white"/>
<path d="M59.4605 152.38C58.6644 152.178 58.2138 152.089 57.5925 151.495L57.6044 150.955C60.569 147.662 64.3045 144.897 67.6077 141.96C72.2816 137.803 76.7835 133.462 81.3705 129.204L82.4824 128.593C80.8137 130.747 78.6492 132.652 76.7315 134.581C70.9789 140.364 64.5838 145.998 59.4605 152.38Z" fill="white"/>
<path d="M128.127 91.8232L128.018 91.7601C129.803 88.772 132.738 86.1093 134.943 83.4014C138.988 78.4344 142.463 73.2805 145.694 67.7011C146.117 66.972 146.683 65.5211 147.469 65.3164L148.662 69.2669C142.448 77.4566 135.554 84.8441 128.127 91.8232Z" fill="white"/>
<path d="M138.061 106.159L137.971 105.822C139.527 103.116 151.13 83.7707 151.972 83.1285C152.111 85.3567 152.312 87.4522 152.768 89.6387C148.185 95.3854 142.968 100.704 138.061 106.159Z" fill="white"/>
<path d="M115.573 148.707L115.344 148.467C118.908 144.772 122.832 141.453 126.404 137.754C133.073 130.848 139.153 123.467 145.214 115.994C145.392 116.176 145.286 116.035 145.352 116.512C138.05 130.051 127.823 140.12 115.573 148.707Z" fill="white"/>
<path d="M42.7638 141.113C41.6307 140.419 40.765 139.418 39.8404 138.458C42.4246 136.728 44.7272 134.325 46.987 132.166C53.7625 125.695 60.0223 118.827 66.1912 111.74C66.5624 111.359 66.9668 111.034 67.3711 110.692C67.0684 113.612 45.8494 136.838 42.7638 141.113Z" fill="white"/>
<path d="M50.2352 147.311L47.5162 145.133C53.9924 141.706 73.2086 119.977 79.2679 113.348C79.7111 112.895 79.9555 112.703 80.5586 112.538C80.056 114.131 59.1488 137.998 56.5252 140.882C54.4904 143.09 52.394 145.234 50.2352 147.311Z" fill="white"/>
<path d="M88.5072 102.566C88.4923 102.244 88.4558 102.292 88.6009 101.993C89.6854 99.7609 96.1267 93.4405 98.2095 91.151C104.368 84.4093 110.489 77.6313 116.574 70.8175C120.129 66.8069 123.896 62.7451 127.096 58.422C128.584 56.4116 135.253 46.3323 136.67 45.8146C136.928 46.296 137.083 46.7192 137.223 47.2506C128.964 60.3883 113.386 75.931 102.702 87.5606C98.6892 91.9283 92.8555 99.0944 88.5072 102.566Z" fill="white"/>
<path d="M71.6244 55.8301C72.224 53.1157 89.1901 33.4523 91.9856 28.7739L97.1323 28.7906C97.1363 28.8412 97.1477 28.8917 97.1437 28.9417C97.0637 29.9594 95.584 31.3919 94.9079 32.14C91.4762 35.9394 87.571 39.2775 83.984 42.9192C79.8087 47.1577 75.9156 51.7201 71.6244 55.8301Z" fill="white"/>
<path d="M28.2985 100.307C27.9131 99.8841 27.8914 99.7425 27.8234 99.1753C27.6338 97.6047 27.515 94.0065 28.4516 92.7234L29.4036 92.8942C31.4904 91.9866 47.5027 70.1623 50.7991 66.4766L51.0566 66.4391C51.0715 68.0078 30.9964 96.7804 28.2985 100.307Z" fill="white"/>
<path d="M29.5313 113.688L29.2818 113.588C28.5736 112.512 28.4805 110.329 28.2555 109.025C30.4377 106.277 33.2845 104.078 35.5495 101.371C41.6688 94.0584 49.9588 82.4389 56.8193 76.4858L57.3008 76.2299C57.0489 77.4273 32.8757 109.502 29.5313 113.688Z" fill="white"/>
<path d="M85.325 73.4229C85.6677 70.3728 105.402 48.2776 108.716 44.0902C111.772 40.2284 114.566 36.3177 117.142 32.0923L120.478 33.5355C121.099 33.9449 120.845 33.6884 121.252 34.2925C120.422 36.2916 96.1238 60.7892 92.5259 64.6975C89.9766 67.4667 87.6608 70.4597 85.325 73.4229Z" fill="white"/>
<path d="M54.5689 53.2529C54.2628 53.1643 54.4804 53.2422 53.9779 52.881C54.204 51.8038 55.4342 50.7813 56.1263 49.8946C55.6243 49.891 53.6335 51.5562 53.0904 51.9353C54.3873 50.1499 56.4867 48.5519 58.0595 46.9974C63.7881 41.3377 68.5607 36.2599 75.8999 32.9278C77.9918 32.0964 80.0609 31.4435 82.2305 30.8709C78.2505 33.9228 74.6264 37.4342 70.82 40.711C65.5894 45.1537 60.1719 49.3339 54.5689 53.2529Z" fill="white"/>
<path d="M77.398 66.2695C77.3672 64.2407 92.7862 46.2985 95.2213 42.9877C98.5651 38.4647 101.72 33.8024 104.686 29.0014C106.704 29.1109 108.626 29.418 110.591 29.8935C111.049 30.0012 110.846 29.8738 111.146 30.3541C109.572 33.7779 101.526 40.1882 98.5468 43.0109C90.8844 50.2716 84.3488 58.3215 77.398 66.2695Z" fill="white"/>
<path d="M36.7499 134.194C35.7076 133.34 35.0166 132.355 34.2331 131.259C37.9429 125.733 43.3894 121.138 47.7549 116.141C54.5309 108.386 60.7329 100.135 67.3616 92.2484C67.7557 91.8496 68.1823 91.4931 68.6038 91.1265L68.7266 91.264C66.991 94.1599 64.8072 96.7077 62.8871 99.4692C58.1368 106.303 53.4526 113.04 48.254 119.521C44.4002 124.325 40.1627 129.046 36.7499 134.194Z" fill="white"/>
<path d="M33.0353 127.066C31.9057 125.765 31.2038 122.54 30.5996 120.823C33.5396 118.597 36.0707 115.489 38.5555 112.739C47.8158 102.491 55.959 91.2147 64.7916 80.5706L65.6614 79.6166C65.8207 80.867 40.5698 114.999 37.8982 118.899C36.0975 121.529 34.5036 124.22 33.0353 127.066Z" fill="white"/>
<path d="M86.3233 89.7939C86.2776 89.5517 86.2936 89.3 86.3844 89.0673C87.9435 85.0941 108.646 61.366 112.759 56.4257C116.414 52.0711 119.919 47.5897 123.274 42.9803C124.221 41.6776 126.454 37.833 127.772 37.4426L128.843 38.1823C129.304 38.6471 129.604 38.9929 129.879 39.5994C129.307 41.7924 99.1027 74.8244 94.3272 80.2646C91.5956 83.3772 88.9709 86.6034 86.3233 89.7939Z" fill="white"/>
<path d="M81.9741 157.211C80.9547 157.274 79.5829 157.347 78.7309 156.748C80.5526 153.782 87.0528 149.042 89.8643 146.505C94.3 142.434 98.714 138.337 103.106 134.215C105.049 132.398 108.769 128.172 110.79 126.996L110.862 127.515L110.937 127.194C111.238 127.791 111.463 128.195 111.958 128.636C112.095 128.158 111.569 126.914 111.435 126.386L111.809 125.808L112.182 125.807C112.489 126.47 112.764 127.13 113.027 127.813C113.352 126.944 112.833 125.937 113.229 124.999C113.723 125.213 113.465 125.161 114.006 125.153L114.452 124.266L114.561 124.259C114.886 124.507 115.175 124.699 115.531 124.903L115.759 124.686L115.354 123.323L115.839 123.277C116.482 123.666 116.607 123.671 116.896 124.371C115.701 126.128 113.237 129.065 111.502 130.184C111.058 129.585 111.322 129.817 110.729 129.467L110.281 130.078C110.223 131.024 110.246 132.094 109.659 132.874C109.256 133.409 108.816 133.764 108.18 133.795L107.647 132.784L107.216 132.673C106.845 133.056 106.715 133.226 106.595 133.773C106.451 134.427 106.299 135.055 106.119 135.7C105.484 136.344 105.377 136.243 104.477 136.296C104.374 136.845 104.278 137.348 103.909 137.782C103.026 138.82 101.74 139.747 100.745 140.713C97.7671 143.614 94.8265 146.556 91.9248 149.541C90.336 151.146 88.5548 152.637 87.2253 154.485C87.1025 155.578 87.4263 155.986 87.8706 156.965C85.9055 157.004 83.9381 157.122 81.9741 157.211Z" fill="white"/>
<path d="M105.944 101.761C104.645 103.074 103.387 104.438 101.914 105.538C103.628 102.118 109.154 96.8116 111.884 93.6794C122.475 81.5296 134.147 69.1537 141.398 54.433C142.171 55.7512 142.918 57.0307 143.877 58.215C139.866 64.7687 135.468 71.0278 130.684 76.9917C127.532 80.8535 123.489 84.2595 121.019 88.6076C120.796 89.001 120.553 89.3337 120.262 89.6747C118.665 92.2677 117.05 93.8978 114.719 95.7855C113.953 96.6931 113.179 97.5924 112.395 98.4833C110.689 99.6093 109.519 102.423 107.406 102.683C106.87 102.749 106.353 102.102 105.944 101.761Z" fill="white"/>
<path d="M120.26 89.6763C118.664 92.2693 117.048 93.8993 114.717 95.7871C114.5 94.2397 115.994 94.1939 114.836 92.599C116.3 91.1325 117.732 89.6596 119.349 88.377C119.736 88.0705 119.576 88.2277 119.882 87.8462L120.381 87.8277C120.344 88.4443 120.304 89.0603 120.26 89.6763Z" fill="#54E6ED"/>
<path d="M112.39 98.4825C110.684 99.6085 109.514 102.422 107.4 102.682C106.865 102.748 106.348 102.101 105.938 101.761C107.459 100.201 108.953 98.589 110.52 97.0804C111.89 95.6163 113.287 93.8368 114.833 92.5966C115.99 94.1916 114.496 94.2374 114.714 95.7847C113.948 96.6923 113.174 97.5916 112.39 98.4825Z" fill="#54E6ED"/>
<path d="M82.5522 112.758C83.2525 112.205 83.8228 111.788 84.354 111.328C85.1781 110.614 85.5239 109.758 85.0411 108.688C84.3433 107.139 83.6583 105.584 82.9662 104.034C82.6096 103.233 82.2497 102.433 81.8467 101.53C82.161 101.384 82.4198 101.2 82.7052 101.138C92.626 98.9562 102.532 96.6917 112.721 96.1042C119.003 95.742 125.218 96.3397 131.39 97.4254C133.978 97.8808 136.529 98.5508 139.086 99.17C140.507 99.5145 145.692 98.0674 146.38 96.8448C147.067 95.6248 147.586 94.2467 147.865 92.8737C148.515 89.681 148.479 86.4351 148.146 83.1989C147.319 75.1649 145.194 67.4571 142.315 59.9331C137.231 46.6451 129.594 35.0593 119.28 25.2516C117.009 23.092 114.613 21.0871 111.855 19.5403C110.572 18.8216 109.281 18.6454 107.895 19.0206C107.477 19.1336 107.047 19.2778 106.686 19.5091C105.487 20.278 104.278 21.0411 103.154 21.9125C102.665 22.2914 102.258 22.8769 102.012 23.453C98.3327 32.052 93.5932 39.9883 87.3314 46.967C81.4094 53.5659 74.6021 59.2049 67.8179 64.8714C57.5388 73.4571 46.9937 81.6918 35.752 88.9882C33.7914 90.2607 32.8974 91.9752 32.6375 94.1082C32.4864 95.3446 32.462 96.6589 32.7129 97.8693C33.6291 102.281 35.6785 106.117 39.0437 109.166C39.8063 109.857 40.7226 110.403 41.6319 110.901C43.0487 111.676 44.4966 111.696 46.075 111.166C50.2392 109.766 54.4494 108.502 58.6448 107.196C59.1036 107.054 59.5871 106.991 60.1812 106.864C60.7848 109.117 61.2357 111.321 61.9649 113.427C64.4483 120.598 68.263 127.058 72.7778 133.122C73.7272 134.398 74.7079 135.656 75.7561 136.852C80.0813 141.786 85.5044 142.427 91.047 139.382C92.4617 138.605 93.7707 137.509 94.8778 136.325C96.542 134.544 96.6174 132.49 95.2745 130.433C94.5595 129.336 93.6824 128.339 92.8356 127.334C89.8672 123.808 86.7788 120.373 84.4898 116.334C83.8218 115.152 83.1961 113.948 82.5522 112.758ZM61.3905 97.6155C62.7099 97.1248 63.7922 96.741 64.8611 96.321C66.2534 95.7747 66.8271 94.5346 66.2254 93.151C65.3518 91.1389 64.3825 89.1693 63.4627 87.178C63.1339 86.4673 62.5872 86.1061 61.8229 85.9656C60.9143 85.7988 60.0963 85.8976 59.3131 86.4275C58.2793 87.1268 57.2128 87.7759 56.0743 88.502C55.8835 88.1176 55.7 87.8456 55.6064 87.5459C54.7586 84.8579 54.2782 82.1221 54.3875 79.2835C54.4373 77.9745 54.9512 77.086 55.9951 76.2673C64.4561 69.6342 72.7982 62.8536 80.7707 55.6319C88.0703 49.02 94.3453 41.583 98.996 32.8572C100.312 30.3871 101.661 27.9106 102.67 25.3112C103.224 23.8814 103.964 22.8578 105.215 22.0965C105.683 21.8124 106.103 21.4485 106.571 21.1677C106.862 20.9937 107.203 20.9071 107.624 20.7413C107.288 26.1646 107.916 31.3188 108.954 36.4487C110.297 43.0956 112.402 49.5012 114.845 55.8088C118.148 64.3368 122.25 72.4463 127.598 79.8885C132.114 86.1714 137.369 91.7352 143.716 96.2174C143.828 96.2978 143.875 96.4718 143.993 96.6677C141.798 97.435 139.714 98.6154 137.393 97.228C129.137 95.2558 120.779 94.1713 112.283 94.6635C103.766 95.1566 95.4189 96.8255 87.1083 98.6541C81.1562 99.9638 75.2267 101.381 69.2808 102.722C68.8304 102.824 68.2653 102.861 67.8673 102.678C65.3988 101.543 63.2912 99.9227 61.3905 97.6155ZM109.067 20.3548C110.329 20.4748 110.939 20.6001 112.339 21.6615C114.48 23.2836 116.655 24.8975 118.58 26.7603C134.61 42.2739 143.752 61.2563 146.761 83.2668C147.208 86.5374 147.146 89.8422 146.542 93.1068C146.378 93.9952 146.065 94.8574 145.768 95.9201C136.62 89.4309 129.698 81.3759 124.199 71.9216C126.721 70.5191 129.014 69.1215 131.418 67.953C132.9 67.232 133.376 66.1661 133.321 64.6699C133.307 64.2862 133.339 63.8998 133.302 63.5198C132.761 58.0428 130.361 53.468 126.488 49.6321C125.953 49.1018 125.295 48.6198 124.603 48.3471C124.043 48.1253 123.278 48.0618 122.722 48.2603C121.019 48.8646 119.37 49.6241 117.705 50.3337C116.768 50.7326 115.841 51.1496 114.913 51.557C111.109 42.4895 107.661 26.1814 109.067 20.3548ZM81.0518 113.35C81.905 114.868 82.6951 116.308 83.5188 117.73C85.8431 121.744 88.9376 125.17 91.8915 128.705C92.5589 129.503 93.2454 130.296 93.8217 131.158C94.9104 132.788 94.8534 134.056 93.5056 135.474C92.6854 136.337 91.729 137.128 90.7058 137.732C85.7137 140.675 80.9076 140.268 76.9503 135.768C76.2993 135.026 75.6828 134.252 75.0822 133.47C69.1511 125.739 64.3898 117.403 61.9062 107.896C61.786 107.434 61.712 106.96 61.6153 106.487C65.9403 105.328 70.1542 104.199 74.4186 103.056C74.508 103.529 74.5627 103.85 74.6287 104.168C75.2144 106.996 76.3541 109.593 77.8788 112.037C78.4423 112.941 79.0994 113.579 80.2706 113.344C80.4788 113.304 80.7042 113.345 81.0518 113.35ZM66.3253 103.447C65.9999 103.557 65.7063 103.664 65.407 103.755C58.9489 105.718 52.4653 107.603 46.0482 109.692C44.3871 110.232 43.0611 110.016 41.6954 109.198C41.0877 108.834 40.4964 108.419 39.9664 107.95C37.6984 105.942 36.1524 103.423 35.0752 100.633C34.0321 97.9297 33.455 95.1608 34.5113 92.2827C34.77 91.5781 35.1361 91.0854 35.7645 90.6512C41.3543 86.7905 46.916 82.8881 52.4882 79.002C52.7729 78.803 53.0848 78.6425 53.5777 78.3492C53.1149 82.2569 53.8914 85.77 54.9763 89.1861C54.3359 89.6921 53.842 90.1252 53.3057 90.4987C51.9337 91.4535 51.5697 92.7709 52.1602 94.2429C52.7492 95.7093 53.534 97.0979 54.271 98.5017C54.6272 99.1799 55.2187 99.3222 55.9557 99.1091C57.3235 98.7137 58.7048 98.364 59.9194 98.0386C62.0969 99.8745 64.1417 101.602 66.3253 103.447ZM115.379 53.0407C117.48 52.0277 119.547 51.2381 121.385 50.0838C123.076 49.022 124.239 49.5526 125.429 50.7171C125.938 51.216 126.454 51.7153 126.903 52.2675C128.975 54.8103 130.528 57.6437 131.334 60.8301C131.68 62.2028 131.8 63.6384 131.961 65.0522C132.055 65.8788 131.747 66.4401 130.885 66.8397C128.697 67.8541 126.58 69.0193 124.423 70.1014C124.106 70.2609 123.728 70.2974 123.341 70.4009C120.171 64.7922 117.501 59.1071 115.379 53.0407ZM62.3825 87.3315C63.2653 89.2341 64.0713 91.0345 64.9336 92.8066C65.6133 94.2029 65.4378 94.7107 63.9039 95.2361C62.0347 95.8753 60.1602 96.499 58.2767 97.094C57.3018 97.4021 56.3021 97.6315 55.3031 97.8992C54.1732 96.0845 52.9878 94.4266 52.9856 92.2676C55.319 90.7389 57.6293 89.2717 59.8826 87.7223C60.6832 87.1721 61.4503 87.0134 62.3825 87.3315ZM81.837 110.052C82.2216 109.355 81.8789 108.857 81.6505 108.319C80.8372 106.406 80.048 104.485 79.263 102.561C79.2077 102.426 79.2586 102.248 79.2627 101.976C79.7232 101.899 80.1729 101.821 80.5169 101.763C81.705 104.437 82.8318 106.972 84.0243 109.657C83.0334 111.015 81.4511 111.616 79.741 112.139C77.7002 109.228 76.2856 106.212 75.5843 102.728C76.5244 102.528 77.3028 102.362 78.1072 102.19C79.1841 104.992 79.8658 107.828 81.837 110.052Z" fill="#203B53"/>
<path d="M82.9057 92.381C97.5996 88.5617 112.829 87.1819 128.035 87.4566C129.638 89.2997 131.376 91.0371 133.06 92.8103C133.68 93.4612 134.42 94.0483 135.591 94.2894C135.461 93.9319 135.451 93.7071 135.335 93.6084C133.063 91.6965 131.005 89.617 129.104 87.4133C130.398 87.5395 131.813 87.3756 132.795 86.393C136.051 90.0465 139.66 93.353 143.716 96.2158C143.829 96.2963 143.876 96.4702 143.993 96.6662C141.799 97.4335 139.715 98.6138 137.394 97.2265C129.138 95.2543 120.78 94.1698 112.284 94.662C103.767 95.1551 95.4198 96.8239 87.1091 98.6525C81.157 99.9623 75.2276 101.379 69.2817 102.721C68.8312 102.822 68.2661 102.859 67.8681 102.676C65.8031 101.727 63.9908 100.437 62.3399 98.6892C69.1065 96.3468 75.928 94.1508 82.9057 92.381Z" fill="#9DC2D5"/>
<path d="M54.3861 79.2835C54.4359 77.9744 54.9498 77.086 55.9937 76.2673C64.4547 69.6341 72.7968 62.8536 80.7692 55.6319C88.0689 49.02 94.3439 41.583 98.9946 32.8572C100.311 30.3871 101.66 27.9105 102.668 25.3112C103.222 23.8814 103.962 22.8578 105.214 22.0965C105.682 21.8124 106.101 21.4485 106.57 21.1677C106.86 20.9937 107.202 20.907 107.623 20.7413C107.287 26.1646 107.915 31.3188 108.952 36.4487C110.296 43.0956 112.401 49.5011 114.844 55.8088C118.147 64.3368 122.248 72.4463 127.597 79.8885C129.227 82.1562 130.954 84.3307 132.792 86.3934C131.812 87.3756 130.395 87.5398 129.102 87.4136C125.36 83.0746 122.231 78.2521 119.302 73.279C114.358 64.884 110.197 56.1083 107.103 46.8638C105.323 41.5466 103.912 36.1196 103.583 30.4775C103.558 30.0404 103.574 29.6018 103.568 29.163C103.561 28.7485 103.551 28.3326 103.543 27.9172C103.404 27.9015 103.266 27.8869 103.128 27.8709C102.604 28.7849 102.604 29.8304 102.752 30.8219C103.245 34.1306 103.648 37.467 104.407 40.7177C106.214 48.4543 109.228 55.7677 112.699 62.891C116.65 71 121.121 78.8095 126.734 85.8968C127.154 86.4279 127.591 86.9474 128.036 87.4586C112.83 87.1839 97.5999 88.5637 82.906 92.383C75.9269 94.152 69.1057 96.3491 62.3391 98.6915C62.0168 98.3508 61.6999 97.9942 61.3897 97.6177C62.7091 97.127 63.7913 96.7432 64.8603 96.3233C66.2526 95.7769 66.8263 94.5368 66.2246 93.1533C65.351 91.1412 64.3817 89.1716 63.4619 87.1803C63.1331 86.4695 62.5864 86.1083 61.8221 85.9678C60.9135 85.801 60.0955 85.8999 59.3123 86.4297C58.2785 87.129 57.212 87.7781 56.0735 88.5043C55.8827 88.1199 55.6991 87.8478 55.6056 87.5481C54.7572 84.8579 54.2768 82.122 54.3861 79.2835Z" fill="#D8E2E7"/>
<path d="M145.882 77.8371C146.218 79.6251 146.511 81.4353 146.762 83.2667C147.208 86.5373 147.146 89.8422 146.542 93.1067C146.378 93.9952 146.065 94.8574 145.769 95.9198C136.622 89.4306 129.699 81.3756 124.2 71.9213C126.405 70.6952 128.436 69.4726 130.518 68.4033C132.84 70.5723 135.454 72.3406 138.194 73.9971C140.588 75.5163 143.132 77.1194 145.882 77.8371Z" fill="#9DC2D5"/>
<path d="M145.881 77.8378C143.131 77.1202 140.588 75.517 138.193 73.9978C135.454 72.3413 132.84 70.573 130.518 68.404C130.817 68.2504 131.117 68.1002 131.418 67.9533C132.901 67.2324 133.377 66.1665 133.321 64.6703C133.308 64.2866 133.34 63.9001 133.303 63.5202C132.762 58.0431 130.362 53.4684 126.489 49.6325C125.953 49.1022 125.296 48.6202 124.604 48.3472C124.045 48.1254 123.28 48.0619 122.724 48.2604C121.9 48.5533 121.089 48.8824 120.283 49.2235C118.435 42.0706 117.565 34.5402 119.346 27.5108C133.586 41.584 142.248 58.4682 145.881 77.8378Z" fill="#D8E2E7"/>
<path d="M109.067 20.3544C110.33 20.4743 110.939 20.5997 112.339 21.6611C114.48 23.2832 116.655 24.8971 118.58 26.7598C118.837 27.0086 119.093 27.2589 119.346 27.5086C117.566 34.5376 118.435 42.0695 120.283 49.2213C119.422 49.5856 118.566 49.9653 117.705 50.3319C116.769 50.7307 115.841 51.1478 114.914 51.5552C111.109 42.489 107.661 26.181 109.067 20.3544Z" fill="#9DC2D5"/>
<path d="M92.6318 134.283C92.6335 134.285 92.6355 134.288 92.6355 134.288C92.6506 133.877 92.7881 133.474 92.6538 133.211C92.136 132.195 91.6371 131.141 90.9391 130.251C88.5029 127.144 85.9331 124.14 83.5259 121.011C82.501 119.679 81.7495 118.136 80.8766 116.687C80.7035 116.401 80.5357 116.111 80.1869 115.856C80.1559 115.735 80.1176 115.619 80.0612 115.516C79.341 114.162 77.9333 113.349 77.0218 112.166C75.7394 110.487 76.1432 107.998 74.587 106.631C71.0456 103.328 66.2114 106.542 61.8704 107.74C61.7722 107.328 61.7028 106.908 61.6171 106.489C65.9421 105.33 70.156 104.201 74.4204 103.059C74.5098 103.532 74.5645 103.853 74.6305 104.171C75.2162 106.999 76.3559 109.595 77.8806 112.039C78.4441 112.943 79.1012 113.582 80.2724 113.346C80.4803 113.305 80.7054 113.345 81.0519 113.35C81.9051 114.868 82.6952 116.308 83.5188 117.73C85.8432 121.744 88.9376 125.17 91.8916 128.705C92.559 129.503 93.2455 130.296 93.8218 131.158C94.9105 132.788 94.8535 134.057 93.5057 135.474C93.1952 135.802 92.8647 136.118 92.5183 136.418C92.6059 136.13 92.6654 135.845 92.6949 135.573C92.784 135.138 92.752 134.696 92.6318 134.283Z" fill="#FCC959"/>
<path d="M61.8682 107.74C66.2103 106.541 71.0434 103.327 74.5848 106.63C76.1413 107.999 75.7372 110.487 77.0196 112.165C77.9323 113.349 79.3399 114.162 80.0589 115.516C80.1165 115.619 80.1548 115.735 80.1847 115.855C80.1428 115.825 80.0997 115.794 80.0521 115.765C80.0636 116.095 79.9727 116.474 80.1044 116.746C80.7748 118.12 81.3529 119.578 82.2426 120.801C84.2735 123.594 86.4766 126.262 88.5941 128.992C89.921 130.702 91.2211 132.434 92.6296 134.282C92.7487 134.696 92.7807 135.138 92.6916 135.574C92.6632 135.845 92.6029 136.132 92.515 136.419C91.9476 136.91 91.3384 137.357 90.7028 137.733C85.7107 140.677 80.9047 140.269 76.9473 135.769C76.2964 135.028 75.6798 134.254 75.0792 133.471C69.1481 125.74 64.3868 117.404 61.9033 107.898C61.8917 107.845 61.8812 107.793 61.8682 107.74Z" fill="#FFDC91"/>
<path d="M35.0748 100.632C34.0317 97.9293 33.4546 95.1604 34.5109 92.2823C34.7697 91.5777 35.1357 91.085 35.7641 90.6508C41.3539 86.7901 46.9156 82.8876 52.4878 79.0016C52.7725 78.8026 53.0844 78.642 53.5773 78.3487C53.1145 82.2565 53.891 85.7696 54.976 89.1856C54.3356 89.6917 53.8416 90.1248 53.3053 90.4983C51.9333 91.453 51.5693 92.7705 52.1598 94.2425C52.7488 95.7089 53.5336 97.0975 54.2707 98.5013C54.6268 99.1795 55.2184 99.3217 55.9553 99.1086C57.3231 98.7133 58.7044 98.3636 59.919 98.0381C60.3419 98.3952 60.7585 98.7468 61.1723 99.0967C53.7525 101.686 46.3918 104.433 38.9554 106.97C37.2274 105.146 35.9834 102.986 35.0748 100.632Z" fill="#30A0A6"/>
<path d="M61.1737 99.0961C62.8948 100.549 64.5651 101.96 66.3255 103.447C66 103.557 65.7064 103.665 65.4072 103.756C58.9491 105.718 52.4655 107.604 46.0484 109.693C44.3873 110.233 43.0613 110.016 41.6956 109.199C41.0879 108.834 40.4965 108.419 39.9666 107.95C39.6118 107.636 39.2762 107.308 38.9556 106.97C46.3932 104.433 53.7539 101.686 61.1737 99.0961Z" fill="#1D8388"/>
<path d="M123.132 50.6365C123.063 50.6839 123.001 50.7317 122.946 50.7803C122.938 50.359 122.976 49.9313 123.064 49.5107C123.934 49.4977 124.676 49.98 125.428 50.7169C125.937 51.2157 126.453 51.715 126.902 52.2673C128.974 54.81 130.527 57.6434 131.333 60.8299C131.679 62.2025 131.799 63.6381 131.96 65.0508C132.027 65.6368 131.89 66.0885 131.498 66.4449C131.166 66.309 130.84 66.1532 130.52 65.9841C130.536 65.9774 130.552 65.9731 130.568 65.9664C126.391 61.6631 123.777 56.6875 123.132 50.6365Z" fill="#30A0A6"/>
<path d="M124.855 65.0756C120.965 61.5413 118.647 56.787 118.233 51.7281C119.33 51.2248 120.391 50.7072 121.385 50.0835C122.007 49.6931 122.557 49.5181 123.064 49.511C122.977 49.9313 122.937 50.3593 122.946 50.7806C122.251 51.3747 122.49 51.9987 122.58 52.5449C123.149 55.997 124.34 59.2184 126.328 62.1099C127.067 63.1847 127.9 64.197 128.736 65.2014C127.55 65.8754 126.009 66.0896 124.855 65.0756Z" fill="#30A0A6"/>
<path d="M118.233 51.7301C118.647 56.7879 120.966 61.5419 124.855 65.0776C126.008 66.0919 127.549 65.8777 128.735 65.2037C128.808 65.2924 128.883 65.382 128.957 65.4703C129.271 65.8482 129.627 66.329 130.521 65.9861C130.841 66.1552 131.167 66.3121 131.499 66.4469C131.338 66.5936 131.135 66.725 130.883 66.8406C128.696 67.855 126.579 69.0202 124.422 70.1023C124.105 70.2618 123.726 70.2983 123.34 70.4018C120.171 64.7928 117.501 59.1077 115.378 53.0427C116.343 52.5771 117.301 52.1579 118.233 51.7301Z" fill="#1D8388"/>
<path d="M63.9654 94.1077C63.9504 94.0023 63.9119 93.8947 63.8594 93.8017C62.8949 92.0702 61.9277 90.3418 60.9817 88.6475C60.9488 88.7405 60.9243 88.8421 60.9089 88.9509L60.5753 87.3464C61.1421 87.1223 61.7202 87.107 62.3811 87.3329C63.2639 89.2355 64.0699 91.0359 64.9322 92.808C65.5132 94.0022 65.4677 94.5462 64.4843 95.007L63.9591 94.3356C63.9711 94.259 63.9754 94.1809 63.9654 94.1077Z" fill="#FFC28F"/>
<path d="M52.9844 92.2679C55.3178 90.7392 57.628 89.272 59.8813 87.7226C60.114 87.5628 60.3439 87.4374 60.5755 87.3452L60.9091 88.9498C60.6781 90.4807 62.0656 93.3958 63.7828 94.6681C63.8943 94.5047 63.9401 94.4648 63.9472 94.4195C63.9518 94.3918 63.9561 94.363 63.9604 94.3342L64.4856 95.0056C64.3189 95.0839 64.1263 95.1596 63.9037 95.2361C62.0346 95.8753 60.16 96.499 58.2766 97.0939C57.3016 97.4021 56.302 97.6315 55.3029 97.8992C54.1719 96.0848 52.9866 94.4269 52.9844 92.2679Z" fill="#F58122"/>
<path d="M81.9848 109.664C82.0921 109.158 81.8341 108.752 81.6506 108.319C80.8373 106.406 80.0481 104.484 79.2631 102.56C79.2079 102.426 79.2587 102.247 79.2629 101.976C79.7233 101.898 80.173 101.821 80.5171 101.762C81.7051 104.436 82.8319 106.971 84.0244 109.657C83.8001 109.965 83.5444 110.232 83.2651 110.469C82.7837 110.32 82.343 110.032 81.9848 109.664Z" fill="#223848"/>
<path d="M75.5816 102.729C76.5218 102.529 77.3001 102.362 78.1045 102.19C79.1833 104.99 79.8653 107.827 81.8351 110.051C81.9106 109.915 81.9566 109.786 81.9828 109.664C82.341 110.031 82.7817 110.32 83.262 110.469C82.3068 111.282 81.0614 111.735 79.7383 112.14C77.6989 109.23 76.2841 106.212 75.5816 102.729Z" fill="#525D65"/>
<path d="M103.127 27.8696C102.603 28.7835 102.603 29.8291 102.751 30.8205C103.244 34.1292 103.647 37.4657 104.406 40.7164C106.213 48.4529 109.227 55.7663 112.699 62.8897C116.649 70.9986 121.121 78.8082 126.734 85.8955C128.668 88.3391 130.907 90.5461 133.059 92.8099C133.679 93.4608 134.42 94.0479 135.59 94.2889C135.461 93.9314 135.451 93.7066 135.334 93.608C128.591 87.9339 123.721 80.7774 119.304 73.2781C114.36 64.8832 110.199 56.1074 107.105 46.863C105.325 41.5457 103.914 36.1188 103.585 30.4767C103.559 30.0396 103.576 29.601 103.57 29.1622C103.563 28.7476 103.553 28.3317 103.545 27.9164C103.405 27.8998 103.266 27.8853 103.127 27.8696Z" fill="#203B53"/>
<path d="M92.6365 134.287C92.6516 133.876 92.7892 133.474 92.6548 133.21C92.1371 132.194 91.6381 131.14 90.9401 130.25C88.5039 127.143 85.9341 124.14 83.5269 121.011C82.502 119.678 81.7505 118.135 80.8777 116.687C80.6845 116.365 80.4989 116.041 80.0554 115.764C80.0668 116.094 79.9759 116.474 80.1076 116.745C80.778 118.12 81.3561 119.577 82.2458 120.8C84.2767 123.594 86.4798 126.261 88.5973 128.992C89.9248 130.704 91.2264 132.437 92.6365 134.287Z" fill="#203B53"/>
<path d="M130.567 65.9663C126.39 61.6631 123.776 56.6874 123.131 50.6376C122.21 51.2744 122.481 51.9548 122.579 52.5446C123.148 55.9966 124.339 59.2181 126.327 62.1095C127.131 63.2788 128.047 64.3749 128.956 65.468C129.275 65.8516 129.637 66.3465 130.567 65.9663Z" fill="#203B53"/>
<path d="M63.7827 94.668C63.8941 94.5046 63.9399 94.4647 63.9471 94.4194C63.965 94.316 63.9804 94.2072 63.9655 94.1065C63.9504 94.001 63.912 93.8934 63.8594 93.8004C62.895 92.0689 61.9278 90.3406 60.9817 88.6463C60.4834 90.0599 61.9438 93.3055 63.7827 94.668Z" fill="#203B53"/>
</svg>
