<svg width="155" height="109" viewBox="0 0 155 109" fill="none" xmlns="http://www.w3.org/2000/svg">
<path d="M133.911 61.2208C124.485 48.2188 106.614 49.4638 92.3477 49.4298C73.1207 49.3818 52.5387 50.5358 35.5157 60.4268C33.7467 61.4518 33.2497 63.9418 34.3067 65.6378C34.8417 66.4958 35.6067 67.0148 36.4587 67.2348C36.8847 67.8848 37.3207 68.5218 37.8077 69.1068C39.0407 70.5878 40.3117 72.0378 41.6717 73.3998C44.2607 75.9908 46.9827 78.4388 49.8827 80.6778C55.7017 85.1638 61.9507 89.0998 68.5847 92.2708C75.3447 95.5018 82.6547 98.2118 90.0497 99.5218C98.6177 101.041 107.032 100.185 115.128 96.9758C119.209 95.3558 123.187 93.3988 126.996 91.2188C130.417 89.2618 133.568 86.8648 135.716 83.5088C140.018 76.7838 138.395 67.4098 133.911 61.2208Z" fill="white"/>
<path d="M109.499 49.0532C97.6947 48.2212 85.8597 47.9892 74.0287 48.2722C66.3807 54.8732 62.8647 65.5692 65.9257 75.8832C70.0897 89.9142 84.8397 97.9142 98.8707 93.7502C112.902 89.5862 120.902 74.8362 116.738 60.8042C115.355 56.1452 112.801 52.1572 109.499 49.0532Z" fill="#005757"/>
<path d="M104.799 48.7522C96.1168 48.2562 87.4198 48.0782 78.7228 48.1852C69.8828 53.7082 65.4278 64.6282 68.5368 75.1072C72.2728 87.6962 85.5068 94.8732 98.0958 91.1372C110.685 87.4012 117.862 74.1672 114.126 61.5782C112.514 56.1472 109.132 51.7272 104.799 48.7522Z" fill="#96591D"/>
<path d="M138.134 65.9397C136.079 62.0297 133.581 58.2017 132.526 56.8237C125.207 47.2587 115.272 45.3777 103.994 44.2887C86.3776 42.5887 67.9786 44.4707 51.2376 50.3037C47.5726 51.5807 43.9716 53.0247 40.4526 54.6637C36.9736 56.2837 33.3836 58.1137 30.4626 60.6357C30.4526 60.6437 30.4466 60.6547 30.4376 60.6627C29.4246 61.4207 28.4506 62.2337 27.5166 63.0977C27.1566 63.4157 26.8096 63.7497 26.4896 64.1047C26.3176 64.2957 26.4946 64.5787 26.7136 64.5557C26.8026 64.6197 26.9186 64.6387 27.0236 64.5597C27.8286 63.9577 28.6586 63.3837 29.5026 62.8337C29.4846 62.8767 29.4666 62.9197 29.4496 62.9617C29.4086 63.0617 29.3876 63.1647 29.3916 63.2637C29.3846 63.2677 29.3776 63.2717 29.3706 63.2767C28.2766 65.3557 26.6276 67.2247 25.1126 68.9267C22.8616 71.4567 20.3366 73.7447 17.6866 75.8487C17.5196 75.9807 17.3506 76.1107 17.1836 76.2417C17.6796 76.0057 18.1716 75.7627 18.6576 75.5017C21.1896 74.1417 23.6846 72.7077 26.1576 71.2417C28.7456 69.7067 31.2936 68.1067 33.8106 66.4597C38.8636 71.5637 43.7406 76.8657 49.2216 81.5267C62.4746 92.7967 78.6096 101.608 96.3526 102.119C104.339 102.349 112.306 100.417 119.483 96.9577C126.326 93.6597 130.434 88.8947 136.05 84.1887C124.62 93.7667 109.675 99.0507 94.7646 98.7877C77.9626 98.4907 63.1546 91.0587 50.6786 80.2297C47.9816 77.8887 45.4196 75.3907 43.0346 72.7337C42.5376 72.1807 36.6716 64.6747 36.9266 64.5717C38.1266 64.0857 39.3306 63.6117 40.5416 63.1587C52.4026 57.7677 64.9286 53.2797 77.8586 51.7757C84.8846 50.9587 91.9716 51.0397 99.0086 51.6797C106.366 52.3487 113.136 53.1377 120.284 54.9427C124.812 56.0537 128.723 60.2817 131.435 63.8697C133.056 66.0137 134.462 68.3097 135.776 70.6517C136.068 71.1717 136.65 72.7087 137.359 73.9367C137.552 74.4457 137.744 74.9557 137.936 75.4647C137.986 75.5967 138.038 75.7537 138.095 75.9177C138.136 76.2107 138.184 76.5017 138.245 76.7887C138.37 77.3837 138.851 77.7617 139.433 77.7077C140.135 77.0757 140.659 76.5007 141.069 75.5637C141.812 73.8727 140.197 69.8657 138.134 65.9397Z" fill="#C6DADB" stroke="#30A0A6"/>
<path d="M129.43 48.8993C134.206 52.7893 137.602 58.3923 139.272 66.8853C139.546 67.5833 139.811 68.2843 140.055 68.9903C140.451 61.5603 137.472 53.7073 133.125 48.1363C134.69 49.1133 136.213 50.1593 137.671 51.2973C137.926 51.4963 138.183 51.5233 138.408 51.4443C137.263 49.8833 136.17 48.2993 134.79 46.9653C132.458 45.5733 130.007 44.4343 127.414 43.5813C108.947 36.2563 88.6434 34.0133 68.9574 36.7243C61.4584 37.7573 54.0274 39.5003 46.8824 42.1633C43.2824 43.5053 39.7584 45.0783 36.3504 46.8953C33.2064 48.5713 29.1704 50.4443 26.6484 53.0483C28.5024 52.4693 30.3504 51.3023 32.1334 50.4663C35.5294 48.8743 38.9404 47.3373 42.4414 46.0163C49.2894 43.4323 56.3564 41.5273 63.5104 40.1943C77.9374 37.5073 92.8504 37.5113 107.191 40.3223C116.159 42.0803 123.765 44.2853 129.43 48.8993Z" fill="#30A0A6"/>
<path d="M102.73 64.9616C104.598 71.2556 101.009 77.8726 94.7148 79.7406C88.4208 81.6086 81.8038 78.0206 79.9358 71.7256C78.0678 65.4316 81.6568 58.8146 87.9508 56.9466C94.2448 55.0786 100.862 58.6666 102.73 64.9616Z" fill="#11212F"/>
<path d="M126.096 64.3123C124.869 62.2973 122.651 61.5133 120.786 61.1653C115.507 60.1803 110.361 60.3953 105.719 61.8483C103.659 62.4933 101.002 63.7353 101.224 66.9733C101.375 69.1753 102.988 71.4493 104.758 72.6563C106.528 73.8633 108.422 74.2063 110.221 74.3743C114.889 74.8093 120.314 74.6053 124.091 72.3613C125.446 71.5563 126.562 70.2053 126.86 68.3013C127.033 67.1973 126.906 65.8843 126.321 64.7183C126.251 64.5773 126.176 64.4423 126.096 64.3123Z" fill="white"/>
<path d="M125.536 99.342C120.868 102.4 115.708 104.698 110.332 106.188C104.964 107.676 99.3307 108.383 93.7597 108.248C93.3197 108.237 92.8807 108.22 92.4417 108.199C90.1217 108.301 87.7897 108.251 85.4837 108.012C85.1587 107.987 84.8347 107.955 84.5117 107.921C89.9797 108.986 95.6137 109.18 101.148 108.553C106.733 107.92 112.262 106.371 117.389 104.076C120.266 102.788 123.032 101.25 125.649 99.494C125.751 99.425 125.637 99.275 125.536 99.342Z" fill="#30A0A6"/>
<path d="M154.115 32.7559C153.594 29.6419 152.687 26.315 151.324 23.277C151.014 23.364 150.78 23.6179 150.923 23.9659C151.165 24.5569 151.383 25.1559 151.592 25.7579C151.841 26.8239 152.08 27.888 152.287 28.958C150.81 27.377 149.043 25.9669 147.107 24.6879C122.31 8.30495 83.843 -2.80005 54.078 0.619951C47.909 1.32895 41.865 2.89095 36.56 5.83095C31.072 8.87395 26.496 13.061 22.223 17.305C17.351 22.145 12.918 27.257 8.888 32.651C6.914 35.295 5.092 38.018 3.325 40.774C2.074 42.725 1.053 44.7719 0 46.805C8.395 37.921 17.676 29.9749 28.59 25.1029C39.462 20.2499 51.327 19.129 62.96 20.149C78.703 21.529 94.197 24.962 109.418 29.121C123.901 33.078 138.871 40.115 153.593 42.384C154.181 41.472 154.33 40.535 154.437 39.4599C154.658 37.2259 154.485 34.9669 154.115 32.7559Z" fill="#203B53"/>
</svg>
