<svg width="130" height="203" viewBox="0 0 130 203" fill="none" xmlns="http://www.w3.org/2000/svg">
<path d="M80.3869 137.466C78.5791 140.404 76.3592 144.858 74.5656 149.105C72.6723 144.672 70.0991 138.899 67.0105 134.769C63.7079 130.353 62.7542 119.01 60.6432 113.945C59.0656 110.16 57.438 107.124 53.7342 105.437C46.4774 102.13 40.5891 98.678 38.5946 95.7439C38.0699 94.9639 49.037 78.8455 49.4703 79.6702C58.3569 96.5975 59.9889 103.717 64.2163 109.986C66.0372 112.686 69.4138 116.539 71.92 118.66C74.5579 120.893 81.2192 125.803 97.6026 129.552C102.226 130.61 108.385 133.303 114.246 130.376C113.056 132.216 111.171 133.208 109.265 133.579C105.933 134.227 99.0866 133.183 90.6311 132.143C85.7553 131.542 83.3487 132.652 80.3869 137.466Z" fill="#C6DADB"/>
<path d="M99.1353 70.3237C99.407 70.6046 100.621 70.776 100.901 71.0281C108.806 70.8337 106.632 68.6095 108.167 66.3009C109.562 64.2029 110.977 62.9531 109.898 57.6811C109.4 55.2451 113.215 56.0093 114.602 59.1797C114.667 59.3299 114.649 59.4725 114.591 59.5923C114.621 59.5994 114.653 59.6048 114.684 59.6108C114.776 59.4507 114.861 59.2891 114.958 59.1312C114.993 59.0741 115.076 59.1241 115.047 59.1835C114.973 59.3343 114.907 59.4889 114.837 59.6413C114.895 59.6495 114.944 59.669 115.004 59.6745C115.08 59.681 115.083 59.7942 115.004 59.7948C114.928 59.7953 114.849 59.7921 114.77 59.7893C114.785 62.8366 112.045 65.2672 112.351 67.6966C112.517 69.0232 113.2 70.7755 113.091 71.5039C112.984 72.2164 112.688 72.5757 112.361 72.7483C111.179 73.3732 110.544 74.519 110.374 75.0895C110.101 76.0095 109.892 76.4406 108.82 76.4275C106.266 76.396 100.9 72.5207 99.076 70.3689C99.051 70.3389 99.1038 70.2916 99.1353 70.3237Z" fill="#C6DADB"/>
<path d="M108.118 53.7111C110.366 54.0056 114.194 54.9561 115.332 57.2113C115.418 57.3828 115.479 57.5619 115.526 57.7432C115.527 57.7448 115.527 57.747 115.528 57.7486C115.917 59.2799 114.91 60.993 113.145 60.5199C111.826 60.4976 110.362 59.3779 109.199 59.0289C104.831 57.7198 103.578 58.5287 96.5266 61.6838C96.3045 61.7828 95.931 61.65 96.0943 61.4317C98.8988 57.6806 103.064 53.0492 108.118 53.7111Z" fill="#30A0A6"/>
<path d="M114.465 88.3958C114.273 88.8912 114.206 89.3778 114.154 89.9815C113.957 92.2912 116.326 91.626 120.235 90.8144C123.915 90.0506 125.903 88.4252 128.361 89.0948C128.875 89.2347 129.14 89.5722 129.171 89.9957C129.213 89.9701 129.258 89.9516 129.304 89.938C129.184 90.6239 128.868 91.276 128.335 91.8329C126.206 94.0544 122.966 95.0723 121.342 95.4425C120.244 95.6929 119.778 96.0641 119.583 96.5965C119.295 96.2372 119.024 95.9221 118.545 96.0206C115.515 96.6455 114.001 95.5911 113.488 94.8404C111.931 92.5639 112.821 90.3147 114.127 88.2526C114.219 88.0681 114.541 88.1993 114.465 88.3958Z" fill="#C6DADB"/>
<path d="M117.517 92.4576C119.494 91.7015 121.827 91.285 123.497 91.5632C124.389 91.7118 124.481 91.9769 124.062 92.2268C122.526 93.1407 120.855 93.1326 119.74 92.9845C119.109 92.9007 118.256 92.763 117.593 92.7341C117.061 92.7112 117.346 92.5229 117.517 92.4576Z" fill="#30A0A6"/>
<path d="M97.9015 69.3883C99.282 68.1559 99.7773 67.2419 102.309 65.5299C103.84 64.4934 105.501 63.6568 107.307 63.273C110.407 62.6138 111.888 64.2425 110.562 66.4613C110.459 66.6333 107.636 66.8989 107.784 66.7487C108.658 65.8652 107.289 64.6867 105.832 65.0432C102.383 65.8875 100.133 68.5206 98.1514 69.6485C98.036 69.7149 97.4023 69.8341 97.9015 69.3883Z" fill="#C6DADB"/>
<path d="M113.414 115.119C114.557 115.506 115.971 115.986 117.244 115.983C117.238 115.985 117.232 115.989 117.227 115.99C114.173 117.009 114.08 119.508 114.08 119.508C114.08 119.508 114.627 120.909 115.026 122.744C114.606 121.74 114.044 120.793 113.414 119.886C112.456 118.506 110.883 114.263 113.414 115.119Z" fill="#C6DADB"/>
<path d="M108.176 72.5635C108.072 72.7497 107.833 72.8422 107.629 72.7862C105.125 72.0932 102.621 71.3959 100.119 70.6915C99.6453 70.5581 99.6818 69.9147 100.119 69.7661C103.026 68.7797 105.823 67.5832 108.645 66.3824C108.795 66.3187 108.937 66.3388 109.056 66.3993C109.09 66.2626 109.314 66.273 109.343 66.4091C109.819 68.5751 109.241 70.6621 108.176 72.5635Z" fill="white"/>
<path d="M107.56 108.632C110.771 108.025 115.043 105.544 118.246 104.256C119.397 103.794 121.313 104.019 121.186 105.432C121.199 105.447 121.203 105.469 121.213 105.488C120.62 107.365 117.967 108.772 117.967 108.772C117.967 108.772 117.993 108.811 118.029 108.87C115.268 110.244 110.02 109.577 107.265 108.945C107.125 108.912 107.417 108.659 107.56 108.632Z" fill="#C6DADB"/>
<path d="M108.848 72.2144C107.073 71.8366 102.541 70.9858 98.8554 69.994C98.7417 69.9635 98.0672 70.1964 98.1619 70.2324C100.22 71.0173 106.635 73.0325 108.557 73.0189C108.835 73.0173 109.139 72.2764 108.848 72.2144Z" fill="#30A0A6"/>
<path d="M52.6305 8.74805C49.091 8.83882 44.5165 9.88717 40.3492 11.2686C36.1733 12.6529 32.4872 14.3444 30.7028 15.6826C28.8662 17.0599 25.8275 19.546 22.8815 22.377C19.9258 25.2172 17.1056 28.3651 15.6637 31.0684C12.7049 36.6161 9.40589 42.8586 8.67444 52.0039C7.94372 61.14 11.265 71.3503 13.4938 76.2207C16.3234 82.4054 18.6015 85.7589 23.0143 94.1426C27.0017 101.718 28.3365 107.612 28.4742 112.474C28.6116 117.324 27.5532 121.122 26.818 124.43C25.3216 131.162 20.6653 141.396 16.9655 148.797C15.101 152.525 11.893 157.685 8.93518 162.399C6.00214 167.074 3.33648 171.281 2.39124 173.313C2.39449 173.318 2.39703 173.324 2.401 173.329C2.48308 173.434 2.65317 173.585 2.94592 173.779C3.52448 174.163 4.45048 174.631 5.6969 175.17C8.18129 176.244 11.8452 177.563 16.3112 179.037C25.2382 181.984 37.3203 185.534 49.4674 188.958C61.613 192.382 73.8178 195.679 82.986 198.12C87.5697 199.341 91.3943 200.347 94.0729 201.048C95.168 201.335 96.0719 201.57 96.7574 201.748C96.6374 201.606 96.5077 201.454 96.3707 201.291C95.5078 200.266 94.3257 198.853 93.0514 197.301C90.5086 194.203 87.5767 190.528 86.0797 188.282C83.1455 183.881 81.3761 181.717 81.1832 177.476C80.9999 173.442 79.9066 171.677 78.5182 171.06C78.1637 170.902 77.6408 170.783 76.9781 170.664C76.3417 170.55 75.5708 170.435 74.8258 170.283C73.3483 169.983 71.7 169.497 70.7438 168.328C69.7772 167.147 69.6124 165.442 69.8239 163.469C70.0371 161.479 70.6502 159.08 71.3893 156.4C72.8852 150.979 76.9792 142.05 79.9615 137.204C81.4593 134.77 82.8609 133.195 84.5651 132.328C86.2761 131.458 88.2144 131.34 90.693 131.646C94.9306 132.167 98.742 132.687 101.919 132.996C105.11 133.307 107.586 133.395 109.172 133.087C111.584 132.618 113.908 131.118 114.708 128.082C115.138 126.445 114.884 124.369 114.495 122.65C114.302 121.801 114.082 121.058 113.909 120.528C113.822 120.264 113.748 120.052 113.696 119.908C113.67 119.837 113.649 119.782 113.635 119.745C113.628 119.727 113.623 119.712 113.62 119.703C113.618 119.699 113.617 119.695 113.616 119.693L113.615 119.691L113.577 119.595L113.581 119.49V119.489V119.483C113.581 119.481 113.581 119.477 113.582 119.474C113.582 119.466 113.583 119.455 113.584 119.442C113.586 119.417 113.589 119.382 113.594 119.339C113.605 119.254 113.623 119.135 113.655 118.992C113.719 118.706 113.84 118.318 114.068 117.895C114.529 117.038 115.413 116.069 117.069 115.517C117.787 115.277 119.004 114.275 118.768 112.542C118.621 111.463 118.313 110.583 118.043 109.975C117.908 109.671 117.783 109.436 117.693 109.279C117.648 109.201 117.612 109.142 117.589 109.104C117.577 109.086 117.568 109.072 117.562 109.063C117.559 109.059 117.557 109.056 117.556 109.055L117.238 108.592L117.734 108.329H117.735C117.736 108.328 117.739 108.327 117.742 108.325C117.748 108.322 117.758 108.316 117.771 108.309C117.798 108.294 117.839 108.271 117.89 108.241C117.994 108.181 118.143 108.091 118.319 107.976C118.674 107.743 119.134 107.41 119.565 107.007C120.467 106.162 121.062 105.186 120.746 104.223C120.108 102.276 118.901 101.205 118.95 97.4717C118.957 96.9278 119.023 96.3652 119.402 95.8955C119.776 95.4313 120.381 95.1488 121.231 94.9551C122.831 94.5906 125.95 93.5985 127.974 91.4863C129.302 90.1013 129.139 87.973 127.519 86.3535C127.326 86.1602 127.032 85.7852 126.682 85.3076C126.324 84.8191 125.885 84.1932 125.395 83.4766C124.414 82.0428 123.219 80.2337 122.038 78.4033C120.856 76.5729 119.686 74.718 118.752 73.1924C117.826 71.6801 117.112 70.4592 116.865 69.916C115.907 67.8074 115.59 65.4508 116.198 63.627C116.734 62.0148 117.543 58.1589 116.82 54.2051C115.104 44.8198 114.143 32.1689 104.598 23.3008C99.2125 18.2969 92.9972 16.1267 88.8981 14.4502C87.9306 14.0544 85.6412 13.4834 82.5846 12.8506C79.5474 12.2218 75.8002 11.5409 71.9528 10.917C64.2378 9.66588 56.1854 8.65692 52.6305 8.74805Z" stroke="#30A0A6"/>
<path d="M109.496 67.683C109.198 67.1169 108.759 66.75 108.264 66.75C107.365 66.75 106.636 67.9318 106.636 69.389C106.636 70.8468 107.365 72.0281 108.264 72.0281C108.336 72.0281 108.405 72.0085 108.474 71.9938C109.152 70.6307 109.553 69.1816 109.496 67.683Z" fill="#30A0A6"/>
<path d="M106.447 72.0573C106.303 72.0862 106.322 72.281 106.447 72.3278C107.18 72.6022 108.846 72.2141 110.472 74.4263C110.499 74.4617 110.571 74.4296 110.554 74.379C110.077 72.9778 109.227 71.5053 106.447 72.0573Z" fill="#30A0A6"/>
<path d="M106.391 72.3119C106.279 72.3342 106.294 72.4849 106.391 72.5214C106.958 72.7343 108.249 72.4332 109.509 74.1474C109.529 74.1746 109.585 74.1502 109.572 74.111C109.202 73.025 108.544 71.884 106.391 72.3119Z" fill="#30A0A6"/>
<path d="M110.696 72.9152C109.963 72.1988 109.003 71.5516 107.574 72.3894C107.708 72.4775 107.825 72.5848 107.944 72.6893C108.561 72.495 109.421 72.3518 110.657 72.9767C110.687 72.9914 110.726 72.9441 110.696 72.9152Z" fill="#30A0A6"/>
<path d="M107.92 69.3829C107.881 70.3551 108.088 71.1532 108.382 71.1646C108.676 71.1766 108.946 70.3976 108.985 69.4254C109.024 68.4532 108.817 67.6551 108.523 67.6437C108.229 67.6317 107.959 68.4107 107.92 69.3829Z" fill="white"/>
<path d="M98.3736 70.1087C100.259 69.6509 101.797 69.0717 103.558 68.2574C105.301 67.4506 106.949 66.6951 108.658 65.866C109.243 65.5824 109.873 66.2416 109.409 66.7762C106.838 69.7413 102.464 70.5818 98.7095 70.4125C98.6142 70.4081 98.2702 70.1338 98.3736 70.1087Z" fill="#30A0A6"/>
<path d="M108.848 66.4236C109.168 66.4807 109.418 66.6511 109.711 66.7828C110.088 66.9521 110.486 67.0616 110.893 67.1323C111.75 67.2815 112.541 67.2091 113.369 66.9489C113.442 66.926 113.508 67.0338 113.434 67.0752C112.708 67.4796 109.957 68.6004 108.179 67.0915C108.081 67.0087 108.713 66.3991 108.848 66.4236Z" fill="#30A0A6"/>
<path d="M106.161 68.1142C106.368 67.9858 106.549 67.8448 106.715 67.6973C106.998 67.8606 107.294 68.0005 107.603 68.1077C108.425 68.3924 109.217 68.4485 110.077 68.3254C110.152 68.3146 110.2 68.4316 110.12 68.4604C109.469 68.6956 107.349 69.191 105.785 68.3211C105.91 68.2607 106.036 68.1921 106.161 68.1142Z" fill="#30A0A6"/>
<path d="M109.375 65.9704C109.699 65.9998 110.351 66.3058 111.111 66.3172C111.947 66.3297 112.736 66.2562 113.513 65.9258C113.594 65.891 113.647 66.0205 113.575 66.0657C112.336 66.8463 109.886 67.6726 108.756 66.297C108.668 66.1903 109.266 65.9606 109.375 65.9704Z" fill="#30A0A6"/>
<path d="M107.058 67.267C107.021 67.1331 107.293 66.7477 107.442 66.8081C107.945 67.0106 108.296 67.4238 108.765 67.6867C109.304 67.9888 109.92 68.1347 110.532 68.1875C110.61 68.1941 110.602 68.2991 110.533 68.3182C109.232 68.6758 107.399 68.4918 107.058 67.267Z" fill="#30A0A6"/>
<path d="M106.505 109.127C106.634 108.843 106.754 108.677 106.975 108.437C107.065 108.34 107.891 107.538 107.992 107.332C108.015 107.284 108.097 107.306 108.093 107.36C108.073 107.674 107.968 107.983 107.95 108.29C107.93 108.616 107.914 108.798 107.7 109.084C107.497 109.355 107.307 109.531 106.984 109.612C106.692 109.686 106.365 109.813 106.061 109.783C106.045 109.782 106.031 109.765 106.042 109.749C106.179 109.53 106.397 109.367 106.505 109.127Z" fill="#30A0A6"/>
<path d="M107.317 108.849C108.676 108.897 116.586 108.824 118.353 108.546C118.118 108.691 117.967 108.771 117.967 108.771C117.967 108.771 118.054 108.903 118.178 109.127C115.471 109.886 109.48 109.712 107.067 109.273C106.749 109.215 106.941 108.836 107.317 108.849Z" fill="#30A0A6"/>
<path d="M29.6045 7.98098C11.9303 19.5164 3.37067 34.1145 4.59905 70.2902C4.80482 76.3499 4.59905 95.1299 2.36584 108.13C-0.59964 125.393 -3.0697 151.13 9.9303 163.13C18.6013 171.134 34.4303 169.63 39.9303 169.63C78.9303 166.63 68.5538 142.484 68.4303 147.63C68.3823 149.63 65.6505 151.185 62.4303 150.63C47.9303 148.13 50.4303 104.114 45.1126 72.6207C45.1126 72.6207 56.4303 81.6143 62.4303 79.6143C65.4303 78.6143 66.4303 76.6143 66.4303 73.6143C72.4225 73.6143 75.3459 70.6954 77.4222 68.6224L77.4303 68.6143C80.0372 66.0122 83.4303 57.6143 83.7003 49.3982C89.6201 47.3547 100.815 44.4919 105.843 38.7746C108.997 35.1873 115.03 27.8967 111.898 19.5164C109.076 11.9662 97.1191 10.2346 81.7128 3.99683C65.374 -2.61871 45.3554 -0.83865 29.6045 7.98098Z" fill="#E67D14"/>
<path d="M38.0196 56.9414C41.2911 54.3133 49.0427 55.5201 52.3938 61.5222C54.9757 66.1465 56.5271 72.4169 57.0627 74.1147C58.0317 77.186 60.2918 80.69 59.4851 83.9948C58.9255 86.2849 57.4661 89.9772 54.9615 90.7747C52.3943 91.5918 49.0857 89.1046 47.0471 87.7884C41.6553 84.3056 37.246 79.1979 35.331 73.0053C33.938 68.5046 32.8999 61.054 38.0196 56.9414Z" fill="#F4FAFA"/>
<path d="M52.2335 67.4055C51.4115 65.4393 49.024 61.8857 45.6011 60.2864C42.1782 58.6871 40.0851 60.4361 38.8707 61.7567C37.0248 63.7643 36.8566 69.5062 40.1091 75.4734C42.3333 79.5539 45.0812 82.2604 47.2837 83.5864C49.4861 84.9125 50.9586 86.5526 52.1976 86.5483C54.8611 86.5385 56.0412 82.8151 54.1278 82.3366C53.2879 82.1265 51.4491 81.2038 52.1502 78.145C52.8519 75.0874 55.4659 75.1369 52.2335 67.4055Z" fill="#C6DADB"/>
</svg>
