<svg width="140" height="201" viewBox="0 0 140 201" fill="none" xmlns="http://www.w3.org/2000/svg">
<path d="M90.3853 135.45C88.5775 138.388 86.3576 142.843 84.564 147.09C82.6707 142.656 80.0976 136.883 77.0089 132.753C73.7063 128.337 72.7526 116.995 70.6416 111.929C69.064 108.144 67.4364 105.108 63.7326 103.421C56.4759 100.115 50.5876 96.6624 48.5931 93.7283C48.0683 92.9483 59.0354 76.8299 59.4687 77.6546C68.3553 94.5819 69.9873 101.701 74.2147 107.97C76.0356 110.67 79.4122 114.523 81.9184 116.645C84.5564 118.877 91.2176 123.788 107.601 127.537C112.225 128.595 118.384 131.288 124.244 128.36C123.054 130.201 121.17 131.192 119.264 131.563C115.932 132.211 109.085 131.167 100.63 130.127C95.7537 129.526 93.3471 130.637 90.3853 135.45Z" fill="#C6DADB"/>
<path d="M109.134 68.3081C109.405 68.5889 110.62 68.7604 110.899 69.0125C118.805 68.8181 116.63 66.5939 118.165 64.2853C119.56 62.1873 120.976 60.9375 119.897 55.6654C119.398 53.2294 123.213 53.9937 124.6 57.164C124.665 57.3143 124.648 57.4569 124.589 57.5767C124.62 57.5837 124.651 57.5892 124.682 57.5952C124.774 57.4351 124.86 57.2735 124.956 57.1156C124.991 57.0584 125.074 57.1085 125.045 57.1679C124.972 57.3186 124.905 57.4732 124.836 57.6257C124.893 57.6338 124.942 57.6534 125.003 57.6589C125.078 57.6654 125.081 57.7786 125.003 57.7792C124.927 57.7797 124.847 57.7764 124.768 57.7737C124.783 60.821 122.044 63.2516 122.349 65.681C122.516 67.0076 123.199 68.7599 123.089 69.4882C122.982 70.2008 122.687 70.5601 122.359 70.7326C121.177 71.3576 120.542 72.5034 120.372 73.0739C120.099 73.9938 119.89 74.425 118.819 74.4119C116.265 74.3803 110.898 70.5051 109.074 68.3532C109.049 68.3233 109.102 68.2759 109.134 68.3081Z" fill="#C6DADB"/>
<path d="M118.116 51.6955C120.365 51.99 124.193 52.9405 125.33 55.1957C125.417 55.3672 125.478 55.5463 125.525 55.7275C125.526 55.7292 125.525 55.7314 125.526 55.733C125.915 57.2643 124.908 58.9773 123.143 58.5043C121.825 58.482 120.36 57.3622 119.197 57.0133C114.83 55.7041 113.576 56.5131 106.525 59.6681C106.303 59.7672 105.929 59.6344 106.093 59.4161C108.897 55.6649 113.063 51.0336 118.116 51.6955Z" fill="#30A0A6"/>
<path d="M124.464 86.3802C124.271 86.8755 124.205 87.3622 124.153 87.9659C123.956 90.2756 126.325 89.6104 130.234 88.7987C133.913 88.035 135.902 86.4096 138.359 87.0791C138.874 87.219 139.139 87.5565 139.17 87.9801C139.211 87.9545 139.256 87.936 139.303 87.9223C139.182 88.6082 138.867 89.2604 138.333 89.8173C136.204 92.0388 132.965 93.0567 131.34 93.4269C130.242 93.6773 129.777 94.0485 129.582 94.5809C129.293 94.2216 129.023 93.9064 128.544 94.005C125.513 94.6299 123.999 93.5755 123.487 92.8248C121.929 90.5483 122.819 88.299 124.126 86.237C124.218 86.0525 124.54 86.1837 124.464 86.3802Z" fill="#C6DADB"/>
<path d="M127.515 90.442C129.492 89.6858 131.826 89.2694 133.495 89.5476C134.388 89.6962 134.479 89.9613 134.06 90.2111C132.525 91.1251 130.854 91.117 129.738 90.9689C129.107 90.8851 128.254 90.7473 127.591 90.7185C127.06 90.6956 127.345 90.5073 127.515 90.442Z" fill="#30A0A6"/>
<path d="M107.9 67.3726C109.28 66.1402 109.776 65.2262 112.307 63.5143C113.839 62.4778 115.5 61.6411 117.305 61.2574C120.406 60.5981 121.886 62.2269 120.56 64.4456C120.457 64.6177 117.634 64.8833 117.782 64.7331C118.657 63.8496 117.287 62.6711 115.831 63.0276C112.381 63.8719 110.132 66.5049 108.15 67.6328C108.034 67.6992 107.401 67.8185 107.9 67.3726Z" fill="#C6DADB"/>
<path d="M123.412 113.103C124.556 113.49 125.969 113.97 127.242 113.968C127.237 113.969 127.231 113.973 127.225 113.975C124.171 114.993 124.078 117.492 124.078 117.492C124.078 117.492 124.625 118.893 125.024 120.729C124.604 119.724 124.042 118.777 123.412 117.87C122.454 116.49 120.881 112.247 123.412 113.103Z" fill="#C6DADB"/>
<path d="M118.175 70.5479C118.071 70.7341 117.831 70.8266 117.628 70.7705C115.123 70.0776 112.62 69.3802 110.118 68.6759C109.644 68.5425 109.68 67.8991 110.118 67.7505C113.024 66.7641 115.822 65.5676 118.643 64.3668C118.793 64.3031 118.936 64.3232 119.055 64.3836C119.089 64.247 119.312 64.2574 119.341 64.3934C119.817 66.5594 119.24 68.6465 118.175 70.5479Z" fill="white"/>
<path d="M117.559 106.617C120.77 106.009 125.041 103.528 128.244 102.241C129.395 101.778 131.312 102.003 131.185 103.416C131.198 103.432 131.202 103.453 131.211 103.472C130.619 105.349 127.965 106.757 127.965 106.757C127.965 106.757 127.991 106.796 128.028 106.855C125.266 108.228 120.018 107.562 117.263 106.929C117.124 106.897 117.415 106.643 117.559 106.617Z" fill="#C6DADB"/>
<path d="M118.847 70.1987C117.071 69.821 112.539 68.9701 108.854 67.9783C108.74 67.9478 108.066 68.1808 108.16 68.2167C110.219 69.0017 116.634 71.0169 118.555 71.0033C118.833 71.0017 119.138 70.2608 118.847 70.1987Z" fill="#30A0A6"/>
<path d="M62.6289 6.73242C59.0894 6.8232 54.5149 7.87155 50.3477 9.25293C46.1717 10.6372 42.4856 12.3288 40.7012 13.667C38.8646 15.0443 35.8259 17.5304 32.8799 20.3613C29.9242 23.2016 27.104 26.3495 25.6621 29.0527C22.7034 34.6005 19.4043 40.843 18.6729 49.9883C17.9421 59.1243 21.2634 69.3347 23.4922 74.2051C26.3218 80.3898 28.6 83.7432 33.0127 92.127C37.0001 99.7022 38.335 105.597 38.4727 110.458C38.61 115.308 37.5516 119.106 36.8164 122.414C35.3201 129.147 30.6637 139.381 26.9639 146.781C25.0994 150.51 21.8914 155.67 18.9336 160.384C16.0006 165.058 13.3349 169.266 12.3896 171.298C12.3929 171.302 12.3954 171.308 12.3994 171.313C12.4815 171.418 12.6516 171.569 12.9443 171.764C13.5229 172.148 14.4489 172.615 15.6953 173.154C18.1797 174.228 21.8436 175.547 26.3096 177.021C35.2367 179.968 47.3187 183.518 59.4658 186.942C71.6114 190.366 83.8162 193.664 92.9844 196.104C97.5681 197.325 101.393 198.331 104.071 199.032C105.166 199.319 106.07 199.554 106.756 199.732C106.636 199.59 106.506 199.438 106.369 199.275C105.506 198.25 104.324 196.838 103.05 195.285C100.507 192.188 97.5751 188.512 96.0781 186.267C93.1439 181.865 91.3745 179.701 91.1816 175.46C90.9984 171.427 89.9051 169.661 88.5166 169.044C88.1621 168.886 87.6392 168.768 86.9766 168.648C86.3401 168.534 85.5693 168.419 84.8242 168.268C83.3467 167.967 81.6984 167.481 80.7422 166.312C79.7756 165.131 79.6108 163.426 79.8223 161.453C80.0355 159.463 80.6486 157.065 81.3877 154.385C82.8836 148.963 86.9776 140.034 89.96 135.188C91.4577 132.755 92.8593 131.179 94.5635 130.312C96.2745 129.442 98.2128 129.325 100.691 129.63C104.929 130.152 108.74 130.671 111.917 130.98C115.108 131.291 117.585 131.38 119.17 131.071C121.582 130.602 123.907 129.103 124.706 126.066C125.137 124.429 124.883 122.353 124.493 120.635C124.301 119.786 124.08 119.043 123.907 118.513C123.821 118.248 123.747 118.037 123.694 117.893C123.668 117.821 123.648 117.766 123.634 117.729C123.627 117.711 123.622 117.696 123.618 117.688C123.617 117.683 123.615 117.68 123.614 117.678L123.613 117.676L123.575 117.579L123.579 117.475V117.474V117.468C123.579 117.465 123.58 117.462 123.58 117.458C123.581 117.45 123.581 117.439 123.582 117.427C123.584 117.401 123.588 117.366 123.593 117.323C123.603 117.238 123.621 117.119 123.653 116.977C123.718 116.691 123.839 116.302 124.066 115.879C124.528 115.022 125.412 114.053 127.067 113.501C127.785 113.262 129.003 112.259 128.767 110.526C128.619 109.447 128.311 108.567 128.041 107.959C127.906 107.655 127.781 107.42 127.691 107.264C127.647 107.185 127.611 107.127 127.587 107.089C127.575 107.07 127.566 107.056 127.561 107.048C127.558 107.044 127.556 107.041 127.555 107.039L127.236 106.576L127.732 106.313H127.733C127.735 106.313 127.737 106.311 127.74 106.31C127.747 106.306 127.756 106.3 127.77 106.293C127.796 106.278 127.837 106.256 127.889 106.226C127.992 106.165 128.141 106.076 128.317 105.96C128.672 105.727 129.132 105.395 129.563 104.991C130.466 104.147 131.06 103.171 130.744 102.207C130.106 100.26 128.899 99.1895 128.948 95.4561C128.955 94.9122 129.022 94.3496 129.4 93.8799C129.775 93.4157 130.379 93.1332 131.229 92.9395C132.829 92.5749 135.948 91.5829 137.973 89.4707C139.3 88.0856 139.137 85.9574 137.518 84.3379C137.324 84.1445 137.031 83.7696 136.681 83.292C136.323 82.8035 135.884 82.1776 135.394 81.4609C134.413 80.0272 133.218 78.2181 132.036 76.3877C130.854 74.5573 129.684 72.7023 128.75 71.1768C127.824 69.6645 127.11 68.4436 126.863 67.9004C125.905 65.7918 125.589 63.4352 126.196 61.6113C126.733 59.9992 127.541 56.1433 126.818 52.1895C125.103 42.8042 124.142 30.1533 114.597 21.2852C109.211 16.2812 102.996 14.111 98.8965 12.4346C97.929 12.0388 95.6396 11.4678 92.583 10.835C89.5458 10.2062 85.7986 9.52529 81.9512 8.90137C74.2362 7.65025 66.1839 6.64129 62.6289 6.73242Z" stroke="#30A0A6"/>
<path d="M119.495 65.6674C119.196 65.1013 118.758 64.7344 118.262 64.7344C117.363 64.7344 116.634 65.9162 116.634 67.3734C116.634 68.8312 117.363 70.0124 118.262 70.0124C118.335 70.0124 118.403 69.9928 118.473 69.9781C119.15 68.6151 119.552 67.166 119.495 65.6674Z" fill="#30A0A6"/>
<path d="M116.445 70.0417C116.301 70.0705 116.321 70.2654 116.445 70.3122C117.178 70.5866 118.844 70.1985 120.471 72.4107C120.497 72.4461 120.569 72.414 120.552 72.3633C120.075 70.9622 119.225 69.4897 116.445 70.0417Z" fill="#30A0A6"/>
<path d="M116.389 70.2962C116.278 70.3186 116.292 70.4693 116.389 70.5058C116.957 70.7186 118.248 70.4176 119.507 72.1318C119.527 72.159 119.583 72.1345 119.57 72.0953C119.201 71.0093 118.543 69.8684 116.389 70.2962Z" fill="#30A0A6"/>
<path d="M120.695 70.8996C119.961 70.1832 119.001 69.536 117.572 70.3737C117.707 70.4619 117.823 70.5692 117.942 70.6737C118.56 70.4794 119.42 70.3362 120.655 70.9611C120.685 70.9758 120.724 70.9284 120.695 70.8996Z" fill="#30A0A6"/>
<path d="M117.918 67.3673C117.88 68.3395 118.087 69.1375 118.38 69.149C118.674 69.1609 118.944 68.382 118.984 67.4097C119.022 66.4375 118.815 65.6395 118.521 65.6281C118.228 65.6161 117.958 66.3951 117.918 67.3673Z" fill="white"/>
<path d="M108.372 68.0931C110.258 67.6353 111.795 67.0561 113.556 66.2418C115.299 65.435 116.948 64.6795 118.657 63.8504C119.241 63.5668 119.872 64.226 119.408 64.7606C116.837 67.7257 112.462 68.5661 108.708 68.3969C108.613 68.3925 108.269 68.1181 108.372 68.0931Z" fill="#30A0A6"/>
<path d="M118.847 64.4079C119.166 64.4651 119.416 64.6355 119.71 64.7672C120.087 64.9365 120.484 65.0459 120.891 65.1167C121.748 65.2658 122.539 65.1934 123.368 64.9332C123.441 64.9104 123.506 65.0182 123.432 65.0595C122.706 65.464 119.956 66.5848 118.178 65.0759C118.08 64.9931 118.712 64.3834 118.847 64.4079Z" fill="#30A0A6"/>
<path d="M116.159 66.0986C116.367 65.9701 116.548 65.8292 116.713 65.6816C116.996 65.8449 117.292 65.9849 117.602 66.0921C118.423 66.3768 119.216 66.4328 120.075 66.3098C120.151 66.2989 120.199 66.416 120.119 66.4448C119.467 66.68 117.347 67.1753 115.784 66.3055C115.909 66.245 116.034 66.1765 116.159 66.0986Z" fill="#30A0A6"/>
<path d="M119.373 63.9548C119.698 63.9842 120.35 64.2901 121.109 64.3016C121.945 64.3141 122.734 64.2406 123.511 63.9102C123.593 63.8753 123.645 64.0049 123.574 64.05C122.334 64.8307 119.884 65.657 118.754 64.2814C118.667 64.1747 119.264 63.945 119.373 63.9548Z" fill="#30A0A6"/>
<path d="M117.056 65.2514C117.019 65.1175 117.291 64.7321 117.441 64.7925C117.944 64.995 118.294 65.4082 118.763 65.6711C119.302 65.9732 119.919 66.1191 120.53 66.1719C120.608 66.1784 120.6 66.2835 120.532 66.3026C119.23 66.6602 117.398 66.4762 117.056 65.2514Z" fill="#30A0A6"/>
<path d="M116.503 107.112C116.632 106.828 116.752 106.661 116.974 106.421C117.063 106.324 117.89 105.522 117.99 105.316C118.014 105.268 118.095 105.291 118.092 105.344C118.072 105.658 117.966 105.967 117.948 106.274C117.928 106.601 117.913 106.782 117.698 107.069C117.496 107.34 117.306 107.515 116.983 107.597C116.69 107.671 116.364 107.798 116.06 107.768C116.043 107.766 116.03 107.749 116.04 107.733C116.178 107.514 116.395 107.352 116.503 107.112Z" fill="#30A0A6"/>
<path d="M117.315 106.833C118.675 106.881 126.585 106.808 128.352 106.53C128.116 106.676 127.966 106.756 127.966 106.756C127.966 106.756 128.053 106.887 128.177 107.112C125.47 107.87 119.478 107.697 117.065 107.258C116.747 107.2 116.94 106.82 117.315 106.833Z" fill="#30A0A6"/>
<path d="M38.5375 7.98098C20.8633 19.5164 12.3036 34.1145 13.532 70.2902C13.7378 76.3499 13.532 99.1143 8.86328 112.114C-2.79767 144.584 -6.13672 162.614 18.8633 175.114C29.4179 180.392 43.3633 181.614 48.8633 181.614C87.8633 178.614 77.4868 154.468 77.3633 159.614C77.3153 161.614 74.5835 163.169 71.3633 162.614C56.8633 160.114 59.3633 104.114 54.0456 72.6207C54.0456 72.6207 65.3633 81.6143 71.3633 79.6143C74.3633 78.6143 75.3633 76.6143 75.3633 73.6143C81.3554 73.6143 84.2789 70.6954 86.3551 68.6224L86.3633 68.6143C88.9702 66.0122 92.3633 57.6143 92.6332 49.3982C98.5531 47.3547 109.748 44.4919 114.775 38.7746C117.93 35.1873 123.963 27.8967 120.831 19.5164C118.009 11.9662 106.052 10.2346 90.6458 3.99683C74.307 -2.61871 54.2884 -0.83865 38.5375 7.98098Z" fill="#E67D14"/>
<path d="M48.018 54.9258C51.2895 52.2977 59.0411 53.5045 62.3922 59.5065C64.9741 64.1308 66.5255 70.4013 67.0611 72.0991C68.0301 75.1703 70.2902 78.6744 69.4835 81.9791C68.9239 84.2692 67.4645 87.9616 64.9599 88.7591C62.3927 89.5761 59.0842 87.089 57.0456 85.7728C51.6537 82.29 47.2444 77.1823 45.3294 70.9897C43.9364 66.489 42.8983 59.0384 48.018 54.9258Z" fill="#F4FAFA"/>
<path d="M62.2319 65.3898C61.4099 63.4236 59.0224 59.8701 55.5995 58.2708C52.1766 56.6715 50.0835 58.4205 48.8691 59.7411C47.0232 61.7487 46.855 67.4905 50.1075 73.4578C52.3317 77.5382 55.0796 80.2448 57.2821 81.5708C59.4845 82.8969 60.957 84.537 62.196 84.5326C64.8595 84.5228 66.0396 80.7994 64.1262 80.321C63.2863 80.1108 61.4475 79.1882 62.1486 76.1294C62.8503 73.0718 65.4643 73.1213 62.2319 65.3898Z" fill="#C6DADB"/>
</svg>
