<svg width="128" height="201" viewBox="0 0 128 201" fill="none" xmlns="http://www.w3.org/2000/svg">
<path d="M78.5191 135.45C76.7113 138.388 74.4914 142.843 72.6978 147.09C70.8045 142.656 68.2313 136.883 65.1427 132.753C61.8401 128.337 60.8864 116.995 58.7754 111.929C57.1978 108.144 55.5702 105.108 51.8664 103.421C44.6096 100.115 38.7214 96.6624 36.7268 93.7283C36.2021 92.9483 47.1692 76.8299 47.6025 77.6546C56.4891 94.5819 58.1211 101.701 62.3485 107.97C64.1694 110.67 67.546 114.523 70.0522 116.645C72.6902 118.877 79.3514 123.788 95.7348 127.537C100.359 128.595 106.517 131.288 112.378 128.36C111.188 130.201 109.303 131.192 107.398 131.563C104.066 132.211 97.2188 131.167 88.7633 130.127C83.8875 129.526 81.4809 130.637 78.5191 135.45Z" fill="#C6DADB"/>
<path d="M97.2675 68.3081C97.5392 68.5889 98.7536 68.7604 99.0329 69.0125C106.939 68.8181 104.764 66.5939 106.299 64.2853C107.694 62.1873 109.109 60.9375 108.031 55.6654C107.532 53.2294 111.347 53.9937 112.734 57.164C112.799 57.3143 112.782 57.4569 112.723 57.5767C112.753 57.5837 112.785 57.5892 112.816 57.5952C112.908 57.4351 112.993 57.2735 113.09 57.1156C113.125 57.0584 113.208 57.1085 113.179 57.1679C113.106 57.3186 113.039 57.4732 112.969 57.6257C113.027 57.6338 113.076 57.6534 113.137 57.6589C113.212 57.6654 113.215 57.7786 113.137 57.7792C113.06 57.7797 112.981 57.7764 112.902 57.7737C112.917 60.821 110.177 63.2516 110.483 65.681C110.649 67.0076 111.333 68.7599 111.223 69.4882C111.116 70.2008 110.82 70.5601 110.493 70.7326C109.311 71.3576 108.676 72.5034 108.506 73.0739C108.233 73.9938 108.024 74.425 106.953 74.4119C104.399 74.3803 99.0318 70.5051 97.2082 68.3532C97.1832 68.3233 97.236 68.2759 97.2675 68.3081Z" fill="#C6DADB"/>
<path d="M106.25 51.6955C108.498 51.99 112.326 52.9405 113.464 55.1957C113.551 55.3672 113.612 55.5463 113.658 55.7275C113.659 55.7292 113.659 55.7314 113.66 55.733C114.049 57.2643 113.042 58.9773 111.277 58.5043C109.958 58.482 108.494 57.3622 107.331 57.0133C102.963 55.7041 101.71 56.5131 94.6588 59.6681C94.4367 59.7672 94.0632 59.6344 94.2265 59.4161C97.031 55.6649 101.196 51.0336 106.25 51.6955Z" fill="#30A0A6"/>
<path d="M112.597 86.3802C112.405 86.8755 112.338 87.3622 112.287 87.9659C112.09 90.2756 114.459 89.6104 118.368 88.7987C122.047 88.035 124.035 86.4096 126.493 87.0791C127.008 87.219 127.273 87.5565 127.304 87.9801C127.345 87.9545 127.39 87.936 127.437 87.9223C127.316 88.6082 127.001 89.2604 126.467 89.8173C124.338 92.0388 121.099 93.0567 119.474 93.4269C118.376 93.6773 117.91 94.0485 117.715 94.5809C117.427 94.2216 117.156 93.9064 116.677 94.005C113.647 94.6299 112.133 93.5755 111.62 92.8248C110.063 90.5483 110.953 88.299 112.259 86.237C112.351 86.0525 112.674 86.1837 112.597 86.3802Z" fill="#C6DADB"/>
<path d="M115.649 90.442C117.626 89.6858 119.96 89.2694 121.629 89.5476C122.521 89.6962 122.613 89.9613 122.194 90.2111C120.659 91.1251 118.987 91.117 117.872 90.9689C117.241 90.8851 116.388 90.7473 115.725 90.7185C115.193 90.6956 115.479 90.5073 115.649 90.442Z" fill="#30A0A6"/>
<path d="M96.0337 67.3726C97.4142 66.1402 97.9095 65.2262 100.441 63.5143C101.973 62.4778 103.633 61.6411 105.439 61.2574C108.54 60.5981 110.02 62.2269 108.694 64.4456C108.591 64.6177 105.768 64.8833 105.916 64.7331C106.791 63.8496 105.421 62.6711 103.964 63.0276C100.515 63.8719 98.2656 66.5049 96.2836 67.6328C96.1682 67.6992 95.5345 67.8185 96.0337 67.3726Z" fill="#C6DADB"/>
<path d="M111.546 113.103C112.69 113.49 114.103 113.97 115.376 113.968C115.371 113.969 115.365 113.973 115.359 113.975C112.305 114.993 112.212 117.492 112.212 117.492C112.212 117.492 112.759 118.893 113.158 120.729C112.738 119.724 112.176 118.777 111.546 117.87C110.588 116.49 109.015 112.247 111.546 113.103Z" fill="#C6DADB"/>
<path d="M106.309 70.5479C106.205 70.7341 105.965 70.8266 105.762 70.7705C103.257 70.0776 100.753 69.3802 98.2516 68.6759C97.7775 68.5425 97.814 67.8991 98.2516 67.7505C101.158 66.7641 103.955 65.5676 106.777 64.3668C106.927 64.3031 107.07 64.3232 107.188 64.3836C107.223 64.247 107.446 64.2574 107.475 64.3934C107.951 66.5594 107.373 68.6465 106.309 70.5479Z" fill="white"/>
<path d="M105.692 106.617C108.903 106.009 113.175 103.528 116.378 102.241C117.529 101.778 119.445 102.003 119.319 103.416C119.332 103.432 119.335 103.453 119.345 103.472C118.752 105.349 116.099 106.757 116.099 106.757C116.099 106.757 116.125 106.796 116.161 106.855C113.4 108.228 108.152 107.562 105.397 106.929C105.257 106.897 105.549 106.643 105.692 106.617Z" fill="#C6DADB"/>
<path d="M106.98 70.1987C105.205 69.821 100.673 68.9701 96.9876 67.9783C96.8739 67.9478 96.1994 68.1808 96.2941 68.2167C98.3523 69.0017 104.768 71.0169 106.689 71.0033C106.967 71.0017 107.272 70.2608 106.98 70.1987Z" fill="#30A0A6"/>
<path d="M50.7627 6.73242C47.2232 6.8232 42.6487 7.87155 38.4814 9.25293C34.3055 10.6372 30.6194 12.3288 28.835 13.667C26.9984 15.0443 23.9597 17.5304 21.0137 20.3613C18.058 23.2016 15.2378 26.3495 13.7959 29.0527C10.8371 34.6005 7.53809 40.843 6.80664 49.9883C6.07592 59.1243 9.39715 69.3347 11.626 74.2051C14.4556 80.3898 16.7337 83.7432 21.1465 92.127C25.1339 99.7022 26.4688 105.597 26.6064 110.458C26.7438 115.308 25.6854 119.106 24.9502 122.414C23.4538 129.147 18.7975 139.381 15.0977 146.781C13.2332 150.51 10.0252 155.67 7.06738 160.384C4.13434 165.058 1.46869 169.266 0.523438 171.298C0.526692 171.302 0.529236 171.308 0.533203 171.313C0.61528 171.418 0.785376 171.569 1.07812 171.764C1.65668 172.148 2.58268 172.615 3.8291 173.154C6.31349 174.228 9.97737 175.547 14.4434 177.021C23.3704 179.968 35.4525 183.518 47.5996 186.942C59.7452 190.366 71.95 193.664 81.1182 196.104C85.7019 197.325 89.5265 198.331 92.2051 199.032C93.3002 199.319 94.2041 199.554 94.8896 199.732C94.7696 199.59 94.6399 199.438 94.5029 199.275C93.64 198.25 92.4579 196.838 91.1836 195.285C88.6408 192.188 85.7089 188.512 84.2119 186.267C81.2777 181.865 79.5083 179.701 79.3154 175.46C79.1321 171.427 78.0388 169.661 76.6504 169.044C76.2959 168.886 75.773 168.768 75.1104 168.648C74.4739 168.534 73.7031 168.419 72.958 168.268C71.4805 167.967 69.8322 167.481 68.876 166.312C67.9094 165.131 67.7446 163.426 67.9561 161.453C68.1693 159.463 68.7824 157.065 69.5215 154.385C71.0174 148.963 75.1114 140.034 78.0938 135.188C79.5915 132.755 80.9931 131.179 82.6973 130.312C84.4083 129.442 86.3466 129.325 88.8252 129.63C93.0628 130.152 96.8742 130.671 100.051 130.98C103.242 131.291 105.719 131.38 107.304 131.071C109.716 130.602 112.04 129.103 112.84 126.066C113.27 124.429 113.016 122.353 112.627 120.635C112.435 119.786 112.214 119.043 112.041 118.513C111.955 118.248 111.88 118.037 111.828 117.893C111.802 117.821 111.781 117.766 111.768 117.729C111.761 117.711 111.755 117.696 111.752 117.688C111.75 117.683 111.749 117.68 111.748 117.678L111.747 117.676L111.709 117.579L111.713 117.475V117.474V117.468C111.713 117.465 111.714 117.462 111.714 117.458C111.714 117.45 111.715 117.439 111.716 117.427C111.718 117.401 111.721 117.366 111.727 117.323C111.737 117.238 111.755 117.119 111.787 116.977C111.852 116.691 111.972 116.302 112.2 115.879C112.661 115.022 113.545 114.053 115.201 113.501C115.919 113.262 117.136 112.259 116.9 110.526C116.753 109.447 116.445 108.567 116.175 107.959C116.04 107.655 115.915 107.42 115.825 107.264C115.78 107.185 115.745 107.127 115.721 107.089C115.709 107.07 115.7 107.056 115.694 107.048C115.692 107.044 115.689 107.041 115.688 107.039L115.37 106.576L115.866 106.313H115.867C115.868 106.313 115.871 106.311 115.874 106.31C115.88 106.306 115.89 106.3 115.903 106.293C115.93 106.278 115.971 106.256 116.022 106.226C116.126 106.165 116.275 106.076 116.451 105.96C116.806 105.727 117.266 105.395 117.697 104.991C118.6 104.147 119.194 103.171 118.878 102.207C118.24 100.26 117.033 99.1895 117.082 95.4561C117.089 94.9122 117.156 94.3496 117.534 93.8799C117.908 93.4157 118.513 93.1332 119.363 92.9395C120.963 92.5749 124.082 91.5829 126.106 89.4707C127.434 88.0856 127.271 85.9574 125.651 84.3379C125.458 84.1445 125.165 83.7696 124.814 83.292C124.456 82.8035 124.018 82.1776 123.527 81.4609C122.546 80.0272 121.352 78.2181 120.17 76.3877C118.988 74.5573 117.818 72.7023 116.884 71.1768C115.958 69.6645 115.244 68.4436 114.997 67.9004C114.039 65.7918 113.722 63.4352 114.33 61.6113C114.866 59.9992 115.675 56.1433 114.952 52.1895C113.236 42.8042 112.275 30.1533 102.73 21.2852C97.3447 16.2812 91.1294 14.111 87.0303 12.4346C86.0628 12.0388 83.7734 11.4678 80.7168 10.835C77.6796 10.2062 73.9324 9.52529 70.085 8.90137C62.37 7.65025 54.3176 6.64129 50.7627 6.73242Z" stroke="#30A0A6"/>
<path d="M107.628 65.6674C107.33 65.1013 106.891 64.7344 106.396 64.7344C105.497 64.7344 104.768 65.9162 104.768 67.3734C104.768 68.8312 105.497 70.0124 106.396 70.0124C106.468 70.0124 106.537 69.9928 106.607 69.9781C107.284 68.6151 107.686 67.166 107.628 65.6674Z" fill="#30A0A6"/>
<path d="M104.579 70.0417C104.435 70.0705 104.455 70.2654 104.579 70.3122C105.312 70.5866 106.978 70.1985 108.605 72.4107C108.631 72.4461 108.703 72.414 108.686 72.3633C108.209 70.9622 107.359 69.4897 104.579 70.0417Z" fill="#30A0A6"/>
<path d="M104.523 70.2962C104.411 70.3186 104.426 70.4693 104.523 70.5058C105.091 70.7186 106.381 70.4176 107.641 72.1318C107.661 72.159 107.717 72.1345 107.704 72.0953C107.334 71.0093 106.676 69.8684 104.523 70.2962Z" fill="#30A0A6"/>
<path d="M108.828 70.8996C108.095 70.1832 107.135 69.536 105.706 70.3737C105.84 70.4619 105.957 70.5692 106.076 70.6737C106.693 70.4794 107.553 70.3362 108.789 70.9611C108.819 70.9758 108.858 70.9284 108.828 70.8996Z" fill="#30A0A6"/>
<path d="M106.052 67.3673C106.013 68.3395 106.22 69.1375 106.514 69.149C106.808 69.1609 107.078 68.382 107.117 67.4097C107.156 66.4375 106.949 65.6395 106.655 65.6281C106.361 65.6161 106.091 66.3951 106.052 67.3673Z" fill="white"/>
<path d="M96.5058 68.0931C98.3915 67.6353 99.9293 67.0561 101.69 66.2418C103.433 65.435 105.082 64.6795 106.79 63.8504C107.375 63.5668 108.005 64.226 107.542 64.7606C104.971 67.7257 100.596 68.5661 96.8417 68.3969C96.7464 68.3925 96.4024 68.1181 96.5058 68.0931Z" fill="#30A0A6"/>
<path d="M106.981 64.4079C107.3 64.4651 107.55 64.6355 107.843 64.7672C108.221 64.9365 108.618 65.0459 109.025 65.1167C109.882 65.2658 110.673 65.1934 111.501 64.9332C111.574 64.9104 111.64 65.0182 111.566 65.0595C110.84 65.464 108.089 66.5848 106.312 65.0759C106.214 64.9931 106.846 64.3834 106.981 64.4079Z" fill="#30A0A6"/>
<path d="M104.293 66.0986C104.5 65.9701 104.682 65.8292 104.847 65.6816C105.13 65.8449 105.426 65.9849 105.735 66.0921C106.557 66.3768 107.349 66.4328 108.209 66.3098C108.285 66.2989 108.333 66.416 108.253 66.4448C107.601 66.68 105.481 67.1753 103.917 66.3055C104.043 66.245 104.168 66.1765 104.293 66.0986Z" fill="#30A0A6"/>
<path d="M107.507 63.9548C107.832 63.9842 108.484 64.2901 109.243 64.3016C110.079 64.3141 110.868 64.2406 111.645 63.9102C111.726 63.8753 111.779 64.0049 111.707 64.05C110.468 64.8307 108.018 65.657 106.888 64.2814C106.801 64.1747 107.398 63.945 107.507 63.9548Z" fill="#30A0A6"/>
<path d="M105.19 65.2514C105.153 65.1175 105.425 64.7321 105.575 64.7925C106.078 64.995 106.428 65.4082 106.897 65.6711C107.436 65.9732 108.052 66.1191 108.664 66.1719C108.742 66.1784 108.734 66.2835 108.665 66.3026C107.364 66.6602 105.532 66.4762 105.19 65.2514Z" fill="#30A0A6"/>
<path d="M104.637 107.112C104.766 106.828 104.886 106.661 105.107 106.421C105.197 106.324 106.023 105.522 106.124 105.316C106.148 105.268 106.229 105.291 106.225 105.344C106.205 105.658 106.1 105.967 106.082 106.274C106.062 106.601 106.046 106.782 105.832 107.069C105.629 107.34 105.439 107.515 105.117 107.597C104.824 107.671 104.498 107.798 104.193 107.768C104.177 107.766 104.163 107.749 104.174 107.733C104.312 107.514 104.529 107.352 104.637 107.112Z" fill="#30A0A6"/>
<path d="M105.449 106.833C106.808 106.881 114.718 106.808 116.485 106.53C116.25 106.676 116.099 106.756 116.099 106.756C116.099 106.756 116.187 106.887 116.311 107.112C113.604 107.87 107.612 107.697 105.199 107.258C104.881 107.2 105.074 106.82 105.449 106.833Z" fill="#30A0A6"/>
<path d="M26.6713 7.98098C8.99707 19.5164 0.437439 34.1145 1.66582 70.2902C1.87159 76.3499 2.53177 101.621 2.99707 107.614C4.758 130.297 7.88972 134.549 10.4971 137.614C16.4507 144.614 28.9507 149.614 34.9971 150.614C42.3929 151.837 59.4971 154.614 59.4971 142.614C59.4971 131.378 38.9971 77.1207 42.1794 77.1207C42.1794 77.1207 53.4971 81.6143 59.4971 79.6143C62.4971 78.6143 63.4971 76.6143 63.4971 73.6143C69.4892 73.6143 72.4127 70.6954 74.4889 68.6224L74.4971 68.6143C77.104 66.0122 80.4971 57.6143 80.767 49.3982C86.6869 47.3547 97.8816 44.4919 102.909 38.7746C106.064 35.1873 112.097 27.8967 108.965 19.5164C106.143 11.9662 94.1859 10.2346 78.7796 3.99683C62.4408 -2.61871 42.4222 -0.83865 26.6713 7.98098Z" fill="#E67D14"/>
<path d="M36.1518 54.9258C39.4233 52.2977 47.1749 53.5045 50.526 59.5065C53.1079 64.1308 54.6593 70.4013 55.1949 72.0991C56.1639 75.1703 58.424 78.6744 57.6173 81.9791C57.0577 84.2692 55.5983 87.9616 53.0937 88.7591C50.5265 89.5761 47.2179 87.089 45.1793 85.7728C39.7875 82.29 35.3782 77.1823 33.4632 70.9897C32.0702 66.489 31.0321 59.0384 36.1518 54.9258Z" fill="#F4FAFA"/>
<path d="M50.3657 65.3898C49.5437 63.4236 47.1562 59.8701 43.7333 58.2708C40.3104 56.6715 38.2173 58.4205 37.0029 59.7411C35.157 61.7487 34.9888 67.4905 38.2413 73.4578C40.4655 77.5382 43.2134 80.2448 45.4159 81.5708C47.6183 82.8969 49.0908 84.537 50.3298 84.5326C52.9933 84.5228 54.1734 80.7994 52.26 80.321C51.4201 80.1108 49.5813 79.1882 50.2824 76.1294C50.9841 73.0718 53.5981 73.1213 50.3657 65.3898Z" fill="#C6DADB"/>
</svg>
