<svg width="162" height="203" viewBox="0 0 162 203" fill="none" xmlns="http://www.w3.org/2000/svg">
<path d="M112.044 135.45C110.237 138.388 108.017 142.843 106.223 147.09C104.33 142.656 101.757 136.883 98.6681 132.753C95.3655 128.337 94.4118 116.995 92.3008 111.929C90.7232 108.144 89.0956 105.108 85.3918 103.421C78.135 100.115 72.2467 96.6624 70.2522 93.7283C69.7275 92.9483 80.6946 76.8299 81.1279 77.6546C90.0145 94.5819 91.6464 101.701 95.8739 107.97C97.6948 110.67 101.071 114.523 103.578 116.645C106.216 118.877 112.877 123.788 129.26 127.537C133.884 128.595 140.043 131.288 145.903 128.36C144.713 130.201 142.829 131.192 140.923 131.563C137.591 132.211 130.744 131.167 122.289 130.127C117.413 129.526 115.006 130.637 112.044 135.45Z" fill="#C6DADB"/>
<path d="M130.793 68.3081C131.065 68.5889 132.279 68.7604 132.558 69.0125C140.464 68.8181 138.289 66.5939 139.824 64.2853C141.219 62.1873 142.635 60.9375 141.556 55.6654C141.057 53.2294 144.873 53.9937 146.259 57.164C146.324 57.3143 146.307 57.4569 146.248 57.5767C146.279 57.5837 146.31 57.5892 146.341 57.5952C146.433 57.4351 146.519 57.2735 146.616 57.1156C146.651 57.0584 146.733 57.1085 146.704 57.1679C146.631 57.3186 146.565 57.4732 146.495 57.6257C146.553 57.6338 146.602 57.6534 146.662 57.6589C146.738 57.6654 146.74 57.7786 146.662 57.7792C146.586 57.7797 146.506 57.7764 146.427 57.7737C146.443 60.821 143.703 63.2516 144.008 65.681C144.175 67.0076 144.858 68.7599 144.749 69.4882C144.641 70.2008 144.346 70.5601 144.019 70.7326C142.836 71.3576 142.202 72.5034 142.032 73.0739C141.758 73.9938 141.549 74.425 140.478 74.4119C137.924 74.3803 132.557 70.5051 130.734 68.3532C130.709 68.3233 130.761 68.2759 130.793 68.3081Z" fill="#C6DADB"/>
<path d="M139.776 51.6955C142.024 51.99 145.852 52.9405 146.989 55.1957C147.076 55.3672 147.137 55.5463 147.184 55.7275C147.185 55.7292 147.184 55.7314 147.185 55.733C147.575 57.2643 146.568 58.9773 144.802 58.5043C143.484 58.482 142.019 57.3622 140.856 57.0133C136.489 55.7041 135.235 56.5131 128.184 59.6681C127.962 59.7672 127.589 59.6344 127.752 59.4161C130.556 55.6649 134.722 51.0336 139.776 51.6955Z" fill="#30A0A6"/>
<path d="M146.123 86.3802C145.931 86.8755 145.864 87.3622 145.812 87.9659C145.615 90.2756 147.984 89.6104 151.893 88.7987C155.572 88.035 157.561 86.4096 160.019 87.0791C160.533 87.219 160.798 87.5565 160.829 87.9801C160.87 87.9545 160.915 87.936 160.962 87.9223C160.842 88.6082 160.526 89.2604 159.992 89.8173C157.863 92.0388 154.624 93.0567 152.999 93.4269C151.901 93.6773 151.436 94.0485 151.241 94.5809C150.952 94.2216 150.682 93.9064 150.203 94.005C147.172 94.6299 145.658 93.5755 145.146 92.8248C143.588 90.5483 144.478 88.299 145.785 86.237C145.877 86.0525 146.199 86.1837 146.123 86.3802Z" fill="#C6DADB"/>
<path d="M149.174 90.442C151.151 89.6858 153.485 89.2694 155.155 89.5476C156.047 89.6962 156.138 89.9613 155.719 90.2111C154.184 91.1251 152.513 91.117 151.397 90.9689C150.767 90.8851 149.914 90.7473 149.251 90.7185C148.719 90.6956 149.004 90.5073 149.174 90.442Z" fill="#30A0A6"/>
<path d="M129.559 67.3726C130.94 66.1402 131.435 65.2262 133.966 63.5143C135.498 62.4778 137.159 61.6411 138.964 61.2574C142.065 60.5981 143.545 62.2269 142.219 64.4456C142.116 64.6177 139.293 64.8833 139.441 64.7331C140.316 63.8496 138.946 62.6711 137.49 63.0276C134.04 63.8719 131.791 66.5049 129.809 67.6328C129.694 67.6992 129.06 67.8185 129.559 67.3726Z" fill="#C6DADB"/>
<path d="M145.071 113.103C146.215 113.49 147.628 113.97 148.901 113.968C148.896 113.969 148.89 113.973 148.884 113.975C145.83 114.993 145.738 117.492 145.738 117.492C145.738 117.492 146.285 118.893 146.683 120.729C146.263 119.724 145.701 118.777 145.071 117.87C144.113 116.49 142.541 112.247 145.071 113.103Z" fill="#C6DADB"/>
<path d="M139.834 70.5479C139.73 70.7341 139.491 70.8266 139.287 70.7705C136.782 70.0776 134.279 69.3802 131.777 68.6759C131.303 68.5425 131.339 67.8991 131.777 67.7505C134.683 66.7641 137.481 65.5676 140.302 64.3668C140.452 64.3031 140.595 64.3232 140.714 64.3836C140.748 64.247 140.971 64.2574 141.001 64.3934C141.476 66.5594 140.899 68.6465 139.834 70.5479Z" fill="white"/>
<path d="M139.218 106.617C142.429 106.009 146.7 103.528 149.903 102.241C151.054 101.778 152.971 102.003 152.844 103.416C152.857 103.432 152.861 103.453 152.87 103.472C152.278 105.349 149.625 106.757 149.625 106.757C149.625 106.757 149.65 106.796 149.687 106.855C146.925 108.228 141.677 107.562 138.922 106.929C138.783 106.897 139.075 106.643 139.218 106.617Z" fill="#C6DADB"/>
<path d="M140.506 70.1987C138.731 69.821 134.198 68.9701 130.513 67.9783C130.399 67.9478 129.725 68.1808 129.82 68.2167C131.878 69.0017 138.293 71.0169 140.215 71.0033C140.493 71.0017 140.797 70.2608 140.506 70.1987Z" fill="#30A0A6"/>
<path d="M84.2881 6.73242C80.7486 6.8232 76.1741 7.87155 72.0068 9.25293C67.8309 10.6372 64.1448 12.3288 62.3604 13.667C60.5238 15.0443 57.4851 17.5304 54.5391 20.3613C51.5834 23.2016 48.7632 26.3495 47.3213 29.0527C44.3625 34.6005 41.0635 40.843 40.332 49.9883C39.6013 59.1243 42.9225 69.3347 45.1514 74.2051C47.981 80.3898 50.2591 83.7432 54.6719 92.127C58.6593 99.7022 59.9941 105.597 60.1318 110.458C60.2692 115.308 59.2108 119.106 58.4756 122.414C56.9792 129.147 52.3229 139.381 48.623 146.781C46.7586 150.51 43.5506 155.67 40.5928 160.384C37.6597 165.058 34.9941 169.266 34.0488 171.298C34.0521 171.302 34.0546 171.308 34.0586 171.313C34.1407 171.418 34.3108 171.569 34.6035 171.764C35.1821 172.148 36.1081 172.615 37.3545 173.154C39.8389 174.228 43.5028 175.547 47.9688 177.021C56.8958 179.968 68.9779 183.518 81.125 186.942C93.2706 190.366 105.475 193.664 114.644 196.104C119.227 197.325 123.052 198.331 125.73 199.032C126.826 199.319 127.729 199.554 128.415 199.732C128.295 199.59 128.165 199.438 128.028 199.275C127.165 198.25 125.983 196.838 124.709 195.285C122.166 192.188 119.234 188.512 117.737 186.267C114.803 181.865 113.034 179.701 112.841 175.46C112.658 171.427 111.564 169.661 110.176 169.044C109.821 168.886 109.298 168.768 108.636 168.648C107.999 168.534 107.228 168.419 106.483 168.268C105.006 167.967 103.358 167.481 102.401 166.312C101.435 165.131 101.27 163.426 101.481 161.453C101.695 159.463 102.308 157.065 103.047 154.385C104.543 148.963 108.637 140.034 111.619 135.188C113.117 132.755 114.518 131.179 116.223 130.312C117.934 129.442 119.872 129.325 122.351 129.63C126.588 130.152 130.4 130.671 133.576 130.98C136.767 131.291 139.244 131.38 140.829 131.071C143.242 130.602 145.566 129.103 146.365 126.066C146.796 124.429 146.542 122.353 146.152 120.635C145.96 119.786 145.739 119.043 145.566 118.513C145.48 118.248 145.406 118.037 145.354 117.893C145.328 117.821 145.307 117.766 145.293 117.729C145.286 117.711 145.281 117.696 145.277 117.688C145.276 117.683 145.274 117.68 145.273 117.678L145.272 117.676L145.234 117.579L145.238 117.475V117.474V117.468C145.238 117.465 145.239 117.462 145.239 117.458C145.24 117.45 145.24 117.439 145.241 117.427C145.243 117.401 145.247 117.366 145.252 117.323C145.262 117.238 145.28 117.119 145.312 116.977C145.377 116.691 145.498 116.302 145.726 115.879C146.187 115.022 147.071 114.053 148.727 113.501C149.444 113.262 150.662 112.259 150.426 110.526C150.279 109.447 149.97 108.567 149.7 107.959C149.565 107.655 149.44 107.42 149.351 107.264C149.306 107.185 149.27 107.127 149.246 107.089C149.234 107.07 149.225 107.056 149.22 107.048C149.217 107.044 149.215 107.041 149.214 107.039L148.896 106.576L149.392 106.313H149.393C149.394 106.313 149.396 106.311 149.399 106.31C149.406 106.306 149.415 106.3 149.429 106.293C149.455 106.278 149.496 106.256 149.548 106.226C149.651 106.165 149.8 106.076 149.977 105.96C150.331 105.727 150.792 105.395 151.223 104.991C152.125 104.147 152.719 103.171 152.403 102.207C151.765 100.26 150.558 99.1895 150.607 95.4561C150.615 94.9122 150.681 94.3496 151.06 93.8799C151.434 93.4157 152.038 93.1332 152.889 92.9395C154.488 92.5749 157.608 91.5829 159.632 89.4707C160.959 88.0856 160.796 85.9574 159.177 84.3379C158.984 84.1445 158.69 83.7696 158.34 83.292C157.982 82.8035 157.543 82.1776 157.053 81.4609C156.072 80.0272 154.877 78.2181 153.695 76.3877C152.514 74.5573 151.343 72.7023 150.409 71.1768C149.483 69.6645 148.769 68.4436 148.522 67.9004C147.564 65.7918 147.248 63.4352 147.855 61.6113C148.392 59.9992 149.201 56.1433 148.478 52.1895C146.762 42.8042 145.801 30.1533 136.256 21.2852C130.87 16.2812 124.655 14.111 120.556 12.4346C119.588 12.0388 117.299 11.4678 114.242 10.835C111.205 10.2062 107.458 9.52529 103.61 8.90137C95.8954 7.65025 87.843 6.64129 84.2881 6.73242Z" stroke="#30A0A6"/>
<path d="M141.154 65.6674C140.855 65.1013 140.417 64.7344 139.921 64.7344C139.022 64.7344 138.293 65.9162 138.293 67.3734C138.293 68.8312 139.022 70.0124 139.921 70.0124C139.994 70.0124 140.062 69.9928 140.132 69.9781C140.809 68.6151 141.211 67.166 141.154 65.6674Z" fill="#30A0A6"/>
<path d="M138.105 70.0417C137.96 70.0705 137.98 70.2654 138.105 70.3122C138.837 70.5866 140.504 70.1985 142.13 72.4107C142.156 72.4461 142.229 72.414 142.211 72.3633C141.734 70.9622 140.885 69.4897 138.105 70.0417Z" fill="#30A0A6"/>
<path d="M138.048 70.2962C137.937 70.3186 137.951 70.4693 138.048 70.5058C138.616 70.7186 139.907 70.4176 141.166 72.1318C141.186 72.159 141.243 72.1345 141.229 72.0953C140.86 71.0093 140.202 69.8684 138.048 70.2962Z" fill="#30A0A6"/>
<path d="M142.354 70.8996C141.621 70.1832 140.66 69.536 139.231 70.3737C139.366 70.4619 139.482 70.5692 139.602 70.6737C140.219 70.4794 141.079 70.3362 142.315 70.9611C142.345 70.9758 142.383 70.9284 142.354 70.8996Z" fill="#30A0A6"/>
<path d="M139.578 67.3673C139.539 68.3395 139.746 69.1375 140.04 69.149C140.334 69.1609 140.604 68.382 140.643 67.4097C140.681 66.4375 140.475 65.6395 140.181 65.6281C139.887 65.6161 139.617 66.3951 139.578 67.3673Z" fill="white"/>
<path d="M130.031 68.0931C131.917 67.6353 133.455 67.0561 135.215 66.2418C136.959 65.435 138.607 64.6795 140.316 63.8504C140.9 63.5668 141.531 64.226 141.067 64.7606C138.496 67.7257 134.121 68.5661 130.367 68.3969C130.272 68.3925 129.928 68.1181 130.031 68.0931Z" fill="#30A0A6"/>
<path d="M140.506 64.4079C140.825 64.4651 141.075 64.6355 141.369 64.7672C141.746 64.9365 142.143 65.0459 142.551 65.1167C143.407 65.2658 144.198 65.1934 145.027 64.9332C145.1 64.9104 145.166 65.0182 145.092 65.0595C144.365 65.464 141.615 66.5848 139.837 65.0759C139.739 64.9931 140.371 64.3834 140.506 64.4079Z" fill="#30A0A6"/>
<path d="M137.818 66.0986C138.026 65.9701 138.207 65.8292 138.372 65.6816C138.656 65.8449 138.951 65.9849 139.261 66.0921C140.082 66.3768 140.875 66.4328 141.734 66.3098C141.81 66.2989 141.858 66.416 141.778 66.4448C141.126 66.68 139.006 67.1753 137.443 66.3055C137.568 66.245 137.693 66.1765 137.818 66.0986Z" fill="#30A0A6"/>
<path d="M141.033 63.9548C141.357 63.9842 142.009 64.2901 142.768 64.3016C143.605 64.3141 144.393 64.2406 145.17 63.9102C145.252 63.8753 145.305 64.0049 145.233 64.05C143.993 64.8307 141.543 65.657 140.414 64.2814C140.326 64.1747 140.923 63.945 141.033 63.9548Z" fill="#30A0A6"/>
<path d="M138.716 65.2514C138.679 65.1175 138.95 64.7321 139.1 64.7925C139.603 64.995 139.953 65.4082 140.422 65.6711C140.962 65.9732 141.578 66.1191 142.189 66.1719C142.268 66.1784 142.259 66.2835 142.191 66.3026C140.889 66.6602 139.057 66.4762 138.716 65.2514Z" fill="#30A0A6"/>
<path d="M138.162 107.112C138.291 106.828 138.411 106.661 138.633 106.421C138.723 106.324 139.549 105.522 139.65 105.316C139.673 105.268 139.755 105.291 139.751 105.344C139.731 105.658 139.626 105.967 139.607 106.274C139.588 106.601 139.572 106.782 139.357 107.069C139.155 107.34 138.965 107.515 138.642 107.597C138.349 107.671 138.023 107.798 137.719 107.768C137.702 107.766 137.689 107.749 137.699 107.733C137.837 107.514 138.054 107.352 138.162 107.112Z" fill="#30A0A6"/>
<path d="M138.975 106.833C140.334 106.881 148.244 106.808 150.011 106.53C149.776 106.676 149.625 106.756 149.625 106.756C149.625 106.756 149.712 106.887 149.836 107.112C147.129 107.87 141.137 107.697 138.724 107.258C138.406 107.2 138.599 106.82 138.975 106.833Z" fill="#30A0A6"/>
<path d="M60.1967 7.98098C42.5225 19.5164 33.9628 34.1145 35.1912 70.2902C26.635 81.3982 18.3225 101.314 25.5225 124.114C32.7225 146.914 9.43265 141.588 1.52246 168.614C-4.47754 189.114 8.52246 200.114 18.5225 200.114C28.5225 200.114 38.5225 196.62 51.5225 200.114C70.8683 205.314 97.2499 202.281 108.022 200.114C119.522 196.614 124.531 188.314 112.305 183.114C100.079 177.914 100.522 162.614 100.522 152.114C100.522 141.614 95.0225 129.114 90.5225 115.614C87.0382 105.162 91.6641 86.6228 84.9502 79.7118C87.8052 80.2028 90.7839 80.3604 93.0225 79.6143C96.0225 78.6143 97.0225 76.6143 97.0225 73.6143C103.015 73.6143 105.938 70.6954 108.014 68.6224L108.022 68.6143C110.629 66.0122 114.022 57.6143 114.292 49.3982C120.212 47.3547 131.407 44.4919 136.435 38.7746C139.589 35.1873 145.622 27.8967 142.49 19.5164C139.668 11.9662 127.711 10.2346 112.305 3.99683C95.9662 -2.61871 75.9476 -0.83865 60.1967 7.98098Z" fill="#E67D14"/>
<path d="M69.6772 54.9258C72.9487 52.2977 80.7003 53.5045 84.0514 59.5065C86.6332 64.1308 88.1847 70.4013 88.7203 72.0991C89.6892 75.1703 91.9494 78.6744 91.1427 81.9791C90.5831 84.2692 89.1237 87.9616 86.6191 88.7591C84.0519 89.5761 80.7433 87.089 78.7047 85.7728C73.3129 82.29 68.9036 77.1823 66.9886 70.9897C65.5956 66.489 64.5575 59.0384 69.6772 54.9258Z" fill="#F4FAFA"/>
<path d="M83.8911 65.3898C83.0691 63.4236 80.6816 59.8701 77.2587 58.2708C73.8358 56.6715 71.7427 58.4205 70.5283 59.7411C68.6824 61.7487 68.5142 67.4905 71.7667 73.4578C73.9909 77.5382 76.7388 80.2448 78.9413 81.5708C81.1437 82.8969 82.6162 84.537 83.8551 84.5326C86.5187 84.5228 87.6988 80.7994 85.7854 80.321C84.9455 80.1108 83.1067 79.1882 83.8078 76.1294C84.5095 73.0718 87.1235 73.1213 83.8911 65.3898Z" fill="#C6DADB"/>
</svg>
