<svg width="1440" height="330" viewBox="0 0 1440 330" fill="none" xmlns="http://www.w3.org/2000/svg">
<path d="M600.5 287.918C597.627 329.621 529.984 319.61 523 287.918C505.763 306.612 482.394 295.302 480 283.917C464 306.417 425.536 285.932 421.945 267.358C360.18 309.06 317.207 278.742 303.441 258.37C287.641 265.56 277.706 255.374 274.713 249.382C271.84 273.829 251.97 271.552 242.394 267.358C235.212 300.432 216.872 293.409 205.5 287.417C199.198 297.609 181.347 290.417 181.347 279.94C154.055 290.007 124 267.358 127 249.382C116.945 256.573 108.5 249.382 108.5 238.417C101.318 244.17 84 235.417 79.5 218.417C76 232.917 65.5 242.917 48 235.417C48 271.917 12.5 294.917 0 290.726V0H1440V270.953C1382.54 322.722 1306.5 297.917 1287.38 263.763C1224 283.917 1208 229.417 1224 197.417C1208.2 197.417 1198.2 182.874 1201.2 173.886C1190 190.417 1172.84 187.417 1170.5 177.417C1179.33 215.166 1148 219.917 1136.56 211.634C1131 231.417 1106.5 230.417 1099.5 214.417C1066 245.917 1009 223.917 1001 197.417C1003.87 234.806 982.5 247.417 966 240.918C962.5 270.417 930.5 273.917 918 256.418C918 278.418 903 283.418 894.5 278.418C888 339.418 824.5 335.417 797.5 319.418C786.5 335.918 764.5 330.918 760.5 319.418C724.59 328.046 713.803 308.701 715 290.726C704.945 293.602 680.288 282.612 675.5 278.418C658.263 289.922 637.084 279.711 630.5 274.918C623.318 292.174 609 295.418 600.5 287.918Z" fill="white"/>
</svg>
